<svg width="58" height="58" fill="none" xmlns="http://www.w3.org/2000/svg"><path d="M51 20H7v24a2 2 0 002 2h40a2 2 0 002-2V20z" fill="url(#paint0_linear)"/><path d="M25.013 35.688H21.93l-.586 1.757h-1.87l3.176-8.53h1.63l3.193 8.53h-1.87l-.591-1.758zm-2.608-1.424h2.133l-1.072-3.194-1.06 3.194zm7.863.175v3.006h-1.757v-8.53h3.328c.64 0 1.203.116 1.687.35.488.235.863.569 1.125 1.003.262.43.393.92.393 1.47 0 .836-.287 1.496-.861 1.98-.57.481-1.362.721-2.373.721h-1.542zm0-1.423h1.57c.466 0 .82-.11 1.061-.328.246-.22.37-.532.37-.938 0-.418-.124-.756-.37-1.014s-.586-.39-1.02-.398h-1.61v2.678zm8.098 4.43h-1.758v-8.532h1.758v8.531z" fill="#fff"/><path d="M51 19.445H7v4h44v-4z" fill="#222733" fill-opacity=".12"/><path d="M51 20H7v-7c0-1.105.856-2 1.913-2h40.174c1.057 0 1.913.895 1.913 2v7z" fill="#64DCD2"/><path d="M51 20H7v-7c0-1.105.856-2 1.913-2h40.174c1.057 0 1.913.895 1.913 2v7z" fill="url(#paint1_linear)" fill-opacity=".4" style="mix-blend-mode:overlay"/><path d="M11.783 17c.792 0 1.434-.672 1.434-1.5s-.643-1.5-1.434-1.5c-.792 0-1.435.672-1.435 1.5s.643 1.5 1.434 1.5zM16.565 17c.792 0 1.435-.672 1.435-1.5s-.643-1.5-1.435-1.5-1.434.672-1.434 1.5.642 1.5 1.434 1.5zM21.348 17c.792 0 1.435-.672 1.435-1.5S22.14 14 21.348 14s-1.435.672-1.435 1.5.643 1.5 1.435 1.5z" fill="#fff"/><defs><linearGradient id="paint0_linear" x1="7" y1="27" x2="30.935" y2="60.385" gradientUnits="userSpaceOnUse"><stop stop-color="#64DCD2"/><stop offset="1" stop-color="#24C4BC"/></linearGradient><linearGradient id="paint1_linear" x1="14.607" y1="12.656" x2="20.127" y2="27.794" gradientUnits="userSpaceOnUse"><stop stop-color="#fff"/><stop offset="1" stop-color="#fff" stop-opacity="0"/></linearGradient></defs></svg>