<svg width="64" height="64" fill="none" xmlns="http://www.w3.org/2000/svg"><path d="M58.224 34.721h-1.196c-.517-3.738-2.844-7.12-6.345-9.727v-6.431c-2.984 0-5.462 1.088-7.12 2.779-3.221-1.088-6.83-1.702-10.654-1.702-13.121 0-23.808 7.185-24.217 16.158H8.67a2.16 2.16 0 01-2.154 2.155 2.16 2.16 0 01-2.155-2.155 2.16 2.16 0 012.155-2.154V31.49a4.308 4.308 0 00-4.31 4.308 4.308 4.308 0 004.31 4.31c.862 0 1.648-.259 2.327-.69.84 7.843 4.75 13.196 7.54 16.17.41.441.98.69 1.584.69h7.487v-4.04c2.348.527 4.848.807 7.455.807 1.723 0 3.393-.129 5.02-.366l2.52 3.598h4.633c.861 0 1.637-.506 1.982-1.303l2.844-6.582 10.47-6.13v-5.386c0-1.196-.97-2.155-2.154-2.155z" fill="url(#paint0_linear)"/><path d="M16.114 48.36c.464 1.777 7.132 5.709 9.34 5.709v-1.853c-3.544-.787-6.722-2.111-9.34-3.857z" fill="#A32626"/><path d="M50.683 36.337a1.616 1.616 0 100-3.232 1.616 1.616 0 000 3.232z" fill="#fff"/><path d="M42.593 28.935C39.437 27.372 36 26.586 32.37 26.586c-3.576 0-7.12.808-10.234 2.338l-.948-1.928c3.415-1.67 7.282-2.564 11.182-2.564 3.964 0 7.724.861 11.182 2.574l-.959 1.929zM37.929 52.658l.99 1.41s7.175-1.777 8.414-4.33c-2.758 1.412-5.946 2.424-9.404 2.92z" fill="#A32626"/><path d="M26.284 27.384a23.545 23.545 0 016.086-.808c2.1 0 4.137.27 6.086.798a10.69 10.69 0 002.597-2.521 10.65 10.65 0 002.09-6.356c0-5.946-4.827-10.772-10.773-10.772S21.597 12.55 21.597 18.497c0 2.38.776 4.578 2.08 6.356a10.772 10.772 0 002.607 2.531z" fill="#F8BDB8"/><defs><linearGradient id="paint0_linear" x1="22.343" y1="20.648" x2="43.593" y2="57.453" gradientUnits="userSpaceOnUse"><stop stop-color="#DB7373"/><stop offset="1" stop-color="#CF4545"/></linearGradient></defs></svg>