<svg width="58" height="58" fill="none" xmlns="http://www.w3.org/2000/svg"><path d="M47.75 16h-37.5v26h37.5V16z" fill="#fff"/><path d="M50.635 42V12c0-1.1-.866-2-1.923-2H9.288c-1.057 0-1.923.9-1.923 2v30H4v4c0 1.1.865 2 1.923 2h46.154C53.135 48 54 47.1 54 46v-4h-3.365zm-17.481 2H24.76l-1.53-2H10.25V16h37.5v26H34.846l-1.692 2z" fill="url(#paint0_linear)"/><path d="M29 14.5c.797 0 1.442-.672 1.442-1.5s-.645-1.5-1.442-1.5c-.797 0-1.442.672-1.442 1.5s.645 1.5 1.442 1.5z" fill="#fff"/><path d="M41.5 42h-1.99l-.616 6h1.923l.683-6z" fill="#0F72AB"/><path d="M25.78 21.787l-6.119 6.363 1.02 1.061 6.12-6.364-1.02-1.06zM32.22 21.787l-1.02 1.06 6.119 6.365 1.02-1.061-6.12-6.364z" fill="#0069A6"/><path d="M43.423 28H14.577v4h28.846v-4zM38.894 48H19.106l-1.644-16h23.077l-1.645 16z" fill="#0069A6"/><path d="M24.192 36H22.27v8h1.923v-8zM29.961 36h-1.923v8h1.923v-8zM35.73 36h-1.922v8h1.923v-8z" fill="#fff"/><path d="M17.664 34h22.673l.202-2H17.462l.202 2z" fill="#004D81"/><defs><linearGradient id="paint0_linear" x1="7.809" y1="9.752" x2="20.713" y2="55.628" gradientUnits="userSpaceOnUse"><stop stop-color="#6BC9F2"/><stop offset=".025" stop-color="#30B5EE"/><stop offset="1" stop-color="#0082CD"/></linearGradient></defs></svg>