<svg width="58" height="58" fill="none" xmlns="http://www.w3.org/2000/svg"><path d="M24 47.973h19.79c6.56 0 11.89-5.32 11.89-11.89v-.23c0-6.56-5.32-11.89-11.89-11.89H24v24.01z" fill="#0069A6"/><path d="M30.19 11.003c-7.1-.13-13.19 4.59-15.46 11 0 .01-.01.02-.01.03C8.14 22.683 3 28.223 3 34.973c0 7.18 5.82 13 13 13h15.72c7.89 0 14.28-6.39 14.28-14.28v-6.57c0-8.8-7.05-15.95-15.81-16.12z" fill="url(#paint0_linear)"/><path d="M38.8 32.543l-3 3v-12.41h-1.6v12.41l-3-3-1.13 1.13 4.93 4.93 4.93-4.93-1.13-1.13zM19.07 28.182l1.13 1.13 3-3v12.57h1.6v-12.57l3 3 1.13-1.13-4.93-4.93-4.93 4.93z" fill="#fff"/><defs><linearGradient id="paint0_linear" x1="6.276" y1="10.758" x2="20.194" y2="54.497" gradientUnits="userSpaceOnUse"><stop stop-color="#6BC9F2"/><stop offset=".025" stop-color="#30B5EE"/><stop offset="1" stop-color="#0082CD"/></linearGradient></defs></svg>