<svg width="58" height="58" fill="none" xmlns="http://www.w3.org/2000/svg"><path d="M46.06 50.4L32.13 36.48l4.35-4.34L50.4 46.06c.8.8.8 2.1 0 2.9l-1.44 1.44c-.81.8-2.1.8-2.9 0z" fill="#765397"/><path d="M36.49 32.14l-4.35 4.34 7.78 7.78 4.35-4.34-7.78-7.78z" fill="#4D3673"/><path d="M25.44 43.88a18.44 18.44 0 100-36.88 18.44 18.44 0 000 36.88z" fill="url(#paint0_linear)"/><path d="M25.86 24.01c-2.6-.3-3.44-1.66-3.38-2.74.07-1.18 1.21-2.37 3.26-2.37 2.67 0 3.28 1.71 3.28 2.32h2.05c0-1.58-1.26-4.02-4.6-4.32v-1.7h-2.05V17c-2.48.49-3.87 2.32-3.98 4.16-.12 2.1 1.43 4.44 5.19 4.9 2.6.3 3.45 1.66 3.39 2.73-.07 1.18-1.22 2.36-3.27 2.36-2.44 0-3.56-1.08-3.56-2.09h-2.04c0 1.76 1.35 3.61 4.27 4.05v1.73h2.05v-1.7c2.86-.3 4.47-2.26 4.59-4.24.12-2.1-1.44-4.43-5.2-4.89z" fill="#fff"/><defs><linearGradient id="paint0_linear" x1="16.22" y1="9.47" x2="34.66" y2="41.41" gradientUnits="userSpaceOnUse"><stop stop-color="#A687BE"/><stop offset="1" stop-color="#8769AE"/></linearGradient></defs></svg>