<svg width="64" height="64" fill="none" xmlns="http://www.w3.org/2000/svg"><path d="M14.95 53.448l3.692-3.68c.78-.781.905-2.152.226-3.012a16.66 16.66 0 01-3.59-10.361c.012-8.822 7.123-16.273 15.922-16.692 9.58-.453 17.518 7.213 17.518 16.703 0 3.873-1.325 7.44-3.533 10.27-.714.918-.68 2.22.147 3.047l3.725 3.714c.929.928 2.48.894 3.318-.125 4.235-5.095 6.59-11.8 6.025-19.058-1.031-12.977-11.664-23.429-24.664-24.267-15.4-.985-28.219 11.234-28.219 26.419a26.366 26.366 0 006.115 16.918c.838 1.019 2.39 1.053 3.318.124z" fill="url(#paint0_linear)"/><path d="M36.737 36.226l4.62-7.927-1.075-1.11-8.165 4.462a4.804 4.804 0 014.62 4.575z" fill="#6CA300"/><path d="M31.959 33.02a3.407 3.407 0 013.397 3.398 3.407 3.407 0 01-3.397 3.397 3.407 3.407 0 01-3.397-3.397 3.4 3.4 0 013.397-3.397zm0-2.264a5.664 5.664 0 00-5.662 5.662 5.664 5.664 0 005.662 5.662 5.664 5.664 0 005.662-5.662 5.664 5.664 0 00-5.662-5.662z" fill="#88BD1F"/><defs><linearGradient id="paint0_linear" x1="18.75" y1="13.481" x2="44.475" y2="58.037" gradientUnits="userSpaceOnUse"><stop stop-color="#AFD73E"/><stop offset="1" stop-color="#88BD1F"/></linearGradient></defs></svg>