<svg width="58" height="58" fill="none" xmlns="http://www.w3.org/2000/svg"><path d="M32 51c10.493 0 19-8.507 19-19s-8.507-19-19-19-19 8.507-19 19 8.507 19 19 19z" fill="#6CA300"/><path d="M32 13c-10.49 0-19 8.51-19 19 0 4.28 1.43 8.21 3.81 11.39 3.18 2.38 7.11 3.81 11.39 3.81 10.49 0 19-8.51 19-19 0-4.28-1.43-8.21-3.81-11.39C40.21 14.43 36.28 13 32 13z" fill="#5E8C00"/><path d="M26 45c10.493 0 19-8.507 19-19S36.493 7 26 7 7 15.507 7 26s8.507 19 19 19z" fill="url(#paint0_linear)"/><path d="M29.02 27.5a4.987 4.987 0 003.51-8.52 4.966 4.966 0 00-3.55-1.45l-5.98.05v7.92h-3v2h3V30h-3v2h3v2.5h2V32h5v-2h-5v-2.5h4.02zM25 19.57l3.99-.03h.02c.79 0 1.54.31 2.1.87.57.56.88 1.32.88 2.12 0 1.65-1.34 2.98-2.98 2.98H25v-5.94z" fill="#fff"/><defs><linearGradient id="paint0_linear" x1="16.494" y1="10.053" x2="40.402" y2="44.598" gradientUnits="userSpaceOnUse"><stop stop-color="#AFD73E"/><stop offset="1" stop-color="#88BD1F"/></linearGradient></defs></svg>