<svg width="26" height="42" fill="none" xmlns="http://www.w3.org/2000/svg"><path d="M23.21 13H2.8v26.22H23.2V12.99z" fill="#fff"/><path d="M24.14 5.76H1.86C.83 5.76 0 6.56 0 7.56v32.56c0 1 .83 1.81 1.86 1.81h22.28c1.03 0 1.86-.8 1.86-1.8V7.56c0-1-.83-1.81-1.86-1.81zm-.93 33.46H2.8V13H23.2v26.23z" fill="url(#paint0_linear)"/><path d="M23.21 8.47H2.8v1.81H23.2v-1.8z" fill="#EE7C2D"/><path d="M20.43.33H5.57v9.95h14.86V.33z" fill="#FFE3B4"/><path d="M9.29 24.75H5.57v2.71H9.3v-2.7zM14.87 24.75h-3.72v2.71h3.72v-2.7zM20.43 24.75H16.7v2.71h3.72v-2.7zM9.29 29.27H5.57V32H9.3v-2.72zM14.87 29.27h-3.72V32h3.72v-2.72zM20.43 29.27H16.7V32h3.72v-2.72zM9.29 33.8H5.57v2.7H9.3v-2.7zM14.87 33.8h-3.72v2.7h3.72v-2.7zM20.43 33.8H16.7v2.7h3.72v-2.7z" fill="#F7913D"/><path d="M23.21 13H2.8v3.61H23.2V13z" fill="#FFE3B4"/><defs><linearGradient id="paint0_linear" x1="2.05" y1="5.37" x2="23.09" y2="42.8" gradientUnits="userSpaceOnUse"><stop stop-color="#FDC886"/><stop offset="1" stop-color="#F7913D"/></linearGradient></defs></svg>