<svg width="60" height="60" fill="none" xmlns="http://www.w3.org/2000/svg"><path d="M31 36v-5.5h-2V36H12v7.5h2V38h15v5.5h2V38h15v5.5h2V36H31z" fill="#765397"/><path d="M8 31h44V10c0-1.1-.9-2-2-2H10c-1.1 0-2 .9-2 2v21z" fill="url(#paint0_linear)"/><path d="M13 52c2.76 0 5-2.24 5-5s-2.24-5-5-5-5 2.24-5 5 2.24 5 5 5zM30 52c2.76 0 5-2.24 5-5s-2.24-5-5-5-5 2.24-5 5 2.24 5 5 5zM47 52c2.76 0 5-2.24 5-5s-2.24-5-5-5-5 2.24-5 5 2.24 5 5 5z" fill="#A487BA"/><path d="M47 15H13v2h34v-2zM37 21H13v2h24v-2zM47 21h-7v2h7v-2z" fill="#fff"/><defs><linearGradient id="paint0_linear" x1="18.998" y1="9.539" x2="26.345" y2="33.884" gradientUnits="userSpaceOnUse"><stop stop-color="#A687BE"/><stop offset="1" stop-color="#8769AE"/></linearGradient></defs></svg>