<svg width="60" height="60" fill="none" xmlns="http://www.w3.org/2000/svg"><path d="M43.5 22.105c0 4.486-2.394 6.171-4.364 6.721l-.424-5.288 4.788-1.433z" fill="url(#paint0_linear)"/><path d="M40.125 12.992h-20.25v11.135c0 7.129 6.545 11.391 10.125 11.391s10.125-4.262 10.125-11.391V12.992z" fill="#FDC886"/><path d="M38.42 21.87c-.165-.27-.494-.616-1.125-.736-.543-.106-3.493-.24-4.752 0-.915.173-1.272.949-1.307 1.477A3.312 3.312 0 0030 22.389a3.29 3.29 0 00-1.237.223c-.035-.528-.391-1.304-1.306-1.477-1.258-.24-4.205-.105-4.752 0-.632.119-.96.466-1.125.736-.256.418-.308.961-.148 1.53l.032.12c.206.733.489 1.735 1.168 2.31.605.512 1.654.803 2.696.803.996 0 1.986-.266 2.578-.86.357-.357.592-.95.73-1.757.373-.33.797-.489 1.364-.489.567 0 .99.159 1.363.489.137.808.374 1.4.73 1.758.592.593 1.582.859 2.579.859 1.042 0 2.09-.29 2.695-.802.68-.576.962-1.58 1.168-2.312l.033-.118V23.4c.16-.569.107-1.112-.149-1.53zm-15.067 3.086c-.414-.351-.64-1.159-.806-1.749l-.034-.12c-.07-.252-.062-.478.023-.618.067-.108.193-.181.376-.215.47-.09 3.238-.21 4.336 0 .379.072.396.443.396.446-.059 1.568-.356 2.093-.529 2.265-.757.757-2.983.646-3.762-.01zm14.133-1.87l-.033.12c-.166.591-.393 1.399-.807 1.749-.777.655-3.002.769-3.763.008-.172-.172-.47-.698-.529-2.265 0-.003.017-.373.397-.446.45-.086 1.182-.117 1.92-.117 1.062 0 2.138.063 2.416.117.182.034.308.108.375.215.086.142.095.368.024.62z" fill="#765397"/><path d="M22.441 31.255c-1.16 1.956-5.063 2.738-7.066-.037 2.25 0 2.25-2.279 1.125-3.418-6.75-6.835-3-17.07 5.236-16.999 4.09-6.339 14.6-6.036 19.514-1.227 3.5 3.428 1.408 7.77 3.375 9.113.937.64 2.25 0 2.25 0-.879 6.87-10.313 7.452-11.835-.719-.75-4.026-6.235-5.492-11.79-3.837-1.721 1.124-5.18 9.26-.809 17.124z" fill="url(#paint1_linear)"/><path d="M46.33 47.233c-1.002-4.056-4.602-6.903-8.732-6.903h-.727a2.14 2.14 0 00-.222-1.164 2.097 2.097 0 00-2.84-.916c-1.925 1.007-5.693 1.007-7.614.001a2.093 2.093 0 00-2.84.914 2.135 2.135 0 00-.223 1.165h-1.258c-4.4 0-8.154 3.22-8.877 7.615L12 54h36l-1.67-6.766z" fill="url(#paint2_linear)"/><defs><linearGradient id="paint0_linear" x1="39.842" y1="22.877" x2="42.356" y2="27.177" gradientUnits="userSpaceOnUse"><stop stop-color="#8769AE"/><stop offset="1" stop-color="#765397"/></linearGradient><linearGradient id="paint1_linear" x1="22.1" y1="9.125" x2="33.827" y2="29.185" gradientUnits="userSpaceOnUse"><stop stop-color="#8769AE"/><stop offset="1" stop-color="#765397"/></linearGradient><linearGradient id="paint2_linear" x1="20.998" y1="39.081" x2="25.441" y2="56.407" gradientUnits="userSpaceOnUse"><stop stop-color="#A687BE"/><stop offset="1" stop-color="#8769AE"/></linearGradient></defs></svg>