<svg width="34" height="40" fill="none" xmlns="http://www.w3.org/2000/svg"><path d="M26.148 27.463h-4.67A6.378 6.378 0 0117 29.293a6.378 6.378 0 01-4.477-1.83H7.852A7.319 7.319 0 00.533 34.78v4.286h32.934V34.78a7.318 7.318 0 00-7.319-7.318z" fill="url(#paint0_linear)"/><path d="M25.69 12.826c-.156 0-.309.017-.457.046V7.543H8.767v5.33a2.287 2.287 0 100 4.483v.045A8.233 8.233 0 0017 25.634a8.233 8.233 0 008.233-8.233v-.046a2.288 2.288 0 10.458-4.529z" fill="#FDC886"/><path d="M20.384 2.211l-.64-1.278h-1.829c-6.062 0-10.978 4.915-10.978 10.978v.915c0 1.01.819 1.83 1.83 1.83v-2.742c5.355 0 8.306-1.601 9.933-3.463 1.433 1.066 3.51 1.83 6.534 1.83v4.374a1.83 1.83 0 001.83-1.83v-1.753c0-4.21-2.825-7.755-6.68-8.86z" fill="url(#paint1_linear)"/><defs><linearGradient id="paint0_linear" x1="10.488" y1="24.807" x2="22.532" y2="45.668" gradientUnits="userSpaceOnUse"><stop stop-color="#FDC886"/><stop offset="1" stop-color="#F7913D"/></linearGradient><linearGradient id="paint1_linear" x1="12.151" y1="2.56" x2="20.782" y2="17.509" gradientUnits="userSpaceOnUse"><stop stop-color="#FAAB62"/><stop offset="1" stop-color="#F7913D"/></linearGradient></defs></svg>