<svg width="64" height="64" fill="none" xmlns="http://www.w3.org/2000/svg"><path d="M48 55.467H16c-1.173 0-2.133-.94-2.133-2.086V10.619c0-1.147.96-2.086 2.133-2.086h32c1.173 0 2.133.939 2.133 2.086v42.762c0 1.147-.96 2.086-2.133 2.086z" fill="url(#paint0_linear)"/><path d="M46.933 11.662H17.067v8.344h29.866v-8.344z" fill="#fff"/><path d="M24.652 36.925c3.01 0 5.452-2.387 5.452-5.33 0-2.945-2.441-5.331-5.452-5.331S19.2 28.65 19.2 31.594s2.44 5.331 5.452 5.331zM38.282 36.925c3.01 0 5.451-2.387 5.451-5.33 0-2.945-2.44-5.331-5.451-5.331-3.011 0-5.452 2.386-5.452 5.33s2.44 5.331 5.452 5.331zM24.652 50.251c3.01 0 5.452-2.386 5.452-5.33s-2.441-5.331-5.452-5.331-5.452 2.386-5.452 5.33c0 2.945 2.44 5.331 5.452 5.331zM38.282 50.251c3.01 0 5.451-2.386 5.451-5.33s-2.44-5.331-5.451-5.331c-3.011 0-5.452 2.386-5.452 5.33 0 2.945 2.44 5.331 5.452 5.331z" fill="#0D70AA"/><path d="M27.832 30.883h-2.454v-2.399h-1.453v2.4H21.47v1.42h2.454v2.4h1.453v-2.4h2.454v-1.42zM27.369 43.34l-1.009-1.022-1.708 1.617-1.709-1.617-1.008 1.022 1.672 1.581-1.672 1.582 1.009 1.022 1.708-1.617 1.708 1.617 1.009-1.022-1.672-1.581 1.672-1.582zM41.008 30.883h-5.452v1.421h5.452v-1.421zM41.008 42.877h-5.452v1.421h5.452v-1.421zM41.008 45.543h-5.452v1.422h5.452v-1.422z" fill="#fff"/><defs><linearGradient id="paint0_linear" x1="16.629" y1="8.227" x2="40.45" y2="57.962" gradientUnits="userSpaceOnUse"><stop stop-color="#6BC9F2"/><stop offset=".025" stop-color="#30B5EE"/><stop offset="1" stop-color="#0082CD"/></linearGradient></defs></svg>