<svg width="58" height="58" fill="none" xmlns="http://www.w3.org/2000/svg"><path d="M37.222 9.273h5.556C44 9.273 45 10.255 45 11.455V39.82c0 1.2-1 2.182-2.222 2.182h-5.556V9.273z" fill="#0069A6"/><path d="M21.667 43.09h15.555c1.223 0 2.223.982 2.223 2.182v6.545c0 1.2-1 2.182-2.223 2.182H21.667c-1.222 0-2.222-.982-2.222-2.182v-6.545c0-1.2 1-2.182 2.222-2.182z" fill="#6BC9F2"/><path d="M36.111 54V39.818h-3.333V54h3.333z" fill="#0069A6"/><path d="M42.778 8.182c0-1.2-1-2.182-2.222-2.182H17.222C15.99 6 15 6.982 15 8.182v17.913l1.811 20.465c.1 1.124 1.056 1.985 2.211 1.985h19.734a2.2 2.2 0 002.21-1.996l1.812-20.454V8.181z" fill="url(#paint0_linear)"/><path d="M23.889 22.363h-3.333v3.273h3.333v-3.273zM30.556 22.363h-3.334v3.273h3.334v-3.273zM37.222 22.363H33.89v3.273h3.333v-3.273zM23.889 27.818h-3.333v3.273h3.333v-3.273zM30.556 27.818h-3.334v3.273h3.334v-3.273zM37.222 27.818H33.89v3.273h3.333v-3.273zM23.889 33.273h-3.333v3.273h3.333v-3.273zM30.556 33.273h-3.334v3.273h3.334v-3.273zM37.222 33.273H33.89v3.273h3.333v-3.273zM23.889 38.727h-3.333v3.272h3.333v-3.272zM30.556 38.727h-3.334v3.272h3.334v-3.272zM37.222 38.727H33.89v3.272h3.333v-3.272zM39.445 9.273H18.334v6.546h21.11V9.273z" fill="#fff"/><defs><linearGradient id="paint0_linear" x1="17.116" y1="5.722" x2="40.895" y2="47.671" gradientUnits="userSpaceOnUse"><stop stop-color="#6BC9F2"/><stop offset=".025" stop-color="#30B5EE"/><stop offset="1" stop-color="#0082CD"/></linearGradient></defs></svg>