<svg width="58" height="58" fill="none" xmlns="http://www.w3.org/2000/svg"><path d="M48 23.082v22a2 2 0 01-2 2H12a2 2 0 01-2-2v-22h38z" fill="url(#paint0_linear)"/><path d="M31 23.082h-4v24.06h4v-24.06z" fill="url(#paint1_linear)"/><path d="M7 23.082v-6a2 2 0 012-2h40a2 2 0 012 2v6H7z" fill="url(#paint2_linear)"/><path d="M48 23H10v3h38v-3z" fill="#EE7C2D"/><path d="M31 23h-4v3h4v-3z" fill="#B93535"/><path d="M32 15h-6v8h6v-8z" fill="url(#paint3_linear)"/><path d="M38.855 7.366c-1.683-2.469-5.065-3.108-7.541-1.43-1.046.71-1.789 1.79-2.313 3.008-.524-1.218-1.268-2.299-2.313-3.008-2.476-1.679-5.859-1.039-7.541 1.43a5.433 5.433 0 001.428 7.542l.255.174h16.342l.255-.174a5.435 5.435 0 001.428-7.542zm-17.388 5.717a3.435 3.435 0 01-.669-4.59 3.439 3.439 0 014.766-.9c1.287.872 2.201 3.01 2.397 5.49h-6.494zm15.066 0h-6.494c.196-2.48 1.11-4.619 2.397-5.49a3.44 3.44 0 014.766.9 3.435 3.435 0 01-.669 4.59z" fill="url(#paint4_linear)"/><defs><linearGradient id="paint0_linear" x1="19.837" y1="18.979" x2="38.431" y2="51.184" gradientUnits="userSpaceOnUse"><stop stop-color="#FDC886"/><stop offset="1" stop-color="#F7913D"/></linearGradient><linearGradient id="paint1_linear" x1="21.843" y1="26.315" x2="30.883" y2="47.192" gradientUnits="userSpaceOnUse"><stop stop-color="#DD5F5F"/><stop offset="1" stop-color="#CF4545"/></linearGradient><linearGradient id="paint2_linear" x1="22.284" y1="8.68" x2="35.449" y2="31.483" gradientUnits="userSpaceOnUse"><stop stop-color="#FDC886"/><stop offset="1" stop-color="#F7913D"/></linearGradient><linearGradient id="paint3_linear" x1="12.681" y1="-2.536" x2="33.847" y2="45.581" gradientUnits="userSpaceOnUse"><stop stop-color="#DD5F5F"/><stop offset="1" stop-color="#CF4545"/></linearGradient><linearGradient id="paint4_linear" x1="24.945" y1="3.399" x2="33.061" y2="17.457" gradientUnits="userSpaceOnUse"><stop stop-color="#DD5F5F"/><stop offset="1" stop-color="#CF4545"/></linearGradient></defs></svg>