<svg width="26" height="26" viewBox="0 0 26 26" fill="none" xmlns="http://www.w3.org/2000/svg">
<path d="M22.36 2.60019H3.63999C3.01939 2.60019 2.42419 2.84674 1.98536 3.28558C1.54652 3.72441 1.29999 4.31956 1.29999 4.94017V17.6802C1.29999 18.3008 1.54652 18.896 1.98536 19.3348C2.42419 19.7737 3.01939 20.0202 3.63999 20.0202H6.78599V21.7232C6.78522 22.0419 6.8753 22.3543 7.04568 22.6237C7.21606 22.8931 7.45967 23.1083 7.74799 23.2442C8.0357 23.3843 8.35749 23.4392 8.67538 23.4023C8.99327 23.3655 9.29396 23.2384 9.54198 23.0362L13.312 20.0202H22.412C23.0326 20.0202 23.6278 19.7737 24.0666 19.3348C24.5054 18.896 24.752 18.3008 24.752 17.6802V4.94017C24.7521 4.62845 24.6899 4.31988 24.569 4.03254C24.4482 3.74519 24.2712 3.48487 24.0483 3.26689C23.8255 3.04891 23.5614 2.87765 23.2714 2.76316C22.9815 2.64867 22.6716 2.59326 22.36 2.60019ZM7.79999 12.7402C7.49145 12.7402 7.18984 12.6487 6.93329 12.4773C6.67675 12.3059 6.47681 12.0622 6.35873 11.7772C6.24066 11.4921 6.20977 11.1785 6.26996 10.8759C6.33016 10.5733 6.47873 10.2953 6.6969 10.0771C6.91507 9.85892 7.19304 9.71037 7.49565 9.65017C7.79826 9.58998 8.11192 9.62085 8.39698 9.73892C8.68203 9.85699 8.92567 10.057 9.09708 10.3135C9.2685 10.57 9.35998 10.8717 9.35998 11.1802C9.35998 11.5939 9.19563 11.9907 8.90307 12.2833C8.61052 12.5758 8.21373 12.7402 7.79999 12.7402ZM12.909 12.7402C12.6004 12.7402 12.2988 12.6487 12.0423 12.4773C11.7858 12.3059 11.5858 12.0622 11.4677 11.7772C11.3497 11.4921 11.3188 11.1785 11.379 10.8759C11.4391 10.5733 11.5877 10.2953 11.8059 10.0771C12.0241 9.85892 12.302 9.71037 12.6046 9.65017C12.9073 9.58998 13.2209 9.62085 13.506 9.73892C13.791 9.85699 14.0347 10.057 14.2061 10.3135C14.3775 10.57 14.469 10.8717 14.469 11.1802C14.4697 11.5786 14.3179 11.9622 14.0447 12.2523C13.7716 12.5424 13.3978 12.7169 13 12.7402H12.909ZM18.018 12.7402C17.7094 12.7402 17.4078 12.6487 17.1513 12.4773C16.8948 12.3059 16.6948 12.0622 16.5767 11.7772C16.4587 11.4921 16.4278 11.1785 16.488 10.8759C16.5482 10.5733 16.6967 10.2953 16.9149 10.0771C17.1331 9.85892 17.411 9.71037 17.7136 9.65017C18.0162 9.58998 18.3299 9.62085 18.615 9.73892C18.9 9.85699 19.1437 10.057 19.3151 10.3135C19.4865 10.57 19.578 10.8717 19.578 11.1802C19.5781 11.5873 19.4191 11.9783 19.135 12.2697C18.8508 12.5612 18.4639 12.73 18.057 12.7402H18.018Z" fill="white"/>
</svg>
