<svg width="18" height="18" viewBox="0 0 18 18" fill="none" xmlns="http://www.w3.org/2000/svg">
<path d="M7.52657 13.2098C7.43164 13.2109 7.33743 13.1931 7.24939 13.1576C7.16135 13.122 7.0812 13.0695 7.01357 13.0028L3.83657 9.82583C3.76429 9.76034 3.70607 9.68085 3.66544 9.59218C3.62482 9.50351 3.60262 9.4075 3.60022 9.31C3.59782 9.21249 3.61526 9.11552 3.65148 9.02496C3.68769 8.93439 3.74193 8.85213 3.8109 8.78316C3.87987 8.71419 3.96212 8.65996 4.05268 8.62375C4.14325 8.58754 4.24023 8.5701 4.33774 8.5725C4.43524 8.5749 4.53124 8.59709 4.61991 8.63772C4.70858 8.67834 4.78808 8.73656 4.85357 8.80884L7.55357 11.5088L13.4756 5.58683C13.6125 5.46274 13.792 5.39606 13.9767 5.40061C14.1615 5.40516 14.3374 5.48058 14.4681 5.61127C14.5988 5.74196 14.6742 5.9179 14.6788 6.10267C14.6833 6.28744 14.6167 6.46688 14.4926 6.60384L8.05757 13.0388C7.98489 13.1012 7.90049 13.1485 7.80931 13.1779C7.71813 13.2072 7.62201 13.2181 7.52657 13.2098Z" fill="white"/>
</svg>
