<svg width="24" height="24" viewBox="0 0 24 24" fill="none" xmlns="http://www.w3.org/2000/svg">
<path d="M22.1293 5.74374C21.6365 4.73791 20.8707 3.89096 19.9195 3.29958C18.9682 2.70821 17.8698 2.39625 16.7497 2.39934C15.8371 2.38337 14.9331 2.57934 14.109 2.97184C13.2848 3.36434 12.563 3.94266 12.0001 4.66134C11.4373 3.94266 10.7155 3.36434 9.89133 2.97184C9.06719 2.57934 8.16324 2.38337 7.25054 2.39934C6.13046 2.39625 5.03208 2.70821 4.08083 3.29958C3.12958 3.89096 2.36381 4.73791 1.87094 5.74374C1.29486 7.01685 1.09243 8.42745 1.28725 9.81119C1.48208 11.1949 2.06613 12.4948 2.97134 13.5593C5.09816 16.5284 7.71086 19.1171 10.6993 21.2165C11.0865 21.4687 11.5387 21.603 12.0007 21.603C12.4628 21.603 12.915 21.4687 13.3021 21.2165C16.2899 19.1166 18.9021 16.5279 21.0289 13.5593C21.9342 12.4948 22.5182 11.1949 22.713 9.81119C22.9079 8.42745 22.7054 7.01685 22.1293 5.74374Z" fill="#E36868"/>
</svg>
