<svg width="58" height="58" viewBox="0 0 58 58" fill="none" xmlns="http://www.w3.org/2000/svg">
<path d="M37.2224 9.27344H42.778C44.0002 9.27344 45.0002 10.2553 45.0002 11.4553V39.8189C45.0002 41.0189 44.0002 42.0007 42.778 42.0007H37.2224V9.27344Z" fill="#0069A6"/>
<path d="M21.6668 43.0898H37.2224C38.4446 43.0898 39.4446 44.0717 39.4446 45.2717V51.8171C39.4446 53.0171 38.4446 53.9989 37.2224 53.9989H21.6668C20.4446 53.9989 19.4446 53.0171 19.4446 51.8171V45.2717C19.4446 44.0717 20.4446 43.0898 21.6668 43.0898Z" fill="#6BC9F2"/>
<path d="M36.1111 54.0002V39.8184H32.7778V54.0002H36.1111Z" fill="#0069A6"/>
<path d="M42.7778 8.18182C42.7778 6.98182 41.7778 6 40.5556 6H17.2222C15.9889 6 15 6.98182 15 8.18182V26.0945L16.8111 46.56C16.9111 47.6836 17.8667 48.5455 19.0222 48.5455H38.7556C39.9111 48.5455 40.8667 47.6836 40.9667 46.5491L42.7778 26.0945V8.18182Z" fill="url(#paint0_linear)"/>
<path d="M23.8889 22.3633H20.5556V25.636H23.8889V22.3633Z" fill="white"/>
<path d="M30.5556 22.3633H27.2222V25.636H30.5556V22.3633Z" fill="white"/>
<path d="M37.2222 22.3633H33.8888V25.636H37.2222V22.3633Z" fill="white"/>
<path d="M23.8889 27.8184H20.5556V31.0911H23.8889V27.8184Z" fill="white"/>
<path d="M30.5556 27.8184H27.2222V31.0911H30.5556V27.8184Z" fill="white"/>
<path d="M37.2222 27.8184H33.8888V31.0911H37.2222V27.8184Z" fill="white"/>
<path d="M23.8889 33.2734H20.5556V36.5462H23.8889V33.2734Z" fill="white"/>
<path d="M30.5556 33.2734H27.2222V36.5462H30.5556V33.2734Z" fill="white"/>
<path d="M37.2222 33.2734H33.8888V36.5462H37.2222V33.2734Z" fill="white"/>
<path d="M23.8889 38.7266H20.5556V41.9993H23.8889V38.7266Z" fill="white"/>
<path d="M30.5556 38.7266H27.2222V41.9993H30.5556V38.7266Z" fill="white"/>
<path d="M37.2222 38.7266H33.8888V41.9993H37.2222V38.7266Z" fill="white"/>
<path d="M39.4447 9.27344H18.3336V15.8189H39.4447V9.27344Z" fill="white"/>
<defs>
<linearGradient id="paint0_linear" x1="17.116" y1="5.72204" x2="40.8948" y2="47.6709" gradientUnits="userSpaceOnUse">
<stop stop-color="#6BC9F2"/>
<stop offset="0.0248" stop-color="#30B5EE"/>
<stop offset="1" stop-color="#0082CD"/>
</linearGradient>
</defs>
</svg>
