<svg width="64" height="64" viewBox="0 0 64 64" fill="none" xmlns="http://www.w3.org/2000/svg">
<path d="M48 55.4665H16C14.8267 55.4665 13.8667 54.5279 13.8667 53.3806V10.6191C13.8667 9.47187 14.8267 8.5332 16 8.5332H48C49.1733 8.5332 50.1333 9.47187 50.1333 10.6191V53.3806C50.1333 54.5279 49.1733 55.4665 48 55.4665Z" fill="url(#paint0_linear)"/>
<path d="M46.9333 11.6621H17.0667V20.0058H46.9333V11.6621Z" fill="white"/>
<path d="M24.6519 36.9251C27.6628 36.9251 30.1037 34.5384 30.1037 31.5944C30.1037 28.6503 27.6628 26.2637 24.6519 26.2637C21.6409 26.2637 19.2 28.6503 19.2 31.5944C19.2 34.5384 21.6409 36.9251 24.6519 36.9251Z" fill="#0D70AA"/>
<path d="M38.2815 36.9251C41.2925 36.9251 43.7334 34.5384 43.7334 31.5944C43.7334 28.6503 41.2925 26.2637 38.2815 26.2637C35.2705 26.2637 32.8297 28.6503 32.8297 31.5944C32.8297 34.5384 35.2705 36.9251 38.2815 36.9251Z" fill="#0D70AA"/>
<path d="M24.6519 50.2512C27.6628 50.2512 30.1037 47.8646 30.1037 44.9205C30.1037 41.9765 27.6628 39.5898 24.6519 39.5898C21.6409 39.5898 19.2 41.9765 19.2 44.9205C19.2 47.8646 21.6409 50.2512 24.6519 50.2512Z" fill="#0D70AA"/>
<path d="M38.2816 50.2512C41.2925 50.2512 43.7334 47.8646 43.7334 44.9205C43.7334 41.9765 41.2925 39.5898 38.2816 39.5898C35.2706 39.5898 32.8297 41.9765 32.8297 44.9205C32.8297 47.8646 35.2706 50.2512 38.2816 50.2512Z" fill="#0D70AA"/>
<path d="M27.8319 30.8832H25.3785V28.4844H23.9247V30.8832H21.4714V32.3047H23.9247V34.7035H25.3785V32.3047H27.8319V30.8832Z" fill="white"/>
<path d="M27.3686 43.3401L26.36 42.3184L24.6517 43.9353L22.9435 42.3184L21.9349 43.3401L23.6068 44.9215L21.9349 46.503L22.9435 47.5247L24.6517 45.9077L26.36 47.5247L27.3686 46.503L25.6967 44.9215L27.3686 43.3401Z" fill="white"/>
<path d="M41.0076 30.8828H35.5558V32.3043H41.0076V30.8828Z" fill="white"/>
<path d="M41.0076 42.877H35.5558V44.2985H41.0076V42.877Z" fill="white"/>
<path d="M41.0076 45.543H35.5558V46.9645H41.0076V45.543Z" fill="white"/>
<defs>
<linearGradient id="paint0_linear" x1="16.6293" y1="8.22657" x2="40.45" y2="57.9621" gradientUnits="userSpaceOnUse">
<stop stop-color="#6BC9F2"/>
<stop offset="0.0248" stop-color="#30B5EE"/>
<stop offset="1" stop-color="#0082CD"/>
</linearGradient>
</defs>
</svg>
