<svg width="58" height="58" viewBox="0 0 58 58" fill="none" xmlns="http://www.w3.org/2000/svg">
<path d="M46.0562 50.4005L32.1323 36.4799L36.4765 32.1367L50.4003 46.0573C51.1995 46.8563 51.1995 48.1572 50.4003 48.9562L48.9557 50.4005C48.1463 51.1994 46.8553 51.1994 46.0562 50.4005Z" fill="#765397"/>
<path d="M36.4861 32.1366L32.1387 36.4824L39.9195 44.2625L44.2669 39.9167L36.4861 32.1366Z" fill="#4D3673"/>
<path d="M25.4422 43.8758C35.6275 43.8758 43.8844 35.6208 43.8844 25.4379C43.8844 15.2549 35.6275 7 25.4422 7C15.2569 7 7 15.2549 7 25.4379C7 35.6208 15.2569 43.8758 25.4422 43.8758Z" fill="url(#paint0_linear)"/>
<path d="M25.8626 24.0148C23.2602 23.7075 22.42 22.3451 22.4815 21.2696C22.5532 20.0916 23.6905 18.9034 25.7396 18.9034C28.4138 18.9034 29.0183 20.614 29.0183 21.2184H31.0674C31.0674 19.6409 29.8072 17.203 26.4671 16.8957V15.1953H24.4179V16.9981C21.9385 17.4898 20.5451 19.3233 20.4426 21.1569C20.3197 23.267 21.8668 25.6025 25.6269 26.0532C28.2293 26.3605 29.0797 27.7228 29.0183 28.7881C28.9465 29.9661 27.799 31.1543 25.7499 31.1543C23.3114 31.1543 22.1946 30.0685 22.1946 29.0647H20.1455C20.1455 30.8163 21.4979 32.6703 24.4179 33.1108V34.8419H26.4671V33.1415C29.3256 32.8445 30.9444 30.8778 31.0571 28.9008C31.1801 26.8009 29.6227 24.4655 25.8626 24.0148Z" fill="white"/>
<defs>
<linearGradient id="paint0_linear" x1="16.2196" y1="9.4675" x2="34.6584" y2="41.412" gradientUnits="userSpaceOnUse">
<stop stop-color="#A687BE"/>
<stop offset="1" stop-color="#8769AE"/>
</linearGradient>
</defs>
</svg>
