<svg width="58" height="58" viewBox="0 0 58 58" fill="none" xmlns="http://www.w3.org/2000/svg">
<path d="M32 51C42.4934 51 51 42.4934 51 32C51 21.5066 42.4934 13 32 13C21.5066 13 13 21.5066 13 32C13 42.4934 21.5066 51 32 51Z" fill="#6CA300"/>
<path d="M32 13C21.51 13 13 21.51 13 32C13 36.28 14.43 40.21 16.81 43.39C19.99 45.77 23.92 47.2 28.2 47.2C38.69 47.2 47.2 38.69 47.2 28.2C47.2 23.92 45.77 19.99 43.39 16.81C40.21 14.43 36.28 13 32 13Z" fill="#5E8C00"/>
<path d="M26 45C36.4934 45 45 36.4934 45 26C45 15.5066 36.4934 7 26 7C15.5066 7 7 15.5066 7 26C7 36.4934 15.5066 45 26 45Z" fill="url(#paint0_linear)"/>
<path d="M29.02 27.4994C31.77 27.4994 34 25.2594 34 22.5194C34 21.1794 33.48 19.9294 32.53 18.9794C31.58 18.0394 30.32 17.5194 28.98 17.5294L23 17.5794V25.4994H20V27.4994H23V29.9994H20V31.9994H23V34.4994H25V31.9994H30V29.9994H25V27.4994H29.02ZM25 19.5694L28.99 19.5394C29 19.5394 29.01 19.5394 29.01 19.5394C29.8 19.5394 30.55 19.8494 31.11 20.4094C31.68 20.9694 31.99 21.7294 31.99 22.5294C31.99 24.1794 30.65 25.5094 29.01 25.5094H25V19.5694Z" fill="white"/>
<defs>
<linearGradient id="paint0_linear" x1="16.4941" y1="10.0526" x2="40.4018" y2="44.5978" gradientUnits="userSpaceOnUse">
<stop stop-color="#AFD73E"/>
<stop offset="1" stop-color="#88BD1F"/>
</linearGradient>
</defs>
</svg>
