<svg width="58" height="58" viewBox="0 0 58 58" fill="none" xmlns="http://www.w3.org/2000/svg">
<path d="M51 20H7V44C7 45.1046 7.89543 46 9 46H49C50.1046 46 51 45.1046 51 44V20Z" fill="url(#paint0_linear)"/>
<path d="M25.0128 35.6875H21.9308L21.3448 37.4453H19.4757L22.6515 28.9141H24.2804L27.4738 37.4453H25.6046L25.0128 35.6875ZM22.4054 34.2637H24.5382L23.4659 31.0703L22.4054 34.2637ZM30.2684 34.4395V37.4453H28.5106V28.9141H31.8388C32.4794 28.9141 33.0419 29.0312 33.5263 29.2656C34.0145 29.5 34.3895 29.834 34.6513 30.2676C34.913 30.6973 35.0438 31.1875 35.0438 31.7383C35.0438 32.5742 34.7567 33.2344 34.1825 33.7188C33.6122 34.1992 32.8212 34.4395 31.8095 34.4395H30.2684ZM30.2684 33.0156H31.8388C32.3036 33.0156 32.6571 32.9062 32.8993 32.6875C33.1454 32.4688 33.2684 32.1562 33.2684 31.75C33.2684 31.332 33.1454 30.9941 32.8993 30.7363C32.6532 30.4785 32.3134 30.3457 31.8798 30.3379H30.2684V33.0156ZM38.3659 37.4453H36.6081V28.9141H38.3659V37.4453Z" fill="white"/>
<path d="M51 19.4453H7V23.4453H51V19.4453Z" fill="#222733" fill-opacity="0.12"/>
<path d="M51 20H7V13C7 11.895 7.85609 11 8.91304 11H49.087C50.1439 11 51 11.895 51 13V20Z" fill="#64DCD2"/>
<path d="M51 20H7V13C7 11.895 7.85609 11 8.91304 11H49.087C50.1439 11 51 11.895 51 13V20Z" fill="url(#paint1_linear)" fill-opacity="0.4" style="mix-blend-mode:overlay"/>
<path d="M11.7825 17C12.5745 17 13.2173 16.328 13.2173 15.5C13.2173 14.672 12.5745 14 11.7825 14C10.9905 14 10.3477 14.672 10.3477 15.5C10.3477 16.328 10.9905 17 11.7825 17Z" fill="white"/>
<path d="M16.5654 17C17.3574 17 18.0002 16.328 18.0002 15.5C18.0002 14.672 17.3574 14 16.5654 14C15.7734 14 15.1306 14.672 15.1306 15.5C15.1306 16.328 15.7734 17 16.5654 17Z" fill="white"/>
<path d="M21.3478 17C22.1398 17 22.7826 16.328 22.7826 15.5C22.7826 14.672 22.1398 14 21.3478 14C20.5558 14 19.9131 14.672 19.9131 15.5C19.9131 16.328 20.5558 17 21.3478 17Z" fill="white"/>
<defs>
<linearGradient id="paint0_linear" x1="7" y1="27" x2="30.9352" y2="60.3852" gradientUnits="userSpaceOnUse">
<stop stop-color="#64DCD2"/>
<stop offset="1" stop-color="#24C4BC"/>
</linearGradient>
<linearGradient id="paint1_linear" x1="14.6068" y1="12.6558" x2="20.1274" y2="27.7939" gradientUnits="userSpaceOnUse">
<stop stop-color="white"/>
<stop offset="1" stop-color="white" stop-opacity="0"/>
</linearGradient>
</defs>
</svg>
