<svg width="58" height="58" viewBox="0 0 58 58" fill="none" xmlns="http://www.w3.org/2000/svg">
<path d="M47.75 16H10.25V42H47.75V16Z" fill="white"/>
<path d="M50.6346 42V12C50.6346 10.9 49.7693 10 48.7116 10H9.28849C8.2308 10 7.36542 10.9 7.36542 12V42H4.00003V46C4.00003 47.1 4.86542 48 5.92311 48H52.077C53.1346 48 54 47.1 54 46V42H50.6346ZM33.1539 44H24.7596L23.2308 42H10.25V16H47.75V42H34.8462L33.1539 44Z" fill="url(#paint0_linear)"/>
<path d="M29 14.5C29.7966 14.5 30.4423 13.8284 30.4423 13C30.4423 12.1716 29.7966 11.5 29 11.5C28.2034 11.5 27.5577 12.1716 27.5577 13C27.5577 13.8284 28.2034 14.5 29 14.5Z" fill="white"/>
<path d="M41.5001 42H39.5097L38.8943 48H40.8174L41.5001 42Z" fill="#0F72AB"/>
<path d="M25.7804 21.7865L19.6613 28.1504L20.6812 29.211L26.8003 22.8471L25.7804 21.7865Z" fill="#0069A6"/>
<path d="M32.2194 21.787L31.1996 22.8477L37.3187 29.2116L38.3386 28.1509L32.2194 21.787Z" fill="#0069A6"/>
<path d="M43.4232 28H14.5771V32H43.4232V28Z" fill="#0069A6"/>
<path d="M38.8943 48H19.1059L17.4616 32H40.5386L38.8943 48Z" fill="#0069A6"/>
<path d="M24.1924 36H22.2693V44H24.1924V36Z" fill="white"/>
<path d="M29.9613 36H28.0382V44H29.9613V36Z" fill="white"/>
<path d="M35.7306 36H33.8076V44H35.7306V36Z" fill="white"/>
<path d="M17.6636 34H40.3366L40.5386 32H17.4616L17.6636 34Z" fill="#004D81"/>
<defs>
<linearGradient id="paint0_linear" x1="7.80883" y1="9.75173" x2="20.7127" y2="55.6284" gradientUnits="userSpaceOnUse">
<stop stop-color="#6BC9F2"/>
<stop offset="0.0248" stop-color="#30B5EE"/>
<stop offset="1" stop-color="#0082CD"/>
</linearGradient>
</defs>
</svg>
