<svg width="64" height="64" viewBox="0 0 64 64" fill="none" xmlns="http://www.w3.org/2000/svg">
<path d="M58.224 34.7213H57.0282C56.5111 30.9832 54.1843 27.6006 50.6832 24.9937V18.5625C47.6992 18.5625 45.2215 19.6505 43.5626 21.3418C40.3416 20.2538 36.7328 19.6398 32.9086 19.6398C19.7876 19.6398 9.1013 26.825 8.69195 35.7985H8.6704C8.6704 36.9835 7.70088 37.953 6.5159 37.953C5.33092 37.953 4.3614 36.9835 4.3614 35.7985C4.3614 34.6135 5.33092 33.644 6.5159 33.644V31.4895C4.13517 31.4895 2.20689 33.4178 2.20689 35.7985C2.20689 38.1793 4.13517 40.1075 6.5159 40.1075C7.3777 40.1075 8.16409 39.849 8.84276 39.4181C9.68302 47.2605 13.5934 52.6144 16.3835 55.5876C16.7929 56.0293 17.3638 56.2771 17.9671 56.2771H25.454V52.2374C27.8024 52.7652 30.3016 53.0453 32.9086 53.0453C34.6322 53.0453 36.3019 52.916 37.9286 52.6791L40.4493 56.2771H45.0815C45.9433 56.2771 46.7189 55.7708 47.0636 54.9736L49.9076 48.3916L60.3785 42.262V36.8758C60.3785 35.68 59.4089 34.7213 58.224 34.7213Z" fill="url(#paint0_linear)"/>
<path d="M16.1144 48.3594C16.5776 50.1368 23.2458 54.0688 25.4541 54.0688V52.2159C21.91 51.4295 18.7321 50.1045 16.1144 48.3594Z" fill="#A32626"/>
<path d="M50.6832 36.3372C51.5756 36.3372 52.2991 35.6138 52.2991 34.7213C52.2991 33.8289 51.5756 33.1055 50.6832 33.1055C49.7908 33.1055 49.0673 33.8289 49.0673 34.7213C49.0673 35.6138 49.7908 36.3372 50.6832 36.3372Z" fill="white"/>
<path d="M42.5932 28.9346C39.4368 27.3725 36.0004 26.5861 32.37 26.5861C28.7936 26.5861 25.2494 27.3941 22.1362 28.9238L21.1882 26.9955C24.6031 25.3258 28.4704 24.4316 32.37 24.4316C36.3343 24.4316 40.0939 25.2934 43.5519 27.0063L42.5932 28.9346Z" fill="#A32626"/>
<path d="M37.9287 52.6576L38.9198 54.0688C38.9198 54.0688 46.0943 52.2914 47.3331 49.7383C44.5754 51.1495 41.3867 52.1621 37.9287 52.6576Z" fill="#A32626"/>
<path d="M26.2835 27.3844C28.2548 26.8566 30.3016 26.5765 32.3699 26.5765C34.4706 26.5765 36.5066 26.8458 38.4564 27.3737C39.4583 26.6842 40.3416 25.8332 41.0526 24.8529C42.3668 23.0754 43.1425 20.8778 43.1425 18.4971C43.1425 12.5507 38.3164 7.72461 32.3699 7.72461C26.4235 7.72461 21.5974 12.5507 21.5974 18.4971C21.5974 20.8778 22.373 23.0754 23.6765 24.8529C24.3983 25.844 25.2816 26.695 26.2835 27.3844Z" fill="#F8BDB8"/>
<defs>
<linearGradient id="paint0_linear" x1="22.3434" y1="20.648" x2="43.5925" y2="57.4525" gradientUnits="userSpaceOnUse">
<stop stop-color="#DB7373"/>
<stop offset="1" stop-color="#CF4545"/>
</linearGradient>
</defs>
</svg>
