<svg width="58" height="58" viewBox="0 0 58 58" fill="none" xmlns="http://www.w3.org/2000/svg">
<path d="M24.0001 47.9729H43.7901C50.3501 47.9729 55.6801 42.6529 55.6801 36.0829V35.8529C55.6801 29.2929 50.3601 23.9629 43.7901 23.9629H24.0001V47.9729Z" fill="#0069A6"/>
<path d="M30.1901 11.0026C23.0901 10.8726 17.0001 15.5926 14.7301 22.0026C14.7301 22.0126 14.7201 22.0226 14.7201 22.0326C8.14006 22.6826 3.00006 28.2226 3.00006 34.9726C3.00006 42.1526 8.82006 47.9726 16.0001 47.9726H31.7201C39.6101 47.9726 46.0001 41.5826 46.0001 33.6926V27.1226C46.0001 18.3226 38.9501 11.1726 30.1901 11.0026Z" fill="url(#paint0_linear)"/>
<path d="M38.8001 32.5428L35.8001 35.5428V23.1328H34.2001V35.5428L31.2001 32.5428L30.0701 33.6728L35.0001 38.6028L39.9301 33.6728L38.8001 32.5428Z" fill="white"/>
<path d="M19.0701 28.182L20.2001 29.312L23.2001 26.312V38.882H24.8001V26.312L27.8001 29.312L28.9301 28.182L24.0001 23.252L19.0701 28.182Z" fill="white"/>
<defs>
<linearGradient id="paint0_linear" x1="6.27563" y1="10.7584" x2="20.1941" y2="54.497" gradientUnits="userSpaceOnUse">
<stop stop-color="#6BC9F2"/>
<stop offset="0.0248" stop-color="#30B5EE"/>
<stop offset="1" stop-color="#0082CD"/>
</linearGradient>
</defs>
</svg>
