<svg width="60" height="60" viewBox="0 0 60 60" fill="none" xmlns="http://www.w3.org/2000/svg">
<path d="M43.4996 22.1055C43.4996 26.5913 41.1056 28.276 39.1358 28.8262L38.7116 23.5385L43.4996 22.1055Z" fill="url(#paint0_linear)"/>
<path d="M40.1248 12.9922H19.8749V24.127C19.8749 31.2555 26.4202 35.518 29.9999 35.518C33.5796 35.518 40.1248 31.2555 40.1248 24.127V12.9922Z" fill="#FDC886"/>
<path d="M38.4191 21.87C38.2548 21.6 37.9264 21.2537 37.2952 21.1341C36.7519 21.0282 33.8021 20.8949 32.5433 21.1341C31.6275 21.3072 31.2709 22.083 31.236 22.6115C30.8636 22.4634 30.453 22.3882 29.9997 22.3882C29.5463 22.3882 29.1357 22.4623 28.7633 22.6115C28.7284 22.083 28.3718 21.3072 27.4572 21.1341C26.1994 20.8937 23.2519 21.0293 22.7052 21.1341C22.073 21.2526 21.7445 21.6 21.5802 21.87C21.3237 22.288 21.272 22.8314 21.4317 23.3998V23.4009L21.4643 23.5194C21.6702 24.253 21.9526 25.2554 22.6321 25.8306C23.2373 26.3421 24.2858 26.6326 25.3276 26.6326C26.3243 26.6326 27.3143 26.3671 27.906 25.7737C28.2627 25.416 28.4978 24.8237 28.6362 24.016C29.0085 23.6857 29.4327 23.5274 29.9997 23.5274C30.5666 23.5274 30.9908 23.6857 31.3631 24.016C31.5004 24.8237 31.7366 25.416 32.0933 25.7737C32.685 26.3671 33.675 26.6326 34.6717 26.6326C35.7135 26.6326 36.762 26.3421 37.3672 25.8306C38.0467 25.2554 38.3291 24.2518 38.535 23.5194L38.5676 23.4009V23.3998C38.7285 22.8314 38.6745 22.288 38.4191 21.87ZM23.3532 24.9558C22.9392 24.605 22.7131 23.7973 22.5466 23.2073L22.5128 23.0877C22.4431 22.8348 22.451 22.6092 22.5365 22.4691C22.6028 22.3609 22.7288 22.288 22.9122 22.2538C23.3813 22.1638 26.1499 22.0442 27.2479 22.2538C27.627 22.3256 27.6439 22.6969 27.6439 22.7004C27.5854 24.2678 27.2884 24.7929 27.1152 24.9649C26.3581 25.7224 24.1317 25.6108 23.3532 24.9558ZM37.4865 23.0865L37.4527 23.2061C37.2874 23.7973 37.0601 24.605 36.6461 24.9547C35.8687 25.6096 33.6435 25.7236 32.883 24.9626C32.7109 24.7906 32.4128 24.2655 32.3543 22.6981C32.3543 22.6947 32.3711 22.3245 32.7514 22.2516C33.2003 22.1661 33.9326 22.1354 34.6717 22.1354C35.7326 22.1354 36.8092 22.198 37.0871 22.2516C37.2694 22.2857 37.3954 22.3598 37.4617 22.4668C37.5484 22.6092 37.5574 22.8348 37.4865 23.0865Z" fill="#765397"/>
<path d="M22.441 31.2551C21.2811 33.2109 17.3785 33.9935 15.3749 31.2175C17.6249 31.2175 17.6249 28.9393 16.4999 27.8002C9.74993 20.9655 13.4995 10.7295 21.7356 10.8013C25.8261 4.46214 36.3369 4.76514 41.2497 9.57445C44.7507 13.002 42.6582 17.3432 44.6247 18.6873C45.5618 19.3275 46.8747 18.6873 46.8747 18.6873C45.9961 25.5573 36.5619 26.1393 35.0398 17.9685C34.2905 13.9418 28.8051 12.4758 23.2498 14.1309C21.5286 15.2552 18.0693 23.3907 22.441 31.2551Z" fill="url(#paint1_linear)"/>
<path d="M46.3291 47.2332C45.3279 43.1769 41.7279 40.3302 37.5981 40.3302H36.8713C36.9051 39.9407 36.8387 39.5385 36.6486 39.1661C36.1142 38.1204 34.8418 37.7103 33.8091 38.2502C31.8842 39.2572 28.1155 39.2572 26.1952 38.2514C25.1613 37.7091 23.89 38.1181 23.3557 39.1649C23.1644 39.5374 23.0981 39.9407 23.1318 40.3302H21.8741C17.4742 40.3302 13.7201 43.5505 12.9967 47.9452L12 53.9995H47.9998L46.3291 47.2332Z" fill="url(#paint2_linear)"/>
<defs>
<linearGradient id="paint0_linear" x1="39.8418" y1="22.8772" x2="42.3558" y2="27.1775" gradientUnits="userSpaceOnUse">
<stop stop-color="#8769AE"/>
<stop offset="1" stop-color="#765397"/>
</linearGradient>
<linearGradient id="paint1_linear" x1="22.1001" y1="9.12496" x2="33.8271" y2="29.185" gradientUnits="userSpaceOnUse">
<stop stop-color="#8769AE"/>
<stop offset="1" stop-color="#765397"/>
</linearGradient>
<linearGradient id="paint2_linear" x1="20.9984" y1="39.0815" x2="25.4407" y2="56.4067" gradientUnits="userSpaceOnUse">
<stop stop-color="#A687BE"/>
<stop offset="1" stop-color="#8769AE"/>
</linearGradient>
</defs>
</svg>
