<svg width="64" height="64" viewBox="0 0 64 64" fill="none" xmlns="http://www.w3.org/2000/svg">
<path d="M14.95 53.4481L18.6416 49.7679C19.4229 48.9866 19.5475 47.6164 18.868 46.7558C16.6146 43.9022 15.2784 40.3012 15.2784 36.3945C15.2897 27.5732 22.4011 20.1221 31.1997 19.7032C40.7796 19.2502 48.7176 26.9164 48.7176 36.4058C48.7176 40.2785 47.3927 43.8455 45.1846 46.6765C44.4712 47.5937 44.5052 48.896 45.3318 49.7226L49.0573 53.4368C49.9859 54.3654 51.5373 54.3314 52.3752 53.3123C56.6103 48.2165 58.9657 41.5128 58.3995 34.2543C57.369 21.2772 46.736 10.8253 33.7362 9.98731C18.3358 9.00214 5.51724 21.2205 5.51724 36.4058C5.51724 42.8377 7.81598 48.7374 11.6321 53.3236C12.4701 54.3427 14.0214 54.3767 14.95 53.4481Z" fill="url(#paint0_linear)"/>
<path d="M36.7375 36.2259L41.3576 28.2992L40.2819 27.1895L32.1174 31.651C34.62 31.7416 36.613 33.7346 36.7375 36.2259Z" fill="#6CA300"/>
<path d="M31.9587 33.0206C33.8271 33.0206 35.3559 34.5493 35.3559 36.4178C35.3559 38.2862 33.8271 39.8149 31.9587 39.8149C30.0903 39.8149 28.5616 38.2862 28.5616 36.4178C28.5616 34.5493 30.079 33.0206 31.9587 33.0206ZM31.9587 30.7559C28.8333 30.7559 26.2968 33.2924 26.2968 36.4178C26.2968 39.5431 28.8333 42.0797 31.9587 42.0797C35.0841 42.0797 37.6206 39.5431 37.6206 36.4178C37.6206 33.2924 35.0841 30.7559 31.9587 30.7559Z" fill="#88BD1F"/>
<defs>
<linearGradient id="paint0_linear" x1="18.7504" y1="13.4812" x2="44.4747" y2="58.037" gradientUnits="userSpaceOnUse">
<stop stop-color="#AFD73E"/>
<stop offset="1" stop-color="#88BD1F"/>
</linearGradient>
</defs>
</svg>
