<svg width="18" height="18" viewBox="0 0 18 18" fill="none" xmlns="http://www.w3.org/2000/svg">
<path fill-rule="evenodd" clip-rule="evenodd" d="M9 17.1004C7.39797 17.1004 5.83192 16.6253 4.49988 15.7353C3.16784 14.8453 2.12964 13.5802 1.51657 12.1001C0.9035 10.62 0.743098 8.99141 1.05564 7.42016C1.36818 5.84892 2.13963 4.40563 3.27243 3.27283C4.40524 2.14002 5.84852 1.36857 7.41976 1.05603C8.99101 0.743493 10.6197 0.9039 12.0997 1.51697C13.5798 2.13004 14.8449 3.16824 15.7349 4.50028C16.6249 5.83231 17.1 7.39837 17.1 9.00039C17.1 11.1486 16.2466 13.2089 14.7276 14.728C13.2085 16.247 11.1483 17.1004 9 17.1004ZM9 2.34039C7.68277 2.34039 6.39513 2.731 5.2999 3.46281C4.20467 4.19462 3.35104 5.23477 2.84696 6.45172C2.34288 7.66868 2.21099 9.00778 2.46797 10.2997C2.72494 11.5916 3.35925 12.7783 4.29067 13.7097C5.22208 14.6411 6.40878 15.2754 7.70069 15.5324C8.99261 15.7894 10.3317 15.6575 11.5487 15.1534C12.7656 14.6494 13.8058 13.7957 14.5376 12.7005C15.2694 11.6053 15.66 10.3176 15.66 9.00039C15.6576 7.23478 14.9552 5.54217 13.7067 4.29369C12.4582 3.04522 10.7656 2.34278 9 2.34039ZM9.90017 13.5003H9.00017C8.80922 13.5003 8.62608 13.4244 8.49105 13.2894C8.35603 13.1544 8.28017 12.9713 8.28017 12.7803V9.0003H8.10017C7.90922 9.0003 7.72608 8.92445 7.59105 8.78942C7.45603 8.65439 7.38017 8.47126 7.38017 8.2803C7.38017 8.08935 7.45603 7.90621 7.59105 7.77119C7.72608 7.63616 7.90922 7.5603 8.10017 7.5603H9.00017C9.09472 7.5603 9.18835 7.57893 9.2757 7.61511C9.36306 7.65129 9.44243 7.70433 9.50929 7.77119C9.57615 7.83804 9.62918 7.91742 9.66537 8.00477C9.70155 8.09213 9.72017 8.18575 9.72017 8.2803V12.0603H9.90017C10.0911 12.0603 10.2743 12.1362 10.4093 12.2712C10.5443 12.4062 10.6202 12.5893 10.6202 12.7803C10.6202 12.9713 10.5443 13.1544 10.4093 13.2894C10.2743 13.4244 10.0911 13.5003 9.90017 13.5003ZM9.89999 5.40039C9.89999 5.89745 9.49705 6.30039 8.99999 6.30039C8.50294 6.30039 8.09999 5.89745 8.09999 5.40039C8.09999 4.90333 8.50294 4.50039 8.99999 4.50039C9.49705 4.50039 9.89999 4.90333 9.89999 5.40039Z" fill="#717D83"/>
</svg>
