<svg width="24" height="24" viewBox="0 0 24 24" fill="none" xmlns="http://www.w3.org/2000/svg">
<path d="M19.2 22.7992H4.80002C4.16351 22.7992 3.55306 22.5464 3.10297 22.0963C2.65288 21.6462 2.40002 21.0357 2.40002 20.3992V3.59922C2.40002 2.9627 2.65288 2.35225 3.10297 1.90216C3.55306 1.45208 4.16351 1.19922 4.80002 1.19922H19.2C19.8365 1.19922 20.447 1.45208 20.8971 1.90216C21.3472 2.35225 21.6 2.9627 21.6 3.59922V4.74042C21.6 5.05868 21.4736 5.3639 21.2486 5.58895C21.0235 5.81399 20.7183 5.94042 20.4 5.94042C20.0818 5.94042 19.7765 5.81399 19.5515 5.58895C19.3265 5.3639 19.2 5.05868 19.2 4.74042V3.59922H4.80002V20.3992H19.2V19.258C19.2 18.9398 19.3265 18.6345 19.5515 18.4095C19.7765 18.1844 20.0818 18.058 20.4 18.058C20.7183 18.058 21.0235 18.1844 21.2486 18.4095C21.4736 18.6345 21.6 18.9398 21.6 19.258V20.3992C21.6 21.0357 21.3472 21.6462 20.8971 22.0963C20.447 22.5464 19.8365 22.7992 19.2 22.7992ZM21.252 11.1472L17.652 7.54722C17.5401 7.43533 17.4073 7.34658 17.2611 7.28603C17.1149 7.22547 16.9583 7.19431 16.8 7.19431C16.4805 7.19431 16.174 7.32125 15.948 7.54722C15.8361 7.6591 15.7474 7.79193 15.6868 7.93812C15.6263 8.08431 15.5951 8.24099 15.5951 8.39922C15.5951 8.71878 15.7221 9.02525 15.948 9.25122L17.496 10.7992H10.8C10.4818 10.7992 10.1765 10.9256 9.9515 11.1507C9.72645 11.3757 9.60003 11.681 9.60003 11.9992C9.60003 12.3175 9.72645 12.6227 9.9515 12.8477C10.1765 13.0728 10.4818 13.1992 10.8 13.1992H17.496L15.948 14.7472C15.7221 14.9732 15.5951 15.2797 15.5951 15.5992C15.5951 15.9188 15.7221 16.2253 15.948 16.4512C16.174 16.6772 16.4805 16.8041 16.8 16.8041C17.1196 16.8041 17.4261 16.6772 17.652 16.4512L21.252 12.8512C21.4768 12.6246 21.603 12.3184 21.603 11.9992C21.603 11.68 21.4768 11.3738 21.252 11.1472Z" fill="#222733"/>
</svg>
