<svg width="20" height="20" viewBox="0 0 20 20" fill="none" xmlns="http://www.w3.org/2000/svg">
<path d="M12 1.00002C10.7007 0.99741 9.42643 1.35713 8.32033 2.03878C7.21422 2.72042 6.32009 3.69697 5.73837 4.85875C5.15665 6.02052 4.9104 7.32148 5.02727 8.61548C5.14414 9.90949 5.6195 11.1453 6.39996 12.184L1.29296 17.293C1.19745 17.3853 1.12127 17.4956 1.06886 17.6176C1.01645 17.7396 0.988862 17.8708 0.987709 18.0036C0.986555 18.1364 1.01186 18.2681 1.06214 18.391C1.11242 18.5139 1.18667 18.6255 1.28056 18.7194C1.37446 18.8133 1.48611 18.8876 1.60901 18.9378C1.7319 18.9881 1.86358 19.0134 1.99636 19.0123C2.12914 19.0111 2.26036 18.9835 2.38236 18.9311C2.50437 18.8787 2.61471 18.8025 2.70696 18.707L7.81496 13.6C8.7028 14.2659 9.73624 14.7111 10.83 14.899C11.9238 15.0868 13.0466 15.0119 14.1057 14.6805C15.1648 14.349 16.13 13.7704 16.9215 12.9925C17.713 12.2146 18.3083 11.2597 18.6581 10.2065C19.0079 9.15326 19.1023 8.03195 18.9335 6.93508C18.7646 5.8382 18.3374 4.79718 17.6871 3.89791C17.0367 2.99864 16.1818 2.26689 15.193 1.76303C14.2042 1.25917 13.1098 0.997641 12 1.00002ZM12 13C11.0111 13 10.0444 12.7068 9.22211 12.1574C8.39986 11.608 7.759 10.8271 7.38056 9.91343C7.00212 8.9998 6.90311 7.99447 7.09603 7.02456C7.28896 6.05466 7.76516 5.16374 8.46443 4.46448C9.16369 3.76522 10.0546 3.28902 11.0245 3.09609C11.9944 2.90316 12.9997 3.00218 13.9134 3.38062C14.827 3.75906 15.6079 4.39992 16.1573 5.22217C16.7067 6.04441 17 7.01111 17 8.00002C16.9984 9.32561 16.4711 10.5965 15.5337 11.5338C14.5964 12.4711 13.3256 12.9984 12 13Z" fill="#777C87"/>
</svg>
