<svg width="24" height="24" viewBox="0 0 24 24" fill="none" xmlns="http://www.w3.org/2000/svg">
<path d="M11.9997 16.1992C11.169 16.1992 10.357 15.9529 9.66627 15.4914C8.97558 15.0299 8.43726 14.3739 8.11937 13.6065C7.80148 12.839 7.71831 11.9946 7.88036 11.1798C8.04242 10.3651 8.44243 9.61675 9.02981 9.02937C9.61719 8.44199 10.3656 8.04198 11.1803 7.87992C11.995 7.71786 12.8395 7.80104 13.6069 8.11892C14.3744 8.43681 15.0303 8.97514 15.4918 9.66582C15.9533 10.3565 16.1997 11.1685 16.1997 11.9992C16.1997 13.1131 15.7572 14.1814 14.9695 14.9691C14.1819 15.7567 13.1136 16.1992 11.9997 16.1992ZM11.9997 10.1992C11.6437 10.1992 11.2956 10.3048 10.9996 10.5026C10.7036 10.7004 10.4729 10.9815 10.3367 11.3104C10.2004 11.6393 10.1648 12.0012 10.2342 12.3504C10.3037 12.6995 10.4751 13.0203 10.7269 13.272C10.9786 13.5237 11.2993 13.6952 11.6485 13.7646C11.9977 13.8341 12.3596 13.7984 12.6885 13.6622C13.0174 13.526 13.2985 13.2953 13.4963 12.9992C13.6941 12.7032 13.7997 12.3552 13.7997 11.9992C13.7997 11.5218 13.61 11.064 13.2725 10.7264C12.9349 10.3889 12.4771 10.1992 11.9997 10.1992ZM14.1333 22.7992H9.86606C9.58943 22.7993 9.32127 22.7038 9.10697 22.5288C8.89267 22.3539 8.74539 22.1103 8.69006 21.8392L8.36126 20.2252C7.733 19.9476 7.13904 19.598 6.59126 19.1836L4.91126 19.7392C4.65156 19.8251 4.3703 19.8197 4.11409 19.7239C3.85787 19.6281 3.64208 19.4476 3.50246 19.2124L1.37006 15.6124C1.22591 15.3694 1.17215 15.0833 1.21825 14.8045C1.26435 14.5257 1.40735 14.2721 1.62206 14.0884L3.04766 12.868C2.98689 12.2912 2.98689 11.7096 3.04766 11.1328L1.61966 9.91122C1.40495 9.72752 1.26195 9.47394 1.21585 9.19516C1.16975 8.91637 1.22351 8.63026 1.36766 8.38722L3.50006 4.78722C3.63968 4.55199 3.85547 4.37152 4.11169 4.27571C4.3679 4.1799 4.64916 4.17451 4.90886 4.26042L6.58886 4.81602C7.13664 4.4016 7.7306 4.05207 8.35886 3.77442L8.69006 2.15922C8.74539 1.88817 8.89267 1.64456 9.10697 1.46963C9.32127 1.29469 9.58943 1.19916 9.86606 1.19922H14.1333C14.4099 1.19916 14.6781 1.29469 14.8924 1.46963C15.1067 1.64456 15.2539 1.88817 15.3093 2.15922L15.6381 3.77322C16.2663 4.05087 16.8603 4.4004 17.4081 4.81482L19.0881 4.25922C19.3478 4.17331 19.629 4.1787 19.8852 4.27451C20.1415 4.37032 20.3572 4.55079 20.4969 4.78602L22.6293 8.38602C22.7734 8.62906 22.8272 8.91517 22.7811 9.19396C22.735 9.47274 22.592 9.72632 22.3773 9.91002L20.9541 11.1316C21.0148 11.7084 21.0148 12.29 20.9541 12.8668L22.3797 14.0872C22.5944 14.2709 22.7374 14.5245 22.7835 14.8033C22.8296 15.0821 22.7758 15.3682 22.6317 15.6112L20.4993 19.2112C20.3596 19.4464 20.1439 19.6269 19.8876 19.7227C19.6314 19.8185 19.3502 19.8239 19.0905 19.738L17.4105 19.1824C16.8627 19.5968 16.2687 19.9464 15.6405 20.224L15.3093 21.8392C15.2539 22.1103 15.1067 22.3539 14.8924 22.5288C14.6781 22.7038 14.4099 22.7993 14.1333 22.7992ZM10.8465 20.3992H13.1529L13.4157 19.1104C13.4569 18.9072 13.5501 18.7181 13.6862 18.5617C13.8222 18.4052 13.9965 18.2867 14.1921 18.2176C14.9921 17.936 15.7298 17.5015 16.3641 16.9384C16.5213 16.7995 16.7121 16.7043 16.9176 16.6622C17.1231 16.6201 17.3361 16.6326 17.5353 16.6984L18.9261 17.1568L20.0529 15.2548L18.8949 14.2636C18.7365 14.1282 18.6162 13.9538 18.5457 13.7577C18.4752 13.5616 18.457 13.3505 18.4929 13.1452C18.6353 12.3879 18.6353 11.6106 18.4929 10.8532C18.457 10.6479 18.4752 10.4369 18.5457 10.2408C18.6162 10.0447 18.7365 9.87029 18.8949 9.73482L20.0529 8.74362L18.9261 6.83922L17.5353 7.29762C17.3361 7.36347 17.1231 7.37597 16.9176 7.33386C16.7121 7.29175 16.5213 7.1965 16.3641 7.05762C15.7298 6.49453 14.9921 6.06008 14.1921 5.77842C13.9965 5.70937 13.8222 5.59083 13.6862 5.43436C13.5501 5.27789 13.4569 5.08883 13.4157 4.88562L13.1529 3.59922H10.8465L10.5837 4.88802C10.5424 5.09123 10.4492 5.28029 10.3131 5.43676C10.1771 5.59323 10.0028 5.71177 9.80726 5.78082C9.00723 6.06248 8.26955 6.49693 7.63526 7.06002C7.47805 7.1989 7.28718 7.29415 7.08168 7.33626C6.87618 7.37837 6.66323 7.36587 6.46406 7.30002L5.07326 6.83922L3.94646 8.74362L5.10446 9.73482C5.26281 9.87029 5.38315 10.0447 5.45364 10.2408C5.52413 10.4369 5.54233 10.6479 5.50646 10.8532C5.36406 11.6106 5.36406 12.3879 5.50646 13.1452C5.54233 13.3505 5.52413 13.5616 5.45364 13.7577C5.38315 13.9538 5.26281 14.1282 5.10446 14.2636L3.94646 15.2548L5.07326 17.1592L6.46406 16.7008C6.66323 16.635 6.87618 16.6225 7.08168 16.6646C7.28718 16.7067 7.47805 16.8019 7.63526 16.9408C8.26955 17.5039 9.00723 17.9384 9.80726 18.22C10.0028 18.2891 10.1771 18.4076 10.3131 18.5641C10.4492 18.7205 10.5424 18.9096 10.5837 19.1128L10.8465 20.3992Z" fill="#222733"/>
</svg>
