<svg xmlns="http://www.w3.org/2000/svg" xmlns:xlink="http://www.w3.org/1999/xlink" width="60" height="60"><g transform="translate(-13677 -2916)"><mask id="a"><use fill="#fff" transform="rotate(45.01 3337.01 17997.98)" xlink:href="#path0_fill"/></mask><g mask="url(#a)"><use fill="#D3D808" transform="rotate(45.01 3337.01 17997.98)" xlink:href="#path1_stroke_2x"/></g></g><defs><path id="path0_fill" d="M0 5a5 5 0 0 1 5-5h35a5 5 0 0 1 5 5v35a5 5 0 0 1-5 5H5a5 5 0 0 1-5-5V5z"/><path id="path1_stroke_2x" d="M5 6h35V-6H5V6zm34-1v35h12V5H39zm1 34H5v12h35V39zM6 40V5H-6v35H6zm-1-1a1 1 0 0 1 1 1H-6A11 11 0 0 0 5 51V39zm34 1a1 1 0 0 1 1-1v12a11 11 0 0 0 11-11H39zm1-34a1 1 0 0 1-1-1h12A11 11 0 0 0 40-6V6zM5-6A11 11 0 0 0-6 5H6a1 1 0 0 1-1 1V-6z"/></defs></svg>