<svg xmlns="http://www.w3.org/2000/svg" xmlns:xlink="http://www.w3.org/1999/xlink" width="30" height="30"><g transform="translate(-12621 -3350)"><mask id="a"><use fill="#fff" transform="rotate(45 2276.54 16927.02)" xlink:href="#path0_fill"/></mask><g mask="url(#a)"><use fill="#F0DD16" transform="rotate(45 2276.54 16927.02)" xlink:href="#path1_stroke_2x"/></g></g><defs><path id="path0_fill" d="M0 5a5 5 0 0 1 5-5h14.04a5 5 0 0 1 5 5v14.04a5 5 0 0 1-5 5H5a5 5 0 0 1-5-5V5z"/><path id="path1_stroke_2x" d="M5 4h14.04v-8H5v8zm15.04 1v14.04h8V5h-8zm-1 15.04H5v8h14.04v-8zM4 19.04V5h-8v14.04h8zm1 1a1 1 0 0 1-1-1h-8a9 9 0 0 0 9 9v-8zm15.04-1a1 1 0 0 1-1 1v8a9 9 0 0 0 9-9h-8zM19.04 4a1 1 0 0 1 1 1h8a9 9 0 0 0-9-9v8zM5-4a9 9 0 0 0-9 9h8a1 1 0 0 1 1-1v-8z"/></defs></svg>