<?xml version="1.0" encoding="UTF-8" standalone="no"?>
<svg width="24px" height="24px" viewBox="0 0 24 24" version="1.1" xmlns="http://www.w3.org/2000/svg" xmlns:xlink="http://www.w3.org/1999/xlink">
    <!-- Generator: Sketch 3.8.3 (29802) - http://www.bohemiancoding.com/sketch -->
    <title>Fill 1</title>
    <desc>Created with Sketch.</desc>
    <defs></defs>
    <g id="Symbols" stroke="none" stroke-width="1" fill="none" fill-rule="evenodd">
        <g id="header" transform="translate(-20.000000, -18.000000)" fill="#00417B">
            <g id="Fill-1">
                <path d="M39.2000495,27.5996537 L39.2000495,22.7997031 L44,22.7997031 L43.9995052,27.5996537 L39.2000495,27.5996537 Z M39.2000495,32.398862 L43.9992579,32.398862 L43.9992579,37.1995547 L39.2000495,37.1995547 L39.2000495,32.398862 Z M39.2000495,37.1995547 L43.9992579,37.1995547 L43.9992579,41.9997526 L39.2000495,41.9997526 L39.2000495,37.1995547 Z M34.4003463,18 L39.2000495,18 L39.2000495,22.7997031 L34.4003463,22.7997031 L34.4003463,18 Z M34.4003463,22.7997031 L39.2000495,22.7997031 L39.2000495,27.5994063 L34.4003463,27.5994063 L34.4003463,22.7997031 Z M34.4003463,27.5996537 L39.2000495,27.5996537 L39.2000495,32.4013359 L34.4003463,32.4013359 L34.4003463,27.5996537 Z M29.601138,18 L34.4003463,18 L34.4003463,22.7997031 L29.601138,22.7997031 L29.601138,18 Z M29.601138,27.5996537 L34.4003463,27.5996537 L34.4003463,32.398862 L29.601138,32.398862 L29.601138,27.5996537 Z M29.601138,42 L29.601138,37.2000495 L34.4003463,37.1995547 L34.4003463,42 L29.601138,42 Z M24.8006927,22.7997031 L29.6008906,22.7997031 L29.6008906,27.5994063 L24.8006927,27.5994063 L24.8006927,22.7997031 Z M24.7997031,32.398862 L24.8006927,27.5996537 L29.601138,27.5996537 L29.601138,32.398862 L24.7997031,32.398862 Z M24.7997031,32.398862 L29.6008906,32.398862 L29.6008906,37.2000495 L24.7997031,37.2000495 L24.7997031,32.398862 Z M20.0004948,22.7997031 L20,18 L24.7997031,18 L24.8006927,22.7997031 L20.0004948,22.7997031 Z M20,27.5996537 L20.0004948,22.7997031 L24.8006927,22.7997031 L24.8006927,27.5996537 L20,27.5996537 Z M20,32.398862 L24.7997031,32.398862 L24.7997031,37.2000495 L20,37.2000495 L20,32.398862 Z M20,37.2000495 L24.7997031,37.2000495 L24.7997031,41.9997526 L20,41.9997526 L20,37.2000495 Z"></path>
            </g>
        </g>
    </g>
</svg>