<svg xmlns="http://www.w3.org/2000/svg" width="40" height="40" fill="none"><path fill="#fff" fill-rule="evenodd" d="M40 20a20 20 0 1 1-40 0 20 20 0 0 1 40 0zm-4.14 0a15.86 15.86 0 1 1-31.72 0 15.86 15.86 0 0 1 31.72 0z" clip-rule="evenodd" opacity=".3"/><mask id="a" width="40" height="40" x="0" y="0" maskUnits="userSpaceOnUse"><path fill="#fff" fill-rule="evenodd" d="M40 20a20 20 0 1 1-40 0 20 20 0 0 1 40 0zm-4.14 0a15.86 15.86 0 1 1-31.72 0 15.86 15.86 0 0 1 31.72 0z" clip-rule="evenodd"/></mask><g mask="url(#a)"><path fill="#DEE240" fill-rule="evenodd" d="M20.12-2.67V20.1H46l8.5-8.59L39.33 2l-19.2-4.67z" clip-rule="evenodd"/></g></svg>