<svg width="61" height="70" viewBox="0 0 61 70" version="1.1" xmlns="http://www.w3.org/2000/svg" xmlns:xlink="http://www.w3.org/1999/xlink">
<g id="Canvas" fill="none">
<g id="sand-clock">
<g id="Vector">
<path d="M 23.9878 3.63139L 23.9878 11.2738L 22.8455 11.2749L 1.65582e-07 11.2749L 0.00228455 7.21381L 11.3965 1.14865C 14.2761 -0.383449 17.7133 -0.38232 20.5906 1.14865L 23.3892 2.63784L 23.9878 3.63139Z" transform="translate(9.13623 48.5627)" fill="url(#paint0_linear)"/>
</g>
<g id="Group">
<g id="Vector_2">
<path d="M 1.14227 2.25806C 1.77314 2.25806 2.28455 1.75258 2.28455 1.12903C 2.28455 0.505485 1.77314 0 1.14227 0C 0.511414 0 0 0.505485 0 1.12903C 0 1.75258 0.511414 2.25806 1.14227 2.25806Z" transform="translate(23.9873 35)" fill="#333333"/>
</g>
<g id="Vector_3">
<path d="M 1.14227 2.25806C 1.77314 2.25806 2.28455 1.75258 2.28455 1.12903C 2.28455 0.505485 1.77314 0 1.14227 0C 0.511414 0 0 0.505485 0 1.12903C 0 1.75258 0.511414 2.25806 1.14227 2.25806Z" transform="translate(23.9873 39.5161)" fill="#333333"/>
</g>
<g id="Vector_4">
<path d="M 1.14227 2.25806C 1.77314 2.25806 2.28455 1.75258 2.28455 1.12903C 2.28455 0.505485 1.77314 0 1.14227 0C 0.511414 0 0 0.505485 0 1.12903C 0 1.75258 0.511414 2.25806 1.14227 2.25806Z" transform="translate(23.9873 44.0323)" fill="#333333"/>
</g>
<g id="Vector_5">
<path d="M 60.5405 50.8064L 56.7219 50.8064L 59.4211 48.1374L 52.9604 41.7516L 50.2601 44.4195L 50.2601 40.6452L 46.8332 40.6452L 46.8332 39.3558C 48.7991 38.8511 50.2601 37.0989 50.2601 35C 50.2601 32.9011 48.7991 31.1489 46.8332 30.6442L 46.8332 5.89355C 47.5289 5.27258 47.9755 4.38403 47.9755 3.3871C 47.9755 1.51968 46.438 0 44.5487 0L 5.71137 0C 3.82205 0 2.28455 1.51968 2.28455 3.3871C 2.28455 4.38403 2.73118 5.27258 3.42682 5.89355L 3.42682 30.6442C 1.46097 31.1489 0 32.9011 0 35C 0 37.0989 1.46097 38.8511 3.42682 39.3558L 3.42682 64.1065C 2.73118 64.7274 2.28455 65.616 2.28455 66.6129C 2.28455 68.4803 3.82205 70 5.71137 70L 41.1219 70L 43.4064 70L 50.2601 70L 50.2601 66.2256L 52.9604 68.8935L 59.4211 62.5077L 56.7219 59.8387L 60.5405 59.8387L 60.5405 50.8064ZM 47.9755 35C 47.9755 36.2453 46.9509 37.2581 45.691 37.2581C 44.431 37.2581 43.4064 36.2453 43.4064 35C 43.4064 33.7547 44.431 32.7419 45.691 32.7419C 46.9509 32.7419 47.9755 33.7547 47.9755 35ZM 44.5487 30.6442C 42.5828 31.1489 41.1219 32.9011 41.1219 35C 41.1219 37.0989 42.5828 38.8511 44.5487 39.3558L 44.5487 40.6452L 41.1219 40.6452L 41.1219 44.4195L 40.2103 43.5185C 39.0075 40.2568 36.6978 37.5482 33.664 35.8784L 32.0671 35L 33.6628 34.1227C 38.2628 31.5915 41.123 26.7863 41.1264 21.5837L 41.1402 6.77419L 44.5487 6.77419L 44.5487 30.6442ZM 31.9597 48.1374L 34.66 50.8064L 31.9837 50.8064L 30.8414 50.8064L 30.8414 51.9355L 30.8414 58.7097L 11.409 58.7097L 11.417 48.4197C 11.4205 44.0334 13.8295 39.9836 17.7075 37.8519L 21.0978 35.9879C 21.4599 35.7881 21.6849 35.411 21.6849 35.0011C 21.6849 34.5913 21.4611 34.2142 21.0978 34.0144L 17.7075 32.1503C 13.8786 30.0447 11.4913 26.0671 11.4285 21.7452L 25.13 24.8681L 38.8316 21.7429C 38.7688 26.066 36.3814 30.0424 32.5525 32.1481L 29.1623 34.0121C 28.8002 34.2119 28.5751 34.589 28.5751 34.9989C 28.5751 35.4087 28.799 35.7858 29.1623 35.9856L 32.5525 37.8497C 34.6201 38.9866 36.2912 40.696 37.3924 42.7655L 32.7673 47.3369L 31.9597 48.1374ZM 11.4068 60.9677L 33.5178 60.9677L 31.9597 62.5077L 32.6862 63.2258L 11.4045 63.2258L 11.4068 60.9677ZM 11.4159 19.4227L 11.409 11.2903L 38.8522 11.2903L 38.8453 19.4227L 25.13 22.5513L 11.4159 19.4227ZM 38.8533 9.03226L 11.4068 9.03226L 11.4045 6.77419L 38.8545 6.77419L 38.8533 9.03226ZM 5.71137 2.25806L 44.5487 2.25806C 45.1792 2.25806 45.691 2.76387 45.691 3.3871C 45.691 4.01032 45.1792 4.51613 44.5487 4.51613L 39.999 4.51613L 10.2611 4.51613L 5.71137 4.51613C 5.08084 4.51613 4.5691 4.01032 4.5691 3.3871C 4.5691 2.76387 5.08084 2.25806 5.71137 2.25806ZM 2.28455 35C 2.28455 33.7547 3.30917 32.7419 4.5691 32.7419C 5.82903 32.7419 6.85365 33.7547 6.85365 35C 6.85365 36.2453 5.82903 37.2581 4.5691 37.2581C 3.30917 37.2581 2.28455 36.2453 2.28455 35ZM 5.71137 39.3558C 7.67723 38.8511 9.1382 37.0989 9.1382 35C 9.1382 32.9011 7.67723 31.1489 5.71137 30.6442L 5.71137 6.77419L 9.11992 6.77419L 9.13248 21.5826C 9.13591 26.7852 11.9962 31.5903 16.5961 34.1216L 18.193 35L 16.5972 35.8773C 11.9973 38.4086 9.13705 43.2137 9.13363 48.4163L 9.11992 63.2258L 5.71137 63.2258L 5.71137 39.3558ZM 5.71137 67.7419C 5.08084 67.7419 4.5691 67.2361 4.5691 66.6129C 4.5691 65.9897 5.08084 65.4839 5.71137 65.4839L 10.2611 65.4839L 34.9707 65.4839L 37.2553 67.7419L 5.71137 67.7419ZM 41.1219 67.7419L 39.5878 67.7419L 41.1219 66.2256L 41.1219 67.7419ZM 58.256 57.5806L 54.5664 57.5806L 54.2969 58.3337C 54.1895 58.634 54.0673 58.9242 53.9302 59.2087L 53.5841 59.929L 56.1919 62.5077L 52.9616 65.7006L 50.3526 63.1231L 49.6238 63.4652C 49.336 63.6006 49.0413 63.7226 48.7386 63.8276L 47.9755 64.0952L 47.9755 67.7419L 43.4064 67.7419L 43.4064 64.0952L 42.6445 63.8287C 42.3407 63.7226 42.0471 63.6018 41.7593 63.4663L 41.0305 63.1242L 38.4215 65.7018L 36.2524 63.5577L 35.9165 63.2258L 35.19 62.5077L 37.7979 59.929L 37.4517 59.2087C 37.3147 58.9242 37.1913 58.6329 37.0851 58.3337L 36.8155 57.5806L 36.0079 57.5806L 33.126 57.5806L 33.126 53.0645L 36.0079 53.0645L 36.8155 53.0645L 37.0851 52.3115C 37.1925 52.0111 37.3147 51.721 37.4517 51.4365L 37.7979 50.7161L 35.19 48.1374L 38.4204 44.9445L 38.4284 44.9524L 41.0294 47.5221L 41.7581 47.18C 42.046 47.0445 42.3407 46.9226 42.6434 46.8176L 43.4064 46.55L 43.4064 42.9032L 47.9755 42.9032L 47.9755 46.55L 48.7374 46.8165C 49.0413 46.9226 49.3348 47.0434 49.6227 47.1789L 50.3515 47.521L 52.9604 44.9434L 56.1908 48.1363L 53.583 50.715L 53.9291 51.4353C 54.0661 51.7198 54.1895 52.0111 54.2957 52.3103L 54.5664 53.0645L 58.256 53.0645L 58.256 57.5806Z" fill="#015486"/>
</g>
<g id="Vector_6">
<path d="M 5.71137 0C 2.56212 0 0 2.53242 0 5.64516C 0 8.7579 2.56212 11.2903 5.71137 11.2903C 8.86062 11.2903 11.4227 8.7579 11.4227 5.64516C 11.4227 2.53242 8.86062 0 5.71137 0ZM 5.71137 9.03226C 3.82205 9.03226 2.28455 7.51258 2.28455 5.64516C 2.28455 3.77774 3.82205 2.25806 5.71137 2.25806C 7.60069 2.25806 9.13819 3.77774 9.13819 5.64516C 9.13819 7.51258 7.60069 9.03226 5.71137 9.03226Z" transform="translate(39.979 49.6775)" fill="#015486"/>
</g>
</g>
</g>
</g>
<defs>

<linearGradient id="paint0_linear" x2="1" gradientUnits="userSpaceOnUse" gradientTransform="matrix(0 10.984 -15.1897 0 19.615 -0.101691)">
<stop stop-color="#41CFC8" stop-opacity="0.7"/>
<stop offset="1" stop-color="#24C4BC"/>
</linearGradient>

</defs>
</svg>

