<svg height="53" viewBox="0 0 54 53" width="54" xmlns="http://www.w3.org/2000/svg"><g fill="none" fill-rule="evenodd"><path d="m26.7326733 53c14.7640477 0 26.7326732-11.8644541 26.7326732-26.5s-11.9686255-26.5-26.7326732-26.5c-14.7640478 0-26.7326733 11.8644541-26.7326733 26.5s11.9686255 26.5 26.7326733 26.5z" fill="#f7f7f7"/><path d="m26.7413793 12-1.0344827.0323661.0323275 1.0357143 1.0344828-.0323661zm1.0991379.0647321-.0969827 1.0357143.387931.0323661h.0323276l.5818966.0970982.1616379-1.0033482-.6142242-.1294643h-.0323275zm-3.200431.0647322-.5172414.0647321h-.0323276-.0323275l-.4849138.1294643.2262931 1.0033482.4525862-.0970982h.0323276l.4849138-.0647321zm5.3340517.2912946-.2909482 1.0033482 1.0021551.2912947.2909483-1.0033482zm-7.4676724.1294643-.9698276.3236607.3232759 1.0033482.9698276-.3236607zm-5.8836207.5178572c-1.1283409 0-2.0689655.9149009-2.0689655 2.0390625v1.6183035c0 .3800374.2084081.6311578.387931.90625-.3612273.1751314-1.0390212.5183589-1.6487069.8415179-.3872054.2046479-.6735235.3998266-.9051724.6473214-.2316488.2474948-.387931.5754853-.387931.90625v.5825893c0 .420559.3029885.7120536.7112069.7120536h.2586207l-.1616379.453125.9698275.3560268.2909483-.8091518h6.4978448c.066538 0 .1336169-.0172768.1939656-.0323661l.2586207.2265625.7112068-.7444196-.4525862-.420759v-.1941964c0-.515459-.1927965-1.0728204-.7112069-1.3917411-.0102941-.0112604-.0210805-.0220596-.0323275-.032366-.737135-.4011389-1.3623366-.7205181-1.8103449-.9386161-.0147507-.0072086-.0181034.00696-.0323276 0-.1952607-.0955872-.2468564-.139837-.3556034-.1941964.1646634-.2639781.3556034-.5110973.3556034-.873884v-1.1975446l.5172414-.3560268-.5818965-.8415179-.0646552.0647322c-.2995344-.7684314-1.0666322-1.3270089-1.9396552-1.3270089zm15.3556035.032366-.3556035.9709822.3232759.1294643.0646552.032366.4849138.2265625.4849137-.90625-.5495689-.2912946h-.0323276zm5.3663793.0323661c-1.1293821-.0013671-2.0689655.8840696-2.0689655 2.0066964v.6473215l-.2586207.3236607.2586207.1941964v.453125c0 .3614104.19032.6088572.3556034.8738839-.1177324.0587923-.1704879.0873449-.387931.1941965-.4436969.2174744-1.0645614.5310535-1.8103448.938616-.0112471.0103065-.0220335.0211057-.0323276.0323661-.3904666.2387724-.6008731.614051-.6788793 1.0033482l-.0323276-.0323661-.7112069.7444197.7435345.7120536.1293103-.1294643c.1191383.1537362.2841745.2589285.5172414.2589285.0107732.0003372.0215543.0003372.0323276 0h5.4956896l.161638.3560268.8081896-.3560268h1.3900862c.4039831 0 .7112069-.2914945.7112069-.7120535v-.5825893c0-.3316499-.1562462-.6591023-.387931-.90625-.2316848-.2471478-.5192317-.4427569-.9051724-.6473214-.6112045-.3230371-1.2881162-.6669624-1.6487069-.8415179.1797496-.2751764.387931-.5258298.387931-.90625v-1.6183036c0-1.123306-.9396331-2.0066964-2.0689655-2.0066964zm-16.8103448.1618304-.3879311.1618303-.0323276.0323661-.5495689.2912946.4849138.90625.5172413-.2912946h.0323276l.3556035-.1618304zm13.3836206.7767857-.5495689.8738839.8728448.5502232.549569-.8738839zm-17.2952586.032366c.5806246 0 1.0344828.4572604 1.0344828 1.0033483v1.6183035c0 .1942357-.0893773.3594997-.2586207.5502232-.0864646.0980676-.1326615.2252602-.1293103.3560268v.2912947c.0047248.1936278.1169669.3684344.2909482.453125.0954551.0477843.2821815.1621327.6788793.3560268.0107733.0003372.0215544.0003372.0323276 0 .4420535.2151713 1.0339655.5199015 1.7456897.90625.168486.1036507.2262931.2648161.2262931.5178571v.1294643h-7.2090517v-.2589286c0-.0731639-.0026587-.1201019.0969827-.2265625.0996443-.1064605.3106537-.2432283.6465517-.4207589.7037778-.3730318 1.8339192-.9044279 1.9719828-.9709822.1845697-.0897383.2987178-.2802117.2909483-.485491v-.2265625c-.0053354-.1352645-.0633558-.2630612-.161638-.3560268-.1871134-.1951418-.2909482-.4071594-.2909482-.6149554v-1.6183035c0-.5474813.4538582-1.0033483 1.0344827-1.0033483zm20.7219828.0647322c.583771 0 1.0344827.4226453 1.0344827.9709821v1.6183036c0 .2093046-.1045944.4213828-.2909482.6149554-.0982822.0929655-.1563026.2207623-.161638.3560267v.2265625c-.0077695.2052793.1063786.3957527.2909483.4854911.1399324.0674551 1.2659059.5978027 1.9719828.9709822.3350938.177614.5464262.3463173.6465517.453125.1001276.1068076.0969828.1219177.0969828.1941964v.2589286h-7.2090518v-.1294643c0-.253041.0558828-.413649.2262931-.5178572.7075407-.3855882 1.3041321-.6898238 1.7456897-.90625.3963414-.1947612.61893-.3107759.7112069-.3560268.1739813-.0846905.2862234-.2594971.2909483-.453125v-.2912946c.0033511-.1307667-.0428458-.2579593-.1293104-.3560268-.1691121-.1888198-.2586207-.3539976-.2586207-.5502232v-1.6183036c0-.5469445.4528304-.9716863 1.0344828-.9709821zm-6.0775862 7.0881696-.7112069.7767857.7435345.7120536.7112069-.7767857zm-4.299569.0647322c-1.221421 0-2.2283348.9296022-2.424569 2.1037946l-.5495689-.5178571-.7112069.7444196.7435345.7120536.4525862-.4854911v1.9743304c0 .5193838.2874341.900015.5495689 1.2622768v.032366c-.38238.1903115-1.3833806.6566978-2.1982758 1.1004465-.48039.2615468-.8261731.5090256-1.099138.8091517-.2729648.3001262-.4525862.6817983-.4525862 1.0680804v.7767857c0 .4363205.3020328.7767857.7435345.7767857h9.924569c.4360531-.003625.7435345-.3096123.7435345-.7444196v-.6149554c0-.6237299-.2313962-1.2993284-.8405173-1.6830357-.0102941-.0112604-.0210805-.0220596-.0323276-.0323661-.9368834-.5240217-1.7320469-.9156035-2.2952586-1.1975446-.3261486-.163269-.4316534-.213209-.5818965-.2912946v-.0647322c.2381731-.3465904.4849138-.7058113.4849138-1.1975446v-2.0390625l.4525862.4207589.7112069-.7444196-.7435345-.7120536-.4849138.5178571c-.2292104-1.1212145-1.2055097-1.9743303-2.3922414-1.9743303zm-4.4935345.1618303-.7112069.7444197.7758621.7120535.7112069-.7444196zm17.8771552.8415179-1.0021552.3236607.1293104.3560268v.0323661l.1293103.5502232 1.0021552-.1941965-.1293104-.6149553v-.0323661-.0323661zm-13.3836207.0323661c.7933904 0 1.4224138.6248599 1.4224138 1.4241071v2.0714286c0 .301544-.1604814.6098969-.387931.8738839-.0675609.0939971-.1017068.2079523-.0969828.3236607v.3883929c-.0016581.1866679.0971485.3597854.2586207.453125.1216883.0634375.4050228.2027524.9051724.453125.555899.2782809 1.2972083.6621715 2.1982759 1.1651785.2557065.1610785.387931.438596.387931.8091518v.3236607h-9.3426724v-.5178571c0-.1367536.0184862-.1986262.1616379-.3560268.1431559-.1574006.4115969-.3814308.8405173-.6149553.8893117-.4842721 2.3036814-1.169395 2.4892241-1.2622768.1614722-.0933396.2602789-.2664571.2586207-.453125v-.3236607c.0033511-.1307667-.0428457-.2579593-.1293103-.3560268-.2512107-.2698927-.4202587-.5788493-.4202587-.90625v-2.0390625c0-.8002198.6587421-1.4564732 1.4547414-1.4564732zm-14.4827586.453125-.1293104.485491v.0323661l-.0969827.5502232 1.0021552.1618304.0969827-.4854911v-.0323661l.1293104-.4207589zm28.3189655 1.6183035-1.0344827.1294643.1293103.9709822v.032366.0323661l.3556034-.0323661.161638-.032366h.5172414v-.0323661-.0323661zm-28.7068965.5178572-.0969828 1.0357143 1.0344828.0647321.0969827-1.0357143zm28.8685344 1.6183035-1.0344827.0323661v.2265625.0647322l-.0646552.6796875 1.0344828.0647321.0646551-.7120536v-.032366-.0323661zm-28.9331896.4854911v.4207589.0323661.0323661l.0646552.6149553 1.0344827-.1294642-.0646552-.5502233v-.0647321-.3560268zm27.737069 1.4888393-.161638.90625v.0323661.032366l.9698276.2912947.0323276-.0970982v-.0323661l.1616379-.9386161zm-26.4762932.453125-1.0344827.2265625.2262931 1.0033482 1.0021552-.2265625zm26.0237069 1.5212054-.0646551.1941964-.2586207.7120536.9375.3883928.2909483-.7120536v-.032366h.0323275l.0646552-.2912947zm-22.6939655.1618303c-1.1297485 0-2.0689655.9164352-2.0689655 2.0390625v.0647322l-.8728448.453125.4525862.8415178.0323276.0323661.0323276.0970982.3556034-.2265625v.3236607c0 .3804199.2081813.6310732.387931.90625-.3605911.1745552-1.0375025.5184807-1.6487069.8415179-.3859402.2045649-.6734872.4001741-.9051724.6473214-.2316851.2471473-.387931.5745998-.387931.90625v.6149554c0 .4181924.3139482.6756285.7112069.6796875l7.0797414.032366-.161638.3236607.9051725.4854911h.0323275.0323276l.2909483-.7444196.1293104-.1941965c.1816572-.1239739.2909482-.3268486.2909482-.5825892v-.453125c0-.5154595-.2251241-1.1051869-.7435345-1.4241072-.0107732-.0003372-.0215543-.0003372-.0323275 0-.5984961-.3261516-1.0436302-.5392436-1.4547414-.7444196l.0969827-.0970982-.6465517-.6473215c.0844306-.1643751.1616379-.335793.1616379-.5502232v-1.5859375c-.0013965-1.1209204-.9406245-2.0390625-2.0689655-2.0390625zm20.7219828 0c-1.1297483 0-2.0689655.9157568-2.0689655 2.0390625v1.5859375c0 .2351092.0907262.4101626.1939655.5825893l-.1939655.1941964.2262931.2265625c-.3680731.1813122-.9307914.4504125-1.487069.7444197-.3859407.2045649-.6734876.4001741-.9051724.6473214s-.387931.5745998-.387931.90625v.6149554c0 .420559.3072238.6796875.7112069.6796875l7.8556034.032366c.4082183 0 .7112069-.2914945.7112069-.7120535v-.4854911c0-.5135983-.2221283-1.0728985-.7435345-1.3917411-.7468521-.4069984-1.3978283-.7205796-1.8426724-.9386161-.2215686-.1082963-.2697538-.135285-.387931-.1941964.1737041-.2693831.387931-.5306606.387931-.90625v-1.5859375c-.0013448-1.1209204-.9402072-2.0390625-2.0689655-2.0390625zm-23.5344828.2589286-1.0021551.3236607.0969827.2912946v.0323661l.0323276.0323661.2909483.6473214.9375-.3883928-.2586207-.6473215h-.0323276v-.032366zm19.1702586.5502232-.7112068.7444196.7435344.7120536.7112069-.7444196zm-16.3577586.2265625c.5806246 0 1.0338063.4588401 1.0344828 1.0033482v1.5859375c0 .1947184-.0904355.3930577-.2586207.5825893-.079163.0896863-.1248562.2040553-.1293103.3236607v.2912947c-.0077696.2052793.1063785.3957527.2909482.485491.1008704.0515475.3145091.1621328.7112069.3560268.4383991.2138854 1.0422185.4920026 1.7456897.8738839.0156703.0084929.0165476.0237697.0323276.0323661.144259.1050525.2262931.2827366.2262931.5178572v.1294642l-7.2413793-.032366v-.2589286c0-.0722825-.0031449-.0873936.0969827-.1941964.1001255-.1068081.3114575-.2755114.6465517-.453125.7060766-.3731793 1.8320508-.9035271 1.9719828-.9709822.1739813-.0846905.2862234-.2594972.2909483-.453125v-.2589285c-.0053354-.1352645-.0633558-.2630613-.161638-.3560268-.1863541-.193573-.2909482-.405651-.2909482-.6149554v-1.5859375c0-.5469441.4511278-1.0033482 1.0344827-1.0033482zm20.7219828 0c.5802072 0 1.0338062.4588401 1.0344827 1.0033482v1.5859375c0 .1942358-.0893793.3918656-.2586206.5825893-.0909968.0849193-.1483814.199825-.161638.3236607v.2912947c-.0077695.2052793.1063786.3957527.2909483.485491.0922759.0452504.3145086.1297667.7112069.3236607.44688.219035 1.0538348.5439717 1.7780172.9386161.1510956.1046217.2262931.2439615.2262931.4854911v.1618303l-7.2090517-.032366v-.2589286c0-.0722825-.0031034-.0873936.0969828-.1941964.1001276-.1068081.3114579-.2755114.6465517-.453125.7060769-.3731793 1.7871962-.8963838 1.9396552-.9709822.1739813-.0846905.2862234-.2594972.2909482-.453125v-.2589285c.0017252-.0662062-.0092489-.1321292-.0323275-.1941965l.0323275-.032366-.0646551-.0323661c-.0178292-.0347014-.0395186-.0672742-.0646552-.0970982-.1853586-.1941571-.2909483-.405651-.2909483-.6149554v-1.5859375c0-.5483372.4511276-1.0033482 1.0344828-1.0033482zm-16.0668104.0647321-.7112069.7444197.7435345.7120536.7112069-.7444197zm13.1896552 1.1328125-.7112069.7444197.7435345.7120536.7112069-.7444197zm-14.612069.3560268-.7112068.7444197.7435344.7120535.7112069-.7444196zm12.7047414 5.2433036-.1616379.0970982h-.0323276l-.7112069.3236607.387931.9386161.7758621-.3236607h.0323276v-.0323661l.1939655-.0970982zm-10.6357758.6473214-.3556035.9709822.3232759.1294643h.0323276.0323276l.6465517.1941964.2586207-1.0033482-.5818966-.1618304zm8.7931034.0970982-.7435345.2589286h-.0323276l-.1616379.0323661.2262931 1.0033482.1939655-.0323661h.0323276.0323276l.7758621-.2589285zm-6.8857758.453125-.1939656 1.0033483 1.0344828.1941964h.0323276.0323276l.0323276-.5178572.0646551-.5178571h-.0323276zm4.8491379.0647322-.8728448.1294643.0969827 1.0033482.9375-.0970982h.0323276.0323276l.0969827-.0323661-.2262931-1.0033482h-.0646551zm-2.8448276.1618303-.0969828 1.0357143.3232759.0323661h.0323276.0323276l.7112069-.0323661-.0323276-1.0357143-.6465517.0323661h-.0323276-.0323276z" fill="#00417b"/></g></svg>