<?xml version="1.0" encoding="UTF-8" standalone="no"?>
<svg width="36px" height="35px" viewBox="0 0 36 35" version="1.1" xmlns="http://www.w3.org/2000/svg" xmlns:xlink="http://www.w3.org/1999/xlink" xmlns:sketch="http://www.bohemiancoding.com/sketch/ns">
    <!-- Generator: Sketch 3.3.2 (12043) - http://www.bohemiancoding.com/sketch -->
    <title>Group Copy</title>
    <desc>Created with Sketch.</desc>
    <defs></defs>
    <g id="Лента-событий" stroke="none" stroke-width="1" fill="none" fill-rule="evenodd" sketch:type="MSPage">
        <g id="лента-событий" sketch:type="MSArtboardGroup" transform="translate(-618.000000, -842.000000)" opacity="0.2">
            <g id="Group-Copy" sketch:type="MSLayerGroup" transform="translate(618.000000, 842.000000)">
                <g sketch:type="MSShapeGroup">
                    <path d="M2.43243243,30.2146181 C1.07027027,30.2146181 0,29.1424865 0,27.7779553 C0,26.4134242 1.07027027,25.3412926 2.43243243,25.3412926 C3.79459459,25.3412926 4.86486486,26.4134242 4.86486486,27.7779553 C4.86486486,29.1424865 3.79459459,30.2146181 2.43243243,30.2146181 L2.43243243,30.2146181 Z M2.91891892,20.4192338 L2.91891892,24.4153608 C2.77297297,24.4153608 2.57837838,24.3666275 2.43243243,24.3666275 C2.28648649,24.3666275 2.09189189,24.4153608 1.94594595,24.4153608 L1.94594595,20.4192338 C2.09189189,20.4192338 2.28648649,20.4679671 2.43243243,20.4679671 C2.57837838,20.4679671 2.77297297,20.4192338 2.91891892,20.4192338 L2.91891892,20.4192338 Z M2.43243243,19.493302 C1.07027027,19.493302 0,18.4211704 0,17.0566392 C0,15.6921081 1.07027027,14.6199765 2.43243243,14.6199765 C3.79459459,14.6199765 4.86486486,15.6921081 4.86486486,17.0566392 C4.86486486,18.4211704 3.79459459,19.493302 2.43243243,19.493302 L2.43243243,19.493302 Z M2.91891892,9.69791774 L2.91891892,13.6940447 C2.77297297,13.6940447 2.57837838,13.6453114 2.43243243,13.6453114 C2.28648649,13.6453114 2.09189189,13.6940447 1.94594595,13.6940447 L1.94594595,9.69791774 C2.09189189,9.69791774 2.28648649,9.746651 2.43243243,9.746651 C2.57837838,9.746651 2.77297297,9.69791774 2.91891892,9.69791774 L2.91891892,9.69791774 Z M2.43243243,8.7719859 C1.07027027,8.7719859 0,7.69985429 0,6.33532315 C0,4.97079201 1.07027027,3.8986604 2.43243243,3.8986604 C3.79459459,3.8986604 4.86486486,4.97079201 4.86486486,6.33532315 C4.86486486,7.69985429 3.79459459,8.7719859 2.43243243,8.7719859 L2.43243243,8.7719859 Z M1.94594595,2.97272855 L1.94594595,0.48733255 C1.94594595,0.19493302 2.14054054,0 2.43243243,0 C2.72432432,0 2.91891892,0.19493302 2.91891892,0.48733255 L2.91891892,2.97272855 C2.77297297,2.97272855 2.57837838,2.9239953 2.43243243,2.9239953 C2.28648649,2.9239953 2.09189189,2.97272855 1.94594595,2.97272855 L1.94594595,2.97272855 Z M2.91891892,31.1405499 L2.91891892,33.6259459 C2.91891892,33.9183455 2.72432432,34.1132785 2.43243243,34.1132785 C2.14054054,34.1132785 1.94594595,33.9183455 1.94594595,33.6259459 L1.94594595,31.1405499 C2.09189189,31.1405499 2.28648649,31.1892832 2.43243243,31.1892832 C2.57837838,31.1892832 2.77297297,31.1405499 2.91891892,31.1405499 L2.91891892,31.1405499 Z" id="Shape" fill="#828A96"></path>
                    <path d="M34.0540541,31.1892832 L11.6756757,31.1892832 C10.7513514,31.1892832 7.78378378,27.7779553 7.78378378,27.7779553 C7.78378378,27.7779553 10.7513514,24.3666275 11.6756757,24.3666275 L34.0540541,24.3666275 C35.1243243,24.3666275 36,25.2438261 36,26.3159577 L36,29.239953 C36,30.3120846 35.1243243,31.1892832 34.0540541,31.1892832 L34.0540541,31.1892832 Z" id="Path" stroke="#828A96"></path>
                    <path d="M34.0540541,20.4679671 L11.6756757,20.4679671 C10.7513514,20.4679671 7.78378378,17.0566392 7.78378378,17.0566392 C7.78378378,17.0566392 10.7513514,13.6453114 11.6756757,13.6453114 L34.0540541,13.6453114 C35.1243243,13.6453114 36,14.52251 36,15.5946416 L36,18.5186369 C36,19.5907685 35.1243243,20.4679671 34.0540541,20.4679671 L34.0540541,20.4679671 Z" id="Path" stroke="#828A96"></path>
                    <path d="M34.0540541,9.746651 L11.6756757,9.746651 C10.7513514,9.746651 7.78378378,6.33532315 7.78378378,6.33532315 C7.78378378,6.33532315 10.7513514,2.9239953 11.6756757,2.9239953 L34.0540541,2.9239953 C35.1243243,2.9239953 36,3.80119389 36,4.8733255 L36,7.7973208 C36,8.86945241 35.1243243,9.746651 34.0540541,9.746651 L34.0540541,9.746651 Z" id="Path" stroke="#828A96"></path>
                </g>
            </g>
        </g>
    </g>
</svg>