<svg height="54" viewBox="0 0 54 54" width="54" xmlns="http://www.w3.org/2000/svg"><g fill="none" fill-rule="evenodd"><path d="m27 54c14.9116882 0 27-12.0883118 27-27s-12.0883118-27-27-27-27 12.0883118-27 27 12.0883118 27 27 27z" fill="#f7f7f7"/><g fill="#00417b" transform="translate(12 12)"><path d="m28.2439024 7.78974359h-6.6585365v-.86153846h5.7439024v-6.71282051h-14.5243903v6.71282051h5.7439025v.86153846h-8.2317073v-1.86666667c0-.17948718-.1097561-.32307692-.2560976-.39487179-.18292682-.07179487-.36585365-.03589744-.47560975.10769231l-.43902439.43076923-.43902439-.43076923c-.18292683-.17948718-.47560975-.17948718-.62195122 0l-.43902439.43076923-.43902439-.43076923c-.07317073-.07179488-.18292683-.14358975-.32926829-.14358975-.1097561 0-.21951219.03589744-.32926829.14358975l-.43902439.43076923-.43902439-.43076923c-.18292683-.17948718-.47560976-.17948718-.62195122 0l-.43902439.43076923-.43902439-.43076923c-.1097561-.10769231-.3292683-.17948718-.47560976-.10769231-.18292683.07179487-.25609756.21538461-.25609756.39487179v1.86666667h-1.75609756c-.87804878 0-1.6097561.71794872-1.6097561 1.57948718v4.20000003 8.4358974 4.2c0 .8615385.73170732 1.5794872 1.6097561 1.5794872h26.52439027c.8780488 0 1.6097561-.7179487 1.6097561-1.5794872v-4.2-8.4358974-4.20000003c.0365853-.86153846-.695122-1.57948718-1.5731708-1.57948718zm-14.5609756-6.71282051h12.7682927v4.98974359h-12.7682927zm5.7439025 5.85128205h1.2804878v.86153846h-1.2804878zm-15.18292686.03589743c.18292683.17948718.47560976.17948718.62195122 0l.43902439-.43076923.43902439.43076923c.18292683.17948718.47560976.17948718.62195122 0l.43902439-.43076923.43902439.43076923c.07317073.07179488.18292683.14358975.32926829.14358975.1097561 0 .2195122-.03589744.32926829-.14358975l.43902439-.43076923.43902439.43076923c.18292683.17948718.47560976.17948718.62195122 0v7.53846154h-5.15853658zm5.63414634 8.40000004c.25609752 0 .43902442-.1794872.43902442-.4307693v-1.5076923h.5121951v2.6923077h-7.97560976v-2.6923077h.51219512v1.5076923c0 .2512821.18292683.4307693.43902439.4307693zm18.36585362 11.5589743h-26.56097557c-.40243903 0-.73170732-.3230769-.73170732-.7179487v-2.8c.2195122.1076923.47560976.1794872.73170732.1794872h26.52439027c.2560975 0 .5121951-.0717949.7317073-.1794872v2.8c.0365854.4307692-.2926829.7179487-.695122.7179487zm.7317074-4.9179487c0 .3948718-.3292683.7179487-.7317074.7179487h-26.56097557c-.40243903 0-.73170732-.3230769-.73170732-.7179487v-8.4358974-4.20000003c0-.3948718.32926829-.71794872.73170732-.71794872h1.68292683v3.91282055h-1.3902439v4.4153846h9.76829264v-4.4153846h-1.3902439v-3.91282055h17.8902439c.4024391 0 .7317074.32307692.7317074.71794872v4.20000003z"/><path d="m12.804878 14.1076923h14.5243903v-4.41538461h-14.5243903zm.8780488-3.5538461h12.7682927v2.6923076h-12.7682927zm1.1707317-5.63589748h10.4268293v-2.69230769h-10.4268293zm.8780488-1.83076923h8.6707317v.96923077h-8.6707317z"/><path d="m12.841 15.364h2.78v.862h-2.78z"/><path d="m16.72 15.364h2.78v.862h-2.78z"/><path d="m20.561 15.364h2.78v.862h-2.78z"/><path d="m24.402 15.364h2.78v.862h-2.78z"/><path d="m12.841 17.267h2.78v.862h-2.78z"/><path d="m16.72 17.267h2.78v.862h-2.78z"/><path d="m20.561 17.267h2.78v.862h-2.78z"/><path d="m24.402 17.267h2.78v.862h-2.78z"/><path d="m12.841 19.169h2.78v.862h-2.78z"/><path d="m16.72 19.169h2.78v.862h-2.78z"/><path d="m20.561 19.169h2.78v.862h-2.78z"/><path d="m24.402 19.169h2.78v.862h-2.78z"/><path d="m4.866 8.579h.878v3.159h-.878z"/><path d="m6.329 8.579h.878v3.159h-.878z"/><path d="m7.793 8.579h.878v3.159h-.878z"/><path d="m20.195122 24.625641h-10.50000005c-.25609756 0-.43902439.1794872-.43902439.4307693 0 .251282.18292683.4307692.43902439.4307692h10.50000005c.2560975 0 .4390243-.1794872.4390243-.4307692 0-.2512821-.1829268-.4307693-.4390243-.4307693z"/></g></g></svg>