<svg height="54" viewBox="0 0 54 54" width="54" xmlns="http://www.w3.org/2000/svg"><g fill="none" fill-rule="evenodd"><path d="m27 54c14.9116882 0 27-12.0883118 27-27s-12.0883118-27-27-27-27 12.0883118-27 27 12.0883118 27 27 27z" fill="#f7f7f7"/><path d="m28.449219 11c-.0143725.0006832-.0287089.0019863-.042969.0039057-.239041.0456048-.4105382.2566508-.40625.4999349v7.4990235h-14.5c-.2761309.0000276-.4999724.2238399-.5.4999349v16.9977868c.0000276.276095.2238691.4999074.5.4999349h8.5v2.9996095h-3v.9998698h14v-.9998698h-3v-2.9996095h8.5c.2761309-.0000275.4999724-.2238399.5-.4999349v-8.4988934-.4999349h-1v.4999349 4.9993491h-24v-12.9983076h14v6.4679079c.0000276.276095.223869.4999073.5.4999349h1.75l.375.0292932 2.96875 2.8746257c.1424941.1350951.3508787.1742963.5327327.1002173.181854-.0740791.3035121-.2477246.3110173-.4439226v-2.5309204l2.625-.0292932h2.53125 2.90625c.276131-.0000276.4999724-.2238399.5-.4999349v-1.1248536-.906132-7.6240073-5.3118083c-.0000276-.276095-.223869-.4999073-.5-.4999349h-3.875-10.125c-.0168497-.0021635-.0337986-.0034671-.050781-.0039057zm.550781 1.0037754h9.625 3.375v4.8118735 7.6240073.906132.6249187h-2.40625-2.53125l-3.125.0292931c-.276131.0000276-.4999724.2238399-.5.499935v1.8435099l-2.25-2.2184611c-.0946859-.0835716-.2174925-.1282228-.34375-.1249838l-.5625-.0292931c-.0104141-.0003256-.0208359-.0003256-.03125 0h-1.25zm1 1.9997396v.9998698h.5.71875.0625l1.5 6.1866945c-.481287.2510673-.812513.7369041-.8125 1.3123291-.000019.821993.67791 1.4998048 1.5 1.4998048.822089 0 1.500018-.6778118 1.5-1.4998048.000004-.1712777-.03986-.3460549-.09375-.4999349h1.125c-.05389.15388-.09375.3286572-.09375.4999349-.000018.821993.67791 1.4998048 1.5 1.4998048.822089 0 1.500018-.6778118 1.5-1.4998048.000016-.7498023-.558267-1.3636724-1.28125-1.4685587-.0301415-.0134848-.0615448-.0239512-.09375-.031246-.01-.0007999-.02122.0005999-.03125 0h-3.75l-.25-.9998698h4.6875c.2250856.0111767.429836-.1295708.5-.3437052l1.28125-3.9994793c.0497674-.1512883.0244734-.3172326-.0681076-.4468292-.0925811-.1295966-.2413725-.20734-.4006424-.2093354h-7.1875l-.15625-.6249186c-.0519157-.2048786-.2270653-.3549873-.4375-.3749512h-.5-.71875zm2.5625 1.9997397h6.25l-.3125.9998698h-3.125v.9998698h2.78125l-.3125.9998698h-4.5625zm-16.662109 5.4934257c-.0189763.0008754-.0378873.0028313-.056641.0058582-.2141623.0701549-.3549282.2748787-.34375.4999349v4.9993491c.0000276.276095.2238691.4999073.5.4999349h5c.2761309-.0000276.4999724-.2238399.5-.4999349v-4.9993491c-.0000276-.276095-.2238691-.4999073-.5-.4999349h-5c-.0329246-.0052684-.0662937-.0072309-.099609-.0058582zm6.099609.5057931v.9998699h4v-.9998699zm11.34375 0h.125c.281375 0 .500006.2180716.5.4999349.000006.2818633-.218625.499935-.5.499935s-.500007-.2180717-.5-.499935c-.000006-.2423684.150754-.4500414.375-.4999349zm4.0625 0c.281375 0 .500006.2180716.5.4999349.000006.2818633-.218625.499935-.5.499935s-.500006-.2180717-.5-.499935c-.000006-.2818633.218625-.4999349.5-.4999349zm-20.90625.4999349h4v3.9994793h-4zm5.5 1.4998048v.9998698h4v-.9998698zm0 1.9997396v.9998698h4v-.9998698zm-6 1.9997396v.9998698h4v-.9998698zm8 .4999349c-.822351 0-1.5.6775118-1.5 1.4998048 0 .8222929.677649 1.4998047 1.5 1.4998047h1c.822351 0 1.5-.6775118 1.5-1.4998047 0-.822293-.677649-1.4998048-1.5-1.4998048zm2.5 1.4998048c0 .8222929.677649 1.4998047 1.5 1.4998047h1c.822351 0 1.5-.6775118 1.5-1.4998047 0-.822293-.677649-1.4998048-1.5-1.4998048h-1c-.822351 0-1.5.6775118-1.5 1.4998048zm-2.5-.499935h1c.285649 0 .5.2143721.5.499935 0 .2855628-.214351.4999349-.5.4999349h-1c-.285649 0-.5-.2143721-.5-.4999349 0-.2855629.214351-.499935.5-.499935zm4 0h1c.285649 0 .5.2143721.5.499935 0 .2855628-.214351.4999349-.5.4999349h-1c-.285649 0-.5-.2143721-.5-.4999349 0-.2855629.214351-.499935.5-.499935zm-14 4.4994142h24v1.9997396h-24zm9 2.9996094h6v2.9996095h-6z" fill="#00417b"/></g></svg>