<svg xmlns="http://www.w3.org/2000/svg" width="115" height="117" viewBox="0 0 115 117">
  <path fill="#000000" fill-opacity=".095" fill-rule="evenodd" d="M830.5,263 L829.302083,263.304291 L776.59375,277.910273 L773,278.975293 L773,282.626788 L773,375.131339 L773,380 L777.791667,380 L820.916667,380 L825.708333,380 L825.708333,375.131339 L825.708333,360.525358 L835.291667,360.525358 L835.291667,375.131339 L835.291667,380 L840.083333,380 L883.208333,380 L888,380 L888,375.131339 L888,282.626788 L888,278.975293 L884.40625,277.910273 L831.697917,263.304291 L830.5,263 L830.5,263 Z M830.5,273.041612 L878.416667,286.278283 L878.416667,370.262679 L844.875,370.262679 L844.875,355.656697 L844.875,350.788036 L840.083333,350.788036 L820.916667,350.788036 L816.125,350.788036 L816.125,355.656697 L816.125,370.262679 L782.583333,370.262679 L782.583333,286.278283 L830.5,273.041612 L830.5,273.041612 Z M796.958333,292.364109 L796.958333,302.10143 L806.541667,302.10143 L806.541667,292.364109 L796.958333,292.364109 L796.958333,292.364109 Z M816.125,292.364109 L816.125,302.10143 L825.708333,302.10143 L825.708333,292.364109 L816.125,292.364109 L816.125,292.364109 Z M835.291667,292.364109 L835.291667,302.10143 L844.875,302.10143 L844.875,292.364109 L835.291667,292.364109 L835.291667,292.364109 Z M854.458333,292.364109 L854.458333,302.10143 L864.041667,302.10143 L864.041667,292.364109 L854.458333,292.364109 L854.458333,292.364109 Z M796.958333,311.838752 L796.958333,321.576073 L806.541667,321.576073 L806.541667,311.838752 L796.958333,311.838752 L796.958333,311.838752 Z M816.125,311.838752 L816.125,321.576073 L825.708333,321.576073 L825.708333,311.838752 L816.125,311.838752 L816.125,311.838752 Z M835.291667,311.838752 L835.291667,321.576073 L844.875,321.576073 L844.875,311.838752 L835.291667,311.838752 L835.291667,311.838752 Z M854.458333,311.838752 L854.458333,321.576073 L864.041667,321.576073 L864.041667,311.838752 L854.458333,311.838752 L854.458333,311.838752 Z M796.958333,331.313394 L796.958333,341.050715 L806.541667,341.050715 L806.541667,331.313394 L796.958333,331.313394 L796.958333,331.313394 Z M816.125,331.313394 L816.125,341.050715 L825.708333,341.050715 L825.708333,331.313394 L816.125,331.313394 L816.125,331.313394 Z M835.291667,331.313394 L835.291667,341.050715 L844.875,341.050715 L844.875,331.313394 L835.291667,331.313394 L835.291667,331.313394 Z M854.458333,331.313394 L854.458333,341.050715 L864.041667,341.050715 L864.041667,331.313394 L854.458333,331.313394 L854.458333,331.313394 Z M796.958333,350.788036 L796.958333,360.525358 L806.541667,360.525358 L806.541667,350.788036 L796.958333,350.788036 L796.958333,350.788036 Z M854.458333,350.788036 L854.458333,360.525358 L864.041667,360.525358 L864.041667,350.788036 L854.458333,350.788036 L854.458333,350.788036 Z" transform="translate(-773 -263)" opacity=".8"/>
</svg>
