<svg xmlns="http://www.w3.org/2000/svg" width="62" height="63" viewBox="0 0 62 63">
  <g fill="none" fill-rule="evenodd">
    <path fill="#FFFFFF" d="M31,0.506599665 C48.1202878,0.506599665 61.98419,14.4427161 61.9842048,31.6520129 C61.98419,48.8614452 48.1202878,62.8000719 31,62.8000719 C13.8797122,62.8000719 0.0158097304,48.8614452 0.0157949043,31.6520129 C0.0158097304,14.4427161 13.8797122,0.506599665 31,0.506599665 Z"/>
    <path fill="#000000" fill-rule="nonzero" d="M25.151366,13.5483871 C24.3283911,13.5483871 23.6393328,14.2368078 23.6393328,15.0590455 L23.6393328,15.8487078 L15.9417089,17.9086965 C15.1468519,18.121507 14.6634269,18.9684645 14.8764126,19.7626863 L17.4537422,29.2729674 C16.7055452,29.6902387 16.1822597,30.4605646 16.1822597,31.3672892 L16.1822597,46.3365403 C16.1822597,47.6798726 17.3012962,48.7741935 18.6564959,48.7741935 L44.2579681,48.7741935 C45.6131678,48.7741935 46.7322043,47.6798726 46.7322043,46.3365403 L46.7322043,31.3672892 C46.7322043,30.3710237 46.1254468,29.5106077 45.2545355,29.1356348 L47.7975005,19.7626863 C48.010486,18.9684645 47.527061,18.121507 46.7322043,17.9086965 L39.0345805,15.8487078 L39.0345805,15.0590455 C39.0345805,14.2368078 38.3455211,13.5483871 37.5225472,13.5483871 L25.151366,13.5483871 Z M25.151366,14.6470477 L37.5225472,14.6470477 C37.7555257,14.6470477 37.9349199,14.8265689 37.9349199,15.0590455 L37.9349199,16.1920392 C37.9345619,16.2034808 37.9345619,16.2149308 37.9349199,16.2263724 L37.9349199,16.2950387 C37.9316915,16.3292961 37.9316915,16.3637807 37.9349199,16.3980381 L37.9349199,28.9296359 L36.8352594,28.9296359 L36.8352594,17.4280324 C36.835229,17.1246583 36.5890794,16.8787325 36.2854291,16.8787021 C35.9643557,16.8787021 35.7012344,16.627823 35.7012344,16.2950387 C35.7012041,15.9916645 35.4550545,15.7457387 35.1514042,15.7457084 L27.5225091,15.7457084 C27.2188588,15.7457387 26.9727092,15.9916645 26.9726788,16.2950387 C26.9726788,16.627823 26.7095575,16.8787021 26.3884841,16.8787021 C26.0848338,16.8787325 25.8386842,17.1246583 25.8386539,17.4280324 L25.8386539,28.9296359 L24.7389933,28.9296359 L24.7389933,16.3980381 C24.7622701,16.3079598 24.7622701,16.2134512 24.7389933,16.1233729 L24.7389933,15.0590455 C24.7389933,14.8265689 24.9183853,14.6470477 25.151366,14.6470477 Z M27.8317886,16.844369 L34.8421246,16.844369 C35.012153,17.2813063 35.3008876,17.5985446 35.7355988,17.7713639 L35.7355988,28.9296359 L32.4709816,28.9296359 L30.2029317,28.9296359 L26.9383144,28.9296359 L26.9383144,17.7713639 C27.3730091,17.5985446 27.6617778,17.2813063 27.8317886,16.844369 Z M30.2029317,28.9296359 C31.0553413,28.9296359 31.7149649,28.1654076 31.7149649,27.281645 C31.7149649,26.7472564 32.0613899,26.3889832 32.4709816,26.3889832 C32.8807019,26.3889832 33.2613626,26.7472564 33.2613626,27.281645 C33.2613626,27.8161434 32.8805743,28.2086399 32.4709816,28.2086399 C31.975314,28.1943573 31.975314,28.9366673 32.4709816,28.9296359 C33.1922907,28.9296359 33.7263716,28.3656385 33.8799216,27.6593096 L34.25793,27.6593096 C34.7537262,27.6746908 34.7537262,26.9311722 34.25793,26.9383135 L33.8455573,26.9383135 C33.6912375,26.2325339 33.1915198,25.633654 32.4709816,25.633654 C31.6979752,25.633654 30.9589483,26.2007277 30.9589483,27.2473118 L30.9589483,27.281645 C30.9589483,27.8160335 30.6123958,28.2086399 30.2029317,28.2086399 C29.7985975,28.2086399 29.4221727,27.8390504 29.4125507,27.3159781 L29.4125507,27.281645 C29.4279459,26.7593417 29.7992397,26.3889832 30.2029317,26.3889832 C30.6985982,26.4043645 30.6985982,25.6266226 30.2029317,25.633654 C29.471487,25.633654 28.8762473,26.2207783 28.7252628,26.9383135 L28.4159833,26.9383135 C28.2090701,26.9383135 28.034511,27.0749869 28.037975,27.281645 C28.037975,27.4839084 28.2134302,27.6623858 28.4159833,27.6593096 L28.7252628,27.6593096 C28.8763749,28.3768448 29.4714892,28.9296359 30.2029317,28.9296359 Z M23.6393328,16.9817016 L23.6393328,18.1490285 L18.8283179,19.4193548 C18.6799881,19.4515329 18.5515682,19.5435362 18.4734749,19.6735734 C18.3953816,19.8036107 18.3745612,19.9601149 18.4159452,20.1060177 C18.5021475,20.4274858 18.3480961,20.7096219 18.0379368,20.7926806 C17.889607,20.8248587 17.7611872,20.916862 17.6830939,21.0468992 C17.6050005,21.1769364 17.5841802,21.3334407 17.6255641,21.4793435 L19.6186989,28.9296359 L18.6564959,28.9296359 C18.6106291,28.9296359 18.5643224,28.9617717 18.5190383,28.9639691 L15.9417089,19.453688 C15.8814661,19.2290119 16.0258549,19.0332306 16.2509884,18.973024 L23.6393328,16.9817016 Z M39.0345805,16.9817016 L46.4229248,18.973024 C46.6480583,19.0334503 46.792447,19.2290119 46.7322043,19.453688 L44.1548749,28.9296359 L43.0552144,28.9296359 L45.0483491,21.4793435 C45.0897331,21.3334407 45.0689127,21.1769364 44.9908194,21.0468992 C44.912726,20.916862 44.7843062,20.8248587 44.6359764,20.7926806 C44.3258138,20.7091824 44.1717602,20.4274858 44.2579681,20.1060177 C44.2993521,19.9601149 44.2785317,19.8036107 44.2004383,19.6735734 C44.122345,19.5435362 43.9939252,19.4515329 43.8455954,19.4193548 L39.0345805,18.1490285 L39.0345805,16.9817016 Z M31.3369566,17.9430296 C30.7302123,17.9430296 30.2372961,18.4341309 30.2372961,19.0416902 C30.2372961,19.6493594 30.7302123,20.1403509 31.3369566,20.1403509 C31.9440297,20.1403509 32.4366172,19.6493594 32.4366172,19.0416902 C32.4366172,18.4341309 31.9440297,17.9430296 31.3369566,17.9430296 Z M23.6393328,19.2476891 L23.6393328,20.5523486 C23.4581549,20.5029089 23.2836377,20.5007116 23.0895025,20.5523486 C22.5031151,20.7093472 22.1417304,21.3044367 22.2991215,21.8913413 C22.4565401,22.4782458 23.0529454,22.8380022 23.6393328,22.6810036 L23.6393328,28.9296359 L20.7527238,28.9296359 L18.7939535,21.5136767 C19.1701572,21.2341774 19.3616609,20.8476137 19.4125125,20.3806829 L23.6393328,19.2476891 Z M39.0345805,19.2476891 L43.2614007,20.3806829 C43.312249,20.8476137 43.503756,21.2341774 43.8799598,21.5136767 L41.886825,28.9296359 L39.0345805,28.9296359 L39.0345805,22.6810036 C39.6209679,22.8380022 40.2173732,22.4782458 40.3747918,21.8913413 C40.5321829,21.3044367 40.1707981,20.7093472 39.5844107,20.5523486 C39.3902756,20.5007116 39.2157583,20.5029089 39.0345805,20.5523486 L39.0345805,19.2476891 Z M35.5981413,36.6202603 L45.6325438,36.6202603 L45.6325438,42.1135635 L35.5981413,42.1135635 L34.6359383,41.1865686 L34.6359383,38.6115827 L34.6359383,37.5815884 L35.5981413,36.6202603 Z M37.3163609,37.8905867 C36.4544172,37.8905867 35.7355977,38.6086713 35.7355988,39.4699113 C35.7355977,40.3310415 36.4544172,41.0149028 37.3163609,41.0149028 C38.1783034,41.0149028 38.897124,40.3310415 38.8971229,39.4699113 C38.897124,38.6086713 38.1783034,37.8905867 37.3163609,37.8905867 Z M37.3163609,38.9892473 C37.5838225,38.9892473 37.7974624,39.2022776 37.7974624,39.4699113 C37.7974624,39.7374352 37.5838225,39.9162422 37.3163609,39.9162422 C37.0488981,39.9162422 36.8352594,39.7374352 36.8352594,39.4699113 C36.8352594,39.2022776 37.0488981,38.9892473 37.3163609,38.9892473 Z"/>
    <path fill="#DBF1BC" d="M18.6564959,30.0282965 L44.2579681,30.0282965 C45.0364464,30.0282965 45.6325438,30.6273413 45.6325438,31.3672892 L45.6325438,35.5215997 L35.1514042,35.5215997 L33.5362777,37.1352575 L33.5362777,38.6115827 L33.5362777,41.6328995 L35.1514042,43.2122241 L45.6325438,43.2122241 L45.6325438,46.3365403 C45.6325438,47.0764882 45.0364464,47.6755329 44.2579681,47.6755329 L18.6564959,47.6755329 C17.8780154,47.6755329 17.2819202,47.0764882 17.2819202,46.3365403 L17.2819202,31.3672892 C17.2819202,30.6273413 17.8780154,30.0282965 18.6564959,30.0282965 Z"/>
  </g>
</svg>
