<?xml version="1.0" encoding="UTF-8"?>
<svg width="96px" height="119px" viewBox="0 0 96 119" version="1.1" xmlns="http://www.w3.org/2000/svg" xmlns:xlink="http://www.w3.org/1999/xlink">
    <!-- Generator: Sketch 42 (36781) - http://www.bohemiancoding.com/sketch -->
    <title>noun_95051</title>
    <desc>Created with Sketch.</desc>
    <defs></defs>
    <g id="Распознование-счетов" stroke="none" stroke-width="1" fill="none" fill-rule="evenodd">
        <g id="Новый-платеж-1-Copy" transform="translate(-592.000000, -148.000000)" fill-rule="nonzero" fill="#FFFFFF">
            <g id="Group-8" transform="translate(430.000000, 112.000000)">
                <g id="noun_981371" transform="translate(151.000000, 33.000000)">
                    <g id="Group-16" transform="translate(8.000000, 3.000000)">
                        <g id="noun_95051" transform="translate(3.000000, 0.000000)">
                            <g id="Group">
                                <g>
                                    <path d="M0.756210526,0.0403 L0.756210526,118.703517 L95.8955789,118.703517 L95.8955789,0.0403 L0.756210526,0.0403 Z M92.2004211,115.010283 L4.45136842,115.010283 L4.45136842,3.73353333 L92.2004211,3.73353333 L92.2004211,115.010283 Z" id="Shape"></path>
                                    <path d="M51.2328421,9.74135 L9.41894737,9.74135 L9.41894737,19.9777 L51.2345263,19.9777 L51.2345263,9.74135 L51.2328421,9.74135 Z M49.0096842,17.7557 L11.6421053,17.7557 L11.6421053,11.9616667 L49.0096842,11.9616667 L49.0096842,17.7557 L49.0096842,17.7557 Z" id="Shape"></path>
                                    <rect id="Rectangle-path" x="9.93347368" y="27.96175" width="18.0648421" height="2.222"></rect>
                                    <rect id="Rectangle-path" x="9.93347368" y="34.2153333" width="18.0648421" height="2.222"></rect>
                                    <rect id="Rectangle-path" x="9.93347368" y="40.4706" width="18.0648421" height="2.22031667"></rect>
                                    <rect id="Rectangle-path" x="67.2437895" y="27.96175" width="18.0631579" height="2.222"></rect>
                                    <rect id="Rectangle-path" x="67.2437895" y="34.2153333" width="18.0631579" height="2.222"></rect>
                                    <rect id="Rectangle-path" x="67.2437895" y="40.4706" width="18.0631579" height="2.22031667"></rect>
                                    <rect id="Rectangle-path" x="59.9966316" y="106.1711" width="25.3086316" height="2.22031667"></rect>
                                </g>
                                <path d="M10.1035789,49.5791167 L10.1035789,97.6938333 L85.7515789,97.6938333 L85.7515789,49.5791167 L10.1035789,49.5791167 Z M83.6901053,61.0813333 L71.0349474,61.0813333 L71.0349474,51.6832833 L83.6901053,51.6832833 L83.6901053,61.0813333 Z M12.1616842,86.1916167 L54.2635789,86.1916167 L54.2635789,95.5896667 L12.1616842,95.5896667 L12.1616842,86.1916167 Z M56.3216842,72.5852333 L56.3216842,63.1855 L68.9768421,63.1855 L68.9768421,72.5852333 L56.3216842,72.5852333 Z M68.9768421,74.6894 L68.9768421,84.08745 L56.3216842,84.08745 L56.3216842,74.6894 L68.9768421,74.6894 Z M56.3216842,86.1916167 L68.9768421,86.1916167 L68.9768421,95.5896667 L56.3216842,95.5896667 L56.3216842,86.1916167 Z M71.0366316,86.1916167 L83.6917895,86.1916167 L83.6917895,95.5896667 L71.0366316,95.5896667 L71.0366316,86.1916167 L71.0366316,86.1916167 Z M71.0366316,84.08745 L71.0366316,74.6894 L83.6917895,74.6894 L83.6917895,84.08745 L71.0366316,84.08745 Z M71.0366316,72.5852333 L71.0366316,63.1855 L83.6917895,63.1855 L83.6917895,72.5852333 L71.0366316,72.5852333 Z M68.9768421,61.0813333 L56.3216842,61.0813333 L56.3216842,51.6832833 L68.9768421,51.6832833 L68.9768421,61.0813333 Z M54.2635789,61.0813333 L12.1616842,61.0813333 L12.1616842,51.6832833 L54.2635789,51.6832833 L54.2635789,61.0813333 Z M54.2635789,63.1855 L54.2635789,72.5852333 L12.1616842,72.5852333 L12.1616842,63.1855 L54.2635789,63.1855 Z M54.2635789,74.6894 L54.2635789,84.08745 L12.1616842,84.08745 L12.1616842,74.6894 L54.2635789,74.6894 Z" id="Shape"></path>
                            </g>
                        </g>
                    </g>
                </g>
            </g>
        </g>
    </g>
</svg>