<svg height="54" viewBox="0 0 54 54" width="54" xmlns="http://www.w3.org/2000/svg"><g fill="none" fill-rule="evenodd"><path d="m27 54c14.9116882 0 27-12.0883118 27-27s-12.0883118-27-27-27-27 12.0883118-27 27 12.0883118 27 27 27z" fill="#f7f7f7"/><g fill="#00417b" transform="translate(13 12)"><path d="m23.274 24.732h-18.468c-.918 0-1.62-.702-1.62-1.62v-18.414c0-.918.702-1.62 1.62-1.62h18.468c.918 0 1.62.702 1.62 1.62v18.468c0 .864-.756 1.566-1.62 1.566zm-18.468-20.574c-.324 0-.54.216-.54.54v18.468c0 .324.216.54.54.54h18.468c.324 0 .54-.216.54-.54v-18.468c0-.324-.216-.54-.54-.54z"/><path d="m14.04 19.386c-3.024 0-5.454-2.43-5.454-5.454s2.43-5.454 5.454-5.454 5.454 2.43 5.454 5.454-2.43 5.454-5.454 5.454zm0-9.828c-2.43 0-4.374 1.944-4.374 4.374s1.944 4.374 4.374 4.374 4.374-1.944 4.374-4.374-1.944-4.374-4.374-4.374z"/><path d="m14.04 16.524c-1.458 0-2.592-1.188-2.592-2.592s1.188-2.592 2.592-2.592 2.592 1.188 2.592 2.592-1.134 2.592-2.592 2.592zm0-4.158c-.864 0-1.512.702-1.512 1.512s.702 1.512 1.512 1.512 1.512-.702 1.512-1.512-.648-1.512-1.512-1.512zm0-4.86c-.324 0-.54-.216-.54-.54v-1.026c0-.324.216-.54.54-.54s.54.216.54.54v.972c0 .324-.216.594-.54.594zm0 15.12c-.324 0-.54-.216-.54-.54v-1.026c0-.324.216-.54.54-.54s.54.216.54.54v.972c0 .324-.216.594-.54.594zm8.046-8.1h-.972c-.324 0-.54-.216-.54-.54s.216-.54.54-.54h.972c.324 0 .54.216.54.54s-.216.54-.54.54zm-15.12 0h-.972c-.324 0-.54-.216-.54-.54s.216-.54.54-.54h.972c.324 0 .54.216.54.54s-.216.54-.54.54zm12.744 5.724c-.162 0-.27-.054-.378-.162l-.702-.702c-.216-.216-.216-.54 0-.756s.54-.216.756 0l.702.702c.216.216.216.54 0 .756-.054.108-.216.162-.378.162zm-10.692-10.692c-.162 0-.27-.054-.378-.162l-.702-.702c-.216-.216-.216-.54 0-.756s.54-.216.756 0l.702.702c.216.216.216.54 0 .756-.054.108-.216.162-.378.162zm-.648 10.692c-.162 0-.27-.054-.378-.162-.216-.216-.216-.54 0-.756l.702-.702c.216-.216.54-.216.756 0s.216.54 0 .756l-.702.702c-.108.108-.27.162-.378.162zm10.692-10.692c-.162 0-.27-.054-.378-.162-.216-.216-.216-.54 0-.756l.702-.702c.216-.216.54-.216.756 0s.216.54 0 .756l-.702.702c-.108.108-.27.162-.378.162z"/><path d="m25.434.378h-22.788c-1.188 0-2.16.972-2.16 2.16v22.734c0 1.188.972 2.16 2.16 2.16h.54v.81c0 .864.756 1.62 1.62 1.62h2.808c.918 0 1.62-.756 1.62-1.62v-.81h9.612v.81c0 .864.702 1.62 1.62 1.62h2.808c.864 0 1.62-.756 1.62-1.62v-.81h.54c1.188 0 2.16-.972 2.16-2.16v-22.734c0-1.188-.972-2.16-2.16-2.16zm-17.28 27.864c0 .27-.216.54-.54.54h-2.808c-.27 0-.54-.27-.54-.54v-.81h3.888zm15.66 0c0 .27-.27.54-.54.54h-2.808c-.324 0-.54-.27-.54-.54v-.81h3.888zm2.7-2.97c0 .594-.486 1.08-1.08 1.08h-22.788c-.594 0-1.08-.486-1.08-1.08v-22.734c0-.594.486-1.08 1.08-1.08h22.734c.594 0 1.08.486 1.08 1.08v22.734z"/></g></g></svg>