<svg width="50" height="43" viewBox="0 0 50 43" version="1.1" xmlns="http://www.w3.org/2000/svg" xmlns:xlink="http://www.w3.org/1999/xlink">
<title>icons8-money</title>
<desc>Created using Figma</desc>
<g id="Canvas" transform="translate(-1941 -4204)">
<g id="icons8-money">
<g id="Ellipse">
<use xlink:href="#path0_fill" transform="translate(1950 4206)" fill="#EDFAFF"/>
</g>
<g id="surface1">
<g id="Vector">
<use xlink:href="#path1_fill" transform="translate(1941 4204)"/>
</g>
</g>
</g>
</g>
<defs>
<path id="path0_fill" d="M 41 20.5C 41 31.8218 31.8218 41 20.5 41C 9.17816 41 0 31.8218 0 20.5C 0 9.17816 9.17816 0 20.5 0C 31.8218 0 41 9.17816 41 20.5Z"/>
<path id="path1_fill" d="M 2.13068 0C 0.92385 0 0 0.929129 0 2.14286L 0 22.1429C 0 23.3566 0.92385 24.2857 2.13068 24.2857L 2.84091 24.2857L 2.84091 25C 2.84091 26.2137 3.76476 27.1429 4.97159 27.1429L 5.68182 27.1429L 5.68182 27.8571C 5.68182 29.0709 6.60567 30 7.8125 30L 43.3239 30C 44.5307 30 45.4545 29.0709 45.4545 27.8571L 45.4545 7.85714C 45.4545 6.64341 44.5307 5.71429 43.3239 5.71429L 42.6136 5.71429L 42.6136 5C 42.6136 3.78627 41.6898 2.85714 40.483 2.85714L 39.7727 2.85714L 39.7727 2.14286C 39.7727 0.929129 38.8489 0 37.642 0L 2.13068 0ZM 2.13068 1.42857L 37.642 1.42857C 38.0693 1.42857 38.3523 1.71317 38.3523 2.14286L 38.3523 22.1429C 38.3523 22.5725 38.0693 22.8571 37.642 22.8571L 2.13068 22.8571C 1.70344 22.8571 1.42045 22.5725 1.42045 22.1429L 1.42045 2.14286C 1.42045 1.71317 1.70344 1.42857 2.13068 1.42857ZM 10.6534 2.85714C 10.2262 2.85714 9.94318 3.14174 9.94318 3.57143L 9.94318 5C 9.94318 5.42969 10.2262 5.71429 10.6534 5.71429C 11.0807 5.71429 11.3636 5.42969 11.3636 5L 11.3636 3.57143C 11.3636 3.14174 11.0807 2.85714 10.6534 2.85714ZM 14.2045 2.85714C 13.7773 2.85714 13.4943 3.14174 13.4943 3.57143L 13.4943 5C 13.4943 5.42969 13.7773 5.71429 14.2045 5.71429C 14.6318 5.71429 14.9148 5.42969 14.9148 5L 14.9148 3.57143C 14.9148 3.14174 14.6318 2.85714 14.2045 2.85714ZM 17.7557 2.85714C 17.3284 2.85714 17.0455 3.14174 17.0455 3.57143L 17.0455 5.06975C 14.9148 6.35603 13.4943 9.00112 13.4943 12.1429C 13.4943 15.2846 14.9869 17.9297 17.0455 19.216L 17.0455 20.7143C 17.0455 21.144 17.3284 21.4286 17.7557 21.4286C 18.1829 21.4286 18.4659 21.144 18.4659 20.7143L 18.4659 19.7852C 18.8932 19.9275 19.3898 20 19.8864 20C 20.383 20 20.8796 19.9275 21.3068 19.7852L 21.3068 20.7143C 21.3068 21.144 21.5898 21.4286 22.017 21.4286C 22.4443 21.4286 22.7273 21.144 22.7273 20.7143L 22.7273 19.216C 24.858 17.9297 26.2784 15.2846 26.2784 12.1429C 26.2784 9.00112 24.7858 6.35603 22.7273 5.06975L 22.7273 3.57143C 22.7273 3.14174 22.4443 2.85714 22.017 2.85714C 21.5898 2.85714 21.3068 3.14174 21.3068 3.57143L 21.3068 4.50056C 20.8796 4.35826 20.383 4.28571 19.8864 4.28571C 19.3898 4.28571 18.8932 4.35826 18.4659 4.50056L 18.4659 3.57143C 18.4659 3.14174 18.1829 2.85714 17.7557 2.85714ZM 25.5682 2.85714C 25.1409 2.85714 24.858 3.14174 24.858 3.57143L 24.858 5C 24.858 5.42969 25.1409 5.71429 25.5682 5.71429C 25.9954 5.71429 26.2784 5.42969 26.2784 5L 26.2784 3.57143C 26.2784 3.14174 25.9954 2.85714 25.5682 2.85714ZM 29.1193 2.85714C 28.6921 2.85714 28.4091 3.14174 28.4091 3.57143L 28.4091 5C 28.4091 5.42969 28.6921 5.71429 29.1193 5.71429C 29.5466 5.71429 29.8295 5.42969 29.8295 5L 29.8295 3.57143C 29.8295 3.14174 29.5466 2.85714 29.1193 2.85714ZM 3.55114 3.57143C 3.12389 3.57143 2.84091 3.85603 2.84091 4.28571C 2.84091 4.7154 3.12389 5 3.55114 5L 7.10227 5C 7.52952 5 7.8125 4.7154 7.8125 4.28571C 7.8125 3.85603 7.52952 3.57143 7.10227 3.57143L 3.55114 3.57143ZM 32.6705 3.57143C 32.2432 3.57143 31.9602 3.85603 31.9602 4.28571C 31.9602 4.7154 32.2432 5 32.6705 5L 36.2216 5C 36.6488 5 36.9318 4.7154 36.9318 4.28571C 36.9318 3.85603 36.6488 3.57143 36.2216 3.57143L 32.6705 3.57143ZM 39.7727 4.28571L 40.483 4.28571C 40.9102 4.28571 41.1932 4.57031 41.1932 5L 41.1932 25C 41.1932 25.4297 40.9102 25.7143 40.483 25.7143L 4.97159 25.7143C 4.54435 25.7143 4.26136 25.4297 4.26136 25L 4.26136 24.2857L 37.642 24.2857C 38.8489 24.2857 39.7727 23.3566 39.7727 22.1429L 39.7727 4.28571ZM 19.8864 5.57199C 22.6551 5.57199 24.9273 8.49888 24.9273 12.1429C 24.9273 15.7868 22.6551 18.7137 19.8864 18.7137C 17.1176 18.7137 14.8454 15.7868 14.8454 12.1429C 14.8454 8.49888 17.1176 5.57199 19.8864 5.57199ZM 42.6136 7.14286L 43.3239 7.14286C 43.7511 7.14286 44.0341 7.42746 44.0341 7.85714L 44.0341 27.8571C 44.0341 28.2868 43.7511 28.5714 43.3239 28.5714L 7.8125 28.5714C 7.38525 28.5714 7.10227 28.2868 7.10227 27.8571L 7.10227 27.1429L 40.483 27.1429C 41.6898 27.1429 42.6136 26.2137 42.6136 25L 42.6136 7.14286ZM 7.10227 10C 5.54033 10 4.26136 11.2863 4.26136 12.8571C 4.26136 14.428 5.54033 15.7143 7.10227 15.7143C 8.66422 15.7143 9.94318 14.428 9.94318 12.8571C 9.94318 11.2863 8.66422 10 7.10227 10ZM 32.6705 10C 31.1085 10 29.8295 11.2863 29.8295 12.8571C 29.8295 14.428 31.1085 15.7143 32.6705 15.7143C 34.2324 15.7143 35.5114 14.428 35.5114 12.8571C 35.5114 11.2863 34.2324 10 32.6705 10ZM 7.10227 11.2863C 7.95399 11.2863 8.66422 12.0006 8.66422 12.8571C 8.66422 13.7137 7.95399 14.428 7.10227 14.428C 6.25056 14.428 5.54033 13.7137 5.54033 12.8571C 5.54033 12.0006 6.25056 11.2863 7.10227 11.2863ZM 32.6705 11.2863C 33.5222 11.2863 34.2324 12.0006 34.2324 12.8571C 34.2324 13.7137 33.5222 14.428 32.6705 14.428C 31.8187 14.428 31.1085 13.7137 31.1085 12.8571C 31.1085 12.0006 31.8187 11.2863 32.6705 11.2863ZM 10.6534 18.5714C 10.2262 18.5714 9.94318 18.856 9.94318 19.2857L 9.94318 20.7143C 9.94318 21.144 10.2262 21.4286 10.6534 21.4286C 11.0807 21.4286 11.3636 21.144 11.3636 20.7143L 11.3636 19.2857C 11.3636 18.856 11.0807 18.5714 10.6534 18.5714ZM 14.2045 18.5714C 13.7773 18.5714 13.4943 18.856 13.4943 19.2857L 13.4943 20.7143C 13.4943 21.144 13.7773 21.4286 14.2045 21.4286C 14.6318 21.4286 14.9148 21.144 14.9148 20.7143L 14.9148 19.2857C 14.9148 18.856 14.6318 18.5714 14.2045 18.5714ZM 25.5682 18.5714C 25.1409 18.5714 24.858 18.856 24.858 19.2857L 24.858 20.7143C 24.858 21.144 25.1409 21.4286 25.5682 21.4286C 25.9954 21.4286 26.2784 21.144 26.2784 20.7143L 26.2784 19.2857C 26.2784 18.856 25.9954 18.5714 25.5682 18.5714ZM 29.1193 18.5714C 28.6921 18.5714 28.4091 18.856 28.4091 19.2857L 28.4091 20.7143C 28.4091 21.144 28.6921 21.4286 29.1193 21.4286C 29.5466 21.4286 29.8295 21.144 29.8295 20.7143L 29.8295 19.2857C 29.8295 18.856 29.5466 18.5714 29.1193 18.5714ZM 3.55114 19.2857C 3.12389 19.2857 2.84091 19.5703 2.84091 20C 2.84091 20.4297 3.12389 20.7143 3.55114 20.7143L 7.10227 20.7143C 7.52952 20.7143 7.8125 20.4297 7.8125 20C 7.8125 19.5703 7.52952 19.2857 7.10227 19.2857L 3.55114 19.2857ZM 32.6705 19.2857C 32.2432 19.2857 31.9602 19.5703 31.9602 20C 31.9602 20.4297 32.2432 20.7143 32.6705 20.7143L 36.2216 20.7143C 36.6488 20.7143 36.9318 20.4297 36.9318 20C 36.9318 19.5703 36.6488 19.2857 36.2216 19.2857L 32.6705 19.2857Z"/>
</defs>
</svg>
