<?xml version="1.0" encoding="UTF-8" standalone="no"?>
<svg width="33px" height="43px" viewBox="0 0 33 43" version="1.1" xmlns="http://www.w3.org/2000/svg" xmlns:xlink="http://www.w3.org/1999/xlink" xmlns:sketch="http://www.bohemiancoding.com/sketch/ns">
    <!-- Generator: Sketch 3.2.2 (9983) - http://www.bohemiancoding.com/sketch -->
    <title>icon_file_ai</title>
    <desc>Created with Sketch.</desc>
    <defs></defs>
    <g id="brandbook" stroke="none" stroke-width="1" fill="none" fill-rule="evenodd" sketch:type="MSPage">
        <g id="icon_file_ai" sketch:type="MSLayerGroup" transform="translate(0.500000, 0.226592)">
            <path d="M1.88104869,0.00203745318 L21.2970187,0.00203745318 L31.9035206,10.608779 L31.9035206,40.6572584 C31.9035206,41.647221 31.09597,42.4551311 30.1060075,42.4551311 L1.88104869,42.4551311 C0.891205993,42.4551311 0.0832958801,41.6474607 0.0832958801,40.6572584 L0.0832958801,1.79967041 C0.0832958801,0.809588015 0.890966292,0.00203745318 1.88104869,0.00203745318" id="Fill-1" fill="#F9951D" sketch:type="MSShapeGroup"></path>
            <path d="M0.0834157303,40.6747566 C0.0927640449,41.6569288 0.896719101,42.4551311 1.88104869,42.4551311 C0.896958801,42.4551311 0.0927640449,41.6569288 0.0834157303,40.6747566 M31.9035206,40.6572584 C31.9035206,41.6414682 31.1054382,42.4455431 30.1233858,42.4550112 C31.1054382,42.4455431 31.9035206,41.6417079 31.9035206,40.6572584" id="Fill-2" fill="#CCCCCC" sketch:type="MSShapeGroup"></path>
            <path d="M31.9035206,39.2190562 C31.9035206,40.2090187 31.09597,41.016809 30.1060075,41.016809 L1.88104869,41.016809 C0.891205993,41.016809 0.0832958801,40.2092584 0.0832958801,39.2190562 L0.0832958801,40.6572584 C0.0832958801,40.6631311 0.0832958801,40.6688839 0.0834157303,40.6747566 C0.0927640449,41.6569288 0.896958801,42.4551311 1.88104869,42.4551311 L30.1060075,42.4551311 C30.1118801,42.4551311 30.117633,42.4550112 30.1233858,42.4550112 C31.1054382,42.4455431 31.9035206,41.6414682 31.9035206,40.6572584 L31.9035206,39.2190562" id="Fill-3" fill="#C67717" sketch:type="MSShapeGroup"></path>
            <path d="M21.2970187,0.00203745318 L21.2970187,10.608779 L31.9035206,10.608779 L21.2970187,0.00203745318" id="Fill-4" fill="#F9A034" sketch:type="MSShapeGroup"></path>
            <path d="M31.9035206,10.608779 L21.2970187,10.608779 L31.9035206,21.2154007 L31.9035206,10.608779" id="Fill-5" fill="#C67717" sketch:type="MSShapeGroup"></path>
            <path d="M20.2902772,26.5448989 L22.5120599,26.5448989 L22.5120599,19.3393858 L20.2902772,19.3393858 L20.2902772,26.5448989 Z M12.950412,22.5554457 L14.048,19.1352809 C14.141603,18.8446442 14.1994906,18.5517303 14.2233408,18.2562996 L14.2785918,18.2562996 C14.3122697,18.6069813 14.3697978,18.9094831 14.4491386,19.1640449 L15.5323446,22.5554457 L12.950412,22.5554457 L12.950412,22.5554457 Z M15.6596255,16.4548315 L12.9649139,16.4548315 L9.29006742,26.5448989 L11.754427,26.5448989 L12.4653783,24.2991461 L16.053573,24.2991461 L16.7717154,26.5448989 L19.2479401,26.5448989 L15.6596255,16.4548315 L15.6596255,16.4548315 Z M21.4143521,15.9121498 C21.0398202,15.9121498 20.7321648,16.0177378 20.4946217,16.2291536 C20.2544419,16.4405693 20.1341124,16.7117903 20.1341124,17.0456929 C20.1341124,17.3701273 20.2544419,17.6413483 20.4946217,17.8647491 C20.7321648,18.0881498 21.0398202,18.1986517 21.4143521,18.1986517 C21.7963146,18.1986517 22.1037303,18.0905468 22.3415131,17.8768539 C22.576779,17.6605243 22.6968689,17.3819925 22.6968689,17.0456929 C22.6968689,16.7117903 22.576779,16.4405693 22.3415131,16.2291536 C22.1037303,16.0177378 21.7963146,15.9121498 21.4143521,15.9121498 L21.4143521,15.9121498 Z" id="Fill-6" fill="#AD6813" sketch:type="MSShapeGroup"></path>
        </g>
    </g>
</svg>