<?xml version="1.0" encoding="UTF-8" standalone="no"?>
<svg width="39px" height="50px" viewBox="0 0 39 50" version="1.1" xmlns="http://www.w3.org/2000/svg" xmlns:xlink="http://www.w3.org/1999/xlink" xmlns:sketch="http://www.bohemiancoding.com/sketch/ns">
    <!-- Generator: Sketch 3.3.2 (12043) - http://www.bohemiancoding.com/sketch -->
    <title>noun_27853_cc</title>
    <desc>Created with Sketch.</desc>
    <defs></defs>
    <g id="Платежки" stroke="none" stroke-width="1" fill="none" fill-rule="evenodd" sketch:type="MSPage">
        <g id="создание-платежки-copy-4" sketch:type="MSArtboardGroup" transform="translate(-791.000000, -62.000000)" fill="#D8E8F2">
            <g id="автозаполнение" sketch:type="MSLayerGroup" transform="translate(790.000000, 62.000000)">
                <g id="noun_27853_cc" transform="translate(0.952381, 0.000000)" sketch:type="MSShapeGroup">
                    <path d="M18.9470238,3.68154762 C12.3910714,3.68154762 7.07857143,8.38333333 7.07857143,14.1845238 C7.07857143,19.9857143 8.50297619,40.114881 19.1821429,40.114881 C29.6261905,40.114881 30.8125,19.985119 30.8125,14.1845238 C30.8125,8.38392857 25.5005952,3.68154762 18.9470238,3.68154762 L18.9470238,3.68154762 Z M18.8708333,18.1767857 C13.7172619,18.1767857 9.54107143,15.4059524 9.54107143,11.9875 C9.54107143,8.57142857 13.7172619,5.79940476 18.8708333,5.79940476 C24.0244048,5.79940476 28.2029762,8.57142857 28.2029762,11.9875 C28.2029762,15.4059524 24.0238095,18.1767857 18.8708333,18.1767857 L18.8708333,18.1767857 Z" id="Shape"></path>
                    <rect id="Rectangle-path" x="12.0053571" y="1.75952381" width="0.828571429" height="4.09880952"></rect>
                    <path d="M13.6255952,1.21547619 C13.6255952,1.88511905 13.0821429,2.42916667 12.4107143,2.42916667 C11.7386905,2.42916667 11.1958333,1.88511905 11.1958333,1.21547619 C11.1964286,0.543452381 11.7392857,0 12.4113095,0 C13.0827381,0 13.6255952,0.543452381 13.6255952,1.21547619 L13.6255952,1.21547619 Z" id="Shape"></path>
                    <path d="M8.32619048,15.4154762 C6.70416667,15.4154762 5.37678571,16.6261905 5.16547619,18.1904762 C4.96785714,18.3654762 4.775,18.55 4.5922619,18.7541667 C2.65119048,20.9309524 1.81130952,24.5315476 2.19642857,28.939881 C0.625595238,29.6238095 -0.649404762,32.8386905 2.0625,34.7303571 C1.8422619,33.7375 2.30892857,31.7011905 3.74404762,31.4809524 C4.73869048,31.2035714 6.33928571,32.0327381 6.33928571,34.0196429 C7.52857143,32.827381 7.90297619,28.7571429 5.49880952,28.6922619 C5.21607143,25.5363095 5.66011905,22.9339286 6.73630952,21.3821429 C7.20654762,21.6529762 7.74464286,21.8196429 8.32559524,21.8196429 C10.0922619,21.8196429 11.527381,20.3869048 11.527381,18.6184524 C11.5279762,16.8494048 10.0928571,15.4154762 8.32619048,15.4154762 L8.32619048,15.4154762 Z" id="Shape"></path>
                    <path d="M36.6916667,29.7988095 C36.6113095,23.2779762 34.6863095,19.510119 32.375,17.7684524 C32.0005952,16.4154762 30.775,15.4160714 29.3047619,15.4160714 C27.5327381,15.4160714 26.1,16.85 26.1,18.6184524 C26.1,20.3869048 27.5327381,21.8196429 29.3047619,21.8196429 C30.0065476,21.8196429 30.65,21.5869048 31.177381,21.2035714 C32.2595238,22.5416667 33.2482143,25.047619 33.3702381,29.3267857 C30.4744048,29.2053571 29.989881,33.5059524 32.7702381,35.0095238 C32.5369048,33.0553571 33.2785714,31.8113095 34.4386905,31.6470238 C36.0375,31.7017857 35.9809524,34.3357143 35.8738095,35.1797619 C38.714881,33.4761905 38.6529762,30.6190476 36.6916667,29.7988095 L36.6916667,29.7988095 Z" id="Shape"></path>
                    <path d="M11.5297619,12.4452381 C12.7702381,11.6166667 15.339881,11.3202381 16.7755952,11.9642857 C17.0755952,12.0988095 17.2625,12.0053571 17.1892857,11.685119 C16.347619,8.0125 11.2547619,8.68690476 11.0690476,12.2410714 C11.0517857,12.5690476 11.2565476,12.627381 11.5297619,12.4452381 L11.5297619,12.4452381 Z" id="Shape"></path>
                    <path d="M20.6547619,12.0261905 C22.0113095,11.4065476 24.5946429,11.525 25.9083333,12.3904762 C26.1827381,12.5714286 26.3821429,12.5095238 26.3613095,12.1815476 C26.1190476,8.4202381 20.9827381,8.27380952 20.2321429,11.7511905 C20.1630952,12.072619 20.3553571,12.1625 20.6547619,12.0261905 L20.6547619,12.0261905 Z" id="Shape"></path>
                    <ellipse id="Oval" cx="19.047619" cy="48.5119048" rx="8.33333333" ry="1.48809524"></ellipse>
                </g>
            </g>
        </g>
    </g>
</svg>