<svg xmlns="http://www.w3.org/2000/svg" width="100" height="100" viewBox="0 0 100 100">
  <g fill="none" fill-rule="evenodd">
    <path fill="#FFFFFF" d="M100,50 C100,77.6153846 77.6153846,100 50,100 C22.3846154,100 0,77.6153846 0,50 C0,22.3846154 22.3846154,0 50,0 C77.6153846,0 100,22.3846154 100,50"/>
    <path fill="#E6E5E5" d="M83.0738462,60.7215385 L83.0738462,77.6392308 L100,77.6392308 C100,68.29 92.4276923,60.7215385 83.0738462,60.7215385"/>
    <path fill="#F87B4F" d="M83.0738462,77.6392308 L83.0738462,60.7215385 C73.7338462,60.7215385 66.1538462,68.29 66.1538462,77.6392308 C66.1538462,86.9869231 73.7338462,94.5469231 83.0738462,94.5469231 C87.7607692,94.5469231 91.9738462,92.6523077 95.0330769,89.5861538 L83.0738462,77.6392308"/>
    <path fill="#3D546B" d="M83.0738462 77.6392308L95.0330769 89.5861538C98.0692308 86.5407692 100 82.3107692 100 77.6392308L83.0738462 77.6392308M16.1076923 26.01C16.1076923 30.2592308 12.6646154 33.7030769 8.41461538 33.7030769 4.16538462 33.7030769.723076923 30.2592308.723076923 26.01.723076923 21.7615385 4.16538462 18.3176923 8.41461538 18.3176923 12.6646154 18.3176923 16.1076923 21.7615385 16.1076923 26.01"/>
    <path fill="#F87B55" d="M18.8461538,72.04 C18.8461538,73.5269231 17.6407692,74.7323077 16.1538462,74.7323077 C14.6661538,74.7323077 13.4615385,73.5269231 13.4615385,72.04 C13.4615385,70.5530769 14.6661538,69.3476923 16.1538462,69.3476923 C17.6407692,69.3476923 18.8461538,70.5530769 18.8461538,72.04"/>
    <path fill="#D9D8D7" d="M93.8430769,38.2938462 C93.8430769,41.2676923 91.4323077,43.6784615 88.4584615,43.6784615 C85.4838462,43.6784615 83.0738462,41.2676923 83.0738462,38.2938462 C83.0738462,35.32 85.4838462,32.9092308 88.4584615,32.9092308 C91.4323077,32.9092308 93.8430769,35.32 93.8430769,38.2938462"/>
    <polygon fill="#3D546B" points="26.01 84.668 73.991 84.668 73.991 36.688 26.01 36.688"/>
    <polygon fill="#232E38" points="30.938 47.371 47.7 47.371 47.7 41.455 30.938 41.455"/>
    <polygon fill="#555C69" points="31.823 46.484 46.814 46.484 46.814 42.344 31.823 42.344"/>
    <polygon fill="#474F59" points="41.374 46.484 42.261 46.484 42.261 42.344 41.374 42.344"/>
    <polygon fill="#474F59" points="36.38 46.484 37.265 46.484 37.265 42.344 36.38 42.344"/>
    <polygon fill="#22374D" points="52.631 47.371 58.543 47.371 58.543 41.455 52.631 41.455"/>
    <polygon fill="#22374D" points="63.472 47.371 69.384 47.371 69.384 41.455 63.472 41.455"/>
    <polygon fill="#22374D" points="30.938 58.215 36.852 58.215 36.852 52.298 30.938 52.298"/>
    <polygon fill="#22374D" points="41.781 58.215 47.7 58.215 47.7 52.298 41.781 52.298"/>
    <polygon fill="#22374D" points="52.631 58.215 58.543 58.215 58.543 52.298 52.631 52.298"/>
    <polygon fill="#22374D" points="63.472 58.215 69.384 58.215 69.384 52.298 63.472 52.298"/>
    <polygon fill="#22374D" points="30.938 69.061 36.852 69.061 36.852 63.142 30.938 63.142"/>
    <polygon fill="#22374D" points="41.781 69.061 47.7 69.061 47.7 63.142 41.781 63.142"/>
    <polygon fill="#22374D" points="52.631 69.061 58.543 69.061 58.543 63.142 52.631 63.142"/>
    <polygon fill="#22374D" points="30.938 79.905 36.852 79.905 36.852 73.991 30.938 73.991"/>
    <polygon fill="#22374D" points="41.781 79.905 47.7 79.905 47.7 73.991 41.781 73.991"/>
    <polygon fill="#22374D" points="52.631 79.905 58.543 79.905 58.543 73.991 52.631 73.991"/>
    <polygon fill="#656A73" points="63.472 79.905 69.384 79.905 69.384 63.142 63.472 63.142"/>
    <polygon fill="#3D546B" points="26.01 36.688 73.991 36.688 73.991 15.332 26.01 15.332"/>
    <polygon fill="#76D0DE" points="29.421 33.277 70.577 33.277 70.577 18.744 29.421 18.744"/>
    <polygon fill="#ADECF8" points="31.195 31.505 68.802 31.505 68.802 20.516 31.195 20.516"/>
    <polygon fill="#D9D8D7" points="26.01 37.285 73.991 37.285 73.991 36.092 26.01 36.092"/>
  </g>
</svg>
