<?xml version="1.0" encoding="UTF-8" standalone="no"?>
<svg width="120px" height="82px" viewBox="0 0 120 82" version="1.1" xmlns="http://www.w3.org/2000/svg" xmlns:xlink="http://www.w3.org/1999/xlink" xmlns:sketch="http://www.bohemiancoding.com/sketch/ns">
    <!-- Generator: Sketch 3.3.2 (12043) - http://www.bohemiancoding.com/sketch -->
    <title>Shape</title>
    <desc>Created with Sketch.</desc>
    <defs></defs>
    <g id="Page-1" stroke="none" stroke-width="1" fill="none" fill-rule="evenodd" sketch:type="MSPage">
        <g id="noun_33113_cc" sketch:type="MSLayerGroup" fill="#C1C7CD">
            <path d="M63.7907692,41.28 C74.02,41.28 82.3430769,32.9584615 82.3430769,22.7292308 C82.3430769,12.5 74.02,4.17692308 63.7907692,4.17692308 C53.5615385,4.17692308 45.24,12.5 45.24,22.7292308 C45.24,32.9584615 53.5615385,41.28 63.7907692,41.28 L63.7907692,41.28 Z M63.7907692,6.97384615 C72.4769231,6.97384615 79.5446154,14.0415385 79.5446154,22.7276923 C79.5446154,31.4138462 72.4769231,38.48 63.7907692,38.48 C55.1046154,38.48 48.0384615,31.4153846 48.0384615,22.7276923 C48.0384615,14.04 55.1046154,6.97384615 63.7907692,6.97384615 L63.7907692,6.97384615 Z M27.8646154,53.2476923 L3.20153846,53.2476923 C2.97538462,50.2276923 2.84153846,42.2015385 7.11076923,37.2676923 C9.33076923,34.7046154 12.4953846,33.32 16.5292308,33.1476923 L23.8692308,48.3523077 C24.1030769,48.8353846 24.5923077,49.1430769 25.1292308,49.1430769 C25.6661538,49.1430769 26.1553846,48.8353846 26.3892308,48.3523077 L33.7292308,33.1476923 C40.0046154,33.4153846 44.14,36.6215385 46.0307692,42.6861538 C46.26,43.4230769 47.0430769,43.8323077 47.7846154,43.6061538 C48.5230769,43.3753846 48.9338462,42.5907692 48.7046154,41.8523077 C46.3553846,34.3153846 40.8769231,30.3307692 32.8615385,30.3307692 C32.8384615,30.3307692 32.8215385,30.3476923 32.7984615,30.3492308 C32.5938462,30.3584615 32.3984615,30.42 32.2138462,30.5169231 C32.1538462,30.5492308 32.1030769,30.5830769 32.0476923,30.6246154 C31.9953846,30.6630769 31.9338462,30.6815385 31.8846154,30.7292308 C31.86,30.7523077 29.3046154,33.1676923 25.1307692,33.1676923 C20.9630769,33.1676923 18.4092308,30.7584615 18.3784615,30.7292308 C18.3292308,30.6815385 18.2676923,30.6615385 18.2138462,30.6230769 C18.1615385,30.5846154 18.1138462,30.5523077 18.0553846,30.52 C17.8538462,30.4107692 17.6384615,30.3384615 17.4153846,30.3353846 C17.4107692,30.3353846 17.4061538,30.3307692 17.4,30.3307692 L17.3938462,30.3307692 L17.3753846,30.3307692 C12.0923077,30.3369231 7.92615385,32.0523077 4.99846154,35.4338462 C-1.14461538,42.5292308 0.481538462,54.3461538 0.553846154,54.8461538 C0.652307692,55.5338462 1.24307692,56.0446154 1.93846154,56.0446154 L27.8676923,56.0446154 C28.6415385,56.0446154 29.2676923,55.4184615 29.2676923,54.6446154 C29.2646154,53.8738462 28.6384615,53.2476923 27.8646154,53.2476923 L27.8646154,53.2476923 Z M25.1276923,35.9676923 C26.8846154,35.9676923 28.3830769,35.6215385 29.6461538,35.1676923 L25.1276923,44.5261538 L20.6092308,35.1676923 C21.8738462,35.6215385 23.3723077,35.9676923 25.1276923,35.9676923 L25.1276923,35.9676923 Z M25.1276923,27.82 C32.5769231,27.82 38.6369231,21.76 38.6369231,14.3107692 C38.6369231,6.86153846 32.5769231,0.801538462 25.1276923,0.801538462 C17.6784615,0.801538462 11.6184615,6.86153846 11.6184615,14.3107692 C11.6184615,21.7584615 17.68,27.82 25.1276923,27.82 L25.1276923,27.82 Z M25.1276923,3.6 C31.0338462,3.6 35.8384615,8.40461538 35.8384615,14.3107692 C35.8384615,20.2169231 31.0338462,25.0215385 25.1276923,25.0215385 C19.2215385,25.0215385 14.4169231,20.2169231 14.4169231,14.3107692 C14.4169231,8.40461538 19.2215385,3.6 25.1276923,3.6 L25.1276923,3.6 Z M116.430769,29.4369231 L89.66,29.4369231 C87.7523077,29.4369231 86.2,30.9892308 86.2,32.8969231 L86.2,48.6153846 C82.9553846,46.9153846 79.1353846,46.0015385 74.74,46.0015385 C74.3676923,46.0015385 74.0553846,46.1861538 73.7984615,46.4369231 L73.7615385,46.4 C73.7246154,46.4353846 69.96,50.0184615 63.7907692,50.0184615 C57.6215385,50.0184615 53.8569231,46.4353846 53.82,46.4 L53.7830769,46.4369231 C53.5261538,46.1861538 53.2123077,46.0015385 52.8415385,46.0015385 C45.5153846,46.0015385 39.7553846,48.3661538 35.7169231,53.0292308 C27.1892308,62.88 29.4569231,79.3630769 29.5584615,80.06 C29.6569231,80.7476923 30.2476923,81.2584615 30.9430769,81.2584615 L96.6430769,81.2584615 C97.3384615,81.2584615 97.9292308,80.7476923 98.0276923,80.0584615 C98.0815385,79.6953846 99.2215385,71.4584615 96.9707692,63.1276923 L116.432308,63.1276923 C118.34,63.1276923 119.892308,61.5753846 119.892308,59.6676923 L119.892308,32.8969231 C119.890769,30.9892308 118.338462,29.4369231 116.430769,29.4369231 L116.430769,29.4369231 Z M63.7907692,52.82 C66.8815385,52.82 69.4107692,52.0646154 71.3615385,51.1846154 L63.7907692,66.8676923 L56.22,51.1846154 C58.1723077,52.0646154 60.7015385,52.82 63.7907692,52.82 L63.7907692,52.82 Z M95.3846154,78.4615385 L32.2,78.4615385 C31.8646154,74.5953846 31.3876923,62.2984615 37.8415385,54.8553846 C41.1646154,51.0215385 45.9153846,48.9907692 51.9707692,48.8138462 L62.5323077,70.6923077 C63,71.66 64.5846154,71.66 65.0523077,70.6923077 L75.6138462,48.8138462 C79.7753846,48.9353846 83.3276923,49.9415385 86.2015385,51.7907692 L86.2015385,59.6692308 C86.2015385,61.5769231 87.7538462,63.1292308 89.6615385,63.1292308 L94.0569231,63.1292308 C95.8984615,69.3492308 95.6153846,75.8415385 95.3846154,78.4615385 L95.3846154,78.4615385 Z M117.092308,59.6692308 C117.092308,60.0338462 116.795385,60.3307692 116.430769,60.3307692 L89.66,60.3307692 C89.2953846,60.3307692 88.9984615,60.0338462 88.9984615,59.6692308 L88.9984615,32.8969231 C88.9984615,32.5323077 89.2953846,32.2353846 89.66,32.2353846 L116.430769,32.2353846 C116.795385,32.2353846 117.092308,32.5323077 117.092308,32.8969231 L117.092308,59.6692308 L117.092308,59.6692308 Z M111.041538,44.8846154 L104.446154,44.8846154 L104.446154,38.2892308 C104.446154,37.5153846 103.82,36.8892308 103.046154,36.8892308 C102.272308,36.8892308 101.646154,37.5153846 101.646154,38.2892308 L101.646154,44.8846154 L95.0492308,44.8846154 C94.2753846,44.8846154 93.6492308,45.5107692 93.6492308,46.2846154 C93.6492308,47.0584615 94.2753846,47.6846154 95.0492308,47.6846154 L101.646154,47.6846154 L101.646154,54.28 C101.646154,55.0538462 102.272308,55.68 103.046154,55.68 C103.82,55.68 104.446154,55.0538462 104.446154,54.28 L104.446154,47.6846154 L111.041538,47.6846154 C111.815385,47.6846154 112.441538,47.0584615 112.441538,46.2846154 C112.441538,45.5107692 111.815385,44.8846154 111.041538,44.8846154 L111.041538,44.8846154 Z" id="Shape" sketch:type="MSShapeGroup"></path>
        </g>
    </g>
</svg>