<svg xmlns="http://www.w3.org/2000/svg" width="61" height="63" viewBox="0 0 61 63">
  <g fill="none" fill-rule="evenodd" transform="translate(0 .185)">
    <path fill="#FFFFFF" d="M30.5,0.502191148 C47.3441541,0.502191148 60.984445,14.3170332 60.9844596,31.3765717 C60.984445,48.4362446 47.3441541,62.253575 30.5,62.253575 C13.6558459,62.253575 0.0155547348,48.4362446 0.0155401478,31.3765717 C0.0155547348,14.3170332 13.6558459,0.502191148 30.5,0.502191148 Z"/>
    <rect width="28" height="17" x="18" y="16" fill="#DAF2BA" rx="2"/>
    <rect width="9" height="5" x="34" y="26" fill="#FFFFFF" rx="2.5"/>
    <rect width="27" height="4" x="18" y="19" fill="#FFFFFF"/>
    <path fill="#000000" fill-rule="nonzero" d="M20.4140968,33.8888889 L43.0831613,33.8888889 C44.8444516,33.8888889 46.2258065,32.544 46.2258065,30.8263704 L46.2258065,23.1851852 L46.2258065,19.4074074 L46.2258065,18.2904444 C46.2258065,16.5060741 44.7865806,15 43.0831613,15 L20.4140968,15 C18.722,15 17.2903226,16.5060741 17.2903226,18.2904444 L17.2903226,19.4074074 L17.2903226,23.1851852 L17.2903226,30.8263704 C17.2903226,32.544 18.662871,33.8888889 20.4140968,33.8888889 Z M43.0831613,32.6296296 L20.4140968,32.6296296 C19.3510323,32.6296296 18.5483871,31.8551852 18.5483871,30.8263704 L18.5483871,23.8148148 L44.9677419,23.8148148 L44.9677419,30.8263704 C44.9677419,31.8375556 44.1399355,32.6296296 43.0831613,32.6296296 Z M18.5483871,20.037037 L44.9677419,20.037037 L44.9677419,22.5555556 L18.5483871,22.5555556 L18.5483871,20.037037 Z M20.4140968,16.2592593 L43.0831613,16.2592593 C44.0870968,16.2592593 44.9677419,17.2087407 44.9677419,18.2904444 L44.9677419,18.7777778 L18.5483871,18.7777778 L18.5483871,18.2904444 C18.5483871,17.2087407 19.4202258,16.2592593 20.4140968,16.2592593 Z"/>
    <rect width="11.323" height="1.259" x="19.806" y="27.593" fill="#000000" fill-rule="nonzero"/>
    <rect width="8.806" height="1.259" x="19.806" y="30.111" fill="#000000" fill-rule="nonzero"/>
    <path fill="#000000" fill-rule="nonzero" d="M40.5531935 25.1899259C39.8423871 25.1899259 39.1907097 25.4342222 38.6623226 25.8334074 38.1163226 25.4203704 37.4659032 25.1899259 36.7739677 25.1899259 35.0315484 25.1899259 33.6137097 26.6040741 33.6137097 28.3418519 33.6137097 30.0796296 35.0315484 31.4925185 36.7739677 31.4925185 37.4558387 31.4925185 38.1112903 31.252 38.6447097 30.8364444 39.176871 31.2406667 39.8323226 31.4925185 40.5531935 31.4925185 42.2956129 31.4925185 43.7121935 30.0796296 43.7121935 28.3418519 43.7121935 26.6040741 42.2956129 25.1899259 40.5531935 25.1899259zM34.8730323 28.3418519C34.8730323 27.2979259 35.726 26.4491852 36.7752258 26.4491852 37.2218387 26.4491852 37.5640323 26.599037 37.8269677 26.7803704 37.559 27.2425185 37.3941935 27.7714074 37.3941935 28.3418519 37.3941935 28.9085185 37.5577419 29.4348889 37.8219355 29.8945185 37.5174839 30.1123704 37.1513871 30.2332593 36.7752258 30.2332593 35.7247419 30.2332593 34.8730323 29.3845185 34.8730323 28.3418519zM40.5531935 30.2332593C39.5039677 30.2332593 38.651 29.3845185 38.651 28.3418519 38.651 27.2979259 39.5039677 26.4491852 40.5531935 26.4491852 41.6011613 26.4491852 42.454129 27.2979259 42.454129 28.3418519 42.454129 29.3845185 41.6011613 30.2332593 40.5531935 30.2332593zM49.5571613 37.468963L49.2967419 37.0848889C48.7155161 36.0598519 47.5769677 35.5171111 46.4258387 35.706 46.0660323 35.7513333 45.7351613 35.8785185 45.3678065 36.1077037L37.7137419 40.5717778C37.5866774 38.7458519 36.2556452 37.6666667 34.1005806 37.6666667L30.7855806 37.6666667C30.1754194 37.6666667 29.2972903 37.3619259 28.4493548 37.066 27.5196452 36.7423704 26.5572258 36.4074074 25.760871 36.4074074L22.445871 36.4074074C21.0506774 36.4074074 19.8781613 36.8607407 18.935871 37.2259259 18.3257097 37.4626667 17.7985806 37.6666667 17.4211613 37.6666667L17.2903226 37.6666667 17.2903226 36.9715556C17.2903226 36.0006667 16.4688065 35.1481481 15.5315484 35.1481481L12.6795161 35.1481481C11.7686774 35.1481481 11 35.983037 11 36.9715556L11 47.305037C11 48.2557778 11.7372258 49 12.6795161 49L15.5315484 49C16.3442581 49 17.024871 48.4635556 17.2249032 47.7407407L37.774129 47.7407407C38.1276452 47.7407407 38.5390323 47.7243704 38.8975806 47.5531111 39.0447742 47.5178519 39.2271935 47.4737778 39.3945161 47.3642222L48.6123548 41.5187407C49.259 41.1321481 49.7181935 40.5037778 49.9056452 39.7494815 50.0956129 38.9813333 49.9748387 38.1602963 49.5571613 37.468963zM15.5315484 47.7407407L12.6795161 47.7407407C12.4279032 47.7407407 12.2580645 47.5657037 12.2580645 47.305037L12.2580645 36.9715556C12.2580645 36.7108889 12.4417419 36.4074074 12.6795161 36.4074074L15.5315484 36.4074074C15.7743548 36.4074074 16.0322581 36.697037 16.0322581 36.9715556L16.0322581 46.4814815 16.0322581 47.305037C16.0322581 47.5455556 15.8070645 47.7407407 15.5315484 47.7407407zM48.6840645 39.4434815C48.577129 39.8716296 48.3217419 40.2242222 47.9506129 40.4458519L38.729 46.2951111C38.6925161 46.3114815 38.6497419 46.3177778 38.5063226 46.3517778L38.3855484 46.3958519C38.2270323 46.4751852 37.9955484 46.4814815 37.7024194 46.4814815L17.2903226 46.4814815 17.2903226 38.9259259 17.4211613 38.9259259C18.0338387 38.9259259 18.662871 38.6828889 19.3912903 38.4008148 20.2794839 38.057037 21.2859355 37.6666667 22.447129 37.6666667L25.762129 37.6666667C26.345871 37.6666667 27.205129 37.9651111 28.0379677 38.256 28.9840323 38.5846667 29.9628065 38.9259259 30.7868387 38.9259259L34.1018387 38.9259259C35.6706452 38.9259259 36.467 39.5794815 36.467 40.8677037 36.467 41.1762222 36.4380645 41.4771852 36.3260968 41.7428889 35.8706774 42.4178519 35.198871 42.7024444 34.1119032 42.7037037L34.1018387 42.7037037 27.3548387 42.7037037 27.3548387 43.962963 34.1005806 43.962963 34.1106452 43.962963C36.0342258 43.9604444 36.9790323 43.2615556 37.4080323 42.3876296 37.4646452 42.3007407 37.5187419 42.2088148 37.5703226 42.1131111L46.0182258 37.1856296C46.2459355 37.0445926 46.4094839 36.9778519 46.6044839 36.9526667 47.2687419 36.8431111 47.8814194 37.1365185 48.2286452 37.7472593L48.497871 38.1451852C48.7268387 38.5267407 48.7947742 39.0002222 48.6840645 39.4434815z"/>
  </g>
</svg>
