<svg width="70" height="70" viewBox="0 0 70 70" version="1.1" xmlns="http://www.w3.org/2000/svg" xmlns:xlink="http://www.w3.org/1999/xlink">
<title>Vector</title>
<desc>Created using Figma</desc>
<g id="Canvas" transform="translate(-5990 -1697)">
<g id="Vector">
<use xlink:href="#path0_fill" transform="translate(5990 1697)" fill="#717D83"/>
</g>
</g>
<defs>
<path id="path0_fill" d="M 35 0C 15.6991 0 0 15.6991 0 35C 0 54.3009 15.6991 70 35 70C 54.3009 70 70 54.3009 70 35C 70 15.6991 54.3009 0 35 0ZM 35 2.41379C 52.9667 2.41379 67.5862 17.0333 67.5862 35C 67.5862 52.9667 52.9667 67.5862 35 67.5862C 17.0333 67.5862 2.41379 52.9667 2.41379 35C 2.41379 17.0333 17.0333 2.41379 35 2.41379ZM 35 7.24138C 19.6922 7.24138 7.24138 19.6922 7.24138 35C 7.24138 50.3078 19.6922 62.7586 35 62.7586C 50.3078 62.7586 62.7586 50.3078 62.7586 35C 62.7586 26.4244 58.8881 18.4665 52.137 13.1627C 51.6137 12.7526 50.8594 12.8421 50.4445 13.3654C 50.0343 13.8887 50.1239 14.6478 50.6472 15.0626C 56.809 19.9044 60.3448 27.174 60.3448 35C 60.3448 48.9736 48.9736 60.3448 35 60.3448C 21.0264 60.3448 9.65517 48.9736 9.65517 35C 9.65517 21.0264 21.0264 9.65517 35 9.65517C 36.2399 9.65517 37.4845 9.74475 38.6961 9.9239C 39.3609 10.0229 39.9737 9.5656 40.068 8.90558C 40.1623 8.24555 39.7097 7.63268 39.0497 7.53368C 37.7202 7.34038 36.3578 7.24138 35 7.24138ZM 44.0894 8.86315C 43.6227 8.88672 43.189 9.18373 43.0145 9.65517C 42.7883 10.2775 43.1088 10.9705 43.7359 11.2015C 44.6787 11.5457 45.6169 11.9605 46.5221 12.4225C 46.7012 12.5121 46.8898 12.5546 47.0737 12.5546C 47.5121 12.5546 47.9364 12.3141 48.1486 11.8945C 48.4503 11.3005 48.2146 10.5745 47.6206 10.2728C 46.6305 9.7636 45.6028 9.31573 44.5656 8.93386C 44.41 8.87729 44.2497 8.85372 44.0894 8.86315ZM 35 14.4828C 34.3353 14.4828 33.7931 15.0249 33.7931 15.6897L 33.7931 18.1034C 33.7931 18.7682 34.3353 19.3103 35 19.3103C 35.6647 19.3103 36.2069 18.7682 36.2069 18.1034L 36.2069 15.6897C 36.2069 15.0249 35.6647 14.4828 35 14.4828ZM 42.2178 15.8924C 41.7464 15.8971 41.3032 16.18 41.1146 16.6467L 40.2095 18.8813C 39.9596 19.4989 40.2566 20.2061 40.8789 20.456C 41.0251 20.5125 41.1806 20.5408 41.3315 20.5408C 41.8077 20.5408 42.2602 20.2579 42.4488 19.7865L 43.354 17.5471C 43.6039 16.9296 43.3021 16.2271 42.6845 15.9772C 42.529 15.9159 42.3734 15.8877 42.2178 15.8924ZM 48.3937 19.8997C 48.0826 19.9091 47.7808 20.0317 47.5451 20.2721L 45.8668 22.007C 45.4048 22.4879 45.4189 23.2516 45.8998 23.7136C 46.1308 23.9399 46.4325 24.0531 46.7342 24.0531C 47.0548 24.0531 47.366 23.9258 47.6017 23.6853L 49.28 21.9504C 49.7468 21.4696 49.7326 20.7058 49.2565 20.2391C 49.016 20.0081 48.7049 19.8949 48.3937 19.8997ZM 35 21.7241C 34.3353 21.7241 33.7931 22.2663 33.7931 22.931L 33.7931 32.9209C 33.0765 33.3405 32.5862 34.109 32.5862 35C 32.5862 36.3295 33.6705 37.4138 35 37.4138C 35.2169 37.4138 35.4196 37.3761 35.6176 37.3242L 43.1984 44.905C 43.4341 45.1408 43.7406 45.2586 44.0517 45.2586C 44.3629 45.2586 44.6693 45.1408 44.905 44.905C 45.3765 44.4336 45.3765 43.6699 44.905 43.1984L 37.3242 35.6176C 37.3761 35.4196 37.4138 35.2169 37.4138 35C 37.4138 34.109 36.9235 33.3405 36.2069 32.9209L 36.2069 22.931C 36.2069 22.2663 35.6647 21.7241 35 21.7241ZM 52.6179 25.9388C 52.4623 25.9436 52.302 25.9766 52.1511 26.0426L 49.9448 27.0232C 49.3366 27.2966 49.0632 28.0085 49.3319 28.6214C 49.5346 29.0692 49.9731 29.338 50.4351 29.338C 50.6001 29.338 50.7651 29.3002 50.9254 29.2295L 53.1317 28.2489C 53.7399 27.9755 54.0133 27.2636 53.7446 26.6554C 53.5372 26.1981 53.0893 25.9294 52.6179 25.9388ZM 15.6897 33.7931C 15.0249 33.7931 14.4828 34.3353 14.4828 35C 14.4828 35.6647 15.0249 36.2069 15.6897 36.2069L 18.1034 36.2069C 18.7682 36.2069 19.3103 35.6647 19.3103 35C 19.3103 34.3353 18.7682 33.7931 18.1034 33.7931L 15.6897 33.7931ZM 51.8966 33.7931C 51.2318 33.7931 50.6897 34.3353 50.6897 35C 50.6897 35.6647 51.2318 36.2069 51.8966 36.2069L 54.3103 36.2069C 54.9751 36.2069 55.5172 35.6647 55.5172 35C 55.5172 34.3353 54.9751 33.7931 54.3103 33.7931L 51.8966 33.7931ZM 50.6472 40.1246C 50.1758 40.1293 49.7326 40.4122 49.544 40.8789C 49.2989 41.4965 49.5959 42.1989 50.2135 42.4488L 52.4529 43.354C 52.599 43.4153 52.7546 43.4436 52.9007 43.4436C 53.3816 43.4436 53.8342 43.156 54.0228 42.6845C 54.2726 42.0669 53.9756 41.3645 53.3533 41.1146L 51.1187 40.2095C 50.9631 40.1482 50.8028 40.1199 50.6472 40.1246ZM 47.135 45.5273C 46.8285 45.5368 46.5174 45.6593 46.2864 45.8998C 46.1025 46.0884 46.0176 46.3288 45.9799 46.5692C 45.7772 47.0124 45.8479 47.5546 46.2157 47.9223L 47.7997 49.5063C 48.0354 49.7421 48.3419 49.8599 48.653 49.8599C 48.9642 49.8599 49.2706 49.7421 49.5063 49.5063C 49.5488 49.4639 49.5723 49.4026 49.6101 49.3555C 49.6572 49.3178 49.7138 49.2989 49.7609 49.2518C 50.2229 48.7709 50.2088 48.0071 49.7279 47.5451L 47.993 45.8668C 47.7526 45.6358 47.4414 45.5226 47.135 45.5273ZM 35 50.6897C 34.3353 50.6897 33.7931 51.2318 33.7931 51.8966L 33.7931 54.3103C 33.7931 54.9751 34.3353 55.5172 35 55.5172C 35.6647 55.5172 36.2069 54.9751 36.2069 54.3103L 36.2069 51.8966C 36.2069 51.2318 35.6647 50.6897 35 50.6897Z"/>
</defs>
</svg>
