<svg height="54" viewBox="0 0 54 54" width="54" xmlns="http://www.w3.org/2000/svg"><g fill="none" fill-rule="evenodd"><path d="m27 54c14.9116882 0 27-12.0883118 27-27s-12.0883118-27-27-27-27 12.0883118-27 27 12.0883118 27 27 27z" fill="#f7f7f7"/><g fill="#00417b" transform="translate(15 12)"><path d="m21.7680339 27.8937037v-27.32444444c0-.31423111-.2560608-.56925926-.572843-.56925926h-20.6223479c-.31620934 0-.572843.25502815-.572843.56925926v27.32444444c0 .3148004.25663366.5692593.572843.5692593h20.6223479c.3167822 0 .572843-.2544589.572843-.5692593zm-1.145686-.5692593h-19.4766619v-26.18592588h19.4766619z"/><path d="m23.4865629 2.27703704c-.3167821 0-.572843.25502815-.572843.56925926v26.7551852h-21.1951909c-.31620934 0-.572843.2544589-.572843.5692592 0 .3148004.25663366.5692593.572843.5692593h21.7680339c.3167822 0 .572843-.2544589.572843-.5692593v-27.3244444c0-.31423111-.2560608-.56925926-.572843-.56925926z"/><path d="m14.321075 8.86678222v3.08766218c0 .3142312.2560608.5692593.572843.5692593.3167821 0 .572843-.2550281.572843-.5692593v1.1385186c0 .3142311.2560608.5692592.572843.5692592.3167821 0 .572843-.2550281.572843-.5692592v-4.22618078c1.0099222-.44060666 1.718529-1.44079518 1.718529-2.60493037 0-1.56944778-1.2848869-2.84629629-2.864215-2.84629629-1.5793282 0-2.864215 1.27684851-2.864215 2.84629629 0 1.16413519.7086068 2.16432371 1.718529 2.60493037zm1.145686-4.31270815c.9474823 0 1.718529.76622297 1.718529 1.70777778 0 .94155482-.7710467 1.70777778-1.718529 1.70777778-.9474824 0-1.718529-.76622296-1.718529-1.70777778 0-.94155481.7710466-1.70777778 1.718529-1.70777778zm-11.45686001 1.13851852h5.72842999c.31620932 0 .57284302-.25502815.57284302-.56925926s-.2566337-.56925926-.57284302-.56925926h-5.72842999c-.31620934 0-.572843.25502815-.572843.56925926s.25663366.56925926.572843.56925926zm0 2.27703704h5.72842999c.31620932 0 .57284302-.25502815.57284302-.56925926s-.2566337-.56925926-.57284302-.56925926h-5.72842999c-.31620934 0-.572843.25502815-.572843.56925926s.25663366.56925926.572843.56925926zm0 2.27703707h5.72842999c.31620932 0 .57284302-.25502818.57284302-.56925929s-.2566337-.56925926-.57284302-.56925926h-5.72842999c-.31620934 0-.572843.25502815-.572843.56925926s.25663366.56925929.572843.56925929zm0 6.8311111h13.74823201c.3167821 0 .572843-.2544589.572843-.5692593s-.2560609-.5692592-.572843-.5692592h-13.74823201c-.31620934 0-.572843.2544588-.572843.5692592s.25663366.5692593.572843.5692593zm0 2.277037h13.74823201c.3167821 0 .572843-.2544589.572843-.5692592 0-.3148004-.2560609-.5692593-.572843-.5692593h-13.74823201c-.31620934 0-.572843.2544589-.572843.5692593 0 .3148003.25663366.5692592.572843.5692592zm10.31117401 4.5540741h-6.87411602c-.31620933 0-.572843.2544589-.572843.5692592 0 .3148004.25663367.5692593.572843.5692593h6.87411602c.3167821 0 .572843-.2544589.572843-.5692593 0-.3148003-.2560609-.5692592-.572843-.5692592zm-6.04635789-.3222008c.32251061 0 .63299152-.2003792.90337341-.4451607.07332391.06148.15810467.1144211.25548798.1554078.5195686.2231496.9045191-.0165085 1.1657355-.3187852.050983.002277.1025389 0 .1540948-.0108159.1317539-.0273245.2572065-.0631878.3815134-.1001897.0229137-.0068311.0452546-.0125237.0670226-.0193548.1764357.1394685.3838048.2032256.5241514.2470585.0704597.0222012.2176803.0677419.2320014.0933586.1535219.2755214.5029561.3745726.7784936.2225803.2766832-.1525614.3769307-.4992403.2239816-.7736233-.237157-.4258059-.6484582-.5527507-.8942079-.6284622-.0315063-.0102467-.0698868-.0216319-.1013932-.0324478-.101966-.2214418-.335686-.3614796-.5894554-.3290318-.1082674.0130929-.2108063.0341555-.3076167.0580644-.0653041-.1314989-.1810184-.2373811-.3293847-.2880452-.2600708-.0853889-.547638.0210626-.6828289.2595822-.0297878.0523719-.06243989.1172674-.098529.1884248-.00687411.0136623-.01489392.03074-.0240594.0483871-.04410892-.1445919-.14607497-.2703982-.28871288-.3421248-.23142857-.1172674-.51326732-.0637571-.68626591.1286526l-.12316124.140607c-.10540311.1223907-.40156294.4656541-.572843.5823522-.23028289-.0387096-.47144979.0637571-.59518388.27666-.15753182.2726752-.06358557.6204926.21080623.7770389.13289957.07685.26579915.109867.39698019.109867z"/></g></g></svg>