<svg width="80" height="80" viewBox="0 0 80 80" version="1.1" xmlns="http://www.w3.org/2000/svg" xmlns:xlink="http://www.w3.org/1999/xlink">
<title>website</title>
<desc>Created using Figma</desc>
<g id="Canvas" transform="translate(773 2442)">
<g id="website">
<g id="Vector">
<use xlink:href="#path0_fill" transform="translate(-773 -2442)" fill="#FFDB79"/>
</g>
<g id="Vector">
<use xlink:href="#path1_fill" transform="translate(-761.491 -2438.72)" fill="#4D4D4D"/>
</g>
<g id="Vector">
<use xlink:href="#path2_fill" transform="translate(-760.016 -2430.88)" fill="#63DDE8"/>
</g>
<g id="Group">
<g id="Vector">
<use xlink:href="#path3_fill" transform="translate(-753.608 -2435.14)" fill="#828282"/>
</g>
<g id="Vector">
<use xlink:href="#path4_fill" transform="translate(-748.035 -2386.53)" fill="#828282"/>
</g>
</g>
<g id="Vector">
<use xlink:href="#path5_fill" transform="translate(-742.857 -2430.88)" fill="#FFFFFF"/>
</g>
<g id="Vector">
<use xlink:href="#path6_fill" transform="translate(-742.857 -2430.88)" fill="#EE7C2D"/>
</g>
<g id="Group">
<g id="Vector">
<use xlink:href="#path7_fill" transform="translate(-741.8 -2429.74)" fill="#FFFFFF"/>
</g>
<g id="Vector">
<use xlink:href="#path8_fill" transform="translate(-714.363 -2429.61)" fill="#FFFFFF"/>
</g>
<g id="Vector">
<use xlink:href="#path9_fill" transform="translate(-711.444 -2429.61)" fill="#FFFFFF"/>
</g>
<g id="Vector">
<use xlink:href="#path10_fill" transform="translate(-708.525 -2429.61)" fill="#FFFFFF"/>
</g>
</g>
<g id="Group">
<g id="Vector">
<use xlink:href="#path11_fill" transform="translate(-740.532 -2424.32)" fill="#ECF0F1"/>
</g>
<g id="Vector">
<use xlink:href="#path12_fill" transform="translate(-740.532 -2424.32)" fill="#ECF0F1"/>
</g>
</g>
<g id="Vector">
<use xlink:href="#path13_fill" transform="translate(-732.16 -2388.29)" fill="#21D0C3"/>
</g>
<g id="Vector">
<use xlink:href="#path14_fill" transform="translate(-729.67 -2414.93)" fill="#FED198"/>
</g>
<g id="Vector">
<use xlink:href="#path15_fill" transform="translate(-706.065 -2404.21)" fill="#F0B97D"/>
</g>
<g id="Vector">
<use xlink:href="#path16_fill" transform="translate(-714.167 -2379.63)" fill="#EE7C2D"/>
</g>
<g id="Group">
<g id="Vector">
<use xlink:href="#path17_fill" transform="translate(-715.285 -2381.97)" fill="#ECF0F1"/>
</g>
<g id="Vector">
<use xlink:href="#path18_fill" transform="translate(-711.922 -2370.99)" fill="#ECF0F1"/>
</g>
</g>
<g id="Vector">
<use xlink:href="#path19_fill" transform="translate(-722.807 -2414.18)" fill="#FFFFFF"/>
</g>
<g id="Vector">
<use xlink:href="#path20_fill" transform="translate(-758.179 -2435.25)" fill="#828282"/>
</g>
</g>
</g>
<defs>
<path id="path0_fill" d="M 80 40.0002C 80 17.9086 62.0917 0 39.9998 0C 17.9086 0 0 17.9086 0 40.0002C 0 62.0917 17.9086 80 39.9998 80C 62.0917 80 80 62.0914 80 40.0002Z"/>
<path id="path1_fill" d="M 0.839063 5.00679e-08L 30.2022 5.00679e-08C 30.6645 5.00679e-08 31.0413 0.376562 31.0413 0.839062L 31.0413 57.2389C 31.0413 57.7012 30.6647 58.078 30.2022 58.078L 0.839063 58.078C 0.377188 58.078 -3.62396e-07 57.7014 -3.62396e-07 57.2389L -3.62396e-07 0.839062C -3.62396e-07 0.376719 0.377031 5.00679e-08 0.839063 5.00679e-08Z"/>
<path id="path2_fill" d="M 0.65125 3.24249e-07L 27.4405 3.24249e-07C 27.7992 3.24249e-07 28.0917 0.293437 28.0917 0.651719L 28.0917 41.7506C 28.0917 42.1089 27.7992 42.4023 27.4405 42.4023L 0.65125 42.4023C 0.2925 42.4023 1.90735e-07 42.1089 1.90735e-07 41.7506L 1.90735e-07 0.651719C 1.90735e-07 0.293437 0.292969 3.24249e-07 0.65125 3.24249e-07Z"/>
<path id="path3_fill" d="M 0.586094 2.14577e-07L 14.6866 2.14577e-07C 15.0091 2.14577e-07 15.2723 0.264844 15.2723 0.586094C 15.2723 0.907813 15.0092 1.17266 14.6866 1.17266L 0.586094 1.17266C 0.263906 1.17266 9.53674e-08 0.907813 9.53674e-08 0.586094C 9.53674e-08 0.264375 0.264062 2.14577e-07 0.586094 2.14577e-07Z"/>
<path id="path4_fill" d="M 2.06391 -6.86645e-07C 3.20328 -6.86645e-07 4.1275 0.924062 4.1275 2.06359C 4.1275 3.20297 3.20344 4.12719 2.06391 4.12719C 0.924063 4.12719 1.08719e-06 3.20312 1.08719e-06 2.06359C 1.08719e-06 0.923593 0.924063 -6.86645e-07 2.06391 -6.86645e-07Z"/>
<path id="path5_fill" d="M 37.0744 3.24249e-07L -1.14441e-07 3.24249e-07L -1.14441e-07 59.6311L 37.0744 59.6311L 37.0744 3.24249e-07Z"/>
<path id="path6_fill" d="M 37.0744 3.24249e-07L -1.14441e-07 3.24249e-07L -1.14441e-07 4.11375L 37.0744 4.11375L 37.0744 3.24249e-07Z"/>
<path id="path7_fill" d="M 25.0906 1.90735e-07L 0.913124 1.90735e-07C 0.411093 1.90735e-07 -2.09808e-07 0.410624 -2.09808e-07 0.912812C -2.09808e-07 1.41484 0.411093 1.82594 0.913124 1.82594L 25.0908 1.82594C 25.5933 1.82594 26.0044 1.41531 26.0044 0.912812C 26.0042 0.410781 25.5931 1.90735e-07 25.0906 1.90735e-07Z"/>
<path id="path8_fill" d="M 0.780313 -4.76837e-08C 1.21078 -4.76837e-08 1.56016 0.349219 1.56016 0.780313C 1.56016 1.21078 1.21094 1.56016 0.780313 1.56016C 0.349063 1.56016 2.36511e-06 1.21094 2.36511e-06 0.780313C 2.36511e-06 0.349688 0.349219 -4.76837e-08 0.780313 -4.76837e-08Z"/>
<path id="path9_fill" d="M 0.779842 -4.76837e-08C 1.21062 -4.76837e-08 1.55969 0.349219 1.55969 0.780313C 1.55969 1.21078 1.21047 1.56016 0.779842 1.56016C 0.349061 1.56016 -1.33514e-06 1.21094 -1.33514e-06 0.780313C -1.33514e-06 0.349688 0.349061 -4.76837e-08 0.779842 -4.76837e-08Z"/>
<path id="path10_fill" d="M 0.779846 -4.76837e-08C 1.21063 -4.76837e-08 1.55969 0.349219 1.55969 0.780313C 1.55969 1.21078 1.21047 1.56016 0.779846 1.56016C 0.349064 1.56016 2.28882e-06 1.21094 2.28882e-06 0.780313C 2.28882e-06 0.349688 0.349221 -4.76837e-08 0.779846 -4.76837e-08Z"/>
<path id="path11_fill" d="M -2.86102e-07 1.43051e-07L 15.9197 1.43051e-07L 15.9197 18.7853L -2.86102e-07 18.7853L -2.86102e-07 1.43051e-07Z"/>
<path id="path12_fill" d="M 17.8834 15.2548L 25.5763 15.2548L 25.5763 15.9914L 17.8834 15.9914L 17.8834 15.2548ZM 5.01781 45.5561L 27.4077 45.5561L 27.4077 46.293L 5.01781 46.293L 5.01781 45.5561ZM 2.2575 42.5053L 30.1684 42.5053L 30.1684 43.2422L 2.2575 43.2422L 2.2575 42.5053ZM 2.2575 39.4544L 30.1684 39.4544L 30.1684 40.1912L 2.2575 40.1912L 2.2575 39.4544ZM -2.86102e-07 32.9784L 27.9109 32.9784L 27.9109 33.7153L -2.86102e-07 33.7153L -2.86102e-07 32.9784ZM -2.86102e-07 29.9275L 27.9109 29.9275L 27.9109 30.6644L -2.86102e-07 30.6644L -2.86102e-07 29.9275ZM -2.86102e-07 26.8766L 22.3898 26.8766L 22.3898 27.6134L -2.86102e-07 27.6134L -2.86102e-07 26.8766ZM -2.86102e-07 23.8256L 27.9109 23.8256L 27.9109 24.5625L -2.86102e-07 24.5625L -2.86102e-07 23.8256ZM -2.86102e-07 20.7747L 27.9109 20.7747L 27.9109 21.5116L -2.86102e-07 21.5116L -2.86102e-07 20.7747ZM 17.8834 4.76837e-07L 31.5744 4.76837e-07L 31.5744 0.736875L 17.8834 0.736875L 17.8834 4.76837e-07ZM 17.8834 3.05094L 31.5744 3.05094L 31.5744 3.78781L 17.8834 3.78781L 17.8834 3.05094ZM 17.8834 6.10188L 28.8661 6.10188L 28.8661 6.83875L 17.8834 6.83875L 17.8834 6.10188ZM 17.8834 9.15281L 31.5744 9.15281L 31.5744 9.88969L 17.8834 9.88969L 17.8834 9.15281ZM 17.8834 12.2036L 31.5744 12.2036L 31.5744 12.9405L 17.8834 12.9405L 17.8834 12.2036Z"/>
<path id="path13_fill" d="M -1.10626e-06 7.6294e-08L 15.6823 7.6294e-08L 15.6823 0.736876L -1.10626e-06 0.736876L -1.10626e-06 7.6294e-08Z"/>
<path id="path14_fill" d="M 24.9986 9.06852C 23.8867 8.95899 23.1708 9.84634 22.8153 10.9074L 20.6113 17.4945L 19.5797 16.5354L 17.531 13.8513L 13.9461 7.48978L 10.3103 1.0879C 9.74066 0.0855563 8.46035 -0.311008 7.48972 0.268992C 6.51957 0.848523 6.16019 2.09806 6.72753 3.10149L 12.9432 14.0891L 12.4846 14.3859L 11.1432 11.7604C 10.6186 10.7342 9.30784 10.3882 8.323 10.941C 7.33847 11.4956 7.03644 12.7479 7.56035 13.7743L 9.01863 16.6271L 8.49988 16.9632L 7.59034 15.1057C 7.08378 14.0713 5.74034 13.7073 4.77097 14.2868C 3.8005 14.8668 3.50206 16.0849 4.00878 17.1201L 5.0305 19.2079L 4.40831 19.6107L 3.84394 18.5688C 3.29566 17.5562 1.99472 17.1707 1.02456 17.7499C 0.0540941 18.3299 -0.286528 19.5696 0.26191 20.5829L 1.43066 22.7412L 1.59581 23.1281L 8.81863 34.2259C 9.79816 35.732 11.1875 36.6726 12.3067 37.0293C 12.6272 37.1313 12.9252 37.1859 13.1858 37.1916L 19.9414 48.8518L 32.6036 41.6938L 24.4411 29.8427C 26.4146 26.8688 26.5408 15.2949 26.8585 11.3051C 26.9474 10.1846 26.1105 9.17884 24.9994 9.06977L 24.9986 9.06852Z"/>
<path id="path15_fill" d="M 7.98985 31.5458L 8.99797 30.9761L 0.835467 19.125C 2.80922 16.1511 2.93516 4.57719 3.25281 0.587344C 3.26875 0.386562 3.25485 0.188906 3.21485 -4.95911e-07C 2.39797 5.59734 2.28781 15.927 4.19617e-07 19.1461L 7.98953 31.5464L 7.98985 31.5458Z"/>
<path id="path16_fill" d="M 14.2897 0.000625572L 2.02179e-06 8.31141L 3.02797 14.3525L 18.0677 5.85015L 14.2897 9.15527e-07L 14.2897 0.000625572Z"/>
<path id="path17_fill" d="M 13.4581 8.01086e-07L -2.21252e-06 7.73656L 1.55828 10.3744L 15.0164 2.63813L 13.4581 8.01086e-07Z"/>
<path id="path18_fill" d="M 0.76818 0.212368C 0.0313053 0.64315 -0.218849 1.58534 0.208807 2.31784C 0.636307 3.05034 1.58021 3.29502 2.31678 2.86502C 3.05334 2.43424 3.30381 1.49159 2.87662 0.758776C 2.44865 0.0265885 1.50474 -0.2181 0.76818 0.212368Z"/>
<path id="path19_fill" d="M 0.154306 1.83984L 1.02602 3.42468L 3.42977 2.06687L 2.55884 0.481244C 1.87321 -0.766725 -0.643352 0.673901 0.154616 1.83984L 0.154306 1.83984ZM 16.7291 9.77234L 16.2034 11.877L 18.8993 12.5917L 19.4251 10.4872C 19.767 9.11906 17.0677 8.41578 16.7291 9.77234Z"/>
<path id="path20_fill" d="M 0.738125 4.76837e-08C 1.14594 4.76837e-08 1.47625 0.330782 1.47625 0.738594C 1.47625 1.14688 1.14594 1.47672 0.738125 1.47672C 0.330313 1.47672 -5.81741e-07 1.14672 -5.81741e-07 0.738594C -5.81741e-07 0.330782 0.330313 4.76837e-08 0.738125 4.76837e-08Z"/>
</defs>
</svg>
