<svg xmlns="http://www.w3.org/2000/svg" xmlns:xlink="http://www.w3.org/1999/xlink" width="40" height="40"><use fill="#FFF" xlink:href="#path0_fill"/><use fill="#49555C" xlink:href="#path1_fill"/><defs><path id="path0_fill" d="M20 0c-.45 0-.9.15-1.26.44L15.7 2.91a.65.65 0 0 1-.52.14l-3.87-.62a2 2 0 0 0-2.18 1.26l-1.4 3.66a.66.66 0 0 1-.38.38l-3.66 1.4a2 2 0 0 0-1.26 2.18l.62 3.87a.67.67 0 0 1-.14.52L.44 18.74a2 2 0 0 0 0 2.51l2.47 3.05c.12.14.17.33.14.52l-.62 3.87a2 2 0 0 0 1.26 2.18l3.66 1.4c.17.07.31.2.38.38l1.4 3.66a2 2 0 0 0 2.18 1.25l3.87-.6c.18-.04.37.01.52.13l3.04 2.47a2 2 0 0 0 2.51 0l3.05-2.47a.67.67 0 0 1 .52-.14l3.87.61a2 2 0 0 0 2.18-1.25l1.4-3.66c.07-.17.2-.31.38-.38l3.66-1.4a2 2 0 0 0 1.25-2.18l-.6-3.87a.67.67 0 0 1 .13-.52l2.47-3.04a2 2 0 0 0 0-2.52l-2.47-3.04a.65.65 0 0 1-.14-.52l.61-3.87a2 2 0 0 0-1.25-2.18l-3.66-1.4a.66.66 0 0 1-.38-.38l-1.4-3.66a2.01 2.01 0 0 0-2.18-1.26l-3.87.62a.67.67 0 0 1-.52-.14L21.26.44C20.89.14 20.45 0 20 0zm3.35 6.5a.66.66 0 0 0-.55.48l-.35 1.29a.66.66 0 0 0 .64.84c.3 0 .57-.2.65-.5l.34-1.28a.66.66 0 0 0-.73-.83zm3.38 1.33a.66.66 0 0 0-.66.32l-.66 1.15a.67.67 0 0 0 .57 1c.23 0 .45-.12.58-.33l.66-1.15a.66.66 0 0 0-.49-1zm2.67 2.1a.65.65 0 0 0-.47.2l-.94.94a.67.67 0 0 0 0 .94.68.68 0 0 0 .94 0l.94-.94a.66.66 0 0 0 0-.94.65.65 0 0 0-.47-.2zm2.03 2.76a.65.65 0 0 0-.25.09l-1.15.66a.67.67 0 1 0 .66 1.15l1.15-.66a.67.67 0 0 0-.4-1.24zm1.5 3.2a.65.65 0 0 0-.26.03l-1.28.34a.67.67 0 1 0 .34 1.29L33 17.2c.36-.1.57-.46.47-.82a.67.67 0 0 0-.55-.48zm-.97 3.44a.67.67 0 0 0 0 1.33h1.33a.67.67 0 0 0 0-1.33h-1.33z"/><path id="path1_fill" d="M20 0c-.45 0-.9.15-1.26.44L15.7 2.91a.65.65 0 0 1-.52.14l-3.87-.62a2 2 0 0 0-2.18 1.26l-1.4 3.66a.66.66 0 0 1-.38.38l-3.66 1.4a2 2 0 0 0-1.26 2.18l.62 3.87a.67.67 0 0 1-.14.52L.44 18.74a2 2 0 0 0 0 2.51l2.47 3.05c.12.14.17.33.14.52l-.62 3.87a2 2 0 0 0 1.26 2.18l3.66 1.4c.17.07.31.2.38.38l1.4 3.66a2 2 0 0 0 2.18 1.25l3.87-.6c.18-.04.37.01.52.13l3.04 2.47a2 2 0 0 0 2.51 0l3.05-2.47a.67.67 0 0 1 .52-.14l3.87.61a2 2 0 0 0 2.18-1.25l1.4-3.66c.07-.17.2-.31.38-.38l3.66-1.4a2 2 0 0 0 1.25-2.18l-.6-3.87a.67.67 0 0 1 .13-.52l2.47-3.04a2 2 0 0 0 0-2.52l-2.47-3.04a.65.65 0 0 1-.14-.52l.61-3.87a2 2 0 0 0-1.25-2.18l-3.66-1.4a.66.66 0 0 1-.38-.38l-1.4-3.66a2.01 2.01 0 0 0-2.18-1.26l-3.87.62a.67.67 0 0 1-.52-.14L21.26.44C20.89.14 20.45 0 20 0zm0 1.33c.15 0 .3.05.42.14l3.04 2.47a2 2 0 0 0 1.57.42l3.87-.61c.3-.05.61.12.72.41l1.4 3.66a2 2 0 0 0 1.15 1.15l3.66 1.4c.3.11.47.42.42.73l-.61 3.87a2 2 0 0 0 .42 1.56l2.46 3.05c.2.24.2.6 0 .84l-2.46 3.04a2 2 0 0 0-.42 1.57l.61 3.87c.05.3-.13.61-.42.72l-3.66 1.4c-.52.2-.94.63-1.14 1.15l-1.4 3.66a.67.67 0 0 1-.73.42l-3.87-.61a2 2 0 0 0-1.57.42l-3.04 2.46c-.24.2-.6.2-.84 0l-3.04-2.46a2 2 0 0 0-1.57-.42l-3.87.61a.67.67 0 0 1-.73-.42l-1.22-3.2h.17a3.3 3.3 0 0 0 2.55-1.22c.07.05.15.1.24.12a8.13 8.13 0 0 0 2.27.19l10.95-.69a2.19 2.19 0 0 0 1.51-3.6c.59-.44.96-1.13.96-1.9v-.3c0-.54-.19-1.05-.5-1.44a2.48 2.48 0 0 0 .47-4.1 2.5 2.5 0 0 0 .87-1.9v-.14a2.3 2.3 0 0 0-2.35-2.3H18.3l1.12-4.5a3.18 3.18 0 0 0-3.1-3.97h-.13c-.26 0-.5.15-.6.4l-4.05 8.89a3.26 3.26 0 0 0-2.22-.82H4.38c0-.12 0-.27-.02-.38l-.61-3.87a.67.67 0 0 1 .42-.73l3.65-1.4c.53-.2.95-.62 1.15-1.15l1.4-3.66a.67.67 0 0 1 .73-.41l3.87.61a2 2 0 0 0 1.57-.42l3.04-2.47c.12-.1.27-.14.42-.14zm3.35 5.17a.66.66 0 0 0-.55.48l-.35 1.29a.66.66 0 0 0 .64.84c.3 0 .57-.2.65-.5l.34-1.28a.66.66 0 0 0-.73-.83zm3.38 1.33a.66.66 0 0 0-.66.32l-.66 1.15a.67.67 0 0 0 .57 1c.23 0 .45-.12.58-.33l.66-1.15a.66.66 0 0 0-.49-1zm-10.12.4a1.86 1.86 0 0 1 1.52 2.3l-1.2 4.77h-.74a.67.67 0 0 0 0 1.33h10.1c.56 0 1.02.46 1.02 1.02v.14c0 .57-.4 1.05-.96 1.14l-1.01.17a.66.66 0 1 0 .11 1.32h.7a1.16 1.16 0 0 1 .2 2.3l-1.01.17a.67.67 0 0 0-.55.71c.03.34.31.6.66.6.56 0 1.02.46 1.02 1.03v.3c0 .48-.35.9-.82 1l-.75.15a.66.66 0 0 0-.53.72c.03.34.32.6.66.6h.16a.86.86 0 0 1 .86.85c0 .45-.35.83-.8.85l-10.95.69a7.2 7.2 0 0 1-1.81-.14c.09-.3.15-.62.15-.95V18.63c0-.46-.09-.9-.26-1.3a.65.65 0 0 0 .2-.25l4.03-8.85zm12.79 1.7a.65.65 0 0 0-.47.2l-.94.94a.67.67 0 0 0 0 .94.68.68 0 0 0 .94 0l.94-.94a.66.66 0 0 0 0-.94.65.65 0 0 0-.47-.2zm2.03 2.76a.65.65 0 0 0-.25.09l-1.15.66a.67.67 0 1 0 .66 1.15l1.15-.66a.67.67 0 0 0-.4-1.24zm1.5 3.2a.65.65 0 0 0-.26.03l-1.28.34a.67.67 0 1 0 .34 1.29L33 17.2c.36-.1.57-.46.47-.82a.67.67 0 0 0-.55-.48zm-29.03.7c.05.02.11.04.17.04h5.25a2 2 0 0 1 2 2V29.3a2 2 0 0 1-2 2h-.91l-.1.02a1.88 1.88 0 0 0-.49-.3l-3.65-1.4a.67.67 0 0 1-.42-.72l.61-3.87a2 2 0 0 0-.42-1.57l-2.46-3.04a.66.66 0 0 1 0-.84L3.9 16.6zm28.06 2.74a.67.67 0 0 0 0 1.33h1.33a.67.67 0 0 0 0-1.33h-1.33z"/></defs></svg>