<?xml version="1.0" encoding="UTF-8"?>
<svg width="96px" height="96px" viewBox="0 0 96 96" version="1.1" xmlns="http://www.w3.org/2000/svg" xmlns:xlink="http://www.w3.org/1999/xlink">
    <!-- Generator: Sketch 43.2 (39069) - http://www.bohemiancoding.com/sketch -->
    <title>Group 24</title>
    <desc>Created with Sketch.</desc>
    <defs>
        <circle id="path-1" cx="46" cy="46" r="46"></circle>
        <filter x="-2.2%" y="-2.2%" width="108.7%" height="108.7%" filterUnits="objectBoundingBox" id="filter-2">
            <feOffset dx="4" dy="4" in="SourceAlpha" result="shadowOffsetOuter1"></feOffset>
            <feColorMatrix values="0 0 0 0 0.556601778   0 0 0 0 0.751169218   0 0 0 0 0.0387232711  0 0 0 0.106346241 0" type="matrix" in="shadowOffsetOuter1"></feColorMatrix>
        </filter>
    </defs>
    <g id="Page-1" stroke="none" stroke-width="1" fill="none" fill-rule="evenodd">
        <g id="Бесп-бух---шаг-4-Copy-3" transform="translate(-481.000000, -284.000000)">
            <g id="Group-22" transform="translate(450.000000, 264.000000)">
                <g id="Group-24" transform="translate(31.000000, 20.000000)">
                    <g id="Oval-2">
                        <use fill="black" fill-opacity="1" filter="url(#filter-2)" xlink:href="#path-1"></use>
                        <use fill="#FFFFFF" fill-rule="evenodd" xlink:href="#path-1"></use>
                    </g>
                    <path d="M23.0620738,25.0425567 C22.6629105,25.0600274 22.3006667,25.2808236 22.1015626,25.6280112 L11.0282385,44.8931256 C10.7072203,45.453561 10.8995785,46.1697883 11.4581818,46.4939784 L18.6528693,50.6653421 C19.2116325,50.9899103 19.9259977,50.799549 20.2491476,50.2399719 L22.9111364,45.6112207 L24.8870455,46.7592619 L27.0550567,48.0170736 C27.0672386,50.7432263 28.1286096,53.3821064 30.0921022,55.3489784 C29.5413438,56.4083631 29.5042442,57.7137511 30.1378409,58.8159653 C30.8417505,60.0407362 32.1704138,60.4282861 33.4996298,60.3390628 C33.4604512,61.0146773 33.3976202,61.7084691 33.7557662,62.3332662 C34.6885077,63.9582538 36.7243533,64.4773857 38.3890909,63.6917057 C38.4348969,64.1912132 38.3124385,64.7002167 38.576619,65.1599157 C39.5600328,66.8720189 41.7825915,67.4663724 43.488948,66.4771884 L46,65.0226992 L48.511052,66.4771884 C50.2174085,67.4663724 52.4399672,66.8720189 53.423381,65.1599157 C53.6875591,64.7002167 53.5651031,64.1912132 53.6109091,63.6917057 C55.2757311,64.4778541 57.3115251,63.9582538 58.2442338,62.3332662 C58.6038505,61.7077665 58.5393006,61.0158482 58.5003702,60.3390628 C59.8297361,60.4280519 61.1585188,60.0409704 61.8621603,58.8159653 C62.5672489,57.5895551 62.2368441,56.2430917 61.4916753,55.1340066 C62.0959908,54.8291018 62.7285581,54.5327728 63.0879545,53.9082099 C63.1336598,53.8287099 63.1587828,53.7427581 63.1977273,53.6612207 C63.3607296,53.5540297 63.4943691,53.4078132 63.5865066,53.2358529 C64.5079652,51.6440933 64.9860052,49.8273435 64.9861082,47.9850562 L65.9100281,47.4499157 L67.1129545,46.7546884 L68.3113074,46.0594611 L69.0934372,45.6066471 L71.7508529,50.2308247 C71.9059242,50.5003405 72.1618196,50.6971162 72.4621213,50.7777683 C72.762423,50.8584204 73.0824717,50.8163261 73.3517057,50.6607662 L80.5418182,46.4939784 C81.1003705,46.1711553 81.2926187,45.4573834 80.9717619,44.8976992 L69.8984372,25.6325853 C69.6787649,25.2508229 69.2634566,25.0246122 68.8235801,25.0471307 C68.6384093,25.0565955 68.4581325,25.1098945 68.2975843,25.202642 L61.1028983,29.3694318 C60.5460061,29.6938165 60.3559008,30.4072209 60.6775281,30.9657102 L61.0068463,31.5374433 L60.215567,31.994829 L59.0172165,32.6900562 L57.8188636,33.3852835 L56.8675,33.9341471 C54.9228893,32.8184956 52.6653578,32.3284772 50.4275,32.6031537 C49.7562225,32.6851173 49.0853548,32.8327245 48.4287207,33.0513918 C47.7720889,33.270059 47.1296907,33.5597864 46.5076992,33.9204264 C46.5061746,33.9204235 46.5046501,33.9204235 46.5031256,33.9204264 L46.1875281,34.1079545 L46.0137207,34.2085801 L45.4648571,33.9112793 C44.2106917,33.2267658 42.8779161,32.8144723 41.5359091,32.6580389 L41.5359091,32.6534653 C39.310484,32.3939263 37.0743848,32.8624141 35.1462207,33.9478702 L32.9827835,32.6946298 L30.9977273,31.5420171 L31.3224716,30.974858 C31.6434895,30.4144227 31.4511314,29.6981957 30.8925284,29.3740056 L23.7024147,25.202642 C23.5085932,25.0887529 23.2862971,25.0331788 23.0620738,25.0425567 L23.0620738,25.0425567 Z M23.5469035,27.818892 L28.7153693,30.8147727 L18.8083807,48.0490909 L13.6399147,45.0532099 L23.5469035,27.818892 Z M68.4530975,27.818892 L78.3600843,45.0532099 L73.191619,48.0490909 L63.2892034,30.8147727 L68.4530975,27.818892 Z M62.1731818,33.5682381 L67.9271017,43.5758529 L67.1358247,44.0332381 L65.9374719,44.7284653 L64.739119,45.4236926 L64.6796579,45.4602835 C64.4628454,44.5847081 64.1233028,43.7292583 63.6688355,42.9034934 C63.6629502,42.8911909 63.6568504,42.878992 63.6505389,42.8669025 C63.6381343,42.8445639 63.6311065,42.8205814 63.6185239,42.7982943 C63.6071823,42.7734815 63.5949771,42.7490727 63.5819306,42.7251125 L60.7415628,37.7807662 C60.2341681,36.8981489 59.6097293,36.1291966 58.9120173,35.4572446 L58.9897727,35.4115066 L60.1881256,34.7162793 L61.391052,34.021052 L62.1731818,33.5682381 Z M29.831392,33.5728116 L31.8118749,34.7208529 L33.0834091,35.4618182 C32.3888937,36.1276369 31.7657174,36.8983293 31.2584374,37.7807662 L28.4180682,42.7251125 C27.9088749,43.6108701 27.5922333,44.5419863 27.3615056,45.4877273 L26.0625284,44.7330389 L24.0774716,43.5804264 L29.831392,33.5728116 Z M52.2844892,34.8717901 C53.8314264,34.9819281 55.3247032,35.5428638 56.5793463,36.5046579 C57.4157758,37.1458571 58.1463646,37.965353 58.7107662,38.9471017 L61.5511364,43.891448 C62.5831827,45.6868966 62.8488619,47.6865213 62.4842034,49.5493182 C62.2717349,49.3381752 62.040759,49.1431556 61.7706818,48.9867338 L52.1884372,43.4294892 C52.2485657,42.7211361 52.1178759,41.9967321 51.7767901,41.3300843 C51.7509044,41.2536301 51.7171832,41.1800571 51.6761645,41.1105389 C51.6761645,41.1105389 51.6761645,41.1059653 51.6761645,41.1059653 C51.6666661,41.0894461 51.653854,41.0765497 51.6441471,41.0602273 C51.6214213,41.0269727 51.5969949,40.9949127 51.5709653,40.9641753 C51.4571904,40.7860144 51.3423734,40.604671 51.2050562,40.4519025 C51.0287923,40.2561851 50.8323278,40.0831224 50.6241753,39.9304827 L50.6196017,39.9304827 C49.3644949,39.0117944 47.6024195,38.8863385 46.1646579,39.7200843 C46.1492055,39.7288838 46.1339555,39.7380341 46.1189199,39.7475281 L46.0594611,39.784119 L40.8269611,42.8211645 C40.7537007,42.8595082 40.6847076,42.9055036 40.6211364,42.958381 L40.5250843,43.0132662 C39.346932,43.6966087 37.9524331,43.2404741 36.8431256,42.2402835 L39.9625,40.4244611 L43.2053702,38.5446017 C43.2161372,38.538672 43.2268102,38.5325731 43.2373852,38.5263074 L43.2465347,38.5217338 L46.6403421,36.5549719 C46.6418666,36.5549749 46.6433911,36.5549749 46.6449157,36.5549719 L47.6831818,35.9466471 C49.1386944,35.1026278 50.7375497,34.761652 52.2844892,34.8717901 Z M39.6972165,34.9221017 C40.9814602,34.8348151 42.2981217,35.0918554 43.5621298,35.631052 L42.071052,36.4955108 C42.038097,36.5137748 42.0060424,36.5336182 41.975,36.5549719 L38.7870173,38.4028116 L34.2909091,41.0190628 C33.7340163,41.3434475 33.5439109,42.0568526 33.8655389,42.6153421 C35.4902221,45.4414459 38.9903035,46.6158912 41.700567,45.0440628 L46.9422165,42.0024438 C46.9577148,41.9921363 46.9729651,41.9814609 46.9879545,41.9704264 L47.2578116,41.796619 L47.3401429,41.750881 C47.5594589,41.6236617 47.7852593,41.5431477 48.0079264,41.5084653 C48.4532606,41.439103 48.883359,41.5463232 49.22,41.796619 C49.3500529,41.893315 49.4523294,42.0296651 49.5493182,42.1671017 C49.0387368,42.2255243 48.6259103,42.6100169 48.5313923,43.1151633 C48.4368744,43.6203097 48.6827548,44.128053 49.137671,44.3671298 L50.203381,44.9846017 C50.2049013,44.9861304 50.2064258,44.9876549 50.2079545,44.9891753 C50.2710966,45.0338441 50.3385088,45.0721473 50.4092034,45.1035239 L60.5997727,51.0129545 C61.217905,51.3707844 61.4159736,52.1177799 61.0571603,52.7418744 C60.6990892,53.3643297 59.9676692,53.5614312 59.3511082,53.2038355 L47.9621884,46.5991753 L46.7638355,45.903948 C46.4018856,45.6939682 45.9554073,45.6930369 45.5925845,45.9015048 C45.2297618,46.1099727 45.005716,46.4961687 45.0048432,46.9146163 C45.0039703,47.333064 45.226403,47.7201913 45.5883529,47.930171 L46.7867057,48.6253983 L47.4819306,49.0278983 L58.1756256,55.2300562 C58.1784358,55.2316955 58.1819625,55.228417 58.1847727,55.2300562 L59.3739784,55.9207099 C59.9922934,56.2787739 60.1901442,57.0211959 59.8313636,57.6450562 C59.4726252,58.2698533 58.7435586,58.4655497 58.1253116,58.1070173 L56.9269611,57.4117901 L45.5380389,50.8071298 L44.3396884,50.1119025 C43.7833135,49.8191388 43.0950407,50.017955 42.7804754,50.5623008 C42.4659101,51.1066466 42.6373165,51.8022522 43.1687793,52.1381256 L44.3671298,52.8333529 L55.7514761,59.4380108 L55.756052,59.4380108 C56.3706505,59.7972457 56.5713279,60.5353282 56.2134372,61.1577835 C55.8549681,61.7823464 55.1251685,61.9780428 54.5073852,61.6197446 L52.1061082,60.2292901 L49.8877835,58.9394611 L39.5234091,52.9294025 C39.1611417,52.7140726 38.7111249,52.7099527 38.3449759,52.9186139 C37.9788268,53.1272752 37.7529965,53.5165473 37.7536069,53.9379785 C37.7542174,54.3594097 37.9811745,54.7480259 38.3479264,54.9556256 L40.7446298,56.3460801 L50.9306256,62.2555108 L50.9351992,62.2555108 C51.5536195,62.613809 51.7512783,63.3603384 51.3925843,63.984433 C51.0339489,64.6089936 50.3044023,64.8001164 49.6865347,64.4418182 L37.8310801,57.5718744 L37.8265066,57.5718744 C37.8219322,57.5718476 37.8173578,57.5718476 37.8127835,57.5718744 L37.0992619,57.1602273 L33.3761364,55.0013636 C33.1355825,54.8618592 32.938015,54.6802957 32.7175,54.5211082 C32.5592576,54.2653547 32.3086812,54.0802885 32.0176992,54.0042619 C29.2250688,51.4962309 28.4809334,47.3193569 30.4488636,43.8960216 L33.2892338,38.9516753 C34.7001629,36.4973046 37.1152566,35.0975929 39.6972165,34.9221017 Z M17.7472444,42.5604545 C17.2414289,42.5489347 16.7696573,42.8155119 16.5168749,43.2556818 C16.1353739,43.9206735 16.362638,44.7703548 17.0245738,45.1538355 C17.6859099,45.5367017 18.5310302,45.3095627 18.9135797,44.6461364 C19.2950807,43.9811447 19.0678165,43.1314634 18.4058807,42.7479827 C18.2054335,42.6310702 17.9789611,42.5665886 17.7472444,42.5604545 Z M74.2527554,42.5604545 C74.0210386,42.5665886 73.7945662,42.6310702 73.594119,42.7479827 C72.9321832,43.1314633 72.7049189,43.9811446 73.0864199,44.6461364 C73.4689693,45.3095631 74.3140902,45.5367022 74.9754264,45.1538355 C75.6373623,44.7703549 75.8646265,43.9206736 75.4831256,43.2556818 C75.230343,42.8155117 74.7585711,42.5489344 74.2527554,42.5604545 L74.2527554,42.5604545 Z M32.0131256,56.8857966 C32.0802936,56.9267902 32.1322375,56.9833334 32.2006537,57.0230108 L33.9936082,58.0612793 C33.9528742,58.0788307 33.9131703,58.0986823 33.8746884,58.1207381 C33.2563196,58.4792704 32.5279626,58.2847473 32.1686364,57.6587793 C32.0251391,57.4092258 31.9855109,57.1417527 32.0131256,56.8857966 Z M36.3171298,59.410567 L38.8236082,60.8604827 L37.4926148,61.6334653 C36.8747425,61.9915293 36.1449991,61.7999405 35.7865628,61.1760801 C35.4277822,60.5519856 35.6303143,59.8097978 36.2485239,59.4517338 C36.2718547,59.4387968 36.2947366,59.4250666 36.3171298,59.410567 Z M41.1517057,62.2097727 L43.667329,63.6688355 L42.3134653,64.4509653 C41.6955977,64.8092635 40.9660511,64.6172063 40.6074157,63.9935801 C40.2487217,63.3694856 40.4509588,62.6229584 41.0693744,62.2646579 C41.0975791,62.2475308 41.1250474,62.2292194 41.1517057,62.2097727 L41.1517057,62.2097727 Z" id="Shape" fill="#2B2B2B" fill-rule="nonzero"></path>
                </g>
            </g>
        </g>
    </g>
</svg>