<?xml version="1.0" encoding="UTF-8" standalone="no"?>
<svg width="24px" height="25px" viewBox="0 0 24 25" version="1.1" xmlns="http://www.w3.org/2000/svg" xmlns:xlink="http://www.w3.org/1999/xlink">
    <!-- Generator: Sketch 3.6 (26304) - http://www.bohemiancoding.com/sketch -->
    <title>Group 9</title>
    <desc>Created with Sketch.</desc>
    <defs></defs>
    <g id="Платежки" stroke="none" stroke-width="1" fill="none" fill-rule="evenodd">
        <g id="создание-платежки" transform="translate(-683.000000, -263.000000)">
            <g id="Group" transform="translate(229.000000, 151.000000)">
                <g id="Rectangle-3-Copy-+-Полное-наименование*-Copy" transform="translate(0.000000, 82.500000)">
                    <g id="Group-8" transform="translate(454.000000, 30.000000)">
                        <g id="Group-9">
                            <polygon id="Star-1" fill="#81C624" points="12 22.7671233 9.65891614 23.7694234 7.8796003 21.9475248 5.3331572 21.9776353 4.38649411 19.6135059 2.02236465 18.6668428 2.05247517 16.1203997 0.230576635 14.3410839 1.23287671 12 0.230576635 9.65891614 2.05247517 7.8796003 2.02236465 5.3331572 4.38649411 4.38649411 5.3331572 2.02236465 7.8796003 2.05247517 9.65891614 0.230576635 12 1.23287671 14.3410839 0.230576635 16.1203997 2.05247517 18.6668428 2.02236465 19.6135059 4.38649411 21.9776353 5.3331572 21.9475248 7.8796003 23.7694234 9.65891614 22.7671233 12 23.7694234 14.3410839 21.9475248 16.1203997 21.9776353 18.6668428 19.6135059 19.6135059 18.6668428 21.9776353 16.1203997 21.9475248 14.3410839 23.7694234 "></polygon>
                            <polygon id="Star-1" stroke-opacity="0.333305027" stroke="#FFFFFF" fill-opacity="0" fill="#E54D4D" points="12 20.6030753 10.1294427 21.4039264 8.70774563 19.9482051 6.6731036 19.9722639 5.91670715 18.0832929 4.02773615 17.3268964 4.05179485 15.2922544 2.5960736 13.8705573 3.39692474 12 2.5960736 10.1294427 4.05179485 8.70774563 4.02773615 6.6731036 5.91670715 5.91670715 6.6731036 4.02773615 8.70774563 4.05179485 10.1294427 2.5960736 12 3.39692474 13.8705573 2.5960736 15.2922544 4.05179485 17.3268964 4.02773615 18.0832929 5.91670715 19.9722639 6.6731036 19.9482051 8.70774563 21.4039264 10.1294427 20.6030753 12 21.4039264 13.8705573 19.9482051 15.2922544 19.9722639 17.3268964 18.0832929 18.0832929 17.3268964 19.9722639 15.2922544 19.9482051 13.8705573 21.4039264 "></polygon>
                        </g>
                    </g>
                </g>
            </g>
        </g>
    </g>
</svg>