<svg width="51" height="49" viewBox="0 0 51 49" xmlns="http://www.w3.org/2000/svg" xmlns:xlink="http://www.w3.org/1999/xlink"><title>icons8-good_quality</title><desc>Created using Figma</desc><g><use xlink:href="#a" transform="translate(-9736 -3326) translate(9754 3342)" fill="#F0FEE1"/><g><use xlink:href="#b" transform="translate(-9736 -3326) translate(9736 3326)" fill="#243036" id="Vector"/><use xlink:href="#c" transform="translate(-9736 -3326) translate(9773.56 3349.2)" fill="#243036" id="Vector"/><use xlink:href="#d" transform="translate(-9736 -3326) translate(9769.36 3337.92)" fill="#243036" id="Vector"/><use xlink:href="#e" transform="translate(-9736 -3326) translate(9773.07 3345.07)" fill="#243036" id="Vector"/><use xlink:href="#f" transform="translate(-9736 -3326) translate(9766.38 3335.39)" fill="#243036" id="Vector"/><use xlink:href="#g" transform="translate(-9736 -3326) translate(9771.64 3341.23)" fill="#243036" id="Vector"/><use xlink:href="#h" transform="translate(-9736 -3326) translate(9762.92 3333.79)" fill="#243036"/></g></g><defs><path id="a" d="M0 16.5c0-9.113 7.387-16.5 16.5-16.5s16.5 7.387 16.5 16.5-7.387 16.5-16.5 16.5-16.5-7.387-16.5-16.5z"/><path id="b" d="M47.47 25.506c.707-.873.707-2.139 0-3.012l-2.959-3.654c-.142-.175-.203-.404-.167-.627l.736-4.644c.175-1.11-.458-2.206-1.506-2.609l-4.389-1.685c-.211-.081-.378-.248-.459-.459l-1.685-4.39c-.402-1.048-1.497-1.678-2.609-1.506l-4.644.736c-.223.035-.451-.026-.627-.168l-3.654-2.959c-.873-.707-2.14-.707-3.012 0l-3.654 2.959c-.175.142-.403.204-.627.168l-4.644-.736c-1.11-.175-2.206.458-2.609 1.506l-1.685 4.39c-.081.211-.248.378-.459.459l-4.39 1.685c-1.048.402-1.681 1.5-1.506 2.609l.736 4.644c.035.223-.026.451-.168.627l-2.959 3.654c-.707.873-.707 2.139 0 3.012l2.959 3.654c.142.175.203.404.168.627l-.736 4.644c-.175 1.11.458 2.206 1.506 2.609l4.39 1.685c.211.081.378.248.459.459l1.685 4.389c.403 1.048 1.503 1.684 2.609 1.506l4.644-.736c.223-.035.452.026.627.167l3.654 2.959c.436.353.972.53 1.506.53s1.07-.176 1.506-.53l3.654-2.959c.175-.142.404-.203.627-.167l4.644.736c1.108.174 2.206-.458 2.609-1.506l1.685-4.389c.081-.211.248-.378.459-.459l4.389-1.685c1.048-.402 1.681-1.5 1.506-2.609l-.736-4.644c-.035-.223.026-.451.167-.627l2.959-3.653zm-37.378 12.054l-.108.022c-.182-.14-.376-.264-.595-.348l-4.389-1.685c-.349-.134-.561-.499-.502-.869l.736-4.644c.106-.669-.078-1.354-.504-1.881l-2.959-3.654c-.235-.291-.235-.713 0-1.004l2.902-3.583.215.043h6.298c1.319 0 2.393 1.074 2.393 2.393v12.818c0 1.319-1.074 2.393-2.393 2.393h-1.094zm33.179-9.404c-.427.527-.61 1.212-.504 1.881l.736 4.644c.059.369-.152.735-.502.869l-4.389 1.685c-.632.242-1.134.744-1.377 1.377l-1.685 4.39c-.134.349-.499.562-.869.502l-4.644-.736c-.669-.105-1.355.077-1.881.504l-3.654 2.959c-.29.236-.714.235-1.004 0l-3.654-2.959c-.428-.348-.963-.534-1.508-.534l-.373.03-4.643.737c-.368.058-.735-.152-.869-.502l-1.476-3.846h.21c1.237 0 2.331-.578 3.062-1.465.082.066.178.116.286.145.592.16 1.524.239 2.25.239l.478-.014 13.136-.821c1.378-.086 2.458-1.235 2.458-2.616 0-.638-.227-1.241-.641-1.718.701-.519 1.147-1.352 1.147-2.267v-.364c0-.652-.222-1.252-.595-1.73.968-.502 1.606-1.507 1.606-2.651 0-.908-.408-1.722-1.049-2.27.648-.55 1.049-1.37 1.049-2.275v-.167c0-1.554-1.264-2.766-2.818-2.766h-9.588l1.337-5.399c.288-1.152.034-2.349-.697-3.285-.731-.936-1.831-1.472-3.018-1.472h-.159c-.313 0-.597.183-.726.467l-4.853 10.677c-.707-.64-1.636-.988-2.663-.988h-5.93c.002-.133.001-.32-.021-.453l-.736-4.644c-.059-.369.152-.735.502-.869l4.389-1.685c.633-.242 1.134-.744 1.378-1.377l1.685-4.39c.134-.349.503-.558.869-.502l4.644.736c.67.105 1.355-.077 1.881-.504l3.654-2.959c.29-.236.714-.236 1.004 0l3.654 2.959c.526.427 1.212.61 1.881.504l4.643-.737c.367-.059.735.152.869.502l1.685 4.389c.242.633.744 1.134 1.377 1.378l4.39 1.685c.349.134.561.499.502.869l-.736 4.644c-.106.669.078 1.354.504 1.881l2.959 3.654c.235.291.235.713 0 1.004l-2.959 3.653zm-23.844-8.197h12.124c.674 0 1.223.549 1.223 1.224v.167c0 .682-.488 1.259-1.161 1.371l-1.203.2c-.409.068-.698.439-.664.853.034.414.38.731.795.731h.844c.766 0 1.39.624 1.39 1.391 0 .682-.488 1.259-1.161 1.371l-1.203.2c-.409.068-.698.439-.664.853.034.414.38.732.795.732.674 0 1.223.549 1.223 1.223v.364c0 .581-.414 1.085-.983 1.199l-.901.18c-.402.08-.678.452-.637.861.041.408.384.719.794.719h.197c.274 0 .531.107.725.3.194.194.301.451.301.726 0 .54-.423.99-.962 1.023l-13.136.821c-.592.038-1.63-.026-2.174-.165.108-.363.185-.739.185-1.137v-12.814c0-.551-.113-1.076-.315-1.554.101-.077.188-.173.244-.297l4.827-10.62c.559.085 1.063.378 1.418.833.426.546.574 1.244.406 1.916l-1.433 5.733h-.893c-.44 0-.798.357-.798.798 0 .44.356.798.797.798z"/><path id="c" d="M2.393 0h-1.595c-.44 0-.798.357-.798.798 0 .44.357.798.798.798h1.595c.44 0 .798-.357.798-.798 0-.44-.357-.798-.798-.798z"/><path id="d" d="M2.49.234c-.312-.312-.816-.312-1.128 0l-1.128 1.128c-.312.312-.312.816 0 1.128.156.156.36.234.564.234.204 0 .408-.078.564-.234l1.128-1.128c.312-.312.312-.816 0-1.128z"/><path id="e" d="M1.005 1.983l1.541-.413c.426-.114.678-.551.564-.977-.114-.425-.551-.681-.977-.564l-1.541.413c-.426.114-.678.551-.564.977.096.357.417.592.77.592l.207-.028z"/><path id="f" d="M1.994.107c-.382-.22-.869-.089-1.09.292l-.798 1.382c-.22.381-.089.869.292 1.09.125.073.263.107.398.107.276 0 .544-.143.692-.399l.798-1.382c.22-.38.09-.869-.292-1.09z"/><path id="g" d="M2.87.399c-.22-.382-.708-.513-1.09-.292l-1.382.798c-.382.22-.512.708-.292 1.09.148.256.416.399.692.399.135 0 .273-.034.398-.107l1.382-.798c.381-.22.511-.708.292-1.09z"/><path id="h" d="M1.418.028c-.427-.115-.863.139-.977.564l-.413 1.541c-.114.425.138.863.564.977l.207.028c.352 0 .675-.235.77-.592l.413-1.541c.115-.426-.137-.863-.563-.977z"/></defs></svg>