<svg xmlns="http://www.w3.org/2000/svg" width="61" height="63" viewBox="0 0 61 63">
  <g fill="none" fill-rule="evenodd" transform="translate(0 .185)">
    <path fill="#FFFFFF" d="M30.5,0.501210306 C47.3441541,0.501210306 60.984445,14.2890702 60.9844596,31.3152894 C60.984445,48.3416426 47.3441541,62.131986 30.5,62.131986 C13.6558459,62.131986 0.0155547348,48.3416426 0.0155401478,31.3152894 C0.0155547348,14.2890702 13.6558459,0.501210306 30.5,0.501210306 Z"/>
    <path fill="#000000" fill-rule="nonzero" d="M0.580163043,-2.66453526e-14 C0.259761113,3.26538927e-05 3.2035388e-05,0.2647763 7.10542736e-15,0.591364205 L7.10542736e-15,19.5150188 C3.2035388e-05,19.8416067 0.259761113,20.1063503 0.580163043,20.106383 L26.5673877,20.106383 L31.67101,20.106383 L36.5502717,20.106383 C36.8706737,20.1063503 37.1304027,19.8416067 37.1304348,19.5150188 L37.1304348,0.591364205 C37.1304027,0.2647763 36.8706737,3.26538927e-05 36.5502717,-2.66453526e-14 L0.580163043,-2.66453526e-14 Z M1.16032609,1.18272841 L35.9701087,1.18272841 L35.9701087,18.9236546 L31.67101,18.9236546 L26.5673877,18.9236546 L1.16032609,18.9236546 L1.16032609,1.18272841 Z M4.0611413,2.36545682 C3.74073937,2.36548947 3.4810103,2.63023312 3.48097826,2.95682103 L3.48097826,5.32227785 C3.48149258,5.57813246 3.64335377,5.80463888 3.88210647,5.8836114 C3.90071151,5.88997464 3.91962128,5.89537166 3.93876287,5.89978166 C3.97673649,5.90833839 4.01545791,5.91298187 4.05434295,5.91364205 C4.05660905,5.91365558 4.05887521,5.91365558 4.0611413,5.91364205 L13.3029576,5.91364205 L13.34375,5.91364205 C13.3633782,5.91465924 13.3830444,5.91465924 13.4026725,5.91364205 C13.4217345,5.91075332 13.4406434,5.90689837 13.4593289,5.90209153 C13.7297593,5.84603009 13.924032,5.6035724 13.923913,5.32227785 L13.923913,2.95682103 L13.9148486,2.96837155 C13.917865,2.81113441 13.8593181,2.65914759 13.7521502,2.54600936 C13.6449824,2.43287112 13.4980198,2.36789938 13.34375,2.36545682 L4.0611413,2.36545682 Z M4.64130435,3.54818523 L12.763587,3.54818523 L12.763587,4.73091364 L4.64130435,4.73091364 L4.64130435,3.54818523 Z M3.48097826,7.09637046 L3.48097826,8.27909887 L26.6875,8.27909887 L30.7486413,8.27909887 L33.6494565,8.27909887 L33.6494565,7.09637046 L30.7486413,7.09637046 L26.6875,7.09637046 L3.48097826,7.09637046 Z M3.48097826,9.46182728 L3.48097826,10.6445557 L26.6875,10.6445557 L30.7486413,10.6445557 L33.6494565,10.6445557 L33.6494565,9.46182728 L30.7486413,9.46182728 L26.6875,9.46182728 L3.48097826,9.46182728 Z M23.7866848,11.8272841 C23.4662829,11.8273168 23.2065538,12.0920604 23.2065217,12.4186483 L23.2065217,14.7841051 C23.2070361,15.0399597 23.3688972,15.2664662 23.6076499,15.3454387 C23.626255,15.3518019 23.6451648,15.3571989 23.6643064,15.3616089 C23.70228,15.3701657 23.7410014,15.3748092 23.7798864,15.3754693 C23.7821525,15.3754829 23.7844187,15.3754829 23.7866848,15.3754693 L33.0285011,15.3754693 L33.0692935,15.3754693 C33.0889216,15.3764865 33.1085878,15.3764865 33.128216,15.3754693 C33.1472779,15.3725806 33.1661868,15.3687257 33.1848724,15.3639188 C33.4553027,15.3078574 33.6495755,15.0653997 33.6494565,14.7841051 L33.6494565,12.4186483 L33.6403921,12.4301988 C33.6434085,12.2729617 33.5848616,12.1209749 33.4776937,12.0078366 C33.3705258,11.8946984 33.2235632,11.8297267 33.0692935,11.8272841 L23.7866848,11.8272841 Z M3.48097826,13.0100125 L3.48097826,14.1927409 L11.6032609,14.1927409 L11.6032609,13.0100125 L3.48097826,13.0100125 Z M24.3668478,13.0100125 L32.4891304,13.0100125 L32.4891304,14.1927409 L24.3668478,14.1927409 L24.3668478,13.0100125 Z M27.8478261,16.5581977 L27.8478261,17.7409262 L33.6494565,17.7409262 L33.6494565,16.5581977 L27.8478261,16.5581977 Z" transform="translate(10.609 22.259)"/>
    <ellipse cx="47.739" cy="22.787" fill="#DAF2BA" stroke="#000000" stroke-width="1.343" stroke-linecap="square" rx="7.293" ry="7.372"/>
    <g fill="#000000" transform="translate(44.424 18.766)">
      <polygon points="6.19 2.588 4.733 1.116 5.081 .764 6.538 2.237"/>
      <polygon points="2.31 6.514 .853 5.041 4.48 1.376 5.937 2.849"/>
      <path d="M7.11244014 1.67422821C7.34653082 1.43750539 7.34653082 1.05878927 7.11244014.822167444L6.50358457.206728505C6.26939398-.0299943165 5.87134991-.0299943165 5.66053842.206728505L5.35611063.514447974 6.83139145 2.00557957 7.11244014 1.67422821zM.0171846337 7.11824716C-.00619446099 7.1893448.0171846337 7.26034145.0640427338 7.30760522.0874218285 7.33133809.134279929 7.35496998.181038118 7.35496998L.251375223 7.35496998 2.00760482 6.71589915.649419297 5.34302798.0171846337 7.11824716z"/>
    </g>
  </g>
</svg>
