<?xml version="1.0" encoding="UTF-8" standalone="no"?>
<svg width="33px" height="43px" viewBox="0 0 33 43" version="1.1" xmlns="http://www.w3.org/2000/svg" xmlns:xlink="http://www.w3.org/1999/xlink" xmlns:sketch="http://www.bohemiancoding.com/sketch/ns">
    <!-- Generator: Sketch 3.2.2 (9983) - http://www.bohemiancoding.com/sketch -->
    <title>icon_file_video</title>
    <desc>Created with Sketch.</desc>
    <defs></defs>
    <g id="brandbook" stroke="none" stroke-width="1" fill="none" fill-rule="evenodd" sketch:type="MSPage">
        <g id="icon_file_video" sketch:type="MSLayerGroup" transform="translate(0.500000, 0.146617)">
            <path d="M1.82159398,0.0463157895 L21.3103158,0.0463157895 L31.9569323,10.6929323 L31.9569323,40.8542556 C31.9569323,41.8480602 31.1462256,42.6587669 30.1524211,42.6587669 L1.82159398,42.6587669 C0.827789474,42.6587669 0.0170827068,41.8481805 0.0170827068,40.8542556 L0.0170827068,1.85082707 C0.0170827068,0.856902256 0.827669173,0.0463157895 1.82159398,0.0463157895" id="Fill-1" fill="#8D519F" sketch:type="MSShapeGroup"></path>
            <path d="M15.9871278,10.6929323 C10.1158496,10.6929323 5.3273985,15.4813835 5.3273985,21.3524211 C5.3273985,27.2236992 10.1158496,32.0121504 15.9871278,32.0121504 C21.8581654,32.0121504 26.6466165,27.2236992 26.6466165,21.3524211 C26.6466165,15.4813835 21.8581654,10.6929323 15.9871278,10.6929323" id="Fill-2" fill="#5D256E" sketch:type="MSShapeGroup"></path>
            <path d="M0.0178045113,40.9065865 C0.0457142857,41.8764511 0.845233083,42.6587669 1.82159398,42.6587669 C0.845233083,42.6587669 0.0457142857,41.8764511 0.0178045113,40.9065865 M31.9569323,40.8542556 C31.9569323,41.8480602 31.1462256,42.6587669 30.1524211,42.6587669 C31.1463459,42.6587669 31.9569323,41.8481805 31.9569323,40.8542556" id="Fill-3" fill="#CCCCCC" sketch:type="MSShapeGroup"></path>
            <path d="M31.9569323,39.4107669 C31.9569323,40.4043308 31.1462256,41.2152782 30.1524211,41.2152782 L1.82159398,41.2152782 C0.827789474,41.2152782 0.0170827068,40.4046917 0.0170827068,39.4107669 L0.0170827068,40.8542556 C0.0170827068,40.8718195 0.0173233083,40.8891429 0.0178045113,40.9065865 C0.0457142857,41.8764511 0.845233083,42.6587669 1.82159398,42.6587669 L30.1524211,42.6587669 C31.1462256,42.6587669 31.9569323,41.8480602 31.9569323,40.8542556 L31.9569323,39.4107669" id="Fill-4" fill="#71417F" sketch:type="MSShapeGroup"></path>
            <path d="M21.3103158,0.0463157895 L21.3103158,10.6929323 L31.9569323,10.6929323 L21.3103158,0.0463157895" id="Fill-5" fill="#9963A9" sketch:type="MSShapeGroup"></path>
            <path d="M31.9569323,10.6929323 L21.3103158,10.6929323 L31.9569323,21.3395489 L31.9569323,10.6929323" id="Fill-6" fill="#71417F" sketch:type="MSShapeGroup"></path>
            <path d="M12.854015,16.4718195 L21.1285414,21.0446917 C21.2436692,21.1083308 21.3103158,21.2210526 21.3103158,21.3526617 C21.3103158,21.4842707 21.2436692,21.5969925 21.1285414,21.6607519 L12.854015,26.2337444 C12.7418947,26.2958195 12.615218,26.2938947 12.5049023,26.228812 C12.3945865,26.1637293 12.3317895,26.0537744 12.3317895,25.9257744 L12.3317895,16.7797895 C12.3317895,16.6515489 12.3945865,16.541594 12.5049023,16.4765113 C12.615218,16.4114286 12.7418947,16.4095038 12.854015,16.4718195" id="Fill-7" fill="#8D519F" sketch:type="MSShapeGroup"></path>
        </g>
    </g>
</svg>