<?xml version="1.0" encoding="UTF-8" standalone="no"?>
<svg width="33px" height="43px" viewBox="0 0 33 43" version="1.1" xmlns="http://www.w3.org/2000/svg" xmlns:xlink="http://www.w3.org/1999/xlink" xmlns:sketch="http://www.bohemiancoding.com/sketch/ns">
    <!-- Generator: Sketch 3.2.2 (9983) - http://www.bohemiancoding.com/sketch -->
    <title>icon_file_table</title>
    <desc>Created with Sketch.</desc>
    <defs>
        <path id="path-1" d="M0.0172030075,0.0922706767 L0.0172030075,10.7388872 L10.6638195,10.7388872 L0.0172030075,0.0922706767 L0.0172030075,0.0922706767 Z"></path>
    </defs>
    <g id="brandbook" stroke="none" stroke-width="1" fill="none" fill-rule="evenodd" sketch:type="MSPage">
        <g id="icon_file_table" sketch:type="MSLayerGroup" transform="translate(0.500000, 0.146617)">
            <path d="M1.82159398,0.0922706767 L21.3104361,0.0922706767 L31.9570526,10.7388872 L31.9570526,40.9002105 C31.9570526,41.8938947 31.1462256,42.7047218 30.1525414,42.7047218 L1.82159398,42.7047218 C0.827909774,42.7047218 0.0172030075,41.8941353 0.0172030075,40.9002105 L0.0172030075,1.89666165 C0.0172030075,0.902857143 0.827789474,0.0922706767 1.82159398,0.0922706767" id="Fill-1" fill="#F3F2EF" sketch:type="MSShapeGroup"></path>
            <path d="M0.0173233083,40.9293233 C0.032962406,41.9098947 0.837533835,42.7047218 1.82159398,42.7047218 C0.837654135,42.7047218 0.032962406,41.9098947 0.0173233083,40.9293233 M31.9570526,40.9002105 C31.9570526,41.8938947 31.1462256,42.7047218 30.1525414,42.7047218 C31.1463459,42.7047218 31.9570526,41.8941353 31.9570526,40.9002105" id="Fill-2" fill="#E5E5E5" sketch:type="MSShapeGroup"></path>
            <path d="M31.9570526,39.4566015 C31.9570526,40.450406 31.1462256,41.2611128 30.1525414,41.2611128 L1.82159398,41.2611128 C0.827909774,41.2611128 0.0172030075,40.4505263 0.0172030075,39.4566015 L0.0172030075,40.9002105 C0.0172030075,40.9099549 0.0172030075,40.9196992 0.0173233083,40.9293233 C0.032962406,41.9098947 0.837654135,42.7047218 1.82159398,42.7047218 L30.1525414,42.7047218 C31.1462256,42.7047218 31.9570526,41.8938947 31.9570526,40.9002105 L31.9570526,39.4566015" id="Fill-3" fill="#DAD9D7" sketch:type="MSShapeGroup"></path>
            <path d="M5.19675188,20.0966015 L10.2479398,20.0966015 L10.2479398,22.8957594 L5.19675188,22.8957594 L5.19675188,20.0966015 Z" id="Fill-4" fill="#95B4D2" sketch:type="MSShapeGroup"></path>
            <path d="M5.19675188,23.3543459 L10.2479398,23.3543459 L10.2479398,26.1535038 L5.19675188,26.1535038 L5.19675188,23.3543459 Z" id="Fill-5" fill="#95B4D2" sketch:type="MSShapeGroup"></path>
            <path d="M5.19675188,26.6119699 L10.2479398,26.6119699 L10.2479398,29.4111278 L5.19675188,29.4111278 L5.19675188,26.6119699 Z" id="Fill-6" fill="#95B4D2" sketch:type="MSShapeGroup"></path>
            <path d="M5.19675188,16.8389774 L10.2479398,16.8389774 L10.2479398,19.6381353 L5.19675188,19.6381353 L5.19675188,16.8389774 Z" id="Fill-7" fill="#95B4D2" sketch:type="MSShapeGroup"></path>
            <path d="M10.7066466,20.0966015 L15.7578346,20.0966015 L15.7578346,22.8957594 L10.7066466,22.8957594 L10.7066466,20.0966015 Z" id="Fill-8" fill="#95B4D2" sketch:type="MSShapeGroup"></path>
            <path d="M10.7066466,23.3543459 L15.7578346,23.3543459 L15.7578346,26.1535038 L10.7066466,26.1535038 L10.7066466,23.3543459 Z" id="Fill-9" fill="#95B4D2" sketch:type="MSShapeGroup"></path>
            <path d="M10.7066466,26.6119699 L15.7578346,26.6119699 L15.7578346,29.4111278 L10.7066466,29.4111278 L10.7066466,26.6119699 Z" id="Fill-10" fill="#95B4D2" sketch:type="MSShapeGroup"></path>
            <path d="M10.7066466,16.8389774 L15.7578346,16.8389774 L15.7578346,19.6381353 L10.7066466,19.6381353 L10.7066466,16.8389774 Z" id="Fill-11" fill="#95B4D2" sketch:type="MSShapeGroup"></path>
            <path d="M16.2164211,20.0966015 L21.267609,20.0966015 L21.267609,22.8957594 L16.2164211,22.8957594 L16.2164211,20.0966015 Z" id="Fill-12" fill="#95B4D2" sketch:type="MSShapeGroup"></path>
            <path d="M16.2164211,23.3543459 L21.267609,23.3543459 L21.267609,26.1535038 L16.2164211,26.1535038 L16.2164211,23.3543459 Z" id="Fill-13" fill="#95B4D2" sketch:type="MSShapeGroup"></path>
            <path d="M16.2164211,26.6119699 L21.267609,26.6119699 L21.267609,29.4111278 L16.2164211,29.4111278 L16.2164211,26.6119699 Z" id="Fill-14" fill="#95B4D2" sketch:type="MSShapeGroup"></path>
            <path d="M16.2164211,16.8389774 L21.267609,16.8389774 L21.267609,19.6381353 L16.2164211,19.6381353 L16.2164211,16.8389774 Z" id="Fill-15" fill="#95B4D2" sketch:type="MSShapeGroup"></path>
            <path d="M21.7261955,20.0966015 L26.7773835,20.0966015 L26.7773835,22.8957594 L21.7261955,22.8957594 L21.7261955,20.0966015 Z" id="Fill-16" fill="#95B4D2" sketch:type="MSShapeGroup"></path>
            <path d="M21.7261955,23.3543459 L26.7773835,23.3543459 L26.7773835,26.1535038 L21.7261955,26.1535038 L21.7261955,23.3543459 Z" id="Fill-17" fill="#95B4D2" sketch:type="MSShapeGroup"></path>
            <path d="M21.7261955,26.6119699 L26.7773835,26.6119699 L26.7773835,29.4111278 L21.7261955,29.4111278 L21.7261955,26.6119699 Z" id="Fill-18" fill="#95B4D2" sketch:type="MSShapeGroup"></path>
            <path d="M21.7261955,16.8389774 L26.7773835,16.8389774 L26.7773835,19.6381353 L21.7261955,19.6381353 L21.7261955,16.8389774 Z" id="Fill-19" fill="#95B4D2" sketch:type="MSShapeGroup"></path>
            <path d="M5.19675188,13.3858647 L10.2479398,13.3858647 L10.2479398,16.1850226 L5.19675188,16.1850226 L5.19675188,13.3858647 Z" id="Fill-20" fill="#3B6385" sketch:type="MSShapeGroup"></path>
            <path d="M10.7066466,13.3858647 L15.7578346,13.3858647 L15.7578346,16.1850226 L10.7066466,16.1850226 L10.7066466,13.3858647 Z" id="Fill-21" fill="#3B6385" sketch:type="MSShapeGroup"></path>
            <path d="M16.2164211,13.3858647 L21.267609,13.3858647 L21.267609,16.1850226 L16.2164211,16.1850226 L16.2164211,13.3858647 Z" id="Fill-22" fill="#3B6385" sketch:type="MSShapeGroup"></path>
            <path d="M21.7261955,13.3858647 L26.7773835,13.3858647 L26.7773835,16.1850226 L21.7261955,16.1850226 L21.7261955,13.3858647 Z" id="Fill-23" fill="#3B6385" sketch:type="MSShapeGroup"></path>
            <g id="Group-26" transform="translate(21.293233, 0.000000)">
                <mask id="mask-2" sketch:name="Clip 25" fill="white">
                    <use xlink:href="#path-1"></use>
                </mask>
                <g id="Clip-25"></g>
                <path d="M0.0172030075,0.0922706767 L10.6638195,0.0922706767 L10.6638195,10.7388872 L0.0172030075,10.7388872 L0.0172030075,0.0922706767 Z" id="Fill-24" fill="#F8F7F4" sketch:type="MSShapeGroup" mask="url(#mask-2)"></path>
            </g>
            <path d="M31.9570526,10.7388872 L21.3104361,10.7388872 L23.9574135,13.3858647 L26.7773835,13.3858647 L26.7773835,16.1849023 L26.7565714,16.1849023 L31.9570526,21.3853835 L31.9570526,10.7388872" id="Fill-27" fill="#DAD9D7" sketch:type="MSShapeGroup"></path>
            <path d="M26.7773835,13.3858647 L23.9574135,13.3858647 L26.7565714,16.1849023 L26.7773835,16.1849023 L26.7773835,13.3858647" id="Fill-28" fill="#355977" sketch:type="MSShapeGroup"></path>
        </g>
    </g>
</svg>