<svg width="66" height="65" viewBox="0 0 66 65" fill="none" xmlns="http://www.w3.org/2000/svg">
<path d="M0 2.5C0 1.1219 1.11717 0 2.49528 0H24.9009C26.2791 0 27.3962 1.1219 27.3962 2.5H0Z" transform="translate(16.1887 62.5)" fill="#30B5EE"/>
<path d="M1.45283 0H15.9811L17.434 10H0L1.45283 0Z" transform="translate(21.1698 52.5)" fill="#0082CD"/>
<rect width="59.7736" height="45" rx="2.49528" transform="translate(0 11.25)" fill="url(#paint0_linear)"/>
<rect width="52.3019" height="37.5" transform="translate(3.73584 15)" fill="white"/>
<path d="M16.1887 0H13.6981V6.25H0V13.75H2.49057V8.75H27.3962V13.75H29.8868V6.25H16.1887V0Z" transform="translate(14.9434 27.5)" fill="#B2E2F7"/>
<rect width="22.4151" height="7.5" transform="translate(18.6792 21.25)" fill="#30B5EE"/>
<rect width="14.9434" height="6.25" transform="translate(8.71704 41.25)" fill="#30B5EE"/>
<rect width="14.9434" height="6.25" transform="translate(36.1132 41.25)" fill="#30B5EE"/>
<g style="mix-blend-mode:multiply">
<mask id="mask0" mask-type="alpha" maskUnits="userSpaceOnUse" x="0" y="11" width="60" height="46">
<rect width="59.7736" height="45" rx="2.49528" transform="translate(0 11.25)" fill="url(#paint1_linear)"/>
</mask>
<g mask="url(#mask0)">
<path d="M28.6415 14.375C28.6415 22.3141 22.2299 28.75 14.3208 28.75C6.41162 28.75 0 22.3141 0 14.375C0 6.43591 6.41162 0 14.3208 0C22.2299 0 28.6415 6.43591 28.6415 14.375Z" transform="translate(38.6038 5)" fill="#A8C6DF" fill-opacity="0.6" style="mix-blend-mode:multiply"/>
</g>
</g>
<ellipse cx="15.566" cy="15.625" rx="15.566" ry="15.625" transform="translate(34.8679)" fill="url(#paint2_linear)"/>
<rect width="3.73585" height="16.25" transform="translate(48.566 7.5)" fill="white"/>
<rect width="3.75" height="16.1887" transform="translate(58.5283 13.75) rotate(90)" fill="white"/>
<defs>
<linearGradient id="paint0_linear" x2="1" gradientUnits="userSpaceOnUse" gradientTransform="matrix(-0.905661 -43.75 58.1132 -2.29167 0.830188 44.8958)">
<stop stop-color="#009EE3"/>
<stop offset="1" stop-color="#84E6E2"/>
</linearGradient>
<linearGradient id="paint1_linear" x2="1" gradientUnits="userSpaceOnUse" gradientTransform="translate(59.7736) scale(59.7736 45) rotate(90)">
<stop stop-color="#B2E2F7"/>
<stop offset="1" stop-color="#41CFC8"/>
</linearGradient>
<linearGradient id="paint2_linear" x2="1" gradientUnits="userSpaceOnUse" gradientTransform="translate(31.1321) scale(31.1321 31.25) rotate(90)">
<stop stop-color="#C0EB69"/>
<stop offset="1" stop-color="#24C4BC"/>
</linearGradient>
</defs>
</svg>
