<svg width="48" height="48" viewBox="0 0 48 48" version="1.1" xmlns="http://www.w3.org/2000/svg" xmlns:xlink="http://www.w3.org/1999/xlink">
<title>file</title>
<desc>Created using Figma</desc>
<g id="Canvas" transform="translate(3451 -7450)">
<g id="file">
<g id="Group">
<g id="Vector">
<use xlink:href="#path0_fill" transform="translate(-3447.9 7453.1)" fill="#41CFC8"/>
</g>
<g id="Vector">
<use xlink:href="#path1_fill" transform="translate(-3430 7471)" fill="#41CFC8"/>
</g>
</g>
<g id="file">
<g id="Group">
<g id="Vector 2">
<use xlink:href="#path2_fill" transform="translate(-3413 7458)" fill="#B2E2F7"/>
</g>
<g id="Vector">
<use xlink:href="#path3_fill" transform="translate(-3451 7450)" fill="#015486"/>
</g>
<g id="Vector">
<use xlink:href="#path4_fill" transform="translate(-3444.03 7456.97)" fill="#FFFFFF"/>
</g>
<g id="Vector">
<use xlink:href="#path5_fill" transform="matrix(-0.713931 0.700202 -0.713931 -0.700202 -3414.86 7475.39)" fill="#FFFFFF"/>
</g>
<g id="Vector">
<use xlink:href="#path6_fill" transform="translate(-3424 7473.62)" fill="#FFFFFF"/>
</g>
<g id="Vector">
<use xlink:href="#path7_fill" transform="translate(-3419.33 7480.81)" fill="#FFFFFF"/>
</g>
</g>
</g>
</g>
</g>
<defs>
<path id="path0_fill" d="M 7.74194 15.4839C 12.0177 15.4839 15.4839 12.0177 15.4839 7.74194C 15.4839 3.46618 12.0177 0 7.74194 0C 3.46618 0 0 3.46618 0 7.74194C 0 12.0177 3.46618 15.4839 7.74194 15.4839Z"/>
<path id="path1_fill" d="M 15.176 17L 4.824 17C 4.31867 17 3.85733 16.7202 3.63133 16.2768L 0.281334 9.70569C 0.0966673 9.34281 2.36848e-15 8.942 2.36848e-15 8.53596L 2.36848e-15 8.46273C 2.36848e-15 8.05669 0.0966673 7.65654 0.281334 7.293L 3.63133 0.7225C 3.85733 0.279846 4.31933 6.96878e-15 4.824 6.96878e-15L 15.176 6.96878e-15C 15.6813 6.96878e-15 16.1427 0.279847 16.3687 0.723154L 19.7187 7.29431C 19.9033 7.65719 20 8.058 20 8.46404L 20 8.53727C 20 8.94331 19.9033 9.34346 19.7187 9.707L 16.3687 16.2775C 16.1427 16.7202 15.6807 17 15.176 17Z"/>
<path id="path2_fill" d="M 0 8L 0 0L 8.5 8L 0 8Z"/>
<path id="path3_fill" d="M 39.7205 7.65801C 38.7828 6.72033 37.511 6.19355 36.1849 6.19355L 20.6168 6.19355C 18.8725 2.53781 15.1517 0 10.8387 0C 4.86194 0 0 4.86194 0 10.8387C 0 14.4008 1.728 17.6911 4.64516 19.7241L 4.64516 20.129L 3.09677 20.129L 3.09677 21.6774L 4.64516 21.6774L 4.64516 23.2258L 3.09677 23.2258L 3.09677 24.7742L 4.64516 24.7742L 4.64516 27.871L 13.9355 27.871L 13.9355 44C 13.9355 46.2091 15.7263 48 17.9355 48L 44 48C 46.2091 48 48 46.2091 48 44L 48 18.0086C 48 16.6825 47.4732 15.4108 46.5355 14.4731L 39.7205 7.65801ZM 38.7097 8.83665L 45.3569 15.4839L 38.7097 15.4839L 38.7097 8.83665ZM 5.83742 18.6588C 3.15174 16.937 1.54839 14.0137 1.54839 10.8387C 1.54839 5.71587 5.71587 1.54839 10.8387 1.54839C 15.9615 1.54839 20.129 5.71587 20.129 10.8387C 20.129 14.0137 18.5257 16.937 15.84 18.6588L 15.4839 18.8872L 15.4839 20.129L 11.6129 20.129L 11.6129 14.6315C 13.3773 14.2715 14.7097 12.7084 14.7097 10.8387C 14.7097 8.70426 12.9732 6.96774 10.8387 6.96774C 8.70426 6.96774 6.96774 8.70426 6.96774 10.8387C 6.96774 12.7076 8.30013 14.2715 10.0645 14.6315L 10.0645 20.129L 6.19355 20.129L 6.19355 18.8872L 5.83742 18.6588ZM 10.8387 13.1613C 9.55819 13.1613 8.51613 12.1192 8.51613 10.8387C 8.51613 9.55819 9.55819 8.51613 10.8387 8.51613C 12.1192 8.51613 13.1613 9.55819 13.1613 10.8387C 13.1613 12.1192 12.1192 13.1613 10.8387 13.1613ZM 6.19355 24.7742L 12.3871 24.7742L 12.3871 23.2258L 6.19355 23.2258L 6.19355 21.6774L 15.4839 21.6774L 15.4839 23.2258L 13.9355 23.2258L 13.9355 24.7742L 15.4839 24.7742L 15.4839 26.3226L 6.19355 26.3226L 6.19355 24.7742ZM 18.4839 46.4516C 16.827 46.4516 15.4839 45.1085 15.4839 43.4516L 15.4839 27.871L 17.0323 27.871L 17.0323 24.7742L 18.5806 24.7742L 18.5806 23.2258L 17.0323 23.2258L 17.0323 21.6774L 18.5806 21.6774L 18.5806 20.129L 17.0323 20.129L 17.0323 19.7241C 19.9494 17.6911 21.6774 14.4008 21.6774 10.8387C 21.6774 9.76258 21.5148 8.72439 21.2206 7.74194L 37.1613 7.74194L 37.1613 17.0323L 46.4516 17.0323L 46.4516 43.4516C 46.4516 45.1085 45.1085 46.4516 43.4516 46.4516L 18.4839 46.4516Z"/>
<path id="path4_fill" d="M 4.64516 7.66374L 4.64516 13.1613L 3.09677 13.1613L 3.09677 7.66374C 1.33239 7.30374 0 5.73987 0 3.87097C 0 1.73652 1.73652 0 3.87097 0C 6.00542 0 7.74194 1.73652 7.74194 3.87097C 7.74194 5.74064 6.40955 7.30374 4.64516 7.66374Z"/>
<path id="path5_fill" d="M 13.0729 0L 0 0L 0 1.32057L 13.0729 1.32057L 13.0729 0Z"/>
<path id="path6_fill" d="M 0 1.96154C 0 3.043 0.897333 3.92308 2 3.92308C 3.10267 3.92308 4 3.043 4 1.96154C 4 0.880077 3.10267 0 2 0C 0.897333 0 0 0.880077 0 1.96154ZM 2.66667 1.96154C 2.66667 2.32181 2.368 2.61538 2 2.61538C 1.632 2.61538 1.33333 2.32181 1.33333 1.96154C 1.33333 1.60127 1.632 1.30769 2 1.30769C 2.368 1.30769 2.66667 1.60127 2.66667 1.96154Z"/>
<path id="path7_fill" d="M 2 0C 0.897333 0 0 0.880077 0 1.96154C 0 3.043 0.897333 3.92308 2 3.92308C 3.10267 3.92308 4 3.043 4 1.96154C 4 0.880077 3.10267 0 2 0ZM 2 2.61538C 1.632 2.61538 1.33333 2.32181 1.33333 1.96154C 1.33333 1.60127 1.632 1.30769 2 1.30769C 2.368 1.30769 2.66667 1.60127 2.66667 1.96154C 2.66667 2.32181 2.368 2.61538 2 2.61538Z"/>
</defs>
</svg>
