<?xml version="1.0" encoding="UTF-8" standalone="no"?>
<svg width="30px" height="32px" viewBox="0 0 30 32" version="1.1" xmlns="http://www.w3.org/2000/svg" xmlns:xlink="http://www.w3.org/1999/xlink">
    <!-- Generator: Sketch 39 (31667) - http://www.bohemiancoding.com/sketch -->
    <title>Group 2</title>
    <desc>Created with Sketch.</desc>
    <defs></defs>
    <g id="Главная" stroke="none" stroke-width="1" fill="none" fill-rule="evenodd">
        <g id="Деньги---без-графика" transform="translate(-909.000000, -171.000000)">
            <g id="Group-2" transform="translate(908.000000, 171.000000)">
                <path d="M9.98932,5.96244 C9.9308,5.7442 9.9,5.5154 9.9,5.28 C9.9,3.82272 11.08272,2.64 12.54,2.64 C13.99728,2.64 15.18,3.82272 15.18,5.28 C15.18,5.31432 15.18,5.34864 15.17824,5.3812 L18.5592,6.74784 C19.0388,6.24932 19.7142,5.94 20.46,5.94 C20.93432,5.94 21.3796,6.0654 21.7646,6.28364 L25.7708,3.0404 C25.75012,2.90972 25.74,2.77596 25.74,2.64 C25.74,1.18272 26.92272,0 28.38,0 C29.83728,0 31.02,1.18272 31.02,2.64 C31.02,4.09728 29.83728,5.28 28.38,5.28 C27.78688,5.28 27.2404,5.0842 26.79864,4.7542 L22.99352,7.83596 C23.06216,8.07312 23.1,8.32216 23.1,8.58 C23.1,10.03728 21.91728,11.22 20.46,11.22 C19.00404,11.22 17.82352,10.0408 17.82,8.58528 L14.3638,7.18784 C13.88904,7.64148 13.24796,7.92 12.54,7.92 C12.04852,7.92 11.58784,7.7858 11.19272,7.5504 L7.0642,11.53988 C7.1896,11.84744 7.26,12.1858 7.26,12.54 C7.26,13.99728 6.07728,15.18 4.62,15.18 C3.16272,15.18 1.98,13.99728 1.98,12.54 C1.98,11.08272 3.16272,9.9 4.62,9.9 C4.99796,9.9 5.35568,9.9792 5.6804,10.12176 L9.98932,5.96244 Z M4.62,13.86 C5.34864,13.86 5.94,13.26864 5.94,12.54 C5.94,11.81136 5.34864,11.22 4.62,11.22 C3.89136,11.22 3.3,11.81136 3.3,12.54 C3.3,13.26864 3.89136,13.86 4.62,13.86 L4.62,13.86 Z M12.54,6.6 C13.26864,6.6 13.86,6.00864 13.86,5.28 C13.86,4.55136 13.26864,3.96 12.54,3.96 C11.81136,3.96 11.22,4.55136 11.22,5.28 C11.22,6.00864 11.81136,6.6 12.54,6.6 L12.54,6.6 Z M20.46,9.9 C21.18864,9.9 21.78,9.30864 21.78,8.58 C21.78,7.85136 21.18864,7.26 20.46,7.26 C19.73136,7.26 19.14,7.85136 19.14,8.58 C19.14,9.30864 19.73136,9.9 20.46,9.9 L20.46,9.9 Z M28.38,3.96 C29.10864,3.96 29.7,3.36864 29.7,2.64 C29.7,1.91136 29.10864,1.32 28.38,1.32 C27.65136,1.32 27.06,1.91136 27.06,2.64 C27.06,3.36864 27.65136,3.96 28.38,3.96 L28.38,3.96 Z" id="Page-1" fill="#2B2B2B"></path>
                <polygon id="Path" fill="#A2E59F" points="30.85 31.35 30.85 11.55 25.91 11.55 25.91 31.35"></polygon>
                <polygon id="Path" fill="#50D7BA" points="22.89 31.35 22.89 18.81 18.03 18.81 18.03 31.35"></polygon>
                <polygon id="Path" fill="#26BDCB" points="14.93 31.35 14.93 15.51 10.15 15.51 10.15 31.35"></polygon>
                <polygon id="Path" fill="#2C9AC1" points="7 31.35 7 21.45 1.98 21.45 1.98 31.35"></polygon>
            </g>
        </g>
    </g>
</svg>