<?xml version="1.0" encoding="UTF-8"?>
<svg width="112px" height="134px" viewBox="0 0 112 134" version="1.1" xmlns="http://www.w3.org/2000/svg" xmlns:xlink="http://www.w3.org/1999/xlink">
    <!-- Generator: Sketch 42 (36781) - http://www.bohemiancoding.com/sketch -->
    <title>Group 17</title>
    <desc>Created with Sketch.</desc>
    <defs></defs>
    <g id="Распознование-счетов" stroke="none" stroke-width="1" fill="none" fill-rule="evenodd">
        <g id="Распознавание---успешно" transform="translate(-592.000000, -184.000000)">
            <g id="Group-8" transform="translate(442.000000, 148.000000)">
                <g id="Group-17" transform="translate(150.000000, 35.000000)">
                    <g id="noun_95051" fill-rule="nonzero" fill="#FFFFFF">
                        <g id="Group">
                            <g>
                                <path d="M0.756210526,1.0403 L0.756210526,119.703517 L95.8955789,119.703517 L95.8955789,1.0403 L0.756210526,1.0403 Z M92.2004211,116.010283 L4.45136842,116.010283 L4.45136842,4.73353333 L92.2004211,4.73353333 L92.2004211,116.010283 Z" id="Shape"></path>
                                <path d="M51.2328421,10.74135 L9.41894737,10.74135 L9.41894737,20.9777 L51.2345263,20.9777 L51.2345263,10.74135 L51.2328421,10.74135 Z M49.0096842,18.7557 L11.6421053,18.7557 L11.6421053,12.9616667 L49.0096842,12.9616667 L49.0096842,18.7557 L49.0096842,18.7557 Z" id="Shape"></path>
                                <rect id="Rectangle-path" x="9.93347368" y="28.96175" width="18.0648421" height="2.222"></rect>
                                <rect id="Rectangle-path" x="9.93347368" y="35.2153333" width="18.0648421" height="2.222"></rect>
                                <rect id="Rectangle-path" x="9.93347368" y="41.4706" width="18.0648421" height="2.22031667"></rect>
                                <rect id="Rectangle-path" x="67.2437895" y="28.96175" width="18.0631579" height="2.222"></rect>
                                <rect id="Rectangle-path" x="67.2437895" y="35.2153333" width="18.0631579" height="2.222"></rect>
                                <rect id="Rectangle-path" x="67.2437895" y="41.4706" width="18.0631579" height="2.22031667"></rect>
                                <rect id="Rectangle-path" x="59.9966316" y="107.1711" width="25.3086316" height="2.22031667"></rect>
                            </g>
                            <path d="M10.1035789,50.5791167 L10.1035789,98.6938333 L85.7515789,98.6938333 L85.7515789,50.5791167 L10.1035789,50.5791167 Z M83.6901053,62.0813333 L71.0349474,62.0813333 L71.0349474,52.6832833 L83.6901053,52.6832833 L83.6901053,62.0813333 Z M12.1616842,87.1916167 L54.2635789,87.1916167 L54.2635789,96.5896667 L12.1616842,96.5896667 L12.1616842,87.1916167 Z M56.3216842,73.5852333 L56.3216842,64.1855 L68.9768421,64.1855 L68.9768421,73.5852333 L56.3216842,73.5852333 Z M68.9768421,75.6894 L68.9768421,85.08745 L56.3216842,85.08745 L56.3216842,75.6894 L68.9768421,75.6894 Z M56.3216842,87.1916167 L68.9768421,87.1916167 L68.9768421,96.5896667 L56.3216842,96.5896667 L56.3216842,87.1916167 Z M71.0366316,87.1916167 L83.6917895,87.1916167 L83.6917895,96.5896667 L71.0366316,96.5896667 L71.0366316,87.1916167 L71.0366316,87.1916167 Z M71.0366316,85.08745 L71.0366316,75.6894 L83.6917895,75.6894 L83.6917895,85.08745 L71.0366316,85.08745 Z M71.0366316,73.5852333 L71.0366316,64.1855 L83.6917895,64.1855 L83.6917895,73.5852333 L71.0366316,73.5852333 Z M68.9768421,62.0813333 L56.3216842,62.0813333 L56.3216842,52.6832833 L68.9768421,52.6832833 L68.9768421,62.0813333 Z M54.2635789,62.0813333 L12.1616842,62.0813333 L12.1616842,52.6832833 L54.2635789,52.6832833 L54.2635789,62.0813333 Z M54.2635789,64.1855 L54.2635789,73.5852333 L12.1616842,73.5852333 L12.1616842,64.1855 L54.2635789,64.1855 Z M54.2635789,75.6894 L54.2635789,85.08745 L12.1616842,85.08745 L12.1616842,75.6894 L54.2635789,75.6894 Z" id="Shape"></path>
                        </g>
                    </g>
                    <path d="M92,95 C80.9693333,95 72,103.969333 72,115 C72,126.030667 80.9693333,135 92,135 C103.030667,135 112,126.030667 112,115 C112,103.969333 103.030667,95 92,95 Z" id="Fill-7" fill="#FFFFFF"></path>
                    <polygon id="Selected" fill="#94C343" fill-rule="nonzero" points="88.0175582 122.679416 88.947147 123.609005 89.8897694 122.692635 103.379373 109.578723 101.520568 107.666667 88.0309651 120.780579 89.9031763 120.793798 84.8856181 115.77624 83 117.661858"></polygon>
                </g>
            </g>
        </g>
    </g>
</svg>