<svg width="80" height="80" viewBox="0 0 80 80" version="1.1" xmlns="http://www.w3.org/2000/svg" xmlns:xlink="http://www.w3.org/1999/xlink"><title>Group 2 Copy 5</title><desc>Created using Figma</desc><g id="Canvas" transform="translate(774 3287)"><g id="Group 2 Copy 5"><g id="Fill 300"><use xlink:href="#path0_fill" transform="translate(-773.744 -3286.74)" fill="#FFDB79"/></g><g id="Fill 301"><use xlink:href="#path1_fill" transform="translate(-751.197 -3265.5)" fill="#F77B55"/></g><g id="Fill 302"><use xlink:href="#path2_fill" transform="translate(-745.861 -3243.27)" fill="#242D3C"/></g><g id="Fill 303"><use xlink:href="#path3_fill" transform="translate(-737.373 -3243.27)" fill="#242D3C"/></g><g id="Fill 304"><use xlink:href="#path4_fill" transform="translate(-728.881 -3243.27)" fill="#242D3C"/></g><g id="Fill 305"><use xlink:href="#path5_fill" transform="translate(-720.392 -3243.27)" fill="#242D3C"/></g><g id="Fill 306"><use xlink:href="#path6_fill" transform="translate(-745.861 -3251.23)" fill="#FFF"/></g><g id="Fill 307"><use xlink:href="#path7_fill" transform="translate(-730.029 -3249.74)" fill="#242D3C"/></g><g id="Fill 308"><use xlink:href="#path8_fill" transform="translate(-727.156 -3249.74)" fill="#242D3C"/></g><g id="Fill 309"><use xlink:href="#path9_fill" transform="translate(-720.608 -3249.74)" fill="#242D3C"/></g><g id="Fill 310"><use xlink:href="#path10_fill" transform="translate(-751.196 -3260.31)" fill="#3D546B"/></g><g id="Fill 311"><use xlink:href="#path11_fill" transform="translate(-759.641 -3257.06)" fill="#FFF"/></g><g id="Fill 312"><use xlink:href="#path12_fill" transform="translate(-737.271 -3248.16)" fill="#FF6D3B"/></g><g id="Fill 313"><use xlink:href="#path13_fill" transform="translate(-731.889 -3248.16)" fill="#CCCBCA"/></g><g id="Fill 314"><use xlink:href="#path14_fill" transform="translate(-729.279 -3248.16)" fill="#CCCBCA"/></g><g id="Fill 315"><use xlink:href="#path15_fill" transform="translate(-726.669 -3248)" fill="#CCCBCA"/></g><g id="Fill 316"><use xlink:href="#path16_fill" transform="translate(-726.506 -3248.16)" fill="#CCCBCA"/></g><g id="Fill 317"><use xlink:href="#path17_fill" transform="translate(-726.506 -3248.16)" fill="#CCCBCA"/></g><g id="Fill 318"><use xlink:href="#path18_fill" transform="translate(-731.026 -3245.55)" fill="#CCCBCA"/></g><g id="Fill 319"><use xlink:href="#path19_fill" transform="translate(-731.725 -3242.94)" fill="#CCCBCA"/></g><g id="Fill 320"><use xlink:href="#path20_fill" transform="translate(-731.026 -3240.33)" fill="#CCCBCA"/></g><g id="Fill 321"><use xlink:href="#path21_fill" transform="translate(-755.321 -3245.6)" fill="#FFD55C"/></g><g id="Fill 322"><use xlink:href="#path22_fill" transform="translate(-755.321 -3244.21)" fill="#FFB733"/></g><g id="Fill 323"><use xlink:href="#path23_fill" transform="translate(-755.321 -3234)" fill="#CCCBCA"/></g><g id="Fill 324"><use xlink:href="#path24_fill" transform="translate(-746.296 -3234)" fill="#CCCBCA"/></g><g id="Fill 325"><use xlink:href="#path25_fill" transform="translate(-737.27 -3234)" fill="#CCCBCA"/></g><g id="Fill 326"><use xlink:href="#path26_fill" transform="translate(-728.242 -3234)" fill="#CCCBCA"/></g><g id="Fill 327"><use xlink:href="#path27_fill" transform="translate(-755.321 -3253.64)" fill="#3D546B"/></g><g id="Fill 328"><use xlink:href="#path28_fill" transform="translate(-759.639 -3250.72)" fill="#FF6D3B"/></g></g></g><defs><path id="path0_fill" fill-rule="evenodd" d="M 79.4872 39.7436C 79.4872 61.6928 61.6938 79.4872 39.7436 79.4872C 17.7938 79.4872 0 61.6928 0 39.7436C 0 17.7938 17.7938 0 39.7436 0C 61.6938 0 79.4872 17.7938 79.4872 39.7436Z"/><path id="path1_fill" fill-rule="evenodd" d="M 40.74 3.78941e-06C 41.2754 -0.00102185 41.8144 0.206158 42.2251 0.614876C 42.6318 1.02411 42.8379 1.55949 42.8379 2.10154L 42.8364 26.4595C 42.8379 26.9985 42.6318 27.5349 42.2236 27.9446C 41.8133 28.3544 41.2754 28.5574 40.7379 28.5574L 2.09897 28.5585C 1.56205 28.5569 1.02513 28.3538 0.614359 27.9451C 0.207692 27.5349 0 26.999 0 26.4595L 0.00102564 2.10154C 0.00051282 1.56103 0.206667 1.02462 0.614872 0.61385C 1.02513 0.205645 1.56359 0.00308071 2.09897 3.78941e-06L 40.74 3.78941e-06Z"/><path id="path2_fill" fill-rule="evenodd" d="M 0 0.913846L 6.6959 0.913846L 6.6959 0L 0 0L 0 0.913846Z"/><path id="path3_fill" fill-rule="evenodd" d="M 6.69795 0.911795L 0 0.912308L 0 0.00051282L 6.69795 0L 6.69795 0.911795Z"/><path id="path4_fill" fill-rule="evenodd" d="M 6.69846 0.913846L 0 0.912308L 0.00051282 0L 6.69846 0.00051282L 6.69846 0.913846Z"/><path id="path5_fill" fill-rule="evenodd" d="M 6.69692 0.913846L 0.00153846 0.913333L 0 0.00051282L 6.69692 0L 6.69692 0.913846Z"/><path id="path6_fill" fill-rule="evenodd" d="M 32.1656 3.67179L 0 3.67128L 0 0L 32.1656 0L 32.1656 3.67179Z"/><path id="path7_fill" fill-rule="evenodd" d="M 1.84103 0.688205L 0 0.689231L 0 0L 1.84103 0.00051282L 1.84103 0.688205Z"/><path id="path8_fill" fill-rule="evenodd" d="M 5.51744 0.689231L 0 0.689231L 0.00153846 0L 5.51744 0.00153846L 5.51744 0.689231Z"/><path id="path9_fill" fill-rule="evenodd" d="M 5.5159 0.688718L 0 0.687692L 0 0L 5.51744 0L 5.5159 0.688718Z"/><path id="path10_fill" fill-rule="evenodd" d="M 42.8374 6.53385L 0 6.53436L 0 0L 42.8374 0.00102564L 42.8374 6.53385Z"/><path id="path11_fill" fill-rule="evenodd" d="M 40.7395 0C 41.2749 0 41.8144 0.204615 42.2236 0.613846C 42.6308 1.02256 42.8379 1.56103 42.8379 2.09692L 42.8364 26.4574C 42.8379 26.9964 42.6308 27.5338 42.2236 27.9446C 41.8133 28.3544 41.2749 28.5569 40.74 28.5579L 2.09846 28.5579C 1.56154 28.5579 1.02564 28.3544 0.613333 27.9446C 0.205128 27.5338 0 26.9964 0 26.459L 0.00153846 2.09846C 0 1.56103 0.205128 1.02256 0.613333 0.611282C 1.02564 0.204615 1.56154 0 2.09641 0L 40.7395 0Z"/><path id="path12_fill" fill-rule="evenodd" d="M 4.63179 5.38308C 4.63179 3.29949 5.67744 1.4559 7.27026 0.347179C 6.68205 0.126154 6.04769 0 5.38256 0C 2.40974 0 0 2.41077 0 5.38308C 0 8.3559 2.40974 10.7656 5.38256 10.7656C 6.04769 10.7656 6.68205 10.6395 7.27026 10.419C 5.67744 9.31026 4.63179 7.46667 4.63179 5.38308Z"/><path id="path13_fill" fill-rule="evenodd" d="M 5.38308 10.7646C 2.41385 10.7646 0 8.35077 0 5.38154C 0 2.41333 2.41385 0 5.38308 0L 5.38308 0.327179C 2.59538 0.327179 0.326667 2.59333 0.326667 5.38154C 0.326667 8.16974 2.59538 10.439 5.38308 10.439L 5.38308 10.7646Z"/><path id="path14_fill" fill-rule="evenodd" d="M 2.77385 10.7646C 2.01179 10.7646 1.3041 10.1897 0.782051 9.14667C 0.277436 8.13897 0 6.80154 0 5.38154C 0 3.96462 0.277436 2.62667 0.782051 1.61949C 1.3041 0.574872 2.01179 0 2.77385 0L 2.77385 0.327179C 2.14205 0.327179 1.53846 0.836923 1.07538 1.76359C 0.592821 2.72821 0.328718 4.01385 0.328718 5.38154C 0.328718 6.75282 0.592821 8.03641 1.07538 9C 1.53846 9.92923 2.14205 10.439 2.77385 10.439L 2.77385 10.7646Z"/><path id="path15_fill" fill-rule="evenodd" d="M 0 10.4385L 0.325641 10.4385L 0.325641 0L 0 0L 0 10.4385Z"/><path id="path16_fill" fill-rule="evenodd" d="M 0 10.7646L 0 10.439C 0.63282 10.439 1.23538 9.92923 1.69949 9C 2.18103 8.03641 2.44615 6.75282 2.44615 5.38154C 2.44615 4.01385 2.18103 2.72821 1.69949 1.76359C 1.23538 0.836923 0.63282 0.327179 0 0.327179L 0 0C 0.761538 0 1.46974 0.574872 1.99128 1.61949C 2.49487 2.62667 2.77231 3.96462 2.77231 5.38154C 2.77231 6.80154 2.49487 8.13897 1.99128 9.14667C 1.46974 10.1897 0.761538 10.7646 0 10.7646Z"/><path id="path17_fill" fill-rule="evenodd" d="M 0 10.7646L 0 10.439C 2.78872 10.439 5.0559 8.16974 5.0559 5.38154C 5.0559 2.59333 2.78872 0.327179 0 0.327179L 0 0C 2.96821 0 5.38256 2.41333 5.38256 5.38154C 5.38256 8.35077 2.96821 10.7646 0 10.7646Z"/><path id="path18_fill" fill-rule="evenodd" d="M 0 0.325641L 9.04051 0.325641L 9.04051 0L 0 0L 0 0.325641Z"/><path id="path19_fill" fill-rule="evenodd" d="M 0 0.326154L 10.439 0.326154L 10.439 0L 0 0L 0 0.326154Z"/><path id="path20_fill" fill-rule="evenodd" d="M 0 0.327179L 9.04051 0.327179L 9.04051 0L 0 0L 0 0.327179Z"/><path id="path21_fill" fill-rule="evenodd" d="M 7.11795 5.07795C 7.11795 5.39128 6.86256 5.64872 6.54667 5.64872L 0.570256 5.64872C 0.255897 5.64872 0 5.39128 0 5.07795L 0 0.569744C 0 0.255897 0.255897 0 0.570256 0L 6.54667 0C 6.86256 0 7.11795 0.255897 7.11795 0.569744L 7.11795 5.07795Z"/><path id="path22_fill" fill-rule="evenodd" d="M 0 2.85692L 7.11795 2.85692L 7.11795 0L 0 0L 0 2.85692Z"/><path id="path23_fill" fill-rule="evenodd" d="M 0 0.855385L 7.11795 0.855385L 7.11795 0L 0 0L 0 0.855385Z"/><path id="path24_fill" fill-rule="evenodd" d="M 0 0.855385L 7.12 0.855385L 7.12 0L 0 0L 0 0.855385Z"/><path id="path25_fill" fill-rule="evenodd" d="M 0 0.855385L 7.12103 0.855385L 7.12103 0L 0 0L 0 0.855385Z"/><path id="path26_fill" fill-rule="evenodd" d="M 0 0.855385L 7.11897 0.855385L 7.11897 0L 0 0L 0 0.855385Z"/><path id="path27_fill" fill-rule="evenodd" d="M 0 1.99846L 16.1451 1.99846L 16.1451 0L 0 0L 0 1.99846Z"/><path id="path28_fill" fill-rule="evenodd" d="M 0 0.399487L 42.8349 0.399487L 42.8349 0L 0 0L 0 0.399487Z"/></defs></svg>