<svg height="54" viewBox="0 0 54 54" width="54" xmlns="http://www.w3.org/2000/svg"><path d="m27 54c14.9 0 27-12.1 27-27s-12.1-27-27-27-27 12.1-27 27 12.1 27 27 27z" fill="#f7f7f7"/><path d="m27.2 10c-4.4-.1-8.6 1.6-11.9 4.6-3.3 3.2-5.3 7.7-5.3 12.4 0 3.6 1.1 7 3.2 9.9h-.3c-1 0-1.8.8-1.8 1.8s.8 1.8 1.8 1.8h28.1c1 0 1.8-.8 1.8-1.8s-.8-1.8-1.8-1.8h-.3c2.3-3.2 3.4-7.2 3.2-11.2-.6-8.4-7.4-15.2-15.8-15.7-.3 0-.6 0-.9 0zm-.2 1.2h1.1c7.8.5 14.2 6.8 14.7 14.6.3 3.8-.7 7.4-2.9 10.4-.4.5-.9.8-1.5.8h-2.3c2.8-2.6 4.4-6.1 4.4-10 0-.3-.3-.6-.6-.6s-.6.3-.6.6c0 3.9-1.8 7.5-4.9 9.8l-.1.1h-14.5c-3.2-2.3-5.1-6-5.1-10 0-.3-.3-.6-.6-.6s-.6.3-.6.6c0 3.8 1.6 7.4 4.4 10h-2.3c-.6 0-1.1-.3-1.4-.7-2-2.7-3-5.9-3-9.2 0-4.4 1.8-8.5 5-11.5 2.9-2.8 6.7-4.3 10.8-4.3zm0 2.9c-.3 0-.6.3-.6.6v1.2c0 .3.3.6.6.6s.6-.3.6-.6v-1.2c0-.3-.3-.6-.6-.6zm-3.2.4c-.1 0-.2 0-.2 0-.3.1-.5.4-.4.7l.3 1.1c.1.3.3.4.6.4h.2c.3-.1.5-.4.4-.7l-.4-1c-.1-.3-.3-.4-.5-.5zm6.4 0c-.2 0-.4.2-.5.4l-.3 1.1c-.1.3.1.6.4.7h.2c.3 0 .5-.2.6-.4l.3-1.1c.1-.3-.1-.6-.4-.7-.2 0-.2 0-.3 0zm-9.6 1.3c-.1 0-.2 0-.2.1-.3.2-.4.5-.2.8l.6 1c.1.2.3.3.5.3.1 0 .2 0 .3-.1.3-.2.4-.5.2-.8l-.6-1c-.1-.2-.3-.3-.6-.3zm12.8 0c-.2 0-.5.1-.6.3l-.6 1c-.2.3-.1.6.2.8.1.1.2.1.3.1.2 0 .4-.1.5-.3l.6-1c.2-.3.1-.6-.2-.8-.1-.1-.2-.1-.2-.1zm-15.3 2c-.1 0-.3.1-.4.2-.2.2-.2.6 0 .8l.8.8c.1.1.3.2.4.2s.3-.1.4-.2c.2-.2.2-.6 0-.8l-.8-.8c-.1-.1-.3-.2-.4-.2zm17.8 0c-.1 0-.3.1-.4.2l-.8.8c-.2.2-.2.6 0 .8.1.1.3.2.4.2s.3-.1.4-.2l.8-.8c.2-.2.2-.6 0-.8-.1-.1-.2-.2-.4-.2zm-19.7 2.6c-.2 0-.5.1-.6.3-.2.3-.1.6.2.8l1 .6c.1.1.2.1.3.1.2 0 .4-.1.5-.3.2-.3.1-.6-.2-.8l-1-.6c-.1-.1-.2-.1-.2-.1zm21.6 0c-.1 0-.2 0-.2.1l-1 .6c-.3.2-.4.5-.2.8.1.2.3.3.5.3.1 0 .2 0 .3-.1l1-.6c.3-.2.4-.5.2-.8-.1-.2-.3-.3-.6-.3zm-4.9.2c-.1 0-.3.1-.4.2l-4.7 4.7c-.2-.1-.5-.2-.8-.2-1 0-1.8.8-1.8 1.8s.8 1.8 1.8 1.8 1.8-.8 1.8-1.8c0-.3-.1-.5-.2-.8l4.7-4.7c.2-.2.2-.6 0-.8-.1-.2-.3-.2-.4-.2zm-18.2 2.9c-.2 0-.4.2-.5.4-.1.3.1.6.4.7l1.1.3h.2c.3 0 .5-.2.6-.4.1-.3-.1-.6-.4-.7l-1.1-.3c-.1-.1-.2-.1-.3 0zm24.6 0c-.1 0-.2 0-.2 0l-1.1.3c-.3.1-.5.4-.4.7s.3.4.6.4h.2l1.1-.3c.3-.1.5-.4.4-.7-.2-.3-.4-.4-.6-.4zm-17 7.6c-.3 0-.6.3-.6.6s.3.6.6.6h9.4c.3 0 .6-.3.6-.6s-.3-.6-.6-.6zm2.4 2.4c-.3 0-.6.3-.6.6s.3.6.6.6h4.7c.3 0 .6-.3.6-.6s-.3-.6-.6-.6zm-11.8 4.6h28.1c.3 0 .6.3.6.6s-.3.6-.6.6h-28.1c-.3 0-.6-.3-.6-.6s.3-.6.6-.6z" fill="#00417b"/></svg>