<svg height="54" viewBox="0 0 54 54" width="54" xmlns="http://www.w3.org/2000/svg"><g fill="none" fill-rule="evenodd"><path d="m27 54c14.9116882 0 27-12.0883118 27-27s-12.0883118-27-27-27-27 12.0883118-27 27 12.0883118 27 27 27z" fill="#f7f7f7"/><path d="m.82054637.36816565c-.27959416.0438579-.47083502.30695645-.42714844.58764706.04368659.2806906.30575741.47268143.58535156.42882353.03157188.00296136.06335.00296136.09492188 0 1.37895686.04687037 2.43632812 1.07873652 2.43632812 2.35058823v5.01882353 2.8905882 15.1517647c0 1.5810611 1.21598942 2.8685553 2.75273438 3.0176471.04065968.0159818.08319483.0266573.1265625.0317647.01075386.0005723.0208579-.0004594.03164062 0 .03157188.0029614.06335.0029614.09492188 0 .01086605.0001159.02074805 0 .03164062 0h7.08750001v2.5411765c.0000279.280679.2266674.5082072.50625.5082353h6.075c.2795826-.0000281.5062221-.2275563.50625-.5082353v-6.6070588h4.0183594 5.5371093c.8727264 0 1.5820313-.743904 1.5820313-1.62v-9.0529412-3.0494118-.5082353-.4447059c0-.876096-.7093626-1.58823526-1.5820313-1.58823526h-5.5371093-4.0183594v-.69882353c0-1.71033323-1.3393613-3.06642179-3.0375-3.30352941v-1.77882353c0-1.88108037-1.6050272-3.36705882-3.54375-3.36705882h-13.03593751c-.04291116-.00146745-.08330495 0-.1265625 0-.05240858-.00832233-.10579453-.00832233-.15820312 0zm2.68945312 1.01647059h10.63125001c1.4268271 0 2.53125 1.0486927 2.53125 2.35058823v1.71529412h-4.8726563c-.0210731-.00132469-.0422081-.00132469-.0632812 0-.04366-.0013143-.0818778 0-.1265625 0-1.67401789 0-3.03750001 1.36877939-3.03750001 3.04941176v1.01647059h-.44296875c-.87266909 0-1.58203125.71213926-1.58203125 1.58823526v.4447059.5082353 3.0494118.5082353 8.5447059c0 .876096.70930526 1.62 1.58203125 1.62h.44296875v1.0164705c-.00529366.0421863-.00529366.0848726 0 .1270589-.06485427 1.0732313-.93762238 1.9058823-2.025 1.9058823-1.1306067 0-2.025-.8979501-2.025-2.0329412v-15.1517647-2.8905882-5.01882353c0-.92493385-.38753386-1.74638765-1.0125-2.35058823zm8.10000001 5.08235294c.8918019 0 1.3292637.25757364 1.6136719.63529411s.3983681.92244706.4113281 1.39764706v.25411765c-.0013195.02115575-.0013195.04237366 0 .06352941v.69882353h-4.05000001v-1.01647059c0-1.13499106.89439291-2.03294117 2.02500001-2.03294117zm2.3730469 0h3.0058593c.0627288.01187171.127115.01187171.1898438 0 1.4268271 0 2.53125 1.0486927 2.53125 2.35058823v23.06117649h-5.0625v-4.9870588c.0003296-.0105857.0003296-.0211791 0-.0317647v-18.04235299c.0029726-.03169461.0029726-.0635995 0-.09529412v-.22235294c.0003296-.01058565.0003296-.02117905 0-.0317647-.016686-.61181365-.1652572-1.34834824-.6328125-1.96941177-.008991-.0119416-.0224006-.01996805-.0316406-.0317647zm1.6769531 3.55764702v1.0164706h2.025v-1.0164706zm-7.53046876.5082353h5.50546876v1.0164706h-6.07500001v-.4447059c0-.3306578.24020085-.5717647.56953125-.5717647zm12.59296876 0h4.0183594 5.5371093c.3293309 0 .5695313.2411069.5695313.5717647v.4447059h-5.56875-4.55625zm-5.0625 1.5247059v1.0164706h3.0375v-1.0164706zm-8.10000001.5082353h6.07500001v2.0329412h-6.07500001zm13.16250001 0h4.55625 5.56875v2.0329412h-5.56875-4.55625zm-5.0625 1.5247059v1.0164706h2.025v-1.0164706zm-8.10000001 1.5247059h6.07500001v2.0329411h-4.55625001-.50625v.5082353 2.0329412.5082353h.50625 4.55625001v2.0329412h-1.0125v1.0164706h1.0125v1.0164706h-5.50546876c-.3292735 0-.56953125-.2729732-.56953125-.6035294zm13.16250001 0h4.55625 5.56875v8.5447059c0 .3305562-.2402582.6035294-.5695313.6035294h-5.5371093-4.0183594v-1.0164706h3.0375v-1.0164706h-3.0375zm-5.0625.5082353v1.0164706h1.0125v-1.0164706zm8.4164062.5082353c-1.2951859.1018503-2.3453722 1.236943-2.3414062 2.5411764.0000051 1.3727436 1.163888 2.5411765 2.53125 2.5411765.5592928 0 1.1131921-.1957306 1.5503906-.54.4260165.3263785.9264892.54 1.4871094.54 1.3673661 0 2.5312439-1.1684329 2.53125-2.5411765-.0000061-1.3727435-1.1638839-2.5411764-2.53125-2.5411764-.5589952 0-1.061748.2153189-1.4871094.54-.4298629-.3401396-.9677394-.5309108-1.51875-.54-.0094162-.0004066-.0222244.0003049-.0316406 0zm.0632813 1.0164705h.0949219.0316406c.3039069 0 .5754625.1607559.8226562.3494118-.1454395.2641665-.241952.5518653-.2847656.8576471-.0289393.1044738-.0310645.2065905-.0316406.317647.0005842.1110566.0027003.2131712.0316406.3176471.0399887.3042418.1430288.5938343.2847656.857647-.2471937.1883368-.5187493.3480518-.8226562.3494118-.7532119 0-1.518748-.7685534-1.51875-1.5247059-.0022275-.7228122.6744141-1.4681901 1.3921875-1.5247059zm3.1640625 0c.7532129 0 1.518747.7685535 1.51875 1.5247059-.000003.7561525-.7655371 1.5247059-1.51875 1.5247059-.5649092 0-1.1415725-.4177836-1.3921875-.9529412-.0224603-.0531909-.0469749-.1034757-.0632813-.1588235-.0135067-.0398406-.0219317-.0865931-.0316406-.1270588-.0187596-.0920831-.0311526-.1917247-.0316406-.2858824.000003-.7561524.7655371-1.5247059 1.51875-1.5247059zm-11.64375.5082353v1.0164706h3.0375v-1.0164706zm-6.07500001.5082353h4.05000001v1.0164706h-4.05000001zm6.07500001 1.5247059v1.0164706h2.025v-1.0164706zm-7.08750001 2.5411765v1.0164706h3.03750001v-1.0164706zm1.0125 3.0494118h4.05000001v1.08c-.0013195.0211557-.0013195.0423736 0 .0635294v1.9058823h-4.84101563c.44660271-.4970561.71591698-1.1330536.759375-1.8423529.0120096-.0204099.02258228-.0416382.03164062-.0635294.00041412-.0103009-.00031104-.0214384 0-.0317647.00032964-.0105857.00032964-.0211791 0-.0317647.00041614-.0207025 0-.0427294 0-.0635295z" fill="#00417b" transform="translate(10.8 10.368)"/></g></svg>