<?xml version="1.0" encoding="UTF-8" standalone="no"?>
<svg width="18px" height="18px" viewBox="0 0 18 18" version="1.1" xmlns="http://www.w3.org/2000/svg" xmlns:xlink="http://www.w3.org/1999/xlink">
    <!-- Generator: Sketch 3.8.3 (29802) - http://www.bohemiancoding.com/sketch -->
    <title>Shape</title>
    <desc>Created with Sketch.</desc>
    <defs></defs>
    <g id="Symbols" stroke="none" stroke-width="1" fill="none" fill-rule="evenodd">
        <g id="header" transform="translate(-64.000000, -21.000000)" fill="#2B2B2B">
            <g id="search-2">
                <g transform="translate(64.000000, 21.000000)">
                    <g id="icon_search">
                        <path d="M11.0012151,0 C7.14418259,0 4.00243013,3.1417526 4.00243013,6.99878493 C4.00243013,8.67498693 4.58959376,10.2099016 5.57715674,11.4167679 L0,16.9939247 L1.00607533,18 L6.58323208,12.4228433 C7.79009835,13.4104061 9.32501307,13.9975699 11.0012151,13.9975699 C14.8582475,13.9975699 18,10.8558174 18,6.99878493 C18,3.1417526 14.8582475,0 11.0012151,0 L11.0012151,0 Z M11.0012151,1.39975699 C14.1017629,1.39975699 16.600243,3.8982374 16.600243,6.99878493 C16.600243,10.0993327 14.1017629,12.5978129 11.0012151,12.5978129 C7.90066726,12.5978129 5.40218712,10.0993327 5.40218712,6.99878493 C5.40218712,3.8982374 7.90066726,1.39975699 11.0012151,1.39975699 L11.0012151,1.39975699 Z" id="Shape"></path>
                    </g>
                </g>
            </g>
        </g>
    </g>
</svg>