<svg width="40" height="36" viewBox="0 0 40 36" version="1.1" xmlns="http://www.w3.org/2000/svg" xmlns:xlink="http://www.w3.org/1999/xlink">
<title>surface1</title>
<desc>Created using Figma</desc>
<g id="Canvas" transform="translate(-2096 -139)">
<g id="surface1">
<g id="Rectangle 16">
<use xlink:href="#path0_fill" transform="translate(2103 140)" fill="#FFFFFF"/>
</g>
<g id="Rectangle 17">
<use xlink:href="#path1_fill" transform="translate(2097 140)" fill="#FFFFFF"/>
</g>
<g id="Vector">
<use xlink:href="#path2_fill" transform="translate(2096 139)"/>
</g>
</g>
</g>
<defs>
<path id="path0_fill" d="M 0 0L 26 0L 26 33L 0 33L 0 0Z"/>
<path id="path1_fill" d="M 0 2.5C 0 1.11929 1.11929 0 2.5 0L 36.5 0C 37.8807 0 39 1.11929 39 2.5C 39 3.88071 37.8807 5 36.5 5L 2.5 5C 1.11929 5 0 3.88071 0 2.5Z"/>
<path id="path2_fill" d="M 3.7037 0C 1.66088 0 0 1.66088 0 3.7037C 0 5.74653 1.66088 7.40741 3.7037 7.40741L 5.92593 7.40741L 5.92593 33.3333C 5.92593 34.5573 6.92419 35.5556 8.14815 35.5556L 31.8519 35.5556C 33.0758 35.5556 34.0741 34.5573 34.0741 33.3333L 34.0741 7.40741L 36.2963 7.40741C 38.3391 7.40741 40 5.74653 40 3.7037C 40 1.66088 38.3391 0 36.2963 0L 3.7037 0ZM 3.7037 1.48148L 5.92593 1.48148L 5.92593 5.92593L 3.7037 5.92593C 2.47975 5.92593 1.48148 4.92766 1.48148 3.7037C 1.48148 2.47975 2.47975 1.48148 3.7037 1.48148ZM 7.40741 1.48148L 20.7407 1.48148L 20.7407 34.0741L 8.14815 34.0741C 7.74016 34.0741 7.40741 33.7413 7.40741 33.3333L 7.40741 1.48148ZM 22.2222 1.48148L 23.6921 1.48148C 23.6921 1.89236 24.0249 2.22512 24.4329 2.22222L 25.9144 2.22222C 26.3252 2.22222 26.6551 1.88947 26.6551 1.48148L 28.1481 1.48148L 28.1481 25.9259C 28.1481 26.3339 28.4809 26.6667 28.8889 26.6667C 29.2969 26.6667 29.6296 26.3339 29.6296 25.9259L 29.6296 1.48148L 32.5926 1.48148L 32.5926 33.3333C 32.5926 33.7413 32.2598 34.0741 31.8519 34.0741L 22.2222 34.0741L 22.2222 1.48148ZM 34.0741 1.48148L 36.2963 1.48148C 37.5203 1.48148 38.5185 2.47975 38.5185 3.7037C 38.5185 4.92766 37.5203 5.92593 36.2963 5.92593L 34.0741 5.92593L 34.0741 1.48148ZM 13.3333 2.96296C 12.9253 2.96296 12.5926 3.29572 12.5926 3.7037L 12.5926 11.8519C 12.5926 12.2598 12.9253 12.5926 13.3333 12.5926C 13.7413 12.5926 14.0741 12.2598 14.0741 11.8519L 14.0741 3.7037C 14.0741 3.29572 13.7413 2.96296 13.3333 2.96296ZM 16.2963 2.96296C 15.8883 2.96296 15.5556 3.29572 15.5556 3.7037L 15.5556 9.62963C 15.5556 10.0376 15.8883 10.3704 16.2963 10.3704C 16.7043 10.3704 17.037 10.0376 17.037 9.62963L 17.037 3.7037C 17.037 3.29572 16.7043 2.96296 16.2963 2.96296ZM 25.9172 4.44444L 24.4358 4.44444C 24.0249 4.44444 23.695 4.7772 23.695 5.18519C 23.6979 5.59607 24.0278 5.92593 24.4358 5.92593L 25.9172 5.92593C 26.3281 5.92593 26.6609 5.59317 26.658 5.18519C 26.658 4.77431 26.3281 4.44155 25.9172 4.44444ZM 25.9201 8.14815L 24.4387 8.14815C 24.0278 8.14815 23.6979 8.4809 23.7008 8.88889C 23.7008 9.29977 24.0307 9.62963 24.4416 9.62963L 25.923 9.62963C 26.331 9.62963 26.6638 9.29688 26.6638 8.88889C 26.6609 8.47801 26.331 8.14526 25.9201 8.14815ZM 25.923 11.8519L 24.4416 11.8519C 24.0307 11.8519 23.7008 12.1846 23.7008 12.5926C 23.7008 13.0035 24.0336 13.3333 24.4444 13.3333L 25.9259 13.3333C 26.3339 13.3333 26.6638 13.0006 26.6638 12.5926C 26.6638 12.1817 26.3339 11.849 25.923 11.8519ZM 16.2963 11.8519C 15.8883 11.8519 15.5556 12.1846 15.5556 12.5926L 15.5556 15.5556C 15.5556 15.9635 15.8883 16.2963 16.2963 16.2963C 16.7043 16.2963 17.037 15.9635 17.037 15.5556L 17.037 12.5926C 17.037 12.1846 16.7043 11.8519 16.2963 11.8519ZM 25.9259 16.2963L 24.4444 16.2963C 24.0365 16.2963 23.7037 16.6291 23.7037 17.037C 23.7066 17.4479 24.0365 17.7778 24.4473 17.7778L 25.9288 17.7778C 26.3397 17.7778 26.6696 17.445 26.6667 17.037C 26.6667 16.6262 26.3368 16.2934 25.9259 16.2963ZM 25.9288 20L 24.4473 20C 24.0394 20 23.7066 20.3328 23.7066 20.7407C 23.7095 21.1516 24.0394 21.4815 24.4502 21.4815L 25.9317 21.4815C 26.3426 21.4815 26.6725 21.1487 26.6696 20.7407C 26.6696 20.3299 26.3397 19.9971 25.9288 20ZM 14.8148 20.7407C 13.18 20.7407 11.8519 22.0689 11.8519 23.7037C 11.8519 24.3866 12.0862 25.0376 12.5029 25.5556C 12.0862 26.0735 11.8519 26.7245 11.8519 27.4074C 11.8519 29.0422 13.18 30.3704 14.8148 30.3704C 16.4497 30.3704 17.7778 29.0422 17.7778 27.4074C 17.7778 26.7245 17.5434 26.0735 17.1267 25.5556C 17.5434 25.0376 17.7778 24.3866 17.7778 23.7037C 17.7778 22.0689 16.4497 20.7407 14.8148 20.7407ZM 14.8148 22.2222C 15.6308 22.2222 16.2963 22.8877 16.2963 23.7037C 16.2963 24.2014 16.0475 24.6644 15.6308 24.9392C 15.4253 25.0781 15.3009 25.3067 15.3009 25.5556C 15.3009 25.8044 15.4253 26.0359 15.6308 26.1719C 16.0475 26.4468 16.2963 26.9097 16.2963 27.4074C 16.2963 28.2234 15.6308 28.8889 14.8148 28.8889C 13.9988 28.8889 13.3333 28.2234 13.3333 27.4074C 13.3333 26.9097 13.5822 26.4468 13.9988 26.1719C 14.2043 26.033 14.3287 25.8044 14.3287 25.5556C 14.3287 25.3067 14.2043 25.0752 13.9988 24.9392C 13.5822 24.6644 13.3333 24.2014 13.3333 23.7037C 13.3333 22.8877 13.9988 22.2222 14.8148 22.2222ZM 25.9346 23.7037L 24.4531 23.7037C 24.0422 23.7037 23.7095 24.0365 23.7124 24.4444C 23.7124 24.8553 24.0422 25.1852 24.4531 25.1852L 25.9346 25.1852C 26.3455 25.1852 26.6753 24.8524 26.6753 24.4444C 26.6725 24.0336 26.3426 23.7008 25.9346 23.7037ZM 25.9375 27.4074L 24.456 27.4074C 24.0451 27.4074 23.7124 27.7402 23.7153 28.1481C 23.7153 28.559 24.0451 28.8889 24.456 28.8889L 25.9375 28.8889C 26.3484 28.8889 26.6782 28.5561 26.6782 28.1481C 26.6753 27.7373 26.3455 27.4045 25.9375 27.4074ZM 28.8889 28.1481C 28.4809 28.1481 28.1481 28.4809 28.1481 28.8889L 28.1481 31.8519C 28.1481 32.2598 28.4809 32.5926 28.8889 32.5926C 29.2969 32.5926 29.6296 32.2598 29.6296 31.8519L 29.6296 28.8889C 29.6296 28.4809 29.2969 28.1481 28.8889 28.1481ZM 25.9375 31.1111L 24.456 31.1111C 24.048 31.1111 23.7153 31.4439 23.7153 31.8519C 23.7182 32.2627 24.048 32.5955 24.4589 32.5926L 25.9404 32.5926C 26.3513 32.5926 26.6811 32.2598 26.6782 31.8519C 26.6782 31.441 26.3484 31.1111 25.9375 31.1111Z"/>
</defs>
</svg>
