<svg width="100" height="100" viewBox="0 0 100 100" version="1.1" xmlns="http://www.w3.org/2000/svg" xmlns:xlink="http://www.w3.org/1999/xlink"><title>computer</title><desc>Created using Figma</desc><g id="Canvas" transform="translate(11929 -34)"><g id="computer"><g id="Oval"><use xlink:href="#path0_fill" transform="translate(-11929 34)" fill="#FFD97B"/></g><g id="Shape"><use xlink:href="#path1_fill" transform="translate(-11907.4 40.7371)" fill="#ECF0F1"/></g><g id="Shape"><use xlink:href="#path2_fill" transform="translate(-11907.7 39.96)" fill="#FFF"/></g><g id="Shape"><use xlink:href="#path3_fill" transform="translate(-11907.4 78.1551)" fill="#666"/></g><g id="Shape"><use xlink:href="#path4_fill" transform="translate(-11905 80)" fill="#3D546B"/></g><g id="Combined Shape"><use xlink:href="#path5_fill" transform="translate(-11886 89)" fill="#FFF"/></g><g id="Shape"><use xlink:href="#path6_fill" transform="translate(-11907.4 112.402)" fill="#FFF"/></g><g id="Oval"><use xlink:href="#path7_fill" transform="translate(-11880 114.396)" fill="#B6B6B8"/></g><g id="Shape"><use xlink:href="#path8_fill" transform="translate(-11890.4 118.739)" fill="#C2C2C4"/></g><g id="Shape"><use xlink:href="#path9_fill" transform="translate(-11890.4 123.502)" fill="#ECF0F1"/></g><g id="Shape"><use xlink:href="#path10_fill" transform="translate(-11897.7 62.602)" fill="#F77B55"/></g><g id="Shape"><use xlink:href="#path11_fill" transform="translate(-11876.2 62.602)" fill="#63DDE8"/></g></g></g><defs><path id="path0_fill" d="M 50 100C 77.6142 100 100 77.6142 100 50C 100 22.3858 77.6142 0 50 0C 22.3858 0 0 22.3858 0 50C 0 77.6142 22.3858 100 50 100Z"/><path id="path1_fill" d="M 5.81426 18.018C 5.8957 18.018 5.97715 18.0201 6.0582 18.0236C 7.26055 14.6615 10.4717 12.2566 14.2469 12.2566C 15.2525 12.2566 16.2188 12.4277 17.1168 12.7422C 18.1291 5.54121 24.3137 0 31.7938 0C 39.6822 0 46.1316 6.16289 46.5896 13.9373C 50.7967 14.0883 54.1594 17.5449 54.1594 21.7883C 54.1594 26.1281 50.6418 29.6449 46.3027 29.6449C 32.385 29.6449 19.6529 29.6449 5.81426 29.6449C 2.60254 29.6449 0 27.0424 0 23.8312C 0 20.6201 2.60312 18.018 5.81426 18.018Z"/><path id="path2_fill" d="M 5.81406 18.0186C 5.89609 18.0186 5.97734 18.0207 6.05801 18.0236C 7.25996 14.6619 10.4721 12.2566 14.2467 12.2566C 15.2523 12.2566 16.2186 12.4281 17.1166 12.7422C 18.1285 5.5418 24.3135 0 31.7932 0C 39.6816 0 46.1316 6.16348 46.5891 13.9373C 50.7961 14.0883 54.1588 17.5449 54.1588 21.7883C 54.1588 26.1281 50.6418 29.6449 46.3021 29.6449C 32.3844 29.6449 19.6523 29.6449 5.81367 29.6449C 2.60254 29.6449 0 27.0424 0 23.8312C 0 20.6195 2.60254 18.0176 5.81367 18.0176L 5.81406 18.0186Z"/><path id="path3_fill" d="M 3.02715 0L 53.707 0C 55.3719 0 56.7344 1.36211 56.7344 3.02734L 56.7344 34.2467L 0 34.2467L 0 3.02715C 0.000195313 1.3623 1.3623 0 3.02715 0Z"/><path id="path4_fill" d="M 0 30.135L 52.623 30.135L 52.623 0.971289C 52.623 0.441016 52.1818 0 51.6512 0L 0.971484 0C 0.441211 0 0.000195313 0.441211 0.000195313 0.971289L 0.000195313 30.135L 0 30.135Z"/><path id="path5_fill" fill-rule="evenodd" d="M 0 2.8L 0 0L 2.7998 0L 2.7998 2.8L 5.59961 2.8L 5.59961 5.6L 8.40039 5.60001L 8.39941 2.8L 5.59961 2.8L 5.59961 0L 8.39941 0L 11.2002 0L 11.2002 2.8L 14 2.8L 14 5.60001L 11.2002 5.60001L 11.2002 8.4L 8.40039 8.4L 5.59961 8.4L 5.59961 11.2003L 2.7998 11.2L 2.7998 14L 0 14L 0 11.2L 0 8.4L 2.7998 8.4L 2.7998 5.60001L 0 5.60001L 0 2.8ZM 5.59961 11.2003L 8.39941 11.2L 8.39941 14L 5.59961 14L 5.59961 11.2003ZM 11.2002 8.4L 14 8.4L 14 11.2L 14 14L 11.2002 14L 11.2002 11.2L 11.2002 8.4Z"/><path id="path6_fill" d="M 56.7338 0L 56.7338 3.31055C 56.7338 4.97598 55.2322 6.33789 53.3965 6.33789L 3.3373 6.33789C 1.50156 6.33789 0 4.97578 0 3.31055L 0 0L 56.7344 0L 56.7338 0Z"/><path id="path7_fill" d="M 1.04219 2.08437C 1.61777 2.08437 2.08437 1.61777 2.08437 1.04219C 2.08437 0.466603 1.61777 0 1.04219 0C 0.466603 0 0 0.466603 0 1.04219C 0 1.61777 0.466603 2.08437 1.04219 2.08437Z"/><path id="path8_fill" d="M 17.9 4.7623L 22.7137 6.30449L 0 6.30449L 3.88379 4.7623L 3.88379 0L 17.9 0L 17.9 4.7623Z"/><path id="path9_fill" d="M 3.8834 0L 17.8996 0L 22.7133 1.54219L 22.7133 2.20664L 11.3566 2.20664L 0 2.20664L 0 1.54219L 3.8834 0Z"/><path id="path10_fill" d="M 14.5873 23.7301C 10.3557 19.6742 10.6164 14.0465 10.5785 10.5213L 15.4035 10.5213L 7.70156 0L 0 10.5213L 4.825 10.5213C 5.32012 17.7314 9.11484 22.0641 14.5873 23.7301Z"/><path id="path11_fill" d="M 0.816211 0C 5.04785 4.05586 4.78711 9.68359 4.825 13.2088L 0 13.2088L 7.70195 23.7305L 15.4035 13.2088L 10.5785 13.2088C 10.0832 5.99863 6.28867 1.66602 0.816211 0Z"/></defs></svg>