<svg height="54" viewBox="0 0 54 54" width="54" xmlns="http://www.w3.org/2000/svg"><g fill="none" fill-rule="evenodd"><path d="m27 54c14.9116882 0 27-12.0883118 27-27s-12.0883118-27-27-27-27 12.0883118-27 27 12.0883118 27 27 27z" fill="#f7f7f7"/><g fill="#00417b" transform="translate(9 11)"><path d="m33.713253 8.85294118h-3.7277108l-2.2939759-7.61764706-3.7277109 1.1117647-1.2289156-2.18235294-15.44337353 7.16470588-5.12048193 1.52352942h-1.88433735v18.90000002h33.42650601zm-4.7518072 0h-.7783133l-1.2698795-3.41764706-.5325301.24705882s-.0409639 0-.0409639.04117647c-.3277108.12352941-.6963855.08235294-1.0240963-.08235294-.3277109-.16470588-.5325302-.45294118-.6554217-.78235294l-.1638555-.57647059-16.13975899 4.57058824h-2.04819278l1.31084338-.61764706 19.41686749-5.76470588zm-1.8433735 0h-15.1566265l11.8795181-3.41764706c.2048192.4117647.5734939.78235294.9831325.98823529.4506024.24705883.9831325.32941177 1.5156626.24705883zm-4.7927711-7.41176471.6554217 1.19411765-9.0939759 2.71764706zm-16.59036144 7.37058824-.12289157.04117647zm26.99518074 17.95294119h-31.46024098v-16.92352943h31.46024098z"/><path d="m2.86746988 23.8823529h.04096385c.7373494 0 1.35180723.6176471 1.35180723 1.3588236v.0823529l-.04096385.5352941h25.60240959l-.0409638-.5352941v-.0823529c0-.7411765.6144578-1.3588236 1.3518072-1.3588236h.0409639l.6144578.0411765v-11.2823529l-.6144578.0823529h-.0409639c-.7373494 0-1.3518072-.617647-1.3518072-1.317647v-.6176471h-25.56144579l.04096385.5352941v.0411765c0 .7411765-.61445783 1.3588235-1.35180723 1.3588235h-.04096385l-.61445783-.0823529v11.2823529l.53253012-.0411765zm.32771084-10.2117647c.98313253-.1235294 1.80240964-.9058823 1.96626506-1.8941176h23.63614462c.1638554.9882353.9831325 1.7705882 1.966265 1.8941176v9.2235294c-1.0240964.1235295-1.8024096.9470589-2.0072289 1.9352942h-23.55421686c-.16385542-1.0294118-.98313253-1.8117647-2.00722892-1.9352942z"/><path d="m17 23.9235294c3.0722892 0 5.5710843-2.5117647 5.5710843-5.6s-2.4987951-5.6-5.5710843-5.6-5.5710843 2.5117647-5.5710843 5.6 2.4987951 5.6 5.5710843 5.6zm0-10.2117647c2.539759 0 4.5879518 2.0588235 4.5879518 4.6117647s-2.0481928 4.6117647-4.5879518 4.6117647-4.5879518-2.0588235-4.5879518-4.6117647 2.0891566-4.6117647 4.5879518-4.6117647z"/><path d="m22.817 17.829h5.571v.988h-5.571z"/><path d="m22.817 15.524h4.137v.988h-4.137z"/><path d="m22.817 20.135h4.137v.988h-4.137z"/><path d="m5.653 17.829h5.571v.988h-5.571z"/><path d="m7.087 20.135h4.137v.988h-4.137z"/><path d="m7.087 15.524h4.137v.988h-4.137z"/><path d="m15.125 18.6341463h.7591463v-3.0365853h1.7012196c.4085386 0 .7560961.0564019 1.0426829.1692073s.5198162.2621942.6996951.4481707c.179879.1859766.3109752.4024378.3932927.6493903.0823175.2469524.1234756.501523.1234756.7637195 0 .268294-.0411581.5213403-.1234756.7591463-.0823175.2378061-.2134137.4481698-.3932927.6310976-.1798789.1829277-.4131083.3277434-.6996951.4344512-.2865868.1067079-.6341443.160061-1.0426829.160061h-.5121952v.6951219h1.6097561v.9420732h-1.6097561v.75h-1.1890244v-.75h-.7591463v-.9420732h.7591463v-.6951219h-.7591463zm2.3414634 0c.164635 0 .3185969-.0137193.4618903-.0411585s.2698165-.0777435.3795731-.1509146c.1097567-.0731711.1951217-.1753043.2560976-.3064025s.0914634-.3003038.0914634-.5076219-.0304875-.3810969-.0914634-.5213415-.1463409-.251524-.2560976-.3338414c-.1097566-.0823175-.2362797-.1402438-.3795731-.1737805-.1432934-.0335368-.2972553-.0503049-.4618903-.0503049h-.3932927v2.0853658z"/></g></g></svg>