<?xml version="1.0" encoding="UTF-8"?>
<svg width="124px" height="100px" viewBox="0 0 124 100" version="1.1" xmlns="http://www.w3.org/2000/svg" xmlns:xlink="http://www.w3.org/1999/xlink">
    <!-- Generator: Sketch 44.1 (41455) - http://www.bohemiancoding.com/sketch -->
    <title>Page 1</title>
    <desc>Created with Sketch.</desc>
    <defs></defs>
    <g id="Page-1" stroke="none" stroke-width="1" fill="none" fill-rule="evenodd" fill-opacity="0.181131114">
        <g id="ВК---3" transform="translate(-770.000000, -271.000000)" fill="#000000">
            <g id="Group-5" transform="translate(533.000000, 271.000000)">
                <g id="Page-1" transform="translate(237.000000, 0.000000)">
                    <path d="M113.43716,8.9142165 L50.6905718,8.9142165 C49.2748194,8.9142165 48.6388369,8.16264729 47.1594862,5.99878868 C45.4312729,3.46327497 43.0643118,0 37.4814914,0 L10.5628401,0 C4.7311569,0 0,5.78405462 0,12.9033146 L0,89.180707 C0,95.1492126 4.74221746,100 10.5628401,100 L113.43716,100 C119.268843,100 124,95.1492126 124,89.180707 L124,21.8202841 C124,14.7010241 119.268843,8.9142165 113.43716,8.9142165 Z M118.81536,89.169695 C118.81536,92.2888448 116.395861,94.8271116 113.43716,94.8271116 L10.5628401,94.8271116 C7.59307823,94.8271116 5.18464009,92.2888448 5.18464009,89.169695 L5.18464009,29.0551701 C5.18464009,25.9387733 7.60413879,23.4005066 10.5628401,23.4005066 L113.43716,23.4005066 C116.406922,23.4005066 118.81536,25.9387733 118.81536,29.0551701 L118.81536,89.169695 Z M10.5628401,5.15086444 L37.4814914,5.15086444 C40.2023905,5.15086444 41.1978414,6.4310098 42.8707519,8.89219249 C44.3611631,11.0863341 46.4018375,14.0760929 50.6905718,14.0760929 L113.43716,14.0760929 C115.834538,14.0760929 117.897333,16.4849686 118.566497,19.6674375 C117.042904,18.7864773 115.30363,18.2496421 113.43716,18.2496421 L10.5628401,18.2496421 C8.58852912,18.2496421 6.76077067,18.8415373 5.18464009,19.8078405 L5.18464009,12.9033146 C5.18464009,8.69948244 7.64838105,5.15086444 10.5628401,5.15086444 Z" id="Fill-1"></path>
                </g>
            </g>
        </g>
    </g>
</svg>