<svg width="48" height="48" viewBox="0 0 48 48" version="1.1" xmlns="http://www.w3.org/2000/svg" xmlns:xlink="http://www.w3.org/1999/xlink">
<title>shopping-cart</title>
<desc>Created using Figma</desc>
<g id="Canvas" transform="translate(3451 -7596)">
<g id="shopping-cart">
<g id="Vector">
<use xlink:href="#path0_fill" transform="translate(-3435.52 7619.23)" fill="#83C7F0"/>
</g>
<g id="Vector">
<use xlink:href="#path1_fill" transform="translate(-3433.19 7596.77)" fill="#41CFC8"/>
</g>
<g id="Group">
<g id="Vector">
<use xlink:href="#path2_fill" transform="translate(-3451 7611.48)" fill="#015486"/>
</g>
<g id="Vector">
<use xlink:href="#path3_fill" transform="translate(-3413.84 7638.58)" fill="#015486"/>
</g>
</g>
<g id="Group">
<g id="Vector">
<use xlink:href="#path4_fill" transform="translate(-3433.97 7634.71)" fill="#407FA4"/>
</g>
<g id="Vector">
<use xlink:href="#path4_fill" transform="translate(-3417.71 7634.71)" fill="#407FA4"/>
</g>
</g>
<g id="Group">
<g id="Vector">
<use xlink:href="#path3_fill" transform="translate(-3430.1 7638.58)" fill="#015486"/>
</g>
<g id="Vector">
<use xlink:href="#path5_fill" transform="translate(-3433.97 7596)" fill="#FFFFFF"/>
</g>
<g id="Vector">
<use xlink:href="#path6_fill" transform="translate(-3416.48 7600.1)" fill="#FFFFFF"/>
</g>
</g>
</g>
</g>
<defs>
<path id="path0_fill" d="M 30.9677 0L 0 0L 0 1.54839L 30.9677 1.54839L 30.9677 0Z"/>
<path id="path1_fill" d="M 23.2258 0L 3.09677 0C 1.38658 0 0 1.38658 0 3.09677L 0 16.2581L 26.3226 16.2581L 26.3226 3.09677C 26.3226 1.38658 24.936 0 23.2258 0Z"/>
<path id="path2_fill" d="M 44.441 3.09677L 15.4839 3.09677L 15.4839 4.64516L 44.441 4.64516C 45.5497 4.64516 46.4516 5.5471 46.4516 6.65574C 46.4516 6.80594 46.4354 6.95536 46.4021 7.1009L 43.1481 21.4181C 42.9058 22.4826 41.9744 23.2258 40.8828 23.2258L 18.7154 23.2258C 17.6299 23.2258 16.7001 22.4872 16.4532 21.4312L 12.1502 2.99226C 11.7399 1.23019 10.1899 0 8.38142 0L 2.32258 0C 1.04206 0 0 1.04206 0 2.32258C 0 3.6031 1.04206 4.64516 2.32258 4.64516L 9.29032 4.64516L 9.29032 3.09677L 2.32258 3.09677C 1.896 3.09677 1.54839 2.74916 1.54839 2.32258C 1.54839 1.896 1.896 1.54839 2.32258 1.54839L 8.38142 1.54839C 9.46684 1.54839 10.3966 2.28697 10.6436 3.34297L 14.9466 21.7819C 15.3569 23.544 16.9068 24.7742 18.7154 24.7742L 40.8828 24.7742C 42.7022 24.7742 44.2545 23.5347 44.657 21.761L 47.911 7.44387C 47.9698 7.18606 48 6.92052 48 6.65574C 48 4.69316 46.4036 3.09677 44.441 3.09677Z"/>
<path id="path3_fill" d="M 1.54839 0L 0 0L 0 1.54839L 1.54839 1.54839L 1.54839 0Z"/>
<path id="path4_fill" d="M 4.64516 9.29032C 2.08335 9.29032 0 7.20697 0 4.64516C 0 2.08335 2.08335 0 4.64516 0C 7.20697 0 9.29032 2.08335 9.29032 4.64516C 9.29032 7.20697 7.20697 9.29032 4.64516 9.29032ZM 4.64516 1.54839C 2.93729 1.54839 1.54839 2.93729 1.54839 4.64516C 1.54839 6.35303 2.93729 7.74194 4.64516 7.74194C 6.35303 7.74194 7.74194 6.35303 7.74194 4.64516C 7.74194 2.93729 6.35303 1.54839 4.64516 1.54839Z"/>
<path id="path5_fill" d="M 1.54839 3.87097C 1.54839 2.59045 2.59045 1.54839 3.87097 1.54839L 4.64516 1.54839L 4.64516 17.0323L 6.19355 17.0323L 6.19355 1.54839L 9.29032 1.54839L 9.29032 17.0323L 10.8387 17.0323L 10.8387 1.54839L 24 1.54839C 25.2805 1.54839 26.3226 2.59045 26.3226 3.87097L 26.3226 17.0323L 27.871 17.0323L 27.871 3.87097C 27.871 1.73652 26.1345 0 24 0L 3.87097 0C 1.73652 0 0 1.73652 0 3.87097L 0 17.0323L 1.54839 17.0323L 1.54839 3.87097Z"/>
<path id="path6_fill" d="M 3.14516 0C 1.4106 0 0 1.48535 0 3.31183C 0 3.91513 0.156734 4.4798 0.425645 4.96774C 0.156734 5.45568 0 6.02035 0 6.62366C 0 8.45013 1.4106 9.93548 3.14516 9.93548C 4.87972 9.93548 6.29032 8.45013 6.29032 6.62366C 6.29032 6.02035 6.13359 5.45568 5.86468 4.96774C 6.13359 4.4798 6.29032 3.91513 6.29032 3.31183C 6.29032 1.48535 4.87972 0 3.14516 0ZM 3.14516 1.10394C 4.30153 1.10394 5.24194 2.09418 5.24194 3.31183C 5.24194 3.57015 5.19161 3.81412 5.11403 4.04485C 4.57464 3.58726 3.89004 3.31183 3.14516 3.31183C 2.40028 3.31183 1.71569 3.58726 1.17629 4.04485C 1.09871 3.81412 1.04839 3.57015 1.04839 3.31183C 1.04839 2.09418 1.98879 1.10394 3.14516 1.10394ZM 4.5175 4.96774C 4.14899 5.3072 3.6725 5.51971 3.14516 5.51971C 2.61782 5.51971 2.14185 5.3072 1.77282 4.96774C 2.14133 4.62828 2.61782 4.41577 3.14516 4.41577C 3.6725 4.41577 4.14847 4.62828 4.5175 4.96774ZM 3.14516 8.83154C 1.98879 8.83154 1.04839 7.8413 1.04839 6.62366C 1.04839 6.36533 1.09871 6.12136 1.17629 5.89064C 1.71569 6.34822 2.40028 6.62366 3.14516 6.62366C 3.89004 6.62366 4.57464 6.34822 5.11403 5.89064C 5.19161 6.12136 5.24194 6.36533 5.24194 6.62366C 5.24194 7.8413 4.30153 8.83154 3.14516 8.83154Z"/>
</defs>
</svg>
