<?xml version="1.0" encoding="UTF-8" standalone="no"?>
<svg width="32px" height="43px" viewBox="0 0 32 43" version="1.1" xmlns="http://www.w3.org/2000/svg" xmlns:xlink="http://www.w3.org/1999/xlink" xmlns:sketch="http://www.bohemiancoding.com/sketch/ns">
    <!-- Generator: Sketch 3.2.2 (9983) - http://www.bohemiancoding.com/sketch -->
    <title>icon_file_vector</title>
    <desc>Created with Sketch.</desc>
    <defs></defs>
    <g id="brandbook" stroke="none" stroke-width="1" fill="none" fill-rule="evenodd" sketch:type="MSPage">
        <g id="icon_file_vector" sketch:type="MSLayerGroup" transform="translate(0.000000, 0.146617)">
            <path d="M1.83458647,0.00192481203 L21.3233083,0.00192481203 L31.9699248,10.6485414 L31.9699248,40.809985 C31.9699248,41.8035489 31.1590977,42.6143759 30.1654135,42.6143759 L1.83458647,42.6143759 C0.840902256,42.6143759 0.030075188,41.8037895 0.030075188,40.809985 L0.030075188,1.80643609 C0.030075188,0.812511278 0.840661654,0.00192481203 1.83458647,0.00192481203" id="Fill-1" fill="#29B9A0" sketch:type="MSShapeGroup"></path>
            <path d="M0.0301954887,40.833203 C0.0427067669,41.8164211 0.848481203,42.6143759 1.83458647,42.6143759 C0.848721805,42.6143759 0.0427067669,41.8164211 0.0301954887,40.833203 M31.9699248,40.809985 C31.9699248,41.8035489 31.1590977,42.6143759 30.1654135,42.6143759 C31.1593383,42.6143759 31.9699248,41.8037895 31.9699248,40.809985" id="Fill-2" fill="#CCCCCC" sketch:type="MSShapeGroup"></path>
            <path d="M31.9699248,39.3662556 C31.9699248,40.3601805 31.1590977,41.1708872 30.1654135,41.1708872 L1.83458647,41.1708872 C0.840902256,41.1708872 0.030075188,40.3601805 0.030075188,39.3662556 L0.030075188,40.809985 C0.030075188,40.8176842 0.030075188,40.8255038 0.0301954887,40.833203 C0.0427067669,41.8164211 0.848721805,42.6143759 1.83458647,42.6143759 L30.1654135,42.6143759 C31.1590977,42.6143759 31.9699248,41.8035489 31.9699248,40.809985 L31.9699248,39.3662556" id="Fill-3" fill="#219480" sketch:type="MSShapeGroup"></path>
            <path d="M21.3233083,0.00192481203 L21.3233083,10.6485414 L31.9699248,10.6485414 L21.3233083,0.00192481203" id="Fill-4" fill="#3FC0AA" sketch:type="MSShapeGroup"></path>
            <path d="M31.9699248,10.6485414 L21.3233083,10.6485414 L31.9699248,21.2951579 L31.9699248,10.6485414" id="Fill-5" fill="#219480" sketch:type="MSShapeGroup"></path>
            <path d="M8.15458647,23.0507068 L12.9485714,18.2568421 L12.9513383,18.2541955 L17.7426767,13.4628571 C17.6114286,13.0930526 17.6938346,12.6641805 17.9898947,12.3683609 C18.3998797,11.9581353 19.0649023,11.9581353 19.4751278,12.3683609 C19.8851128,12.7784662 19.8851128,13.443609 19.4751278,13.853594 C19.1790677,14.1494135 18.7504361,14.2319398 18.3806316,14.100812 L16.2295338,16.2516692 C17.0420451,15.9913383 17.8872782,15.8611729 18.732391,15.8611729 C20.5201805,15.8611729 22.3080902,16.4437895 23.7869474,17.608782 C24.1691429,17.4466165 24.6280902,17.5214436 24.9399098,17.8331429 C25.3498947,18.2432481 25.3498947,18.908391 24.9399098,19.3183759 C24.5295639,19.7286015 23.8646617,19.7286015 23.4546767,19.3183759 C23.1748571,19.038797 23.0860752,18.6404812 23.1877293,18.2854737 C21.8804211,17.2706165 20.306406,16.7634286 18.732391,16.7634286 C16.8709774,16.7634286 15.0099248,17.4729624 13.5892932,18.8921504 L13.5838797,18.8973233 C12.1646917,20.3179549 11.4551579,22.1792481 11.4551579,24.0406617 C11.4551579,25.6144361 11.9625865,27.1884511 12.9774436,28.496 C13.3324511,28.3942256 13.7305263,28.4831278 14.0101053,28.7627068 C14.4203308,29.1729323 14.4203308,29.8378346 14.0101053,30.2479398 C13.6001203,30.6581654 12.935218,30.6581654 12.5248722,30.2479398 C12.2134135,29.9363609 12.1385865,29.4774135 12.3007519,29.0948571 C11.1356391,27.6163609 10.5529023,25.8284511 10.5529023,24.0406617 C10.5529023,23.1955489 10.6833083,22.3503158 10.9436391,21.5378045 L8.79254135,23.6886617 C8.92366917,24.0584662 8.84138346,24.4873383 8.54532331,24.7831579 C8.13533835,25.1933835 7.47043609,25.1933835 7.06021053,24.7831579 C6.65010526,24.3731729 6.65010526,23.7079098 7.06021053,23.2979248 C7.35627068,23.0021053 7.78478195,22.9195789 8.15458647,23.0507068" id="Fill-6" fill="#FFFFFF" sketch:type="MSShapeGroup"></path>
        </g>
    </g>
</svg>