<svg xmlns="http://www.w3.org/2000/svg" width="110" height="100" viewBox="0 0 110 100"><g fill="none" fill-rule="evenodd"><path fill="#63DDE8" d="M99.6794872,50 C99.6794872,77.4365385 77.4378205,99.6794872 50,99.6794872 C22.5621795,99.6794872 0.320512821,77.4365385 0.320512821,50 C0.320512821,22.5628205 22.5621795,0.320512821 50,0.320512821 C77.4378205,0.320512821 99.6794872,22.5628205 99.6794872,50"/><polygon fill="#FFF" points="26.138 68.838 73.862 68.838 73.862 46.433 26.138 46.433"/><polygon fill="#E6E5E5" points="26.138 46.433 73.862 46.433 73.862 30.525 26.138 30.525"/><polygon fill="#242D3C" points="52.281 42.456 72.113 42.456 72.113 34.502 52.281 34.502"/><polygon fill="#21D8DE" points="53.871 40.865 70.522 40.865 70.522 36.092 53.871 36.092"/><polygon fill="#06B2B8" points="54.746 37.471 62.41 37.471 62.41 36.994 54.746 36.994"/><polygon fill="#06B2B8" points="63.205 37.471 67.281 37.471 67.281 36.994 63.205 36.994"/><polygon fill="#06B2B8" points="68.076 37.471 69.646 37.471 69.646 36.994 68.076 36.994"/><polygon fill="#06B2B8" points="54.746 38.717 57.1 38.717 57.1 38.24 54.746 38.24"/><polygon fill="#06B2B8" points="57.895 38.717 69.646 38.717 69.646 38.24 57.895 38.24"/><polygon fill="#06B2B8" points="54.746 39.963 58.472 39.963 58.472 39.487 54.746 39.487"/><polygon fill="#CCCBCA" points="27.888 42.456 43.399 42.456 43.399 34.502 27.888 34.502"/><polygon fill="#242D3C" points="29.797 39.274 41.49 39.274 41.49 37.683 29.797 37.683"/><polygon fill="#E6E5E5" points="26.138 80.769 73.862 80.769 73.862 68.838 26.138 68.838"/><polygon fill="#F87B4F" points="27.888 79.019 72.113 79.019 72.113 70.588 27.888 70.588"/><path fill="#242D3C" d="M51.1916667,74.8032051 C51.1916667,75.4621795 50.6583333,75.9967949 50,75.9967949 C49.3403846,75.9967949 48.8070513,75.4621795 48.8070513,74.8032051 C48.8070513,74.1448718 49.3403846,73.6108974 50,73.6108974 C50.6583333,73.6108974 51.1916667,74.1448718 51.1916667,74.8032051"/><polyline fill="#FFF" points="40.006 19.231 39.461 19.776 38.915 19.231 38.369 19.776 37.824 19.231 37.279 19.776 36.734 19.231 36.189 19.776 35.644 19.231 35.099 19.776 34.553 19.231 34.01 19.776 33.463 19.231 32.919 19.776 32.373 19.231 31.828 19.776 31.283 19.231 30.737 19.776 30.737 38.479 40.551 38.479 40.551 19.776 40.006 19.231"/><polygon fill="#CCCBCA" points="32.142 21.317 39.147 21.317 39.147 21.001 32.142 21.001"/><polygon fill="#CCCBCA" points="32.142 22.196 39.147 22.196 39.147 21.879 32.142 21.879"/><polygon fill="#CCCBCA" points="32.142 23.074 39.147 23.074 39.147 22.758 32.142 22.758"/><polygon fill="#CCCBCA" points="32.142 23.952 39.147 23.952 39.147 23.637 32.142 23.637"/><polygon fill="#CCCBCA" points="32.142 24.831 39.147 24.831 39.147 24.514 32.142 24.514"/><polygon fill="#CCCBCA" points="32.142 25.71 39.147 25.71 39.147 25.393 32.142 25.393"/><polygon fill="#CCCBCA" points="32.142 26.588 39.147 26.588 39.147 26.272 32.142 26.272"/><polygon fill="#CCCBCA" points="32.142 27.466 39.147 27.466 39.147 27.15 32.142 27.15"/><polygon fill="#CCCBCA" points="32.142 28.344 39.147 28.344 39.147 28.029 32.142 28.029"/><polygon fill="#CCCBCA" points="32.142 29.224 39.147 29.224 39.147 28.908 32.142 28.908"/><polygon fill="#CCCBCA" points="32.142 30.101 39.147 30.101 39.147 29.786 32.142 29.786"/><polygon fill="#CCCBCA" points="32.142 30.979 39.147 30.979 39.147 30.664 32.142 30.664"/><polygon fill="#CCCBCA" points="32.142 31.858 39.147 31.858 39.147 31.543 32.142 31.543"/><polygon fill="#CCCBCA" points="32.142 32.737 39.147 32.737 39.147 32.421 32.142 32.421"/><path fill="#CCCBCA" d="M32.3833333 36.1698718C32.249359 36.1698718 32.1416667 36.2782051 32.1416667 36.4121795 32.1416667 36.5461538 32.249359 36.6551282 32.3833333 36.6551282 32.5173077 36.6551282 32.625 36.5461538 32.625 36.4121795 32.625 36.2782051 32.5173077 36.1698718 32.3833333 36.1698718M33.3147436 36.1698718C33.1807692 36.1698718 33.0717949 36.2782051 33.0717949 36.4121795 33.0717949 36.5461538 33.1807692 36.6551282 33.3147436 36.6551282 33.4487179 36.6551282 33.5564103 36.5461538 33.5564103 36.4121795 33.5564103 36.2782051 33.4487179 36.1698718 33.3147436 36.1698718M34.2461538 36.1698718C34.1134615 36.1698718 34.0044872 36.2782051 34.0044872 36.4121795 34.0044872 36.5461538 34.1134615 36.6551282 34.2461538 36.6551282 34.3801282 36.6551282 34.4891026 36.5461538 34.4891026 36.4121795 34.4891026 36.2782051 34.3801282 36.1698718 34.2461538 36.1698718M35.1788462 36.1698718C35.0448718 36.1698718 34.9358974 36.2782051 34.9358974 36.4121795 34.9358974 36.5461538 35.0448718 36.6551282 35.1788462 36.6551282 35.3128205 36.6551282 35.4205128 36.5461538 35.4205128 36.4121795 35.4205128 36.2782051 35.3128205 36.1698718 35.1788462 36.1698718M36.1102564 36.1698718C35.9762821 36.1698718 35.8685897 36.2782051 35.8685897 36.4121795 35.8685897 36.5461538 35.9762821 36.6551282 36.1102564 36.6551282 36.2416667 36.6551282 36.3519231 36.5461538 36.3519231 36.4121795 36.3519231 36.2782051 36.2416667 36.1698718 36.1102564 36.1698718M37.0416667 36.1698718C36.9076923 36.1698718 36.7987179 36.2782051 36.7987179 36.4121795 36.7987179 36.5461538 36.9076923 36.6551282 37.0416667 36.6551282 37.175641 36.6551282 37.2833333 36.5461538 37.2833333 36.4121795 37.2833333 36.2782051 37.175641 36.1698718 37.0416667 36.1698718M37.9730769 36.1698718C37.8403846 36.1698718 37.7314103 36.2782051 37.7314103 36.4121795 37.7314103 36.5461538 37.8403846 36.6551282 37.9730769 36.6551282 38.1083333 36.6551282 38.2160256 36.5461538 38.2160256 36.4121795 38.2160256 36.2782051 38.1083333 36.1698718 37.9730769 36.1698718M38.9044872 36.1698718C38.7705128 36.1698718 38.6621795 36.2782051 38.6621795 36.4121795 38.6621795 36.5461538 38.7705128 36.6551282 38.9044872 36.6551282 39.0384615 36.6551282 39.1474359 36.5461538 39.1474359 36.4121795 39.1474359 36.2782051 39.0384615 36.1698718 38.9044872 36.1698718"/><polygon fill="#CCCBCA" points="60.604 30.525 63.786 30.525 63.786 27.185 60.604 27.185"/><polygon fill="#FFF" points="52.281 27.185 72.113 27.185 72.113 19.231 52.281 19.231"/><polygon fill="#242D3C" points="52.281 25.991 72.113 25.991 72.113 20.423 52.281 20.423"/><polygon fill="#21D8DE" points="70.204 24.242 70.84 24.242 70.84 22.174 70.204 22.174"/><polygon fill="#21D8DE" points="68.224 24.242 68.862 24.242 68.862 22.174 68.224 22.174"/><polygon fill="#21D8DE" points="66.246 24.242 66.883 24.242 66.883 22.174 66.246 22.174"/><polygon fill="#21D8DE" points="64.267 24.242 64.904 24.242 64.904 22.174 64.267 22.174"/><polygon fill="#21D8DE" points="62.29 24.242 62.924 24.242 62.924 22.174 62.29 22.174"/><polygon fill="#F15424" points="27.888 50.727 30.433 50.727 30.433 48.183 27.888 48.183"/><polygon fill="#F15424" points="32.21 50.727 34.754 50.727 34.754 48.183 32.21 48.183"/><polygon fill="#CCCBCA" points="36.533 50.727 39.076 50.727 39.076 48.183 36.533 48.183"/><polygon fill="#F15424" points="27.888 55.049 30.433 55.049 30.433 52.504 27.888 52.504"/><polygon fill="#F15424" points="32.21 55.049 34.754 55.049 34.754 52.504 32.21 52.504"/><polygon fill="#CCCBCA" points="36.533 55.049 39.076 55.049 39.076 52.504 36.533 52.504"/><polygon fill="#CCCBCA" points="27.888 59.371 30.433 59.371 30.433 56.826 27.888 56.826"/><polygon fill="#CCCBCA" points="32.21 59.371 34.754 59.371 34.754 56.826 32.21 56.826"/><polygon fill="#CCCBCA" points="36.533 59.371 39.076 59.371 39.076 56.826 36.533 56.826"/><polygon fill="#CCCBCA" points="27.888 63.692 30.433 63.692 30.433 61.147 27.888 61.147"/><polygon fill="#CCCBCA" points="32.21 63.692 34.754 63.692 34.754 61.147 32.21 61.147"/><polygon fill="#CCCBCA" points="36.533 63.692 39.076 63.692 39.076 61.147 36.533 61.147"/><polygon fill="#3E4959" points="42.246 50.727 44.79 50.727 44.79 48.183 42.246 48.183"/><polygon fill="#3E4959" points="42.246 55.049 44.79 55.049 44.79 52.504 42.246 52.504"/><polygon fill="#3E4959" points="42.246 59.371 44.79 59.371 44.79 56.826 42.246 56.826"/><polygon fill="#3E4959" points="42.246 63.692 44.79 63.692 44.79 61.147 42.246 61.147"/><polygon fill="#3E4959" points="46.567 50.727 49.112 50.727 49.112 48.183 46.567 48.183"/><polygon fill="#3E4959" points="46.567 55.049 49.112 55.049 49.112 52.504 46.567 52.504"/><polygon fill="#3E4959" points="46.567 59.371 49.112 59.371 49.112 56.826 46.567 56.826"/><polygon fill="#3E4959" points="46.567 63.692 49.112 63.692 49.112 61.147 46.567 61.147"/><polygon fill="#CCCBCA" points="56.602 50.727 59.147 50.727 59.147 48.183 56.602 48.183"/><polygon fill="#CCCBCA" points="60.924 50.727 63.471 50.727 63.471 48.183 60.924 48.183"/><polygon fill="#CCCBCA" points="65.247 50.727 67.79 50.727 67.79 48.183 65.247 48.183"/><polygon fill="#CCCBCA" points="69.567 50.727 72.113 50.727 72.113 48.183 69.567 48.183"/><polygon fill="#CCCBCA" points="56.602 55.049 59.147 55.049 59.147 52.504 56.602 52.504"/><polygon fill="#CCCBCA" points="60.924 55.049 63.471 55.049 63.471 52.504 60.924 52.504"/><polygon fill="#CCCBCA" points="65.247 55.049 67.79 55.049 67.79 52.504 65.247 52.504"/><polygon fill="#CCCBCA" points="69.567 55.049 72.113 55.049 72.113 52.504 69.567 52.504"/><polygon fill="#CCCBCA" points="56.602 59.371 59.147 59.371 59.147 56.826 56.602 56.826"/><polygon fill="#CCCBCA" points="60.924 59.371 63.471 59.371 63.471 56.826 60.924 56.826"/><polygon fill="#CCCBCA" points="65.247 59.371 67.79 59.371 67.79 56.826 65.247 56.826"/><polygon fill="#CCCBCA" points="69.567 59.371 72.113 59.371 72.113 56.826 69.567 56.826"/><polygon fill="#CCCBCA" points="56.602 63.692 59.147 63.692 59.147 61.147 56.602 61.147"/><polygon fill="#CCCBCA" points="52.281 50.727 54.824 50.727 54.824 48.183 52.281 48.183"/><polygon fill="#CCCBCA" points="52.281 55.049 54.824 55.049 54.824 52.504 52.281 52.504"/><polygon fill="#CCCBCA" points="52.281 59.371 54.824 59.371 54.824 56.826 52.281 56.826"/><polygon fill="#CCCBCA" points="52.281 63.692 54.824 63.692 54.824 61.147 52.281 61.147"/><polygon fill="#CCCBCA" points="60.924 63.692 63.471 63.692 63.471 61.147 60.924 61.147"/><polygon fill="#CCCBCA" points="65.247 63.692 67.79 63.692 67.79 61.147 65.247 61.147"/><polygon fill="#CCCBCA" points="69.567 63.692 72.113 63.692 72.113 61.147 69.567 61.147"/><g><path fill="#FFDB79" d="M8.28824663,0.785010811 C8.62910958,0.351461312 9.36164771,1.43529633e-12 9.9110519,1.43529633e-12 L53.0045791,1.43529633e-12 C54.1066196,1.43529633e-12 55,0.898212381 55,1.99079514 L55,18.0092049 C55,19.1086907 54.0999117,20 53.0045791,20 L9.9110519,20 C9.35566425,20 8.60000028,19.6766753 8.21764992,19.2719281 L0.323563049,10.9154301 L8.28824663,0.785010811 Z" transform="rotate(-25 123.577 -95.868)"/><text fill="#494949" font-family="Roboto-Bold, Roboto" font-size="7" font-weight="bold" transform="rotate(-25 123.577 -95.868)"><tspan x="10.887" y="7.798">специально</tspan> <tspan x="14.434" y="15.798">для 54ФЗ</tspan></text></g></g></svg>