<svg height="54" viewBox="0 0 54 54" width="54" xmlns="http://www.w3.org/2000/svg"><g fill="none" fill-rule="evenodd"><path d="m27 54c14.9116882 0 27-12.0883118 27-27s-12.0883118-27-27-27-27 12.0883118-27 27 12.0883118 27 27 27z" fill="#f7f7f7"/><path d="m42.999875 30.2995207c0-.3743531-.2989989-.6793555-.6659975-.6793555h-2.4099912-.5899978s-2.7879897-4.6080543-9.6679018-4.6080543c-.2254367 0-.4473109.0049718-.6660601.0149792v-5.4186533c1.1213084.2118126 2.0612424.9467505 2.568678 1.9472349.6054353-1.1936208 1.8266183-2.0097014 3.2358631-2.0097014 1.1611207 0 2.1954294.5546136 2.8614895 1.418564v-.0859234c0-5.0284286-3.8222984-9.1456107-8.6660306-9.494021v-.7046608c0-.3755641-.2989989-.6799291-.6659975-.6799291-.3688737 0-.6679351.304365-.6679351.6799291v.0012748.7033222c-4.8428571.3484103-8.6660305 4.4656562-8.6660305 9.4940211v.0859234c.666685-.8639505 1.7012437-1.4185641 2.8624269-1.4185641 1.4086823 0 2.6301778.8161444 3.2353006 2.0097015.5076231-1.0004845 1.4481822-1.7354224 2.568303-1.9472349v5.5392519c-5.5147296.7586497-8.1571574 4.4650187-8.1571574 4.4650187-11.25883348.0525229-8.1010326 7.6377451-8.1010326 7.6377451h3.6412365c.3036239 1.5679101 1.6580564 2.7496112 3.2846129 2.7496112 1.6259315 0 2.9806766-1.1817011 3.2839879-2.7496112h10.7653353c.3026864 1.5679101 1.6580564 2.7496112 3.2830504 2.7496112 1.6268065 0 2.981614-1.1817011 3.2849254-2.7496112h1.3829949.0575623c1.1961206 0 1.904993-.2818643 2.2745541-.5011983.00975-.0056093.0195625-.0125571.0293749-.0194411.1832493-.1218735.3045614-.3311364.3045614-.5699116v-5.8603171zm-17.2894363-11.3513169c-.2163117.1371714-.4209359.2902781-.6127477.4577267-.1914993-.1674486-.3961235-.3205553-.6124352-.4577267-.7864971-.4983937-1.6933688-.7623467-2.6228654-.7623467-.3848111 0-.7619347.0437265-1.1283708.130606.3859986-1.1951505 1.0441211-2.2906733 1.9426803-3.2070192 1.510682-1.5407562 3.5195496-2.3896637 5.6571667-2.3896637 2.1366171 0 4.1445472.8489075 5.6562291 2.3896637.8982467.9157722 1.5563068 2.011295 1.9436179 3.2070192-.3676862-.0868795-.7444973-.130606-1.1292459-.130606-.9295591 0-1.8370557.2640167-2.6231778.7623467-.2163117.1371714-.4203735.2902781-.6127478.4577267-.1918117-.1674486-.397061-.3205553-.6114977-.4577267-.7874346-.4983937-1.6942438-.7623467-2.6231778-.7623467-.9294966-.0000638-1.8369933.263953-2.6234279.7623467zm10.4849614 9.3952219c.6316852.4542847 1.1072459.9136687 1.4356197 1.2766758h-5.964978v-3.096428c.6599351.1030698 1.2941202.2580888 1.898243.4662044.953434.3255909 1.8381807.781724 2.6311153 1.3535478zm-10.5263362-1.3466638c1.2530579-.4143188 2.5986779-.624984 3.9969228-.624984.2249366 0 .4473108.0057367.667935.0169552v3.2313684h-9.0282167c.3710611-.3605212.8841842-.8035874 1.5398693-1.2429566.8700593-.5836159 1.8198058-1.0473343 2.8234896-1.380383zm-7.335473 11.6427424c-1.1114959 0-2.015305-.9211264-2.015305-2.053428 0-1.1336401.9038091-2.055404 2.015305-2.055404 1.1106209 0 2.0143676.9217639 2.0143676 2.055404.0000625 1.1323016-.9037467 2.053428-2.0143676 2.053428zm17.3323736 0c-1.1103084 0-2.0134925-.9211264-2.0134925-2.053428 0-1.1336401.9031841-2.055404 2.0134925-2.055404 1.1114959 0 2.0153051.9217639 2.0153051 2.055404 0 1.1323016-.9038092 2.053428-2.0153051 2.053428zm4.6776703-2.7483363h-.006125-.0036875-1.3884949c-.3143738-1.5542057-1.6629938-2.7202264-3.2794254-2.7202264-1.6151815 0-2.962614 1.1660207-3.2775504 2.7202264h-10.7765227c-.3143114-1.5542057-1.6626814-2.7202264-3.2781755-2.7202264-1.6158065 0-2.9638015 1.1660207-3.2787379 2.7202264h-2.6397402c-.1308121-.7292649-.1709369-1.8098085.4233734-2.7171031.9319966-1.424237 3.241113-2.18601 6.6767879-2.2028378l.4212484.0056093v.0037607h21.7293574v4.7368757c-.263499.0880268-.67581.1736952-1.2745578.1736952z" fill="#00417b"/></g></svg>