<svg width="80" height="80" viewBox="0 0 80 80" version="1.1" xmlns="http://www.w3.org/2000/svg" xmlns:xlink="http://www.w3.org/1999/xlink">
<title>Group 42</title>
<desc>Created using Figma</desc>
<g id="Canvas" transform="translate(773 2767)">
<g id="Group 42">
<g id="Vector">
<use xlink:href="#path0_fill" transform="matrix(1 3.88578e-16 -3.88578e-16 1 -773 -2767)" fill="#6B7F9E"/>
</g>
<mask id="mask0_alpha" mask-type="alpha">
<g id="Vector">
<use xlink:href="#path0_fill" transform="matrix(1 7.75455e-17 -7.75455e-17 1 -773 -2767)" fill="#6B7F9E"/>
</g>
</mask>
<g id="Group 2" mask="url(#mask0_alpha)">
<g id="Vector">
<use xlink:href="#path1_fill" transform="matrix(0.0838196 0.996481 -0.995343 0.0964009 -739.383 -2732.14)" fill="#FFFFFF"/>
</g>
<g id="Vector">
<use xlink:href="#path2_fill" transform="matrix(0.0838196 0.996481 -0.995343 0.0964009 -739.217 -2730.16)" fill="#6C7678"/>
</g>
<g id="Vector">
<use xlink:href="#path3_fill" transform="matrix(0.0838196 0.996481 -0.995343 0.0964009 -755.516 -2727.07)" fill="#596366"/>
</g>
<g id="Group">
<g id="Vector">
<use xlink:href="#path4_fill" transform="matrix(0.0838196 0.996481 -0.995343 0.0964009 -740.099 -2724.72)" fill="#FFE356"/>
</g>
<g id="Vector">
<use xlink:href="#path5_fill" transform="matrix(0.0838196 0.996481 -0.995343 0.0964009 -759.944 -2719.97)" fill="#FFE356"/>
</g>
</g>
<g id="Vector">
<use xlink:href="#path6_fill" transform="matrix(0.0838196 0.996481 -0.995343 0.0964009 -750.463 -2720.2)" fill="#6C7678"/>
</g>
<g id="Vector">
<use xlink:href="#path7_fill" transform="matrix(0.0838196 0.996481 -0.995343 0.0964009 -750.747 -2737.33)" fill="#FED298"/>
</g>
<g id="Vector">
<use xlink:href="#path8_fill" transform="matrix(0.0838196 0.996481 -0.995343 0.0964009 -756.146 -2723.11)" fill="#FEFEFE"/>
</g>
<g id="Vector">
<use xlink:href="#path9_fill" transform="matrix(0.0838196 0.996481 -0.995343 0.0964009 -750.283 -2731.9)" fill="#F0B97D"/>
</g>
</g>
<g id="Group 43" mask="url(#mask0_alpha)">
<g id="Vector">
<use xlink:href="#path10_fill" transform="matrix(-0.186068 -0.982537 0.983929 -0.178558 -706.346 -2722.23)" fill="#FED298"/>
</g>
<g id="Vector">
<use xlink:href="#path11_fill" transform="matrix(-0.186068 -0.982537 0.983929 -0.178558 -725.407 -2720.92)" fill="#83CF8F"/>
</g>
<g id="Vector">
<use xlink:href="#path12_fill" transform="matrix(-0.186068 -0.982537 0.983929 -0.178558 -724.46 -2722.29)" fill="#75BD80"/>
</g>
<g id="Vector">
<use xlink:href="#path13_fill" transform="matrix(-0.186068 -0.982537 0.983929 -0.178558 -722.234 -2725.51)" fill="#83CF8F"/>
</g>
<g id="Vector">
<use xlink:href="#path14_fill" transform="matrix(-0.186068 -0.982537 0.983929 -0.178558 -716.966 -2732.18)" fill="#75BD80"/>
</g>
<g id="&#226;&#130;&#189;">
<use xlink:href="#path15_fill" transform="matrix(0.866025 0.5 -0.5 0.866025 -714.567 -2739.8)" fill="#FFFFFF"/>
</g>
<g id="Vector">
<use xlink:href="#path16_fill" transform="matrix(-0.186068 -0.982537 0.983929 -0.178558 -728.491 -2715.83)" fill="#83CF8F"/>
</g>
<g id="Vector">
<use xlink:href="#path17_fill" transform="matrix(-0.186068 -0.982537 0.983929 -0.178558 -727.524 -2717.23)" fill="#75BD80"/>
</g>
<g id="Vector">
<use xlink:href="#path18_fill" transform="matrix(-0.186068 -0.982537 0.983929 -0.178558 -725.719 -2719.84)" fill="#83CF8F"/>
</g>
<g id="Vector">
<use xlink:href="#path19_fill" transform="matrix(-0.186068 -0.982537 0.983929 -0.178558 -718.074 -2725.58)" fill="#3FA344"/>
</g>
<g id="Vector">
<use xlink:href="#path20_fill" transform="matrix(-0.186068 -0.982537 0.983929 -0.178558 -715.894 -2727.92)" fill="#7DBF76"/>
</g>
<g id="Vector">
<use xlink:href="#path21_fill" transform="matrix(-0.186068 -0.982537 0.983929 -0.178558 -727.695 -2719.29)" fill="#83CF8F"/>
</g>
<g id="Vector">
<use xlink:href="#path22_fill" transform="matrix(-0.186068 -0.982537 0.983929 -0.178558 -726.955 -2720.36)" fill="#75BD80"/>
</g>
<g id="Vector">
<use xlink:href="#path23_fill" transform="matrix(-0.186068 -0.982537 0.983929 -0.178558 -726.208 -2721.44)" fill="#83CF8F"/>
</g>
<g id="Vector">
<use xlink:href="#path24_fill" transform="matrix(-0.186068 -0.982537 0.983929 -0.178558 -717.815 -2723.68)" fill="#75BD80"/>
</g>
<g id="&#226;&#130;&#189;">
<use xlink:href="#path25_fill" transform="matrix(0.965926 -0.258819 0.258819 0.965926 -717.208 -2730.79)" fill="#FFFFFF"/>
</g>
<g id="Vector">
<use xlink:href="#path26_fill" transform="matrix(-0.186068 -0.982537 0.983929 -0.178558 -725.242 -2709.21)" fill="#83CF8F"/>
</g>
<g id="Vector">
<use xlink:href="#path27_fill" transform="matrix(-0.186068 -0.982537 0.983929 -0.178558 -724.27 -2710.62)" fill="#75BD80"/>
</g>
<g id="Vector">
<use xlink:href="#path28_fill" transform="matrix(-0.186068 -0.982537 0.983929 -0.178558 -722.428 -2713.29)" fill="#83CF8F"/>
</g>
<g id="Vector">
<use xlink:href="#path29_fill" transform="matrix(-0.186068 -0.982537 0.983929 -0.178558 -714.848 -2719.13)" fill="#75BD80"/>
</g>
<g id="&#226;&#130;&#189;">
<use xlink:href="#path30_fill" transform="matrix(0.815191 -0.579192 0.579192 0.815191 -713.902 -2725.28)" fill="#FFFFFF"/>
</g>
<g id="Vector">
<use xlink:href="#path31_fill" transform="matrix(-0.186068 -0.982537 0.983929 -0.178558 -705.512 -2723.62)" fill="#FED298"/>
</g>
<g id="Vector">
<use xlink:href="#path32_fill" transform="matrix(-0.186068 -0.982537 0.983929 -0.178558 -706.083 -2728.68)" fill="#FFF7DF"/>
</g>
</g>
</g>
</g>
<defs>
<path id="path0_fill" d="M 40 80C 62.0914 80 80 62.0914 80 40C 80 17.9086 62.0914 0 40 0C 17.9086 0 0 17.9086 0 40C 0 62.0914 17.9086 80 40 80Z"/>
<path id="path1_fill" d="M -1.03398e-07 24.7849L -1.03398e-07 1.3513C -1.03398e-07 0.604034 0.616502 2.65171e-07 1.36119 2.65171e-07L 14.9093 2.65171e-07C 15.662 2.65171e-07 16.2705 0.612022 16.2705 1.3513L 16.2705 24.7849C 16.2705 25.5321 15.654 26.1362 14.9093 26.1362L 1.36119 26.1362C 0.608596 26.1362 -1.03398e-07 25.524 -1.03398e-07 24.7849Z"/>
<path id="path2_fill" d="M -9.1335e-07 2.65171e-07L 3.76339 2.65171e-07L 3.76339 26.1362L -9.1335e-07 26.1362L -9.1335e-07 2.65171e-07Z"/>
<path id="path3_fill" d="M 2.25806 -6.50096e-07L 2.25806 9.63412L 0.696688 9.63412C 0.256229 8.57686 4.48058e-07 7.29717 4.48058e-07 5.92191C 0.000141621 3.30677 0.92087 1.04928 2.25806 -6.50096e-07Z"/>
<path id="path4_fill" d="M -5.85923e-07 23.4654L -5.85923e-07 5.62788L 1.78556 5.62788L 1.78556 23.4654L -5.85923e-07 23.4654ZM -5.85923e-07 2.48063e-07L -5.85923e-07 2.96495L 1.78556 2.96495L 1.78556 2.48063e-07L -5.85923e-07 2.48063e-07Z"/>
<path id="path5_fill" d="M -1.10291e-06 2.98877L -1.10291e-06 0.302016C -1.10291e-06 0.135101 0.136089 -4.10587e-07 0.304226 -4.10587e-07L 2.96266 -4.10587e-07C 3.13079 -4.10587e-07 3.26688 0.135101 3.26688 0.302016L 3.26688 2.98877C 3.26688 3.15569 3.13079 3.29079 2.96266 3.29079L 0.304226 3.29079C 0.136231 3.29079 -1.10291e-06 3.15569 -1.10291e-06 2.98877Z"/>
<path id="path6_fill" d="M 1.89563e-06 8.3941L 1.89563e-06 4.6191e-07L 0.512456 4.6191e-07L 0.512456 8.3941L 1.89563e-06 8.3941ZM 1.27324 8.3941L 1.27324 4.6191e-07L 1.7857 4.6191e-07L 1.7857 8.3941L 1.27324 8.3941Z"/>
<path id="path7_fill" d="M 10.6024 10.3257C 10.5623 12.9251 11.331 14.1413 11.331 14.9758C 11.331 15.8104 10.0498 18.4257 10.0498 18.4257L 6.3586 14.5227L 6.26246 5.98772e-07C 6.26246 5.98772e-07 1.01775 6.60555 0.433293 8.34645C -0.151162 10.0872 0.0248796 22.0981 0.0248796 22.0981C 0.0248796 22.0981 6.03023 31.5495 8.59252 35.039L 8.59252 39.7448L 18.9538 39.7448L 18.6255 32.71C 18.6255 32.71 20.5312 23.5528 19.8666 20.4289C 19.21 17.3051 16.2794 13.6643 16.2794 13.6643C 16.2794 13.6643 16.1193 7.75027 15.2144 6.62951C 13.1726 4.07786 10.6343 7.74242 10.6023 10.3337L 10.6023 10.3257L 10.6024 10.3257Z"/>
<path id="path8_fill" d="M -1.37864e-07 0.161018L 0.112092 2.43448L 2.05788 2.38683L 1.60951 0.439349C 1.60951 0.439349 0.952918 -0.331739 0.000142034 0.169146L 0.000142034 0.161018L -1.37864e-07 0.161018Z"/>
<path id="path9_fill" d="M 1.75365 15.4051L 1.40128 15.4051C 0.632595 15.4051 5.34223e-07 14.7771 5.34223e-07 14.014L 5.34223e-07 1.04928C 0.496505 0.413433 0.816686 -3.59263e-07 0.816686 -3.59263e-07L 0.912825 14.5227L 1.7456 15.4051L 1.75365 15.4051Z"/>
<path id="path10_fill" d="M 14.8803 11.9497C 14.4904 15.9624 9.72706 23.613 9.76421 25.2119C 9.80136 26.8109 11.421 34.1189 11.421 34.1189L 1.48108 34.1189L 0.896463 25.1146C 0.833778 24.1452 -2.07309 13.8831 2.92864 9.67138L 5.47682 9.94304L 6.84052 11.7052C 9.81588 9.31561 11.3961 7.00947 8.88359 2.60724L 7.32373 2.67749C 5.86443 1.00535 6.68309 0.50749 8.51474 0.131905C 10.1773 -0.209281 11.4048 0.133364 12.3036 0.906533C 13.1214 1.84805 15.1856 8.7921 14.8787 11.9491L 14.8803 11.9497Z"/>
<path id="path11_fill" d="M 27.2482 8.28971L 9.59879 28.909L 3.10215e-07 20.6199L 17.6495 -5.1931e-08L 27.2482 8.28971Z"/>
<path id="path12_fill" d="M 15.5093 15.9147C 14.0552 17.6132 11.5055 17.8072 9.81371 16.3459C 8.12267 14.8847 7.93025 12.3237 9.38435 10.6251C 10.8392 8.9259 13.3889 8.73263 15.08 10.1939C 16.771 11.6544 16.9635 14.2162 15.5093 15.9147ZM 0.000726007 19.3461L 8.33274 26.5413L 24.8917 7.19444L 16.5597 2.15143e-07L 3.24987e-07 19.3468L 0.000726007 19.3461Z"/>
<path id="path13_fill" d="M 19.0781 2.89042L 15.731 -1.48374e-07C 14.8484 1.03158 13.3008 1.14863 12.2746 0.262058L -3.10215e-07 14.6021C 1.02631 15.4887 1.14358 17.0429 0.260905 18.0737L 3.60802 20.9642C 4.48996 19.9333 6.03736 19.8163 7.0644 20.7028L 19.3389 6.36293C 18.3119 5.47636 18.1961 3.92212 19.0787 2.89054L 19.0781 2.89054L 19.0781 2.89042Z"/>
<path id="path14_fill" d="M 6.68413 0.982061C 8.37953 2.44623 8.57194 5.01236 7.11494 6.71379C 5.65794 8.41668 3.1031 8.60921 1.40843 7.1465C -0.286244 5.68379 -0.478657 3.11693 0.978345 1.41477C 2.43535 -0.287389 4.99018 -0.480651 6.68486 0.982061L 6.68413 0.982061Z"/>
<path id="path15_fill" d="M 2.18228 3.51239L 1.0251 3.51239L 1.0251 4.57838L 0.641476 4.57838L 0.641476 3.51239L 0 3.51239L 0 3.18222L 0.641476 3.18222L 0.641476 2.71369L 0 2.71369L 0 2.38667L 0.641476 2.38667L 0.641476 0L 2.20114 0C 2.6833 0 3.05959 0.122635 3.33001 0.367905C 3.60254 0.611079 3.7388 0.942299 3.7388 1.36156C 3.7388 1.78921 3.60673 2.12148 3.34259 2.35837C 3.07845 2.59316 2.70112 2.7116 2.21058 2.71369L 1.0251 2.71369L 1.0251 3.18222L 2.18228 3.18222L 2.18228 3.51239ZM 1.0251 2.38667L 2.20114 2.38667C 2.5659 2.38667 2.84891 2.29862 3.05015 2.12253C 3.2514 1.94434 3.35203 1.69278 3.35203 1.36785C 3.35203 1.0534 3.2535 0.803941 3.05644 0.619464C 2.86149 0.434988 2.59211 0.338557 2.24831 0.330171L 1.0251 0.330171L 1.0251 2.38667Z"/>
<path id="path16_fill" d="M 24.3961 5.41254L 12.8729 33.0638L -2.95443e-08 27.652L 11.5237 1.33537e-07L 24.3961 5.41254Z"/>
<path id="path17_fill" d="M 15.0998 17.0487C 14.1501 19.327 11.5421 20.401 9.27302 19.4471C 7.00547 18.4932 5.93547 15.873 6.88518 13.5946C 7.8349 11.317 10.4429 10.2423 12.712 11.1969C 14.9803 12.1502 16.0488 14.7697 15.0998 17.0487ZM 6.49975e-07 25.9454L 11.1739 30.6427L 21.9856 4.69796L 10.8124 2.22562e-07L 6.49975e-07 25.9447L 6.49975e-07 25.9454Z"/>
<path id="path18_fill" d="M 16.0386 1.8874L 11.5501 -2.59655e-08C 10.9736 1.38225 9.3904 2.0346 8.01424 1.45615L 7.38608e-07 20.6867C 1.37689 21.265 2.02565 22.8552 1.44902 24.2375L 5.93825 26.1241C 6.51476 24.7419 8.09725 24.0903 9.47415 24.6687L 17.4884 5.43746C 16.1115 4.85913 15.4627 3.26892 16.0394 1.88667L 16.0386 1.8874Z"/>
<path id="path19_fill" d="M 6.18474 0.348952C 8.45665 1.30505 9.52822 3.92976 8.57693 6.21244C 7.62577 8.49512 5.01188 9.5707 2.73997 8.61521C 0.46734 7.65984 -0.604235 5.0344 0.347052 2.75172C 1.29834 0.469042 3.91199 -0.607147 6.18474 0.348952Z"/>
<path id="path20_fill" d="M 3.45723 1.37337C 3.32605 1.31843 3.20214 1.31406 3.08766 1.3617C 2.97173 1.40935 2.82603 1.53297 2.64741 1.73437L 3.71306 2.1824C 3.82463 1.76148 3.73859 1.49128 3.45796 1.37337L 3.45723 1.37337ZM 1.1299 2.16344C 1.26907 2.22202 1.39746 2.22713 1.51545 2.18033C 1.63429 2.13269 1.77273 2.02366 1.93307 1.85094L 0.873961 1.40583C 0.826524 1.59909 0.826522 1.76087 0.873233 1.89044C 0.919097 2.02001 1.00514 2.11081 1.13051 2.16356L 1.1299 2.16356L 1.1299 2.16344ZM 3.61685 0.890948C 3.86469 0.995601 4.03084 1.17501 4.1147 1.4305C 4.19784 1.68527 4.19118 1.98987 4.09352 2.34272L 4.72836 2.60988L 4.58036 2.96493L 3.96961 2.7087C 3.88357 2.91375 3.78518 3.10629 3.673 3.28557C 3.55997 3.46498 3.4507 3.6033 3.34348 3.70285L 2.9163 3.52271C 3.04676 3.39971 3.17503 3.24668 3.30113 3.06666C 3.42649 2.88507 3.52343 2.71308 3.59192 2.54984L 2.38639 2.04323C 2.11156 2.36898 1.86373 2.57476 1.64433 2.65972C 1.42421 2.74541 1.18956 2.73581 0.941728 2.63116C 0.702605 2.53088 0.545165 2.35512 0.469411 2.10473C 0.393656 1.85361 0.403095 1.56882 0.497849 1.24891L -2.0681e-07 1.03948L 0.148 0.684439L 0.640766 0.891679C 0.790217 0.558515 0.994245 0.261328 1.25007 -7.71547e-07L 1.5497 0.294268C 1.32812 0.521928 1.14805 0.773047 1.01034 1.0469L 2.19845 1.54622C 2.40986 1.29656 2.58836 1.11861 2.7349 1.01177C 2.88145 0.905656 3.02425 0.841964 3.16498 0.820693C 3.30488 0.800151 3.45578 0.823611 3.61685 0.890948Z"/>
<path id="path21_fill" d="M 13.9547 -1.89177e-07L 14.0232 29.9765L 0.0677671 30.0087L -1.62494e-07 0.0322105L 13.9547 -1.89177e-07Z"/>
<path id="path22_fill" d="M 10.5405 14.0669C 10.5463 16.537 8.55795 18.543 6.09932 18.5489C 3.64008 18.5547 1.64288 16.5575 1.63634 14.0873C 1.63126 11.6179 3.61963 9.61119 6.07826 9.60608C 8.5375 9.59952 10.5353 11.5974 10.5405 14.0669ZM 0.0648634 28.1542L 12.1769 28.1257L 12.1127 -1.26118e-07L 6.94291e-07 0.0278344L 0.0648634 28.1535L 0.0648634 28.1542Z"/>
<path id="path23_fill" d="M 7.56225 -2.59655e-08L 2.69618 0.0116687C 2.69908 1.51036 1.4921 2.72779 7.97696e-07 2.73143L 0.0481635 23.5784C 1.54026 23.5748 2.75306 24.7878 2.75669 26.2858L 7.62276 26.2741C 7.61913 24.7754 8.82612 23.558 10.3175 23.5544L 10.2701 2.70737C 8.77796 2.71028 7.56516 1.49796 7.56152 -2.59655e-08L 7.56225 -2.59655e-08Z"/>
<path id="path24_fill" d="M 4.45064 1.20206e-05C 6.91363 -0.0058223 8.9158 1.99644 8.92173 4.47031C 8.92754 6.94491 6.93481 8.95593 4.47182 8.96043C 2.00811 8.96626 0.00666491 6.96473 9.16855e-06 4.49086C -0.0050734 2.01626 1.98778 0.00584634 4.45064 1.20206e-05Z"/>
<path id="path25_fill" d="M 2.44252 3.93126L 1.14735 3.93126L 1.14735 5.12436L 0.717974 5.12436L 0.717974 3.93126L 0 3.93126L 0 3.56171L 0.717974 3.56171L 0.717974 3.03731L 0 3.03731L 0 2.67129L 0.717974 2.67129L 0.717974 0L 2.46364 0C 3.00329 0 3.42445 0.13726 3.72713 0.411779C 4.03215 0.683952 4.18466 1.05467 4.18466 1.52394C 4.18466 2.00258 4.03684 2.37448 3.74121 2.63961C 3.44557 2.9024 3.02323 3.03497 2.4742 3.03731L 1.14735 3.03731L 1.14735 3.56171L 2.44252 3.56171L 2.44252 3.93126ZM 1.14735 2.67129L 2.46364 2.67129C 2.8719 2.67129 3.18865 2.57274 3.4139 2.37565C 3.63914 2.17621 3.75177 1.89465 3.75177 1.53097C 3.75177 1.17903 3.64149 0.899814 3.42094 0.693338C 3.20273 0.486861 2.90123 0.378931 2.51643 0.369545L 1.14735 0.369545L 1.14735 2.67129Z"/>
<path id="path26_fill" d="M 12.7877 -2.04015e-07L 24.7343 27.4697L 11.9458 33.0806L 2.80671e-07 5.61018L 12.7877 -2.04015e-07Z"/>
<path id="path27_fill" d="M 15.2332 13.5325C 16.2179 15.7962 15.1888 18.4318 12.9357 19.4209C 10.6827 20.4092 8.05792 19.3763 7.07396 17.1125C 6.09 14.8488 7.1191 12.2132 9.37213 11.2249C 11.6252 10.2358 14.2499 11.2695 15.2339 13.5325L 15.2332 13.5325ZM 11.2083 30.6441L 22.3079 25.7748L 11.0996 1.18699e-07L 2.65899e-07 4.87007L 11.2089 30.6441L 11.2083 30.6441Z"/>
<path id="path28_fill" d="M 5.85366 4.00611e-07L 1.39432 1.9562C 1.992 3.32969 1.36733 4.93 -5.02253e-07 5.5296L 8.30794 24.6342C 9.67611 24.0339 11.2687 24.6613 11.8656 26.0347L 16.325 24.0777C 15.7273 22.705 16.3519 21.1054 17.7193 20.5051L 9.41073 1.40048C 8.04328 2.00154 6.45074 1.37337 5.85306 4.00611e-07L 5.85366 4.00611e-07Z"/>
<path id="path29_fill" d="M 2.67658 0.375655C 4.93396 -0.614842 7.5631 0.420991 8.54924 2.68835C 9.53538 4.95571 8.50555 7.59793 6.24744 8.5877C 3.98933 9.57819 1.36019 8.54309 0.374053 6.275C -0.612206 4.00764 0.41919 1.36688 2.67658 0.375655Z"/>
<path id="path30_fill" d="M 2.17576 3.50191L 1.02204 3.50191L 1.02204 4.56471L 0.639562 4.56471L 0.639562 3.50191L 0 3.50191L 0 3.17273L 0.639562 3.17273L 0.639562 2.7056L 0 2.7056L 0 2.37955L 0.639562 2.37955L 0.639562 0L 2.19457 0C 2.67529 0 3.05046 0.122269 3.32008 0.366807C 3.59179 0.609256 3.72764 0.939487 3.72764 1.3575C 3.72764 1.78388 3.59597 2.11515 3.33262 2.35133C 3.06927 2.58542 2.69306 2.70351 2.20398 2.7056L 1.02204 2.7056L 1.02204 3.17273L 2.17576 3.17273L 2.17576 3.50191ZM 1.02204 2.37955L 2.19457 2.37955C 2.55825 2.37955 2.84041 2.29176 3.04105 2.1162C 3.2417 1.93854 3.34202 1.68773 3.34202 1.36377C 3.34202 1.05026 3.24379 0.801542 3.04732 0.617616C 2.85295 0.43369 2.58437 0.337546 2.2416 0.329186L 1.02204 0.329186L 1.02204 2.37955Z"/>
<path id="path31_fill" d="M 8.11922 3.53421L 6.03307 8.18538L 8.02216 11.619C 10.2875 15.5299 -0.870389 14.1521 0.0546379 10.4893C 0.148665 10.1159 0.852721 7.75923 1.21358 7.38741L 3.79383 4.72611L 4.97541 1.94776C 6.17235 -1.68507 9.57053 0.298959 8.11922 3.53421Z"/>
<path id="path32_fill" d="M 0.757424 0.416154C 1.04895 -0.207631 2.51696 -0.112459 2.48925 0.58304L 1.90318 2.38986C 1.90318 2.38986 0.430808 1.78296 3.24987e-07 2.05159L 0.757424 0.416154Z"/>
</defs>
</svg>
