<svg width="54" height="54" viewBox="0 0 54 54" version="1.1" xmlns="http://www.w3.org/2000/svg" xmlns:xlink="http://www.w3.org/1999/xlink"><title>Group 27 Copy 2</title><desc>Created using Figma</desc><g id="Canvas" transform="translate(11407 -3276)"><g id="Group 27 Copy 2"><g id="Oval 38"><use xlink:href="#path0_fill" transform="translate(-11407 3276)" fill="#F7F7F7"/></g><g id="icons8-api_settings"><g id="Shape"><use xlink:href="#path1_fill" transform="translate(-11398 3285)" fill="#00417B"/></g></g></g></g><defs><path id="path0_fill" fill-rule="evenodd" d="M 27 54C 41.9117 54 54 41.9117 54 27C 54 12.0883 41.9117 0 27 0C 12.0883 0 0 12.0883 0 27C 0 41.9117 12.0883 54 27 54Z"/><path id="path1_fill" fill-rule="evenodd" d="M 15.6611 0L 14.6602 2.50024C 12.7578 2.90967 10.9834 3.6543 9.39941 4.67993L 6.92578 3.61694L 3.61914 6.92383L 4.67969 9.39917C 3.6543 10.9832 2.91211 12.7576 2.50195 14.6602L 0 15.6611L 0 20.3389L 2.5 21.3398C 2.91016 23.2424 3.6543 25.0168 4.67969 26.6008L 3.61719 29.0742L 6.92383 32.3809L 9.39941 31.3201C 10.9834 32.3457 12.7578 33.0881 14.6602 33.4978L 15.6611 36L 20.3389 36L 21.3398 33.4998C 23.2422 33.0903 25.0166 32.3457 26.6006 31.3201L 29.0742 32.3831L 32.3809 29.0762L 31.3203 26.6008C 32.3457 25.0168 33.0879 23.2424 33.498 21.3398L 36 20.3389L 36 15.6611L 33.5 14.6602C 33.0898 12.7576 32.3457 10.9832 31.3203 9.39917L 32.3828 6.92578L 29.0762 3.61914L 26.6006 4.67993C 25.0166 3.6543 23.2422 2.91187 21.3398 2.5022L 20.3389 0L 15.6611 0ZM 16.3789 1.05884L 19.6211 1.05884L 20.5557 3.39771L 20.8389 3.45142C 22.8242 3.83618 24.665 4.61377 26.2803 5.70361L 26.5195 5.86499L 28.834 4.87427L 31.1279 7.16772L 30.1348 9.47974L 30.2959 9.71973C 31.3857 11.3347 32.1641 13.1753 32.5479 15.1606L 32.6045 15.4438L 34.9414 16.3787L 34.9414 19.6213L 32.6016 20.5562L 32.5479 20.8394C 32.1641 22.8247 31.3857 24.6653 30.2959 26.2803L 30.1348 26.5203L 31.125 28.8342L 28.832 31.1277L 26.5195 30.135L 26.2803 30.2964C 24.665 31.3862 22.8242 32.1638 20.8389 32.5486L 20.5557 32.6042L 19.6211 34.9412L 16.3789 34.9412L 15.4434 32.6023L 15.1602 32.5486C 13.1748 32.1638 11.335 31.3862 9.71973 30.2964L 9.47949 30.135L 7.16504 31.1257L 4.87207 28.8323L 5.86426 26.5203L 5.70312 26.2803C 4.61328 24.6653 3.83594 22.8247 3.45117 20.8394L 3.39551 20.5562L 1.05859 19.6213L 1.05859 16.3787L 3.39746 15.4438L 3.45117 15.1606C 3.83594 13.1753 4.61328 11.3347 5.70312 9.71973L 5.86426 9.47974L 4.87402 7.16577L 7.16797 4.87231L 9.47949 5.86499L 9.71973 5.70361C 11.335 4.61377 13.1748 3.83618 15.1602 3.45142L 15.4434 3.39575L 16.3789 1.05884ZM 17.4707 2.64697C 17.4707 2.35547 17.709 2.11768 18 2.11768C 18.292 2.11768 18.5293 2.35547 18.5293 2.64697C 18.5293 2.93872 18.292 3.17651 18 3.17651C 17.709 3.17651 17.4707 2.93872 17.4707 2.64697ZM 18 5.29419C 17.709 5.29419 17.4707 5.53198 17.4707 5.82349C 17.4707 6.11523 17.709 6.35303 18 6.35303C 18.292 6.35303 18.5293 6.11523 18.5293 5.82349C 18.5293 5.53198 18.292 5.29419 18 5.29419ZM 15.5205 5.53809C 15.5557 5.53198 15.5908 5.52783 15.626 5.52783C 15.8779 5.52979 16.0947 5.70776 16.1445 5.95386C 16.2002 6.24121 16.0146 6.51831 15.7275 6.57642C 15.4414 6.63428 15.1621 6.448 15.1045 6.16064C 15.0488 5.87329 15.2354 5.59619 15.5205 5.53809ZM 20.3906 5.52783C 20.1318 5.52148 19.9072 5.70142 19.8574 5.95386C 19.7998 6.24121 19.9854 6.51831 20.2725 6.57617C 20.5605 6.63403 20.8379 6.448 20.8955 6.16064C 20.9531 5.87305 20.7676 5.59595 20.4795 5.53809C 20.4512 5.53198 20.4199 5.52783 20.3906 5.52783ZM 22.1689 6.54541C 22.2539 6.34473 22.4531 6.21436 22.6719 6.2207C 22.7383 6.2207 22.8018 6.23511 22.8623 6.26001C 23.1328 6.37158 23.2617 6.68188 23.1475 6.95068C 23.0361 7.22168 22.7275 7.34985 22.459 7.23804C 22.3291 7.18433 22.2256 7.08105 22.1719 6.95264C 22.1182 6.82251 22.1182 6.67554 22.1689 6.54541ZM 13.3428 6.2207C 13.2725 6.2207 13.2041 6.23315 13.1387 6.26196C 12.8672 6.37378 12.7393 6.68188 12.8525 6.95288C 12.9648 7.22168 13.2725 7.34985 13.542 7.23828C 13.6719 7.18652 13.7754 7.08301 13.8291 6.95288C 13.8828 6.82251 13.8828 6.67773 13.8311 6.54736C 13.748 6.35107 13.5557 6.22266 13.3428 6.2207ZM 6.76855 6.76855C 6.87012 6.66919 7.00879 6.61353 7.15137 6.61548C 7.29004 6.61548 7.41992 6.67139 7.51953 6.76855C 7.72461 6.97534 7.72461 7.3125 7.51953 7.51929C 7.3125 7.72388 6.97559 7.72388 6.76855 7.51929C 6.56445 7.3125 6.56445 6.97534 6.76855 6.76855ZM 28.8633 6.61548C 28.7207 6.61353 28.582 6.66919 28.4805 6.76855C 28.2764 6.97534 28.2764 7.3125 28.4805 7.51929C 28.6875 7.72388 29.0244 7.72388 29.2314 7.51929C 29.4365 7.3125 29.4365 6.97534 29.2314 6.76855C 29.1318 6.67139 29.002 6.61548 28.8633 6.61548ZM 10.9414 7.43457C 11.0283 7.37451 11.1338 7.34351 11.2412 7.34546C 11.415 7.34766 11.5781 7.43457 11.6738 7.57935C 11.752 7.69702 11.7812 7.83984 11.7539 7.97827C 11.7275 8.11694 11.6465 8.23682 11.5293 8.31543C 11.2852 8.47681 10.9561 8.4126 10.7949 8.1687C 10.6318 7.92456 10.6973 7.5979 10.9414 7.43457ZM 24.7744 7.3457C 24.5947 7.34155 24.4258 7.43042 24.3262 7.57935C 24.1631 7.82324 24.2285 8.1521 24.4707 8.31348C 24.7148 8.47681 25.042 8.41064 25.2051 8.1687C 25.3682 7.92456 25.3018 7.5979 25.0586 7.43457C 24.9756 7.37866 24.876 7.34766 24.7744 7.3457ZM 9.0166 9.0166C 9.11523 8.91309 9.25391 8.85742 9.39648 8.85938C 9.53516 8.86353 9.66602 8.91724 9.7627 9.0166C 9.96973 9.22144 9.96973 9.55835 9.7627 9.76318C 9.55859 9.96997 9.2207 9.96997 9.0166 9.76318C 8.80957 9.55835 8.80957 9.22144 9.0166 9.0166ZM 26.6172 8.85938C 26.4746 8.85938 26.3359 8.91528 26.2373 9.0166C 26.0303 9.22119 26.0303 9.55835 26.2373 9.76318C 26.4414 9.96997 26.7793 9.96997 26.9834 9.76318C 27.1904 9.55835 27.1904 9.22119 26.9834 9.0166C 26.8867 8.91724 26.7559 8.86133 26.6172 8.85938ZM 27.8291 10.7952C 27.918 10.7351 28.0234 10.7041 28.1309 10.7041C 28.3047 10.7061 28.4688 10.7952 28.5635 10.9399C 28.7266 11.1838 28.6602 11.5107 28.4189 11.6741C 28.1748 11.8374 27.8477 11.7712 27.6846 11.5293C 27.5215 11.2852 27.5869 10.9563 27.8291 10.7952ZM 7.88477 10.7041C 7.70508 10.7021 7.53516 10.791 7.43652 10.9419C 7.27344 11.1838 7.33887 11.5127 7.58301 11.6741C 7.8252 11.8374 8.1543 11.7712 8.31543 11.5293C 8.39355 11.4136 8.42285 11.2688 8.39551 11.1323C 8.36914 10.9937 8.28809 10.8716 8.1709 10.7952C 8.08594 10.7373 7.98828 10.7063 7.88477 10.7041ZM 6.26172 13.136C 6.34473 12.9353 6.54297 12.8049 6.76074 12.8113C 6.82715 12.8113 6.89258 12.8257 6.95312 12.8506C 7.22363 12.9622 7.35156 13.2725 7.23828 13.5413C 7.12695 13.8123 6.81836 13.9404 6.54785 13.8286C 6.27637 13.717 6.14844 13.4067 6.26172 13.136ZM 29.252 12.8113C 29.1816 12.8091 29.1133 12.8237 29.0479 12.8506C 28.7764 12.9622 28.6484 13.2725 28.7617 13.5413C 28.874 13.8123 29.1816 13.9404 29.4531 13.8286C 29.7236 13.717 29.8516 13.4067 29.7383 13.136C 29.6572 12.9395 29.4648 12.8113 29.252 12.8113ZM 24.2686 13.7646C 24.293 13.7605 24.3203 13.7583 24.3447 13.7563C 24.376 13.7563 24.4053 13.7605 24.4355 13.7646L 25.4121 13.7646C 25.6025 13.7625 25.7803 13.8618 25.877 14.0273C 25.9727 14.1926 25.9727 14.3953 25.877 14.5608C 25.7803 14.7263 25.6025 14.8254 25.4121 14.8235L 24.8828 14.8235L 24.8828 21.1763L 25.4121 21.1763C 25.6025 21.1743 25.7803 21.2737 25.877 21.439C 25.9727 21.6045 25.9727 21.8071 25.877 21.9727C 25.7803 22.1379 25.6025 22.2373 25.4121 22.2351L 24.4355 22.2351C 24.3799 22.2456 24.3223 22.2456 24.2646 22.2351L 23.2949 22.2351C 23.1045 22.2373 22.9268 22.1379 22.8291 21.9727C 22.7344 21.8071 22.7344 21.6045 22.8291 21.439C 22.9268 21.2737 23.1045 21.1743 23.2949 21.1763L 23.8242 21.1763L 23.8242 14.8235L 23.2949 14.8235C 23.1045 14.8254 22.9268 14.7263 22.8291 14.5608C 22.7344 14.3953 22.7344 14.1926 22.8291 14.0273C 22.9268 13.8618 23.1045 13.7625 23.2949 13.7646L 24.2686 13.7646ZM 12.168 13.7646C 11.9365 13.7668 11.7314 13.9219 11.668 14.1453L 9.5498 21.4246C 9.53516 21.4722 9.5293 21.522 9.5293 21.5715L 9.5293 21.7058C 9.52734 21.8962 9.62695 22.074 9.79199 22.1711C 9.95703 22.2664 10.1602 22.2664 10.3252 22.1711C 10.4912 22.074 10.5898 21.8962 10.5879 21.7058L 10.5879 21.6479L 11.0332 20.1177L 13.3203 20.1177L 13.7646 21.6479L 13.7646 21.7058C 13.7627 21.8962 13.8623 22.074 14.0273 22.1711C 14.1924 22.2664 14.3955 22.2664 14.5605 22.1711C 14.7266 22.074 14.8252 21.8962 14.8232 21.7058L 14.8232 21.5715C 14.8232 21.522 14.8174 21.4722 14.8027 21.4246L 12.6855 14.1453C 12.6191 13.9177 12.4082 13.7605 12.168 13.7646ZM 16.4121 14.2939C 16.4121 14.0024 16.6494 13.7646 16.9414 13.7646L 19.0596 13.7646C 20.2236 13.7646 21.1768 14.718 21.1768 15.8823L 21.1768 17.4705C 21.1768 18.6348 20.2236 19.5881 19.0596 19.5881L 17.4707 19.5881L 17.4707 21.7058C 17.4727 21.896 17.374 22.074 17.208 22.1711C 17.043 22.2664 16.8398 22.2664 16.6748 22.1711C 16.5088 22.074 16.4102 21.896 16.4121 21.7058L 16.4121 19.1416C 16.4014 19.0857 16.4014 19.0278 16.4121 18.9697L 16.4121 14.2939ZM 17.4707 14.8235L 19.0586 14.8235C 19.6504 14.8235 20.1182 15.2908 20.1182 15.8823L 20.1182 17.4705C 20.1182 18.062 19.6504 18.5293 19.0586 18.5293L 17.4707 18.5293L 17.4707 14.8235ZM 5.53809 15.5205C 5.58789 15.2681 5.8125 15.0881 6.07129 15.0964C 6.10059 15.0964 6.13184 15.0986 6.16016 15.1047C 6.29883 15.1316 6.41895 15.2144 6.49707 15.3301C 6.57617 15.448 6.60254 15.5908 6.57617 15.7273C 6.51855 16.0146 6.24121 16.2007 5.95312 16.145C 5.66602 16.0872 5.48047 15.8079 5.53809 15.5205ZM 29.9453 15.0964C 29.9102 15.0945 29.875 15.0986 29.8398 15.1047C 29.7031 15.1316 29.5811 15.2124 29.5029 15.3301C 29.4258 15.446 29.3975 15.5886 29.4238 15.7273C 29.4512 15.8657 29.5312 15.9858 29.6494 16.0642C 29.7646 16.1428 29.9082 16.1719 30.0459 16.145C 30.1846 16.116 30.3047 16.0354 30.3838 15.9194C 30.4619 15.8018 30.4912 15.6589 30.4639 15.5205C 30.4141 15.2744 30.1973 15.0964 29.9453 15.0964ZM 13.0117 19.0588L 12.1768 16.1885L 11.3408 19.0588L 13.0117 19.0588ZM 2.64648 17.4707C 2.35547 17.4707 2.11719 17.7085 2.11719 18C 2.11719 18.2917 2.35547 18.5295 2.64648 18.5295C 2.93848 18.5295 3.17578 18.2917 3.17578 18C 3.17578 17.7085 2.93848 17.4707 2.64648 17.4707ZM 5.29395 18C 5.29395 17.7085 5.53223 17.4707 5.82324 17.4707C 6.11523 17.4707 6.35254 17.7085 6.35254 18C 6.35254 18.2917 6.11523 18.5295 5.82324 18.5295C 5.53223 18.5295 5.29395 18.2917 5.29395 18ZM 30.1768 17.4707C 29.8857 17.4707 29.6475 17.7085 29.6475 18C 29.6475 18.2917 29.8857 18.5295 30.1768 18.5295C 30.4688 18.5295 30.7061 18.2917 30.7061 18C 30.7061 17.7085 30.4688 17.4707 30.1768 17.4707ZM 32.8232 18C 32.8232 17.7085 33.0615 17.4707 33.3525 17.4707C 33.6445 17.4707 33.8818 17.7085 33.8818 18C 33.8818 18.2917 33.6445 18.5295 33.3525 18.5295C 33.0615 18.5295 32.8232 18.2917 32.8232 18ZM 29.9551 19.8447C 29.6982 19.8384 29.4736 20.0183 29.4238 20.2727C 29.3662 20.5581 29.5518 20.8374 29.8389 20.8953C 30.127 20.9509 30.4043 20.7649 30.4619 20.4795C 30.5195 20.1921 30.334 19.9128 30.0459 19.855C 30.0176 19.8508 29.9863 19.8467 29.9551 19.8447ZM 5.95605 19.855C 5.98926 19.8486 6.02441 19.8467 6.06152 19.8467C 6.31152 19.8486 6.52832 20.0266 6.57617 20.2727C 6.60547 20.4111 6.57617 20.554 6.49805 20.6697C 6.41895 20.7876 6.29883 20.8682 6.16016 20.8953C 6.02246 20.9221 5.87891 20.8931 5.76367 20.8167C 5.64551 20.738 5.56543 20.616 5.53809 20.4795C 5.51172 20.3408 5.54004 20.1982 5.61719 20.0803C 5.69531 19.9646 5.81738 19.8838 5.95605 19.855ZM 6.75586 22.1299C 6.68359 22.1299 6.61328 22.1423 6.5498 22.1692C 6.27832 22.283 6.15039 22.5911 6.26172 22.8621C 6.37402 23.1328 6.68359 23.261 6.95508 23.1475C 7.22363 23.0356 7.35156 22.7275 7.24023 22.4565C 7.15918 22.2603 6.9668 22.1318 6.75586 22.1299ZM 28.7617 22.4565C 28.8447 22.2539 29.043 22.1255 29.2607 22.1296C 29.3271 22.1318 29.3926 22.1443 29.4531 22.1689C 29.7236 22.2808 29.8516 22.5908 29.7383 22.8618C 29.6865 22.99 29.583 23.0935 29.4531 23.1472C 29.3223 23.2009 29.1777 23.2009 29.0479 23.1472C 28.7764 23.0356 28.6484 22.7273 28.7617 22.4565ZM 28.1328 24.2351C 27.9531 24.231 27.7842 24.3198 27.6846 24.4688C 27.5215 24.7126 27.5869 25.0415 27.8291 25.2048C 27.9473 25.2815 28.0898 25.3103 28.2285 25.2834C 28.3672 25.2546 28.4873 25.1738 28.5654 25.0559C 28.7266 24.814 28.6631 24.4854 28.4189 24.3218C 28.334 24.2661 28.2363 24.2351 28.1328 24.2351ZM 7.58301 24.324C 7.66992 24.2639 7.77539 24.2329 7.88281 24.2349C 8.05664 24.2371 8.21973 24.324 8.31543 24.4688C 8.39355 24.5864 8.42285 24.7292 8.39551 24.8677C 8.36914 25.0063 8.28809 25.1262 8.1709 25.2048C 7.92676 25.3662 7.59766 25.302 7.43652 25.0581C 7.27344 24.814 7.33887 24.4873 7.58301 24.324ZM 9.39648 26.0796C 9.25391 26.0776 9.11523 26.1333 9.0166 26.2349C 8.80957 26.4417 8.80957 26.7766 9.0166 26.9834C 9.2207 27.1902 9.55859 27.1902 9.7627 26.9834C 9.96973 26.7766 9.96973 26.4417 9.7627 26.2349C 9.66602 26.1375 9.53516 26.0818 9.39648 26.0796ZM 26.2354 26.2368C 26.3369 26.1335 26.4746 26.0776 26.6182 26.0818C 26.7559 26.0837 26.8867 26.1377 26.9834 26.2368C 27.1904 26.4417 27.1904 26.7786 26.9834 26.9834C 26.7773 27.1902 26.4424 27.1902 26.2354 26.9834C 26.0283 26.7786 26.0283 26.4417 26.2354 26.2368ZM 24.7725 27.5935C 24.665 27.5935 24.5596 27.6245 24.4707 27.6846C 24.2285 27.8457 24.1631 28.1746 24.3262 28.4165C 24.4893 28.6606 24.8164 28.7268 25.0605 28.5635C 25.3018 28.4001 25.3682 28.0732 25.2051 27.8293C 25.1104 27.6846 24.9463 27.5955 24.7725 27.5935ZM 10.7949 27.8293C 10.8965 27.6804 11.0664 27.5916 11.2461 27.5957C 11.3477 27.5957 11.4463 27.6267 11.5312 27.6846C 11.7734 27.8459 11.8398 28.1746 11.6758 28.4165C 11.5127 28.6606 11.1865 28.7268 10.9424 28.5635C 10.7002 28.4001 10.6338 28.0732 10.7949 27.8293ZM 7.15137 28.3254C 7.00781 28.3235 6.87012 28.3792 6.76855 28.4807C 6.56152 28.6875 6.56152 29.0244 6.76855 29.2312C 6.97559 29.436 7.31055 29.436 7.5166 29.2312C 7.72363 29.0244 7.72363 28.6875 7.5166 28.4807C 7.41992 28.3833 7.28906 28.3296 7.15137 28.3254ZM 28.4805 28.4807C 28.582 28.3816 28.7207 28.3257 28.8633 28.3257C 29.002 28.3276 29.1318 28.3835 29.2314 28.4807C 29.4365 28.6875 29.4365 29.0247 29.2314 29.2314C 29.0244 29.4363 28.6875 29.4363 28.4805 29.2314C 28.2764 29.0247 28.2764 28.6875 28.4805 28.4807ZM 13.3516 28.7207C 13.1338 28.7144 12.9355 28.8447 12.8525 29.0454C 12.7393 29.3162 12.8672 29.6265 13.1387 29.738C 13.4092 29.8499 13.7178 29.7217 13.8311 29.4507C 13.9424 29.1819 13.8145 28.8716 13.5439 28.76C 13.4834 28.7351 13.418 28.7207 13.3516 28.7207ZM 22.459 28.76C 22.5225 28.7332 22.5928 28.7185 22.665 28.7207C 22.876 28.7207 23.0684 28.8508 23.1494 29.0454C 23.2607 29.3162 23.1328 29.6265 22.8643 29.738C 22.5928 29.8499 22.2832 29.7217 22.1709 29.4507C 22.0596 29.1819 22.1875 28.8716 22.459 28.76ZM 15.6406 29.4136C 15.3818 29.4072 15.1562 29.5872 15.1045 29.8396C 15.0781 29.978 15.1064 30.1208 15.1855 30.2366C 15.2637 30.3545 15.3838 30.4351 15.5225 30.4619C 15.8096 30.5198 16.0869 30.3337 16.1445 30.0464C 16.1719 29.9077 16.1426 29.7651 16.0664 29.6492C 15.9873 29.5312 15.8652 29.4507 15.7266 29.4238C 15.6982 29.4177 15.6689 29.4136 15.6406 29.4136ZM 20.2725 29.4236C 20.3076 29.4175 20.3428 29.4133 20.3779 29.4133C 20.6309 29.4153 20.8457 29.5933 20.8955 29.8394C 20.9531 30.1267 20.7676 30.4038 20.4795 30.4619C 20.1924 30.5198 19.915 30.3335 19.8574 30.0461C 19.7998 29.7588 19.9854 29.4817 20.2725 29.4236ZM 18 29.647C 17.709 29.647 17.4707 29.8848 17.4707 30.1763C 17.4707 30.468 17.709 30.7058 18 30.7058C 18.292 30.7058 18.5293 30.468 18.5293 30.1763C 18.5293 29.8848 18.292 29.647 18 29.647ZM 17.4707 33.3528C 17.4707 33.0613 17.709 32.8235 18 32.8235C 18.292 32.8235 18.5293 33.0613 18.5293 33.3528C 18.5293 33.6445 18.292 33.8823 18 33.8823C 17.709 33.8823 17.4707 33.6445 17.4707 33.3528Z"/></defs></svg>