<svg xmlns="http://www.w3.org/2000/svg" viewBox="0 0 32 32">
    <path style="text-indent:0;text-align:start;line-height:normal;text-transform:none;block-progression:tb;-inkscape-font-specification:Sans" d="M 16 1 C 14.895431 1 14 1.8954305 14 3 C 14 3.7396043 14.403104 4.3727074 15 4.71875 L 15 7 L 10 7 C 7.2504839 7 5 9.2504839 5 12 L 5 14 L 3 14 L 2 14 L 2 15 L 2 21 L 2 22 L 3 22 L 5 22 L 5 26 L 5 27 L 6 27 L 26 27 L 27 27 L 27 26 L 27 22 L 29 22 L 30 22 L 30 21 L 30 15 L 30 14 L 29 14 L 27 14 L 27 12 C 27 9.2504839 24.749516 7 22 7 L 17 7 L 17 4.71875 C 17.596896 4.3727074 18 3.7396043 18 3 C 18 1.8954305 17.104569 1 16 1 z M 10 9 L 22 9 C 23.668484 9 25 10.331516 25 12 L 25 14 L 25 22 L 25 25 L 23 25 L 23 21 L 23 20 L 22 20 L 10 20 L 9 20 L 9 21 L 9 25 L 7 25 L 7 22 L 7 21 L 7 15 L 7 14 L 7 12 C 7 10.331516 8.3315161 9 10 9 z M 12 13 C 10.895431 13 10 13.895431 10 15 C 10 16.104569 10.895431 17 12 17 C 13.104569 17 14 16.104569 14 15 C 14 13.895431 13.104569 13 12 13 z M 20 13 C 18.895431 13 18 13.895431 18 15 C 18 16.104569 18.895431 17 20 17 C 21.104569 17 22 16.104569 22 15 C 22 13.895431 21.104569 13 20 13 z M 4 16 L 5 16 L 5 20 L 4 20 L 4 16 z M 27 16 L 28 16 L 28 20 L 27 20 L 27 16 z M 11 22 L 13 22 L 13 25 L 11 25 L 11 22 z M 15 22 L 17 22 L 17 25 L 15 25 L 15 22 z M 19 22 L 21 22 L 21 25 L 19 25 L 19 22 z"></path>
</svg>