<svg width="64" height="70" viewBox="0 0 64 70" version="1.1" xmlns="http://www.w3.org/2000/svg" xmlns:xlink="http://www.w3.org/1999/xlink">
<title>icons8-add_user_group_man_woman</title>
<desc>Created using Figma</desc>
<g id="Canvas" transform="translate(-3725 -1146)">
<g id="icons8-add_user_group_man_woman">
<g id="surface1">
<g id="Vector">
<use xlink:href="#path0_fill" transform="translate(3725 1146)" fill="#9DA6AA"/>
</g>
</g>
</g>
</g>
<defs>
<path id="path0_fill" d="M 26 0C 23.8008 0 20.6484 0.78062 18.6875 2.26689C 14.9688 2.41683 12.4219 5.37613 12 10.051C 11.75 12.9398 11.9805 15.0038 12.1406 16.371C 12.1914 16.8473 12.25 17.3853 12.2305 17.5441L 12.1406 18.188C 11.9805 18.188 11.832 18.2233 11.7109 18.2586C 10.0508 18.7525 9.35938 21.4737 10.0977 24.5917C 10.6406 26.8366 11.7617 28.5301 12.9883 29.0505C 13.6211 31.2424 14.5508 33.4079 15.7109 35.3705L 6.49219 41.4037C 2.49219 44.0102 0 48.888 0 54.1053L 0 62.0968C 0 63.9579 1.35156 65.4839 3 65.4839L 41.6289 65.4839C 43.9922 68.2624 47.3203 70 51 70C 58.1719 70 64 63.4199 64 55.3226C 64 49.2717 60.7383 44.0631 56.0977 41.8183C 56.0898 41.8183 56.0898 41.8095 56.0898 41.8095C 55.7383 41.4699 55.3594 41.1656 54.9688 40.8701L 50.6875 37.7564C 53.9727 36.8259 55.9219 35.7277 59.1133 33.8357C 59.6406 33.5226 60.0273 32.9801 60.1719 32.3494C 60.3164 31.732 60.2227 31.1013 59.9102 30.5677L 58.1992 27.6084C 57.293 26.0471 56.6484 24.3271 56.2773 22.5057L 54.5781 14.1394C 53.2969 7.82825 48.457 3.21069 42.75 2.80494C 41.957 2.22719 41.0508 1.92288 40.1172 1.92288C 38.9297 1.92288 37.1406 1.92729 35.3594 2.5756C 33.0391 0.904108 30.2109 0 27 0L 26 0ZM 26 2.25806L 27 2.25806C 33.0703 2.25806 37.4492 5.75983 39.25 11.943C 38.5586 11.8548 37.8477 11.9563 37.3477 12.4899C 36.9688 12.9045 36.6094 13.6851 37.0703 15.0832C 37.6797 16.9796 37.9023 18.0998 37.9688 19.6787C 37.9922 20.0844 38.1914 20.4461 38.5117 20.6401C 38.8281 20.8165 39.2109 20.7989 39.5117 20.5696C 39.6797 20.4593 39.7578 20.4461 39.7812 20.4328C 40.0195 20.5387 40.4609 21.9015 39.9688 24.0052C 39.7188 25.0416 39.3594 25.7869 39.0195 26.2632C 38.6914 26.7351 38.3789 26.9601 38.2305 26.9601C 37.7891 26.9601 37.3984 27.2864 37.2695 27.7715C 36.6797 30.0076 35.7617 32.2656 34.5703 34.2414C 34.1992 34.8765 33.8008 35.4851 33.3594 36.0585C 31.3398 38.7796 28.7812 40.6452 26 40.6452C 23.2188 40.6452 20.6602 38.7796 18.6406 36.0585C 18.1992 35.4851 17.8008 34.8765 17.4297 34.2414C 16.2383 32.2656 15.3203 30.0076 14.7305 27.7715C 14.6016 27.2864 14.2109 26.9601 13.7695 26.9601C 13.4688 26.9601 12.5312 26.0824 12.0312 24.0052C 11.8594 23.3039 11.8008 22.6953 11.8008 22.1749C 11.8008 21.1253 12.0625 20.4902 12.2109 20.4328C 12.2227 20.4328 12.3008 20.4461 12.4883 20.5696C 12.7891 20.7989 13.1719 20.8165 13.4883 20.6401C 13.8086 20.4461 14.0078 20.0844 14.0312 19.6787C 14.0508 19.0921 14.1094 18.5055 14.1992 17.941C 14.2773 17.4559 14.2109 16.9134 14.1211 16.0887C 13.9805 14.823 13.7617 12.9045 14 10.2715C 14.3086 6.67276 16.1914 4.51613 19.0195 4.51613C 19.2305 4.51613 19.4375 4.43674 19.6211 4.2912C 20.9883 3.12689 23.7305 2.25806 26 2.25806ZM 40.1172 4.18095C 40.7227 4.18095 41.3125 4.40146 41.8164 4.82485C 41.9766 4.96157 42.1719 5.03654 42.375 5.04536C 47.3086 5.26588 51.5273 9.21308 52.6289 14.6421L 54.3281 23.0084C 54.75 25.0945 55.4883 27.0571 56.5273 28.8432L 58.1875 31.8378C 54.5781 33.9768 52.6367 35.0529 48.3281 36.0452L 46.4297 34.6648C 48.3164 32.8434 49.0664 30.9734 49.7617 28.8609C 49.8594 28.5566 50.0781 28.2567 50.4492 27.9215C 51.2344 27.1938 51.793 25.8531 51.9023 24.4153C 52.0352 22.66 51.707 21.359 50.9258 20.5519C 50.6914 20.3093 50.6445 20.1682 50.6367 20.1021L 50.6094 19.833C 50.5 18.7569 50.3867 17.7382 50.207 17.1119C 50.0742 16.64 49.6758 16.3225 49.2422 16.3225L 47.3438 16.3225C 46.0547 16.3048 45.5 16.1813 44.6602 15.9961C 44.4453 15.9432 44.2148 15.8947 43.9531 15.8417C 43.4141 15.7315 42.8906 16.1372 42.793 16.7503C 42.6914 17.3633 43.0508 17.9499 43.5938 18.0645C 43.8438 18.113 44.0664 18.166 44.2734 18.2101C 45.1523 18.4085 45.8477 18.5629 47.332 18.5805L 48.4492 18.5805C 48.5234 19.0965 48.582 19.7007 48.625 20.0932L 48.6523 20.3711C 48.7227 21.0459 49.0273 21.6501 49.5781 22.2234C 49.8633 22.5145 49.9844 23.2466 49.9102 24.2213C 49.8398 25.1651 49.4844 25.8928 49.1875 26.1662C 48.5273 26.7704 48.1133 27.379 47.8867 28.0803C 47.1523 30.3119 46.4375 32.0319 44.1367 33.8048C 44.1328 33.8092 44.1289 33.8092 44.125 33.8136C 43.6016 34.215 43 34.6207 42.2969 35.0353C 41.8047 35.3219 41.6133 36.0055 41.8711 36.5568C 42.0469 36.9449 42.3984 37.1699 42.7578 37.1699C 42.9141 37.1699 43.0703 37.1258 43.2188 37.042C 43.7578 36.72 44.25 36.4025 44.6992 36.0893L 50.9688 40.6452C 49.2188 40.6452 47.5508 41.0509 46.0195 41.761C 45.8477 41.6287 45.6797 41.514 45.5117 41.4037L 36.2891 35.3705C 37.4492 33.4079 38.3789 31.2424 39.0117 29.0505C 40.2383 28.5301 41.3594 26.8366 41.9023 24.5917C 42.1016 23.745 42.1992 22.9291 42.1992 22.1881C 42.1992 20.1638 41.5 18.6158 40.2891 18.2586C 40.168 18.2233 40.0312 18.188 39.8594 18.188C 39.7188 16.9708 39.4492 15.8506 38.9375 14.307C 38.9297 14.2584 38.9219 14.2143 38.9102 14.1835C 39.2617 14.2143 39.8203 14.3731 40.2891 14.5892C 40.6289 14.7568 41.0312 14.6862 41.3125 14.4172C 41.6016 14.1482 41.7305 13.716 41.6523 13.3102C 40.9336 9.62324 39.4609 6.59778 37.3906 4.36618C 38.3906 4.19418 39.3516 4.18095 40.1172 4.18095ZM 20.5273 9.17339C 19.8125 9.10282 19.0938 9.46888 18.6836 10.1789L 17.0781 12.9265C 16.7734 13.4469 16.9023 14.1482 17.3633 14.4922C 17.5352 14.6201 17.7227 14.6774 17.9102 14.6774C 18.2383 14.6774 18.5547 14.501 18.75 14.1702L 20.3516 11.4226L 21.9141 12.2826C 24.7617 13.8483 27.9453 14.6774 31.1133 14.6774L 33.668 14.6774C 34.2188 14.6774 34.668 14.1702 34.668 13.5484C 34.668 12.9265 34.2188 12.4194 33.668 12.4194L 31.1133 12.4194C 28.2461 12.4194 25.3672 11.6696 22.793 10.2495L 21.2305 9.38949C 21.0039 9.266 20.7656 9.19544 20.5273 9.17339ZM 16.9102 37.1875C 19.332 40.5437 22.5 42.9032 26 42.9032C 29.5 42.9032 32.668 40.5437 35.0898 37.1875L 43.9609 42.9914C 40.3828 45.6023 38 50.1537 38 55.3226C 38 58.2245 38.75 60.9457 40.0508 63.2258L 3 63.2258C 2.44922 63.2258 2 62.7186 2 62.0968L 2 54.1053C 2 49.6907 4.10156 45.567 7.49219 43.3575L 16.9102 37.1875ZM 51 42.9032C 52.4297 42.9032 53.7891 43.2075 55.0391 43.7721C 56.7578 44.5394 58.2578 45.7699 59.4297 47.34C 61.0312 49.5098 62 52.2839 62 55.3226C 62 62.1762 57.0703 67.7419 51 67.7419C 48.6406 67.7419 46.4688 66.9084 44.6797 65.4839C 43.8711 64.84 43.1406 64.0858 42.5117 63.2258C 40.9414 61.0692 40 58.326 40 55.3226C 40 50.5815 42.3594 46.4623 45.8203 44.3718C 46.4688 43.9661 47.1719 43.6486 47.8906 43.4104C 48.8711 43.084 49.9219 42.9032 51 42.9032ZM 18.0625 42.9032C 17.6719 42.8768 17.2891 43.1105 17.1055 43.5251C 16.8594 44.0852 17.0586 44.7644 17.5508 45.0422L 25.5508 49.5583C 25.6953 49.6377 25.8477 49.6774 26 49.6774C 26.1523 49.6774 26.3086 49.6377 26.4492 49.5583L 34.4492 45.0422C 34.9414 44.7644 35.1406 44.0852 34.8945 43.5251C 34.6484 42.9694 34.0469 42.7445 33.5508 43.0223L 26 47.287L 18.4492 43.0223C 18.3242 42.9517 18.1914 42.9165 18.0625 42.9032ZM 51 47.4194C 50.4492 47.4194 50 47.9265 50 48.5484L 50 54.1936L 45 54.1936C 44.4492 54.1936 44 54.7007 44 55.3226C 44 55.9444 44.4492 56.4516 45 56.4516L 50 56.4516L 50 62.0968C 50 62.7186 50.4492 63.2258 51 63.2258C 51.5508 63.2258 52 62.7186 52 62.0968L 52 56.4516L 57 56.4516C 57.5508 56.4516 58 55.9444 58 55.3226C 58 54.7007 57.5508 54.1936 57 54.1936L 52 54.1936L 52 48.5484C 52 47.9265 51.5508 47.4194 51 47.4194ZM 6 56.4516C 5.44922 56.4516 5 56.9588 5 57.5806L 5 59.8387C 5 60.4606 5.44922 60.9677 6 60.9677C 6.55078 60.9677 7 60.4606 7 59.8387L 7 57.5806C 7 56.9588 6.55078 56.4516 6 56.4516ZM 11 56.4516C 10.4492 56.4516 10 56.9588 10 57.5806L 10 59.8387C 10 60.4606 10.4492 60.9677 11 60.9677C 11.5508 60.9677 12 60.4606 12 59.8387L 12 57.5806C 12 56.9588 11.5508 56.4516 11 56.4516ZM 16 56.4516C 15.4492 56.4516 15 56.9588 15 57.5806L 15 59.8387C 15 60.4606 15.4492 60.9677 16 60.9677C 16.5508 60.9677 17 60.4606 17 59.8387L 17 57.5806C 17 56.9588 16.5508 56.4516 16 56.4516ZM 21 56.4516C 20.4492 56.4516 20 56.9588 20 57.5806L 20 59.8387C 20 60.4606 20.4492 60.9677 21 60.9677C 21.5508 60.9677 22 60.4606 22 59.8387L 22 57.5806C 22 56.9588 21.5508 56.4516 21 56.4516ZM 26 56.4516C 25.4492 56.4516 25 56.9588 25 57.5806L 25 59.8387C 25 60.4606 25.4492 60.9677 26 60.9677C 26.5508 60.9677 27 60.4606 27 59.8387L 27 57.5806C 27 56.9588 26.5508 56.4516 26 56.4516ZM 31 56.4516C 30.4492 56.4516 30 56.9588 30 57.5806L 30 59.8387C 30 60.4606 30.4492 60.9677 31 60.9677C 31.5508 60.9677 32 60.4606 32 59.8387L 32 57.5806C 32 56.9588 31.5508 56.4516 31 56.4516ZM 36 56.4516C 35.4492 56.4516 35 56.9588 35 57.5806L 35 59.8387C 35 60.4606 35.4492 60.9677 36 60.9677C 36.5508 60.9677 37 60.4606 37 59.8387L 37 57.5806C 37 56.9588 36.5508 56.4516 36 56.4516Z"/>
</defs>
</svg>
