<svg xmlns="http://www.w3.org/2000/svg" width="61" height="63" viewBox="0 0 61 63">
  <g fill="none" fill-rule="evenodd" transform="translate(0 .185)">
    <path fill="#FFFFFF" d="M30.5,0.502191148 C47.3441541,0.502191148 60.984445,14.3170332 60.9844596,31.3765717 C60.984445,48.4362446 47.3441541,62.253575 30.5,62.253575 C13.6558459,62.253575 0.0155547348,48.4362446 0.0155401478,31.3765717 C0.0155547348,14.3170332 13.6558459,0.502191148 30.5,0.502191148 Z"/>
    <path fill="#000000" fill-rule="nonzero" d="M17.8866335,19.2838877 L17.8866335,19.2865107 C17.8305062,19.2881114 17.7748069,19.2969256 17.7208726,19.3127418 L10.4248047,21.4060094 C10.1390487,21.4883029 9.94220739,21.7530432 9.94306219,22.0539256 L9.94306219,30.783742 C9.93273198,33.5661359 11.9967162,35.4154213 13.9187333,36.5179299 C15.430812,37.3852708 16.6661641,37.7575853 17.2391304,37.9160651 L17.2391304,41.35238 C17.2391304,42.5106252 18.1803909,43.4640098 19.3240919,43.4640098 L48.3063429,43.4640098 C49.4499643,43.4640098 50.3913043,42.5106252 50.3913043,41.35238 L50.3913043,24.0868608 C50.3913043,22.9286156 49.4499643,21.975231 48.3063429,21.975231 L25.853516,21.975231 C25.8229568,21.7053344 25.6348605,21.480666 25.3769535,21.4060094 L18.0808853,19.3127418 C18.0179071,19.2934151 17.9524391,19.2836906 17.8866335,19.2838877 L17.8866335,19.2838877 Z M25.8586957,23.3209027 L48.3063429,23.3209027 C48.7370082,23.3209027 49.0652174,23.6532615 49.0652174,24.0894838 L49.0652174,24.6613284 L25.8586957,24.6613284 L25.8586957,23.3209027 Z M25.8586957,26.004377 L49.0652174,26.004377 L49.0652174,28.6904744 L25.8586957,28.6904744 L25.8586957,26.004377 Z M25.8586957,30.0335231 L49.0652174,30.0335231 L49.0652174,41.3550043 C49.0652174,41.7912266 48.7370082,42.1235841 48.3063429,42.1235841 L19.3240919,42.1235841 C18.8934876,42.1235841 18.5652174,41.7910922 18.5652174,41.3550043 L18.5652174,37.9160651 C18.9703502,37.803249 19.5724706,37.6257221 20.5750679,37.1763381 C20.8381649,37.0608359 21.1277876,36.908929 21.4271822,36.7513894 L34.4782609,36.7513894 L34.4782609,32.7222434 L25.4960931,32.7222434 C25.7248232,32.134391 25.8586957,31.4909283 25.8586957,30.786365 L25.8586957,30.0335231 Z M40.4456522,31.3765717 C38.6225664,31.3765717 37.1304427,32.8877701 37.1304348,34.7341934 C37.1304427,36.5806167 38.6225664,38.0918151 40.4456522,38.0918151 C41.1724552,38.0910093 41.8697184,37.8443369 42.4399623,37.4071745 C42.9954243,37.8323838 43.6782941,38.0944381 44.423913,38.0944381 C46.2470041,38.0944381 47.7391225,36.5832397 47.7391304,34.7368164 C47.7391225,32.8903931 46.2470041,31.3791947 44.423913,31.3791947 C43.679168,31.3791947 42.9976787,31.6397005 42.4425522,32.0638353 C41.8725416,31.6260014 41.1754031,31.3805378 40.448242,31.3791947 L40.4456522,31.3791947 L40.4456522,31.3765717 Z M44.423913,32.7065042 L44.423913,32.7169974 C45.5303363,32.7169974 46.4130382,33.6109306 46.4130435,34.7315704 C46.4130382,35.8520759 45.5303363,36.7461434 44.423913,36.7461434 C43.877353,36.7461434 43.3858323,36.5275824 43.0278962,36.1716745 L42.957965,36.0903583 L42.9320652,36.0588799 C42.9299435,36.0588799 42.9290073,36.0591942 42.9268855,36.0457637 C42.7714628,35.8656622 42.6499575,35.6595419 42.5668728,35.4398191 C42.5643532,35.4263886 42.5640801,35.4229262 42.5616931,35.4162096 C42.4810405,35.1956824 42.4353793,34.9627628 42.4347826,34.7237015 C42.4356353,34.4823557 42.4793166,34.2461336 42.5616931,34.0233218 C42.5630192,34.0233218 42.5655467,34.0102069 42.5668728,34.0102069 C42.6510793,33.7864537 42.7733618,33.5760194 42.9320652,33.3937677 L43.0408455,33.2704799 C43.3978373,32.9210186 43.8828019,32.7065042 44.423913,32.7065042 Z M40.4430623,32.7091285 L40.4430623,32.7169974 L40.4456522,32.7169974 C40.8486845,32.7169974 41.1917034,32.9275122 41.5075574,33.1734245 C41.2642496,33.636239 41.1147877,34.1558431 41.1112855,34.7132083 C41.1112112,34.7132083 41.1088283,34.7262614 41.1086957,34.7289475 C41.1086983,35.2938337 41.2614887,35.8185038 41.5075574,36.2870934 C41.1915482,36.5307225 40.8478716,36.737736 40.4456522,36.7382745 C39.3392328,36.7382745 38.456527,35.8442057 38.4565217,34.7237015 C38.456527,33.6040018 39.3378643,32.7104702 40.4430623,32.7091285 Z M24.7372199,34.0600461 L33.1521739,34.0600461 L33.1521739,35.4030948 L23.4681136,35.4030948 C23.9367103,35.0095815 24.3681487,34.5619434 24.7372199,34.0600461 Z M19.8913043,39.4296178 L19.8913043,40.7726665 L23.8695652,40.7726665 L23.8695652,39.4296178 L19.8913043,39.4296178 Z M25.1956522,39.4296178 L25.1956522,40.7726665 L29.173913,40.7726665 L29.173913,39.4296178 L25.1956522,39.4296178 Z M30.5,39.4296178 L30.5,40.7726665 L34.4782609,40.7726665 L34.4782609,39.4296178 L30.5,39.4296178 Z M35.8043478,39.4296178 L35.8043478,40.7726665 L39.7826087,40.7726665 L39.7826087,39.4296178 L35.8043478,39.4296178 Z"/>
    <path fill="#D9F3B8" d="M17.9021739,20.6557904 L17.9021739,20.6584134 L24.5326087,22.5628148 L24.5326087,22.6493783 L24.5326087,24.6613284 L24.5326087,25.3328527 L24.5326087,30.0335231 L24.5326087,30.786365 C24.5326087,31.5399496 24.3228841,32.208393 23.9835265,32.8061839 L23.8410756,33.0239042 C23.3781439,33.7384061 22.7053524,34.3412671 21.9710848,34.8496123 C21.850875,34.93288 21.7319634,35.0158012 21.6084835,35.0935637 C21.6031792,35.0935637 21.598274,35.1066799 21.5929431,35.1066799 C21.380008,35.2409848 21.1648292,35.3725444 20.9480299,35.4896583 C20.6180013,35.6678809 20.2862528,35.839497 19.9741848,35.9775624 C19.616925,36.135102 19.2811479,36.268828 18.9925701,36.371034 C18.9888571,36.371034 18.9833326,36.3722427 18.9796196,36.371034 C18.3850977,36.5805496 17.9697221,36.6840906 17.8995841,36.7015502 C17.7555498,36.6652879 16.227639,36.2992265 14.574006,35.3506313 C12.8442449,34.3582526 11.2603002,32.8911908 11.2691492,30.786365 L11.2691492,22.5628148 L17.9021739,20.6557904 Z"/>
    <polygon fill="#000000" points="19.777 26.553 17.431 28.927 16.024 27.502 15.087 28.452 17.431 30.826 20.715 27.502"/>
  </g>
</svg>
