<?xml version="1.0" encoding="UTF-8" standalone="no"?>
<svg width="32px" height="43px" viewBox="0 0 32 43" version="1.1" xmlns="http://www.w3.org/2000/svg" xmlns:xlink="http://www.w3.org/1999/xlink" xmlns:sketch="http://www.bohemiancoding.com/sketch/ns">
    <!-- Generator: Sketch 3.2.2 (9983) - http://www.bohemiancoding.com/sketch -->
    <title>icon_file_code</title>
    <desc>Created with Sketch.</desc>
    <defs></defs>
    <g id="brandbook" stroke="none" stroke-width="1" fill="none" fill-rule="evenodd" sketch:type="MSPage">
        <g id="icon_file_code" sketch:type="MSLayerGroup" transform="translate(0.000000, 0.146617)">
            <path d="M1.83458647,0.00216541353 L21.3233083,0.00216541353 L31.9699248,10.6486617 L31.9699248,40.8101053 C31.9699248,41.8037895 31.1593383,42.6147368 30.1654135,42.6147368 L1.83458647,42.6147368 C0.840902256,42.6147368 0.030075188,41.8040301 0.030075188,40.8101053 L0.030075188,1.80643609 C0.030075188,0.812631579 0.840661654,0.00216541353 1.83458647,0.00216541353" id="Fill-1" fill="#F16A5C" sketch:type="MSShapeGroup"></path>
            <path d="M0.0301954887,40.8334436 C0.0427067669,41.8166617 0.848481203,42.6147368 1.83458647,42.6147368 C0.848721805,42.6147368 0.0427067669,41.8166617 0.0301954887,40.8334436 M31.9699248,40.8101053 C31.9699248,41.7959699 31.1719699,42.601985 30.1886316,42.6144962 C31.1719699,42.601985 31.9699248,41.7963308 31.9699248,40.8101053" id="Fill-2" fill="#CCCCCC" sketch:type="MSShapeGroup"></path>
            <path d="M31.9699248,39.3666165 C31.9699248,40.3601805 31.1593383,41.1710075 30.1654135,41.1710075 L1.83458647,41.1710075 C0.840902256,41.1710075 0.030075188,40.3604211 0.030075188,39.3666165 L0.030075188,40.8101053 C0.030075188,40.8179248 0.030075188,40.8256241 0.0301954887,40.8334436 C0.0427067669,41.8166617 0.848721805,42.6147368 1.83458647,42.6147368 L30.1654135,42.6147368 C30.1732331,42.6147368 30.1809323,42.6146165 30.1886316,42.6144962 C31.1719699,42.601985 31.9699248,41.7959699 31.9699248,40.8101053 L31.9699248,39.3666165" id="Fill-3" fill="#C1554A" sketch:type="MSShapeGroup"></path>
            <path d="M21.3233083,0.00216541353 L21.3233083,10.6486617 L31.9699248,10.6486617 L21.3233083,0.00216541353" id="Fill-4" fill="#F2796D" sketch:type="MSShapeGroup"></path>
            <path d="M31.9699248,10.6486617 L21.3233083,10.6486617 L31.9699248,21.2951579 L31.9699248,10.6486617" id="Fill-5" fill="#C1554A" sketch:type="MSShapeGroup"></path>
            <path d="M7.98736842,22.4415038 L13.4544361,24.9814135 L13.4544361,23.7741955 L9.32006015,21.9630677 L9.32006015,21.9404511 L13.4544361,20.1294436 L13.4544361,18.9221053 L7.98736842,21.462015 L7.98736842,22.4415038 L7.98736842,22.4415038 Z M15.4475789,25.4369925 L17.8851128,17.1795489 L16.7346767,17.1795489 L14.2972632,25.4369925 L15.4475789,25.4369925 L15.4475789,25.4369925 Z M24.0129925,21.4278496 L18.5458045,18.9221053 L18.5458045,20.1294436 L22.7713684,21.9404511 L22.7713684,21.9630677 L18.5458045,23.7741955 L18.5458045,24.9814135 L24.0129925,22.4757895 L24.0129925,21.4278496 L24.0129925,21.4278496 Z" id="Fill-6" fill="#FFFFFF" sketch:type="MSShapeGroup"></path>
        </g>
    </g>
</svg>