<svg width="48" height="45" viewBox="0 0 48 45" version="1.1" xmlns="http://www.w3.org/2000/svg" xmlns:xlink="http://www.w3.org/1999/xlink">
<title>Group 5</title>
<desc>Created using Figma</desc>
<g id="Canvas" transform="translate(-1943 -4000)">
<g id="Group 5">
<g id="Ellipse">
<use xlink:href="#path0_fill" transform="translate(1950 4004)" fill="#EEFAD4"/>
</g>
<g id="icons8-library">
<g id="surface1">
<g id="Vector">
<use xlink:href="#path1_fill" transform="translate(1943 4000)"/>
</g>
</g>
</g>
</g>
</g>
<defs>
<path id="path0_fill" d="M 41 20.5C 41 31.8218 31.8218 41 20.5 41C 9.17816 41 0 31.8218 0 20.5C 0 9.17816 9.17816 0 20.5 0C 31.8218 0 41 9.17816 41 20.5Z"/>
<path id="path1_fill" d="M 21.4286 -1.6398e-08C 21.1635 -1.6398e-08 20.8956 0.0497769 20.6445 0.149331L 1.09375 7.78184C 0.446429 8.03349 0.0864957 8.68336 0.217634 9.36365C 0.345982 10.0412 0.923549 10.5141 1.6183 10.5141L 2.85714 10.5141L 2.85714 11.9299C 2.85714 12.7098 3.49888 13.3458 4.28571 13.3458L 5.71429 13.3458L 5.71429 27.5047L 4.28571 27.5047C 3.49888 27.5047 2.85714 28.1407 2.85714 28.9206L 2.85714 30.3365L 1.42857 30.3365C 0.641741 30.3365 0 30.9725 0 31.7523L 0 35.2921C 0 35.682 0.320871 36 0.714286 36L 42.1429 36C 42.5363 36 42.8571 35.682 42.8571 35.2921L 42.8571 31.7523C 42.8571 30.9725 42.2154 30.3365 41.4286 30.3365L 40 30.3365L 40 28.9206C 40 28.1407 39.3583 27.5047 38.5714 27.5047L 37.1429 27.5047L 37.1429 13.3458L 38.5714 13.3458C 39.3583 13.3458 40 12.7098 40 11.9299L 40 10.5141L 41.2388 10.5141C 41.9336 10.5141 42.5112 10.0412 42.6423 9.36365C 42.7707 8.68336 42.4107 8.03349 41.7634 7.78184L 22.2126 0.149331C 21.9615 0.0497769 21.6936 -1.6398e-08 21.4286 -1.6398e-08ZM 21.4286 1.41589C 21.5179 1.41589 21.6044 1.43248 21.6881 1.46566L 41.2388 9.09817L 39.2857 9.09817C 38.8923 9.09817 38.5714 9.41619 38.5714 9.80611L 38.5714 11.9299L 4.28571 11.9299L 4.28571 10.5141L 30.7143 10.5141C 31.1077 10.5141 31.4286 10.196 31.4286 9.80611C 31.4286 9.41619 31.1077 9.09817 30.7143 9.09817L 1.6183 9.09817L 21.1691 1.46566C 21.2528 1.43248 21.3393 1.41589 21.4286 1.41589ZM 21.4286 3.43463C 20.2483 3.43463 19.2857 4.38869 19.2857 5.55846C 19.2857 6.72822 20.2483 7.68229 21.4286 7.68229C 22.6088 7.68229 23.5714 6.72822 23.5714 5.55846C 23.5714 4.38869 22.6088 3.43463 21.4286 3.43463ZM 21.4286 4.67353C 21.9196 4.67353 22.3214 5.07175 22.3214 5.55846C 22.3214 6.04517 21.9196 6.44339 21.4286 6.44339C 20.9375 6.44339 20.5357 6.04517 20.5357 5.55846C 20.5357 5.07175 20.9375 4.67353 21.4286 4.67353ZM 33.5714 9.09817C 33.178 9.09817 32.8571 9.41619 32.8571 9.80611C 32.8571 10.196 33.178 10.5141 33.5714 10.5141L 36.4286 10.5141C 36.822 10.5141 37.1429 10.196 37.1429 9.80611C 37.1429 9.41619 36.822 9.09817 36.4286 9.09817L 33.5714 9.09817ZM 7.14286 13.3458L 10 13.3458L 10 27.5047L 7.14286 27.5047L 7.14286 13.3458ZM 11.4286 13.3458L 14.2857 13.3458L 14.2857 27.5047L 11.4286 27.5047L 11.4286 13.3458ZM 15.7143 13.3458L 18.5714 13.3458L 18.5714 27.5047L 15.7143 27.5047L 15.7143 13.3458ZM 20 13.3458L 22.8571 13.3458L 22.8571 27.5047L 20 27.5047L 20 13.3458ZM 24.2857 13.3458L 27.1429 13.3458L 27.1429 27.5047L 24.2857 27.5047L 24.2857 13.3458ZM 28.5714 13.3458L 31.4286 13.3458L 31.4286 27.5047L 28.5714 27.5047L 28.5714 13.3458ZM 32.8571 13.3458L 35.7143 13.3458L 35.7143 27.5047L 32.8571 27.5047L 32.8571 13.3458ZM 4.28571 28.9206L 38.5714 28.9206L 38.5714 31.0444C 38.5714 31.4343 38.8923 31.7523 39.2857 31.7523L 41.4286 31.7523L 41.4286 34.5841L 1.42857 34.5841L 1.42857 31.7523L 3.57143 31.7523C 3.96484 31.7523 4.28571 31.4343 4.28571 31.0444L 4.28571 28.9206ZM 7.14286 30.3365C 6.74944 30.3365 6.42857 30.6545 6.42857 31.0444L 6.42857 32.4603C 6.42857 32.8502 6.74944 33.1682 7.14286 33.1682C 7.53627 33.1682 7.85714 32.8502 7.85714 32.4603L 7.85714 31.0444C 7.85714 30.6545 7.53627 30.3365 7.14286 30.3365ZM 10.7143 30.3365C 10.3209 30.3365 10 30.6545 10 31.0444L 10 32.4603C 10 32.8502 10.3209 33.1682 10.7143 33.1682C 11.1077 33.1682 11.4286 32.8502 11.4286 32.4603L 11.4286 31.0444C 11.4286 30.6545 11.1077 30.3365 10.7143 30.3365ZM 14.2857 30.3365C 13.8923 30.3365 13.5714 30.6545 13.5714 31.0444L 13.5714 32.4603C 13.5714 32.8502 13.8923 33.1682 14.2857 33.1682C 14.6791 33.1682 15 32.8502 15 32.4603L 15 31.0444C 15 30.6545 14.6791 30.3365 14.2857 30.3365ZM 17.8571 30.3365C 17.4637 30.3365 17.1429 30.6545 17.1429 31.0444L 17.1429 32.4603C 17.1429 32.8502 17.4637 33.1682 17.8571 33.1682C 18.2506 33.1682 18.5714 32.8502 18.5714 32.4603L 18.5714 31.0444C 18.5714 30.6545 18.2506 30.3365 17.8571 30.3365ZM 21.4286 30.3365C 21.0352 30.3365 20.7143 30.6545 20.7143 31.0444L 20.7143 32.4603C 20.7143 32.8502 21.0352 33.1682 21.4286 33.1682C 21.822 33.1682 22.1429 32.8502 22.1429 32.4603L 22.1429 31.0444C 22.1429 30.6545 21.822 30.3365 21.4286 30.3365ZM 25 30.3365C 24.6066 30.3365 24.2857 30.6545 24.2857 31.0444L 24.2857 32.4603C 24.2857 32.8502 24.6066 33.1682 25 33.1682C 25.3934 33.1682 25.7143 32.8502 25.7143 32.4603L 25.7143 31.0444C 25.7143 30.6545 25.3934 30.3365 25 30.3365ZM 28.5714 30.3365C 28.178 30.3365 27.8571 30.6545 27.8571 31.0444L 27.8571 32.4603C 27.8571 32.8502 28.178 33.1682 28.5714 33.1682C 28.9648 33.1682 29.2857 32.8502 29.2857 32.4603L 29.2857 31.0444C 29.2857 30.6545 28.9648 30.3365 28.5714 30.3365ZM 32.1429 30.3365C 31.7494 30.3365 31.4286 30.6545 31.4286 31.0444L 31.4286 32.4603C 31.4286 32.8502 31.7494 33.1682 32.1429 33.1682C 32.5363 33.1682 32.8571 32.8502 32.8571 32.4603L 32.8571 31.0444C 32.8571 30.6545 32.5363 30.3365 32.1429 30.3365ZM 35.7143 30.3365C 35.3209 30.3365 35 30.6545 35 31.0444L 35 32.4603C 35 32.8502 35.3209 33.1682 35.7143 33.1682C 36.1077 33.1682 36.4286 32.8502 36.4286 32.4603L 36.4286 31.0444C 36.4286 30.6545 36.1077 30.3365 35.7143 30.3365Z"/>
</defs>
</svg>
