<svg height="54" viewBox="0 0 54 54" width="54" xmlns="http://www.w3.org/2000/svg"><g fill="none" fill-rule="evenodd"><path d="m27 54c14.9116882 0 27-12.0883118 27-27s-12.0883118-27-27-27-27 12.0883118-27 27 12.0883118 27 27 27z" fill="#f7f7f7"/><path d="m18.803871 11.0024573c-1.8432286 0-3.3445162 1.5029174-3.3445162 3.348v17.856h-3.9019354c-.3078415.0000308-.5573887.2498379-.5574194.558v1.674c0 2.4634584 1.9985137 4.464 4.4593548 4.464h11.1483871v2.79c.0000308.3081621.2495779.5579692.5574194.558h15.6077419c.3078415-.0000308.5573886-.2498379.5574194-.558v-20.088c-.0000308-.3081621-.2495779-.5579692-.5574194-.558h-6.1316129v-6.661125c0-1.8595907-1.4977022-3.382875-3.3445161-3.382875-.0600842 0-.1148875-.0031839-.1741936 0-.0347618-.0032764-.0697542-.0032764-.1045161 0zm0 1.116h12.0193548c-.5451561.6027842-.8709677 1.3904061-.8709677 2.266875v6.661125h-2.7870968c-.3078415.0000308-.5573886.2498379-.5574194.558v10.567125l-10.0335484.034875v-17.856c0-1.2461256.9847815-2.232 2.2296775-2.232zm14.2838709 0c.0693887-.006438.1378409 0 .2090323 0 1.2412871 0 2.2296774.9995454 2.2296774 2.266875v6.661125h-4.4593548v-6.661125c0-1.1946445.8801741-2.1610602 2.0206451-2.266875zm-15.3987096 2.232v1.116h1.1148387v-1.116zm2.2296774 0v1.116h8.9187097v-1.116zm-2.2296774 2.232v1.116h1.1148387v-1.116zm2.2296774 0v1.116h8.9187097v-1.116zm-2.2296774 2.232v1.116h1.1148387v-1.116zm2.2296774 0v1.116h8.9187097v-1.116zm-2.2296774 2.232v1.116h1.1148387v-1.116zm2.2296774 0v1.116h5.5741935v-1.116zm7.8038709 1.116h2.6825807 5.7832258 6.0270968v18.972h-14.4929033v-2.685375c.0032731-.034798.0032731-.0698269 0-.104625v-5.614875c.0032731-.034798.0032731-.0698269 0-.104625zm.9406452.558c-.2387564.0783031-.3956877.3068045-.3832258.558v3.348c.0000308.3081621.2495779.5579692.5574194.558h12.2632258c.3078414-.0000308.5573885-.2498379.5574193-.558v-3.348c-.0000308-.3081621-.2495779-.5579692-.5574193-.558h-12.2632258c-.0577058-.0091372-.1164878-.0091372-.1741936 0zm-10.9741935.558v1.116h1.1148387v-1.116zm2.2296774 0v1.116h5.5741935v-1.116zm9.476129.558h11.1483871v2.232h-11.1483871zm-8.3612903 1.674v1.116h4.4593548v-1.116zm0 2.232v1.116h4.4593548v-1.116zm8.2567742 0c-.2664922.0509016-.4576839.2864596-.4529032.558v2.232c.0000307.3081621.2495778.5579692.5574193.558h2.2296774c.3078415-.0000308.5573886-.2498379.5574194-.558v-2.232c-.0000308-.3081621-.2495779-.5579692-.5574194-.558h-2.2296774c-.0347618-.0032764-.0697543-.0032764-.1045161 0zm4.4593548 0c-.2664921.0509016-.4576839.2864596-.4529032.558v2.232c.0000308.3081621.2495779.5579692.5574193.558h2.2296775c.3078414-.0000308.5573886-.2498379.5574193-.558v-2.232c-.0000307-.3081621-.2495779-.5579692-.5574193-.558h-2.2296775c-.0347618-.0032764-.0697542-.0032764-.1045161 0zm4.4593549 0c-.2664922.0509016-.4576839.2864596-.4529033.558v2.232c.0000308.3081621.2495779.5579692.5574194.558h2.2296774c.3078415-.0000308.5573886-.2498379.5574194-.558v-2.232c-.0000308-.3081621-.2495779-.5579692-.5574194-.558h-2.2296774c-.0347618-.0032764-.0697543-.0032764-.1045161 0zm-8.2567742 1.116h1.1148387v1.116h-1.1148387zm4.4593548 0h1.1148387v1.116h-1.1148387zm4.4593548 0h1.1148388v1.116h-1.1148388zm-9.5806451 3.348c-.2664922.0509016-.4576839.2864596-.4529032.558v2.232c.0000307.3081621.2495778.5579692.5574193.558h2.2296774c.3078415-.0000308.5573886-.2498379.5574194-.558v-2.232c-.0000308-.3081621-.2495779-.5579692-.5574194-.558h-2.2296774c-.0347618-.0032764-.0697543-.0032764-.1045161 0zm4.4593548 0c-.2664921.0509016-.4576839.2864596-.4529032.558v2.232c.0000308.3081621.2495779.5579692.5574193.558h2.2296775c.3078414-.0000308.5573886-.2498379.5574193-.558v-2.232c-.0000307-.3081621-.2495779-.5579692-.5574193-.558h-2.2296775c-.0347618-.0032764-.0697542-.0032764-.1045161 0zm4.4593549 0c-.2664922.0509016-.4576839.2864596-.4529033.558v6.696c.0000308.3081621.2495779.5579692.5574194.558h2.2296774c.3078415-.0000308.5573886-.2498379.5574194-.558v-6.696c-.0000308-.3081621-.2495779-.5579692-.5574194-.558h-2.2296774c-.0347618-.0032764-.0697543-.0032764-.1045161 0zm-11.6012904 1.081125v4.498875h-11.1483871c-1.8625042 0-3.3445161-1.4836104-3.3445161-3.348v-1.116zm3.3445162.034875h1.1148387v1.116h-1.1148387zm4.4593548 0h1.1148387v1.116h-1.1148387zm4.4593548 0h1.1148388v5.58h-1.1148388zm-9.5806451 3.348c-.2664922.0509016-.4576839.2864596-.4529032.558v2.232c.0000307.3081621.2495778.5579692.5574193.558h2.2296774c.3078415-.0000308.5573886-.2498379.5574194-.558v-2.232c-.0000308-.3081621-.2495779-.5579692-.5574194-.558h-2.2296774c-.0347618-.0032764-.0697543-.0032764-.1045161 0zm4.4593548 0c-.2664921.0509016-.4576839.2864596-.4529032.558v2.232c.0000308.3081621.2495779.5579692.5574193.558h2.2296775c.3078414-.0000308.5573886-.2498379.5574193-.558v-2.232c-.0000307-.3081621-.2495779-.5579692-.5574193-.558h-2.2296775c-.0347618-.0032764-.0697542-.0032764-.1045161 0zm-3.7974193 1.116h1.1148387v1.116h-1.1148387zm4.4593548 0h1.1148387v1.116h-1.1148387z" fill="#00417b"/></g></svg>