<svg xmlns="http://www.w3.org/2000/svg" width="146" height="146" viewBox="0 0 146 146" xmlns:xlink="http://www.w3.org/1999/xlink">
  <defs>
    <path id="a" d="M88.8347222,81.1402778 C95.9597222,72.3097222 99.8319444,61.3930556 99.8319444,49.9166667 C99.8319444,22.3930556 77.4402778,0 49.9166667,0 C22.3916667,0 0,22.3930556 0,49.9166667 C0,77.4305556 22.3916667,99.8208333 49.9166667,99.8208333 C61.5680556,99.8208333 72.6041667,95.85 81.5083333,88.5402778 L117.222222,124.581944 L124.616667,117.2625 L88.8347222,81.1402778 L88.8347222,81.1402778 Z"/>
    <mask id="b" width="141.283" height="141.249" x="-8.333" y="-8.333">
      <rect width="141.283" height="141.249" x="-8.333" y="-8.333" fill="white"/>
      <use fill="black" xlink:href="#a"/>
    </mask>
  </defs>
  <g fill="none" fill-rule="evenodd" transform="translate(9 9)">
    <use fill="#000000" fill-opacity=".095" xlink:href="#a"/>
    <use stroke="#FFFFFF" stroke-width="16.667" mask="url(#b)" xlink:href="#a"/>
    <path fill="#FFFFFF" d="M49.7125,94.4138889 C25.0541667,94.4138889 5,74.3611111 5,49.7111111 C5,25.0527778 25.0541667,5 49.7125,5 C74.3597222,5 94.425,25.0527778 94.425,49.7111111 C94.425,74.3611111 74.3597222,94.4138889 49.7125,94.4138889 L49.7125,94.4138889 Z"/>
    <polygon fill="#000000" fill-opacity=".095" points="65.715 62.035 52.697 48.936 65.706 35.971 62.875 33.131 49.865 46.093 36.843 33 34 35.828 47.018 48.928 34.008 61.89 36.837 64.731 49.85 51.767 62.872 64.861"/>
  </g>
</svg>
