<svg width="58" height="58" viewBox="0 0 58 58" version="1.1" xmlns="http://www.w3.org/2000/svg" xmlns:xlink="http://www.w3.org/1999/xlink">
<g id="Canvas" fill="none">
<g id="icon-serv-multibank">
<g id="Rectangle 2">
<path d="M 0 2C 0 0.895431 0.895431 0 2 0L 22.8889 0C 23.9935 0 24.8889 0.895431 24.8889 2L 24.8889 3.12L 0 3.12L 0 2Z" transform="translate(14.4814 49.88)" fill="#005992"/>
</g>
<g id="Rectangle 3">
<path d="M 1.20988 0L 13.3086 0L 14.5185 7.28L 0 7.28L 1.20988 0Z" transform="translate(19.6666 43.64)" fill="white"/>
<path d="M 1.20988 0L 13.3086 0L 14.5185 7.28L 0 7.28L 1.20988 0Z" stroke-width="2" transform="translate(19.6666 43.64)" stroke="#005992"/>
</g>
<g id="Rectangle">
<rect width="49.7778" height="35.36" rx="3" transform="translate(2.03699 10.36)" fill="white"/>
<rect width="49.7778" height="35.36" rx="3" stroke-width="2" transform="translate(2.03699 10.36)" stroke="#005992"/>
</g>
<g id="Rectangle_2">
<path d="M 0 0L 49.7778 0L 49.7778 3.24C 49.7778 4.89685 48.4346 6.24 46.7778 6.24L 3 6.24C 1.34315 6.24 0 4.89685 0 3.24L 0 0Z" transform="translate(2.03699 39.48)" fill="#6BC9F2"/>
<path d="M 0 0L 49.7778 0L 49.7778 3.24C 49.7778 4.89685 48.4346 6.24 46.7778 6.24L 3 6.24C 1.34315 6.24 0 4.89685 0 3.24L 0 0Z" stroke-width="2" transform="translate(2.03699 39.48)" stroke="#005992"/>
</g>
<g id="Group 57">
<g id="Union">
<path d="M 13.4815 0L 11.4074 0L 11.4074 5.2L 0 5.2L 0 11.44L 2.07407 11.44L 2.07407 7.28L 22.8148 7.28L 22.8148 11.44L 24.8889 11.44L 24.8889 5.2L 13.4815 5.2L 13.4815 0Z" transform="translate(14.4816 19.72)" fill="#6BC9F2"/>
</g>
<g id="Rectangle 2_2">
<rect width="16.5926" height="5.2" transform="translate(18.6296 16.6)" fill="#6BC9F2"/>
</g>
<g id="Rectangle 2.1">
<rect width="10.3704" height="4.16" transform="translate(10.3334 30.12)" fill="#6BC9F2"/>
</g>
<g id="Rectangle 2.2">
<rect width="10.3704" height="4.16" transform="translate(33.1482 30.12)" fill="#6BC9F2"/>
</g>
</g>
<g id="Group 58">
<g id="Ellipse 3">
<circle cx="11.5" cy="11.5" r="11.5" transform="translate(34.1852 1)" fill="#41CFC8"/>
</g>
<g id="Rectangle 267">
<rect width="2.07407" height="12.48" transform="translate(44.5555 6.20001)" fill="white"/>
</g>
<g id="Rectangle 267.1">
<rect width="2.08" height="12.4444" transform="matrix(0 1 -1 0 51.8148 11.4)" fill="white"/>
</g>
</g>
</g>
</g>
</svg>

