<svg width="40" height="40" viewBox="0 0 40 40" version="1.1" xmlns="http://www.w3.org/2000/svg" xmlns:xlink="http://www.w3.org/1999/xlink">
<title>icons8-calendar_plus</title>
<desc>Created using Figma</desc>
<g id="Canvas" transform="translate(-698 102)">
<g id="icons8-calendar_plus">
<g id="surface1">
<g id="Rectangle 15">
<use xlink:href="#path0_fill" transform="translate(699 -97)" fill="#FFFFFF"/>
</g>
<g id="Vector">
<use xlink:href="#path1_fill" transform="translate(698 -102)" fill="#243036"/>
</g>
</g>
</g>
</g>
<defs>
<path id="path0_fill" d="M 0 0L 38 0L 38 35L 0 35L 0 0Z"/>
<path id="path1_fill" d="M 8.14815 0C 6.92419 0 5.92593 0.998264 5.92593 2.22222L 5.92593 4.44444L 2.22222 4.44444C 0.963542 4.44444 0 5.47454 0 6.67535L 0 37.7459C 0 38.9468 0.963542 39.9769 2.22222 39.9769L 37.7778 39.9769C 39.0365 39.9769 40 38.9468 40 37.7459L 40 6.67535C 40 5.47454 39.0365 4.44444 37.7778 4.44444L 34.0741 4.44444L 34.0741 2.22222C 34.0741 0.998264 33.0758 0 31.8519 0C 30.6279 0 29.6296 0.998264 29.6296 2.22222L 29.6296 4.44444L 22.2222 4.44444L 22.2222 2.22222C 22.2222 0.998264 21.224 0 20 0C 18.776 0 17.7778 0.998264 17.7778 2.22222L 17.7778 4.44444L 10.3704 4.44444L 10.3704 2.22222C 10.3704 0.998264 9.37211 0 8.14815 0ZM 8.14815 1.48148C 8.55613 1.48148 8.88889 1.81424 8.88889 2.22222L 8.88889 8.14815C 8.88889 8.55613 8.55613 8.88889 8.14815 8.88889C 7.74016 8.88889 7.40741 8.55613 7.40741 8.14815L 7.40741 2.22222C 7.40741 1.81424 7.74016 1.48148 8.14815 1.48148ZM 20 1.48148C 20.408 1.48148 20.7407 1.81424 20.7407 2.22222L 20.7407 8.14815C 20.7407 8.55613 20.408 8.88889 20 8.88889C 19.592 8.88889 19.2593 8.55613 19.2593 8.14815L 19.2593 2.22222C 19.2593 1.81424 19.592 1.48148 20 1.48148ZM 31.8519 1.48148C 32.2598 1.48148 32.5926 1.81424 32.5926 2.22222L 32.5926 8.14815C 32.5926 8.55613 32.2598 8.88889 31.8519 8.88889C 31.4439 8.88889 31.1111 8.55613 31.1111 8.14815L 31.1111 2.22222C 31.1111 1.81424 31.4439 1.48148 31.8519 1.48148ZM 2.22222 5.90278L 5.92593 5.90278L 5.92593 8.14815C 5.92593 9.37211 6.92419 10.3704 8.14815 10.3704C 9.37211 10.3704 10.3704 9.37211 10.3704 8.14815L 10.3704 5.90278L 17.7778 5.90278L 17.7778 8.14815C 17.7778 9.37211 18.776 10.3704 20 10.3704C 21.224 10.3704 22.2222 9.37211 22.2222 8.14815L 22.2222 5.90278L 29.6296 5.90278L 29.6296 8.14815C 29.6296 9.37211 30.6279 10.3704 31.8519 10.3704C 33.0758 10.3704 34.0741 9.37211 34.0741 8.14815L 34.0741 5.90278L 37.7778 5.90278C 38.2234 5.90278 38.5185 6.24421 38.5185 6.67535L 38.5185 11.8519C 38.0729 11.8519 37.7778 12.1817 37.7778 12.5926L 37.7778 14.0741C 37.7778 14.485 38.0729 14.8148 38.5185 14.8148L 38.5185 37.7459C 38.5185 38.1742 38.2234 38.5185 37.7778 38.5185L 2.22222 38.5185C 1.77662 38.5185 1.48148 38.1742 1.48148 37.7459L 1.48148 14.8148C 1.92708 14.8148 2.22222 14.485 2.22222 14.0741L 2.22222 12.5926C 2.22222 12.1817 1.92708 11.8519 1.48148 11.8519L 1.48148 6.67535C 1.48148 6.24421 1.77662 5.90278 2.22222 5.90278ZM 5.18518 11.8519C 4.73958 11.8519 4.44444 12.1817 4.44444 12.5926L 4.44444 14.0741C 4.44444 14.4821 4.73958 14.8148 5.18518 14.8148C 5.63079 14.8148 5.92593 14.485 5.92593 14.0741L 5.92593 12.5926C 5.92593 12.1817 5.63079 11.8519 5.18518 11.8519ZM 8.88889 11.8519C 8.44329 11.8519 8.14815 12.1817 8.14815 12.5926L 8.14815 14.0741C 8.14815 14.4821 8.44329 14.8148 8.88889 14.8148C 9.33449 14.8148 9.62963 14.485 9.62963 14.0741L 9.62963 12.5926C 9.62963 12.1817 9.33449 11.8519 8.88889 11.8519ZM 12.5926 11.8519C 12.147 11.8519 11.8519 12.1817 11.8519 12.5926L 11.8519 14.0741C 11.8519 14.4821 12.147 14.8148 12.5926 14.8148C 13.0382 14.8148 13.3333 14.485 13.3333 14.0741L 13.3333 12.5926C 13.3333 12.1817 13.0382 11.8519 12.5926 11.8519ZM 16.2963 11.8519C 15.8507 11.8519 15.5556 12.1817 15.5556 12.5926L 15.5556 14.0741C 15.5556 14.4821 15.8507 14.8148 16.2963 14.8148C 16.7419 14.8148 17.037 14.485 17.037 14.0741L 17.037 12.5926C 17.037 12.1817 16.7419 11.8519 16.2963 11.8519ZM 20 11.8519C 19.5544 11.8519 19.2593 12.1817 19.2593 12.5926L 19.2593 14.0741C 19.2593 14.4821 19.5544 14.8148 20 14.8148C 20.4456 14.8148 20.7407 14.485 20.7407 14.0741L 20.7407 12.5926C 20.7407 12.1817 20.4456 11.8519 20 11.8519ZM 23.7037 11.8519C 23.2581 11.8519 22.963 12.1817 22.963 12.5926L 22.963 14.0741C 22.963 14.4821 23.2581 14.8148 23.7037 14.8148C 24.1493 14.8148 24.4444 14.485 24.4444 14.0741L 24.4444 12.5926C 24.4444 12.1817 24.1493 11.8519 23.7037 11.8519ZM 27.4074 11.8519C 26.9618 11.8519 26.6667 12.1817 26.6667 12.5926L 26.6667 14.0741C 26.6667 14.4821 26.9618 14.8148 27.4074 14.8148C 27.853 14.8148 28.1481 14.485 28.1481 14.0741L 28.1481 12.5926C 28.1481 12.1817 27.853 11.8519 27.4074 11.8519ZM 31.1111 11.8519C 30.6655 11.8519 30.3704 12.1817 30.3704 12.5926L 30.3704 14.0741C 30.3704 14.4821 30.6655 14.8148 31.1111 14.8148C 31.5567 14.8148 31.8519 14.485 31.8519 14.0741L 31.8519 12.5926C 31.8519 12.1817 31.5567 11.8519 31.1111 11.8519ZM 34.8148 11.8519C 34.3692 11.8519 34.0741 12.1817 34.0741 12.5926L 34.0741 14.0741C 34.0741 14.4821 34.3692 14.8148 34.8148 14.8148C 35.2604 14.8148 35.5556 14.485 35.5556 14.0741L 35.5556 12.5926C 35.5556 12.1817 35.2604 11.8519 34.8148 11.8519ZM 20 18.037C 19.592 18.037 19.2593 18.3698 19.2593 18.7778L 19.2593 24.7037L 13.3333 24.7037C 12.9253 24.7037 12.5926 25.0365 12.5926 25.4444C 12.5926 25.8524 12.9253 26.1852 13.3333 26.1852L 19.2593 26.1852L 19.2593 32.1111C 19.2593 32.5191 19.592 32.8519 20 32.8519C 20.408 32.8519 20.7407 32.5191 20.7407 32.1111L 20.7407 26.1852L 26.6667 26.1852C 27.0747 26.1852 27.4074 25.8524 27.4074 25.4444C 27.4074 25.0365 27.0747 24.7037 26.6667 24.7037L 20.7407 24.7037L 20.7407 18.7778C 20.7407 18.3698 20.408 18.037 20 18.037Z"/>
</defs>
</svg>
