<svg width="80" height="80" viewBox="0 0 80 80" version="1.1" xmlns="http://www.w3.org/2000/svg" xmlns:xlink="http://www.w3.org/1999/xlink">
<title>smartphone</title>
<desc>Created using Figma</desc>
<g id="Canvas" transform="translate(773 2099)">
<g id="smartphone">
<g id="Vector">
<use xlink:href="#path0_fill" transform="translate(-773 -2099)" fill="#FFDB79"/>
</g>
<g id="Vector">
<use xlink:href="#path1_fill" transform="translate(-746.472 -2087.46)" fill="#666666"/>
</g>
<g id="Vector">
<use xlink:href="#path2_fill" transform="translate(-745.027 -2079.78)" fill="#FDFDFD"/>
</g>
<g id="Group">
<g id="Vector">
<use xlink:href="#path3_fill" transform="translate(-738.745 -2083.95)" fill="#C0C1C4"/>
</g>
<g id="Vector">
<use xlink:href="#path4_fill" transform="translate(-733.284 -2036.12)" fill="#C0C1C4"/>
</g>
<g id="Vector">
<use xlink:href="#path5_fill" transform="translate(-743.335 -2083.97)" fill="#C0C1C4"/>
</g>
</g>
<g id="Vector">
<use xlink:href="#path6_fill" transform="translate(-759.306 -2069.25)" fill="#21D0C3"/>
</g>
<g id="Vector">
<use xlink:href="#path7_fill" transform="translate(-759.306 -2066.76)" fill="#828282"/>
</g>
<g id="Group">
<g id="Vector">
<use xlink:href="#path8_fill" transform="translate(-757.608 -2060.05)" fill="#FFFFFF"/>
</g>
<g id="Vector">
<use xlink:href="#path9_fill" transform="translate(-757.609 -2056.49)" fill="#FFFFFF"/>
</g>
<g id="Vector">
<use xlink:href="#path10_fill" transform="translate(-752.072 -2055.62)" fill="#FFFFFF"/>
</g>
</g>
</g>
</g>
<defs>
<path id="path0_fill" d="M 40 80C 62.0914 80 80 62.0914 80 40C 80 17.9086 62.0914 0 40 0C 17.9086 0 0 17.9086 0 40C 0 62.0914 17.9086 80 40 80Z"/>
<path id="path1_fill" d="M 0.822348 -7.62942e-08L 29.5989 -7.62942e-08C 30.0529 -7.62942e-08 30.4212 0.368126 30.4212 0.822347L 30.4212 56.0957C 30.4212 56.5498 30.0531 56.918 29.5989 56.918L 0.822348 56.918C 0.368284 56.918 1.08719e-06 56.5499 1.08719e-06 56.0957L 1.08719e-06 0.822347C 0.000157338 0.368283 0.368284 -7.62942e-08 0.822348 -7.62942e-08Z"/>
<path id="path2_fill" d="M 0.638753 5.81744e-07L 26.8926 5.81744e-07C 27.2454 5.81744e-07 27.5314 0.285939 27.5314 0.638753L 27.5314 40.9169C 27.5314 41.2697 27.2454 41.5556 26.8926 41.5556L 0.638753 41.5556C 0.28594 41.5556 -1.12534e-06 41.2697 -1.12534e-06 40.9169L -1.12534e-06 0.638753C -1.12534e-06 0.286095 0.28594 5.81744e-07 0.638753 5.81744e-07Z"/>
<path id="path3_fill" d="M 0.574691 -3.24251e-07L 14.3922 -3.24251e-07C 14.7096 -3.24251e-07 14.9669 0.257345 14.9669 0.57469C 14.9669 0.892035 14.7096 1.14938 14.3922 1.14938L 0.574691 1.14938C 0.257346 1.14938 -6.67575e-07 0.892035 -6.67575e-07 0.57469C -6.67575e-07 0.257345 0.257346 -3.24251e-07 0.574691 -3.24251e-07Z"/>
<path id="path4_fill" d="M 1.9086 3.8172C 2.96269 3.8172 3.8172 2.96269 3.8172 1.9086C 3.8172 0.854512 2.96269 2.17439e-06 1.9086 2.17439e-06C 0.854508 2.17439e-06 0 0.854512 0 1.9086C 0 2.96269 0.854508 3.8172 1.9086 3.8172Z"/>
<path id="path5_fill" d="M 0.65219 1.30438C 1.01238 1.30438 1.30438 1.01239 1.30438 0.65219C 1.30438 0.291996 1.01238 0 0.65219 0C 0.291995 0 0 0.291996 0 0.65219C 0 1.01239 0.291995 1.30438 0.65219 1.30438Z"/>
<path id="path6_fill" d="M 1.71688 -2.6703e-07L 31.4556 -2.6703e-07C 32.4001 -2.6703e-07 33.1726 0.772348 33.1726 1.71688L 33.1726 18.7857C 33.1726 19.7304 32.4003 20.5027 31.4556 20.5027L 1.71688 20.5027C 0.772191 20.5027 -3.43913e-07 19.7304 -3.43913e-07 18.7857L -3.43913e-07 1.71719C -0.000312845 0.772504 0.772191 -2.6703e-07 1.71688 -2.6703e-07Z"/>
<path id="path7_fill" d="M 33.1728 -7.62942e-08L 33.1728 4.74299L -9.53678e-08 4.74299L -9.53678e-08 -7.62942e-08L 33.1728 -7.62942e-08Z"/>
<path id="path8_fill" d="M -5.14986e-07 5.72207e-08L 22.6342 5.72207e-08L 22.6342 1.36079L -5.14986e-07 1.36079L -5.14986e-07 5.72207e-08ZM 29.7786 5.72207e-08L 26.0148 5.72207e-08L 26.0148 1.36079L 29.7786 1.36079L 29.7786 5.72207e-08Z"/>
<path id="path9_fill" d="M 0.381408 2.17439e-06L 3.79517 2.17439e-06C 4.00455 2.17439e-06 4.17658 0.171562 4.17658 0.381407L 4.17658 3.73033C 4.17658 3.94002 4.00502 4.11173 3.79517 4.11173L 0.381408 4.11173C 0.171719 4.11173 -2.57493e-07 3.94049 -2.57493e-07 3.73033L -2.57493e-07 0.381407C -2.57493e-07 0.171562 0.171719 2.17439e-06 0.381408 2.17439e-06Z"/>
<path id="path10_fill" d="M 7.24795e-07 -1.44959e-06L 10.6579 -1.44959e-06L 10.6579 0.645314L 7.24795e-07 0.645314L 7.24795e-07 -1.44959e-06ZM 7.24795e-07 1.59954L 10.6579 1.59954L 10.6579 2.24485L 7.24795e-07 2.24485L 7.24795e-07 1.59954Z"/>
</defs>
</svg>
