<?xml version="1.0" encoding="UTF-8" standalone="no"?>
<svg width="28px" height="26px" viewBox="0 0 28 26" version="1.1" xmlns="http://www.w3.org/2000/svg" xmlns:xlink="http://www.w3.org/1999/xlink">
    <!-- Generator: Sketch 39 (31667) - http://www.bohemiancoding.com/sketch -->
    <title>Shape</title>
    <desc>Created with Sketch.</desc>
    <defs></defs>
    <g id="Чат" stroke="none" stroke-width="1" fill="none" fill-rule="evenodd">
        <g id="чат" transform="translate(-1220.000000, -642.000000)" fill="#FFFFFF">
            <g id="иконка-чата" transform="translate(1204.000000, 623.000000)">
                <path d="M16,19 L16,20 L16,38 L16,39 L17,39 L21,39 L21,42 L21,44.09375 L22.625,42.78125 L27.34375,39 L43,39 L44,39 L44,38 L44,20 L44,19 L43,19 L17,19 L16,19 L16,19 Z M18,21 L42,21 L42,37 L27,37 L26.65625,37 L26.375,37.21875 L23,39.90625 L23,38 L23,37 L22,37 L18,37 L18,21 L18,21 Z M22,26 L22,28 L38,28 L38,26 L22,26 L22,26 Z M22,30 L22,32 L34,32 L34,30 L22,30 L22,30 Z" id="Shape"></path>
            </g>
        </g>
    </g>
</svg>