<?xml version="1.0" encoding="UTF-8"?>
<svg width="20px" height="28px" viewBox="0 0 20 28" version="1.1" xmlns="http://www.w3.org/2000/svg" xmlns:xlink="http://www.w3.org/1999/xlink">
    <!-- Generator: Sketch 42 (36781) - http://www.bohemiancoding.com/sketch -->
    <title>Shape</title>
    <desc>Created with Sketch.</desc>
    <defs></defs>
    <g id="Главная---Список-заявок" stroke="none" stroke-width="1" fill="none" fill-rule="evenodd">
        <g id="01---список-заявок" transform="translate(-937.000000, -502.000000)" fill-rule="nonzero" fill="#000000">
            <g id="middle" transform="translate(920.000000, 485.000000)">
                <path d="M27.095703,17 L27.095703,17.0019532 C26.535413,16.9799517 25.966921,17.1456633 25.494141,17.5019881 C24.712241,18.0915293 24.370987,19.0712914 24.560547,19.998256 L22.5,19.998256 C22.22387,19.998356 22.00002,20.2221717 22,20.4982909 L22,20.9983258 L17.5,20.9983258 C17.22387,20.9984258 17.00002,21.2222414 17,21.4983607 L17,44.4999651 C17.00002,44.7761844 17.22387,45 17.5,45 L36.5,45 C36.77613,45 36.99997,44.7761844 37,44.4999651 L37,21.4983607 C36.99997,21.2222414 36.77613,20.9984258 36.5,20.9983258 L32,20.9983258 L32,20.4982909 C31.99997,20.2221717 31.77613,19.998356 31.5,19.998256 L29.445312,19.998256 C29.619352,19.1401962 29.336884,18.2246792 28.652344,17.6211371 C28.208274,17.2296098 27.656003,17.0215015 27.095703,17 Z M27.058594,18.0000698 L27.058594,18.0059296 C27.393764,18.0189305 27.723938,18.142586 27.992188,18.3790025 C28.528727,18.8520355 28.656231,19.6295834 28.300781,20.2502267 C28.184501,20.454441 28.225991,20.7119995 28.400391,20.8694106 L28.402344,20.8694106 C28.410344,20.8794113 28.419034,20.8829427 28.427734,20.8889432 L28.4375,20.8987094 C28.4435,20.9087101 28.450431,20.9093352 28.457031,20.9143355 C28.469731,20.9243362 28.482694,20.9307742 28.496094,20.9377747 L28.505859,20.9377747 C28.580559,20.9787775 28.66462,21.0012791 28.75,21.000279 L31,21.000279 L31,21.418277 C30.991,21.4722808 30.991,21.5280471 31,21.5823509 L31,23.4184165 C30.991,23.4724203 30.991,23.5281867 31,23.5824905 L31,24.0004882 L23,24.0004882 L23,23.5785839 C23.009,23.5255802 23.009,23.4714202 23,23.4184165 L23,21.5784444 C23.009,21.5254407 23.009,21.4712807 23,21.418277 L23,21.000279 L25.25,21.000279 C25.64434,21.0102797 25.890014,20.5746306 25.683594,20.2385072 C25.673594,20.206505 25.660731,20.1747528 25.644531,20.1447507 C25.337581,19.4987056 25.526536,18.7333553 26.097656,18.3028253 C26.383236,18.0876103 26.723424,17.9873689 27.058594,18.0000698 Z M18,22.002302 L22,22.002302 L22,23.0023718 L19.5,23.0023718 C19.22387,23.0023718 19.00002,23.2262874 19,23.5024067 L19,42.5037319 C19.00002,42.7798511 19.22387,43.0037668 19.5,43.0037668 L34.5,43.0037668 C34.77613,43.0037668 34.99997,42.7798511 35,42.5037319 L35,23.5024067 C34.99997,23.2262874 34.77613,23.0023718 34.5,23.0023718 L32,23.0023718 L32,22.002302 L36,22.002302 L36,44.0038365 L18,44.0038365 L18,22.002302 Z M20,24.0024413 L22,24.0024413 L22,24.5024762 C22.00002,24.7785955 22.22387,25.0025111 22.5,25.0025111 L31.5,25.0025111 C31.77613,25.0025111 31.99997,24.7785955 32,24.5024762 L32,24.0024413 L34,24.0024413 L34,42.003697 L20,42.003697 L20,24.0024413 Z M24.509766,27.0026506 C24.380006,27.0026506 24.256736,27.0596456 24.166016,27.1530521 L22.5097656,28.7976978 L21.8574219,28.1511687 C21.3848119,27.6618346 20.6603838,28.3902694 21.1523438,28.8602022 L22.15625,29.8583188 C22.35129,30.0522323 22.6662981,30.0522323 22.8613281,29.8583188 L24.869141,27.8620856 C25.196411,27.5455635 24.964946,26.9919499 24.509766,27.0026506 Z M26.457031,27.0026506 C25.791351,27.0376531 25.842013,28.0356227 26.507812,28.0027204 L29.507812,28.0027204 C30.183972,28.0127211 30.183972,26.99305 29.507812,27.0026506 L26.507812,27.0026506 C26.490913,27.0017506 26.473931,27.0017506 26.457031,27.0026506 Z M26.46875,29.0027901 C25.80109,29.0357924 25.851951,30.0376623 26.519531,30.0028599 L32.480469,30.0028599 C33.156629,30.0128606 33.156629,28.9931895 32.480469,29.0027901 L26.519531,29.0027901 C26.502631,29.0018901 26.48565,29.0018901 26.46875,29.0027901 Z M24.509766,32.0029994 C24.380006,32.0029994 24.256736,32.0599944 24.166016,32.1534009 L22.5097656,33.7980466 L21.8574219,33.1515175 C21.3848119,32.6621834 20.6603838,33.3906182 21.1523438,33.860551 L22.15625,34.8586676 C22.35129,35.0525811 22.6662881,35.0525811 22.8613281,34.8586676 L24.869141,32.8624344 C25.196411,32.5459123 24.964946,31.9922987 24.509766,32.0029994 Z M26.457031,32.0029994 C25.789371,32.0360017 25.840233,33.0378716 26.507812,33.0030692 L29.507812,33.0030692 C30.183972,33.0130699 30.183972,31.9933987 29.507812,32.0029994 L26.507812,32.0029994 C26.490913,32.0020994 26.473931,32.0020994 26.457031,32.0029994 Z M26.46875,34.0031389 C25.80109,34.0361412 25.851951,35.0380111 26.519531,35.0032087 L32.480469,35.0032087 C33.156629,35.0132094 33.156629,33.9935383 32.480469,34.0031389 L26.519531,34.0031389 C26.502631,34.0022389 26.48565,34.0022389 26.46875,34.0031389 Z M24.509766,37.0033482 C24.380006,37.0033482 24.256736,37.0603432 24.166016,37.1537497 L22.5097656,38.7983954 L21.8574219,38.1518663 C21.3848119,37.6625322 20.6603838,38.390967 21.1523438,38.8608998 L22.15625,39.8590164 C22.35129,40.0529299 22.6662881,40.0529299 22.8613281,39.8590164 L24.869141,37.8627832 C25.196411,37.5462611 24.964946,36.9926475 24.509766,37.0033482 Z M26.457031,37.0033482 C25.791351,37.0383506 25.842023,38.0363203 26.507812,38.003418 L29.507812,38.003418 C30.183972,38.0134187 30.183972,36.9937475 29.507812,37.0033482 L26.507812,37.0033482 C26.490913,37.0024481 26.473931,37.0024481 26.457031,37.0033482 Z M26.46875,39.0034877 C25.80109,39.03649 25.851951,40.0383599 26.519531,40.0035575 L32.480469,40.0035575 C33.156629,40.0135582 33.156629,38.9938871 32.480469,39.0034877 L26.519531,39.0034877 C26.502631,39.0025877 26.48565,39.0025877 26.46875,39.0034877 Z" id="Shape"></path>
            </g>
        </g>
    </g>
</svg>