<svg width="80" height="80" viewBox="0 0 80 80" version="1.1" xmlns="http://www.w3.org/2000/svg" xmlns:xlink="http://www.w3.org/1999/xlink">
<title>network</title>
<desc>Created using Figma</desc>
<g id="Canvas" transform="translate(772 2631)">
<g id="network">
<g id="Vector">
<use xlink:href="#path0_fill" transform="translate(-772 -2631)" fill="#3D546B"/>
</g>
<g id="Group">
<g id="Vector">
<use xlink:href="#path1_fill" transform="translate(-738.72 -2591.36)" fill="#FFFFFF"/>
</g>
<g id="Vector">
<use xlink:href="#path2_fill" transform="translate(-762.603 -2603.6)" fill="#FFFFFF"/>
</g>
</g>
<g id="Vector">
<use xlink:href="#path3_fill" transform="translate(-737.506 -2590.15)" fill="#0F7986"/>
</g>
<g id="Vector">
<use xlink:href="#path4_fill" transform="translate(-742.633 -2622.38)" fill="#FFFFFF"/>
</g>
<g id="Vector">
<use xlink:href="#path5_fill" transform="translate(-741.817 -2583.99)" fill="#FED298"/>
</g>
<g id="Vector">
<use xlink:href="#path6_fill" transform="translate(-741.195 -2556.54)" fill="#FF5B62"/>
</g>
<g id="Group">
<g id="Vector">
<use xlink:href="#path7_fill" transform="translate(-740.519 -2558.58)" fill="#FFFFFF"/>
</g>
<g id="Vector">
<use xlink:href="#path8_fill" transform="translate(-731.614 -2583.47)" fill="#FFFFFF"/>
</g>
</g>
<g id="Vector">
<use xlink:href="#path9_fill" transform="translate(-733.737 -2626.33)" fill="#21D0C3"/>
</g>
<g id="Vector">
<use xlink:href="#path10_fill" transform="translate(-722.291 -2615.44)" fill="#FAD24D"/>
</g>
<g id="Vector">
<use xlink:href="#path11_fill" transform="translate(-745.283 -2610.51)" fill="#FF5B62"/>
</g>
<g id="Vector">
<use xlink:href="#path12_fill" transform="translate(-754.602 -2605.4)" fill="#21D0C3"/>
</g>
<g id="Vector">
<use xlink:href="#path13_fill" transform="translate(-766.189 -2598.9)" fill="#FAD24D"/>
</g>
<g id="Vector">
<use xlink:href="#path14_fill" transform="translate(-701.552 -2597.09)" fill="#FF5B62"/>
</g>
<g id="Vector">
<use xlink:href="#path15_fill" transform="translate(-713.181 -2607.21)" fill="#21D0C3"/>
</g>
</g>
</g>
<defs>
<path id="path0_fill" d="M 39.9997 79.9994C 62.0909 79.9994 79.9994 62.0909 79.9994 39.9997C 79.9994 17.9085 62.0909 0 39.9997 0C 17.9085 0 0 17.9085 0 39.9997C 0 62.0909 17.9085 79.9994 39.9997 79.9994Z"/>
<path id="path1_fill" d="M 7.82544 -2.86101e-07C 12.1473 -2.86101e-07 15.6509 3.50358 15.6509 7.82544C 15.6509 12.1473 12.1473 15.6509 7.82544 15.6509C 3.50358 15.6509 3.43321e-07 12.1473 3.43321e-07 7.82544C 3.43321e-07 3.50358 3.50374 -2.86101e-07 7.82544 -2.86101e-07Z"/>
<path id="path2_fill" d="M 9.32543 8.87028L -1.81197e-07 8.87028L -1.81197e-07 7.91325L 9.32543 7.91325L 9.32543 8.58304e-07L 10.2828 8.58304e-07L 10.2828 16.3051L 25.0727 16.3051L 25.0727 17.2621L 9.80418 17.2621L 9.32559 17.2621L 9.32559 16.7835L 9.32559 8.87059L 9.32543 8.87028ZM 53.5076 8.87028L 62.833 8.87028L 62.833 7.91325L 53.5076 7.91325L 53.5076 8.58304e-07L 52.5506 8.58304e-07L 52.5506 16.3051L 38.5491 16.3051L 38.5491 17.2621L 53.0293 17.2621L 53.5079 17.2621L 53.5079 16.7835L 53.5079 8.87059L 53.5076 8.87028Z"/>
<path id="path3_fill" d="M 6.61247 -3.81468e-07C 7.50684 -3.81468e-07 8.36075 0.178438 9.14043 0.501249C 9.95074 0.836873 10.6787 1.32781 11.2878 1.93687C 11.8968 2.54561 12.3878 3.27389 12.7234 4.0842C 13.0462 4.86373 13.2246 5.71795 13.2246 6.61247C 13.2246 7.50685 13.0462 8.36075 12.7234 9.14043C 12.3878 9.95074 11.8968 10.6787 11.2878 11.2878C 10.6787 11.8968 9.95074 12.3881 9.14043 12.7234C 8.3609 13.0462 7.50638 13.2246 6.61247 13.2246C 5.71779 13.2246 4.86373 13.0462 4.0842 12.7234C 3.27389 12.3878 2.54593 11.8968 1.93687 11.2878C 1.32812 10.6787 0.836872 9.95074 0.501248 9.14043C 0.178437 8.3609 -1.02996e-06 7.50669 -1.02996e-06 6.61247C -1.02996e-06 5.71779 0.178437 4.86373 0.501248 4.0842C 0.836872 3.27389 1.32812 2.54561 1.93687 1.93687C 2.54593 1.32781 3.27389 0.83656 4.0842 0.501249C 4.86373 0.178438 5.71779 -3.81468e-07 6.61247 -3.81468e-07ZM 1.23984 9.14497L 3.15327 9.14497C 3.02202 8.79965 2.91874 8.44919 2.84358 8.09622C 2.76327 7.71763 2.71483 7.33466 2.69858 6.94997L 0.683905 6.94997C 0.704686 7.32482 0.761092 7.69138 0.848904 8.04622C 0.943747 8.42887 1.07562 8.79699 1.23984 9.14512L 1.23984 9.14497ZM 3.87842 9.14497L 6.27482 9.14497L 6.27482 6.94997L 3.37124 6.94997C 3.38842 7.31232 3.43733 7.67419 3.51827 8.03309C 3.60264 8.40731 3.72295 8.77903 3.87842 9.14497ZM 6.94997 9.14497L 9.34637 9.14497C 9.50168 8.77919 9.62168 8.40731 9.7059 8.03325C 9.78684 7.67434 9.83574 7.31216 9.8534 6.95013L 6.94982 6.95013L 6.94982 9.14497L 6.94997 9.14497ZM 10.0715 9.14497L 11.985 9.14497C 12.1493 8.797 12.2812 8.42871 12.3759 8.04606C 12.4637 7.69153 12.5198 7.32466 12.5406 6.94982L 10.5259 6.94982C 10.5096 7.33419 10.4612 7.71731 10.3809 8.09606C 10.3057 8.44887 10.2028 8.7995 10.0715 9.14481L 10.0715 9.14497ZM 11.6101 9.81981L 9.7759 9.81981C 9.6884 9.9959 9.59262 10.1703 9.48965 10.3431C 9.37137 10.5409 9.24199 10.7375 9.10215 10.9312C 8.86059 11.2665 8.58809 11.5917 8.28606 11.9042C 8.10684 12.0896 7.91684 12.271 7.71513 12.4481C 8.21856 12.3537 8.70012 12.1951 9.15028 11.982C 9.76965 11.6889 10.3309 11.2909 10.8104 10.8107L 10.8111 10.8107C 10.9926 10.6295 11.1629 10.4359 11.3196 10.2323C 11.422 10.0996 11.519 9.96183 11.6104 9.81996L 11.6101 9.81981ZM 9.01497 9.81981L 6.94966 9.81981L 6.94966 12.212C 7.22872 11.987 7.48778 11.7545 7.72544 11.5148C 8.03715 11.2003 8.31419 10.874 8.55637 10.5381C 8.66356 10.3896 8.76606 10.2353 8.86403 10.0762C 8.91637 9.99043 8.96668 9.90496 9.01449 9.81949L 9.01497 9.81981ZM 6.27451 9.81981L 4.2092 9.81981C 4.25702 9.90528 4.30748 9.99074 4.35967 10.0765C 4.45748 10.2357 4.56014 10.39 4.66732 10.5384C 4.90982 10.8743 5.1867 11.2006 5.49826 11.5151C 5.73638 11.755 5.99466 11.9875 6.27403 12.2123L 6.27403 9.82012L 6.27451 9.81981ZM 3.44811 9.81981L 1.61437 9.81981C 1.7053 9.96168 1.80249 10.0995 1.90468 10.2321C 2.0614 10.4357 2.23155 10.6293 2.41327 10.8106L 2.4139 10.8106C 2.89343 11.2904 3.45467 11.6887 4.07405 11.9818C 4.52467 12.195 5.00623 12.3535 5.50966 12.4479C 5.30826 12.2709 5.11764 12.0895 4.93873 11.904C 4.63623 11.5915 4.36404 11.2664 4.12248 10.9311C 3.98233 10.7373 3.85295 10.5411 3.73499 10.3429C 3.63155 10.17 3.53624 9.99559 3.44842 9.81965L 3.44811 9.81981ZM 1.61421 3.40483L 3.48046 3.40483C 3.56171 3.24296 3.65061 3.08093 3.74608 2.91983C 3.8567 2.73312 3.97623 2.5489 4.10342 2.36765C 4.34764 2.02031 4.6242 1.68249 4.93264 1.35656C 5.12107 1.15718 5.32185 0.962186 5.53404 0.772187C 5.02373 0.865624 4.53608 1.02468 4.07983 1.24C 3.45796 1.53343 2.89467 1.93234 2.41343 2.41405C 2.11312 2.71437 1.84437 3.04671 1.61421 3.40483ZM 4.24358 3.40483L 6.27451 3.40483L 6.27451 1.02265C 5.99451 1.25375 5.73404 1.49499 5.49357 1.74374C 5.18014 2.06765 4.89998 2.40624 4.65482 2.75514C 4.55482 2.89702 4.46108 3.04061 4.37342 3.18452C 4.32905 3.25749 4.28592 3.33092 4.24436 3.40498L 4.24358 3.40483ZM 6.94951 3.40483L 8.98012 3.40483C 8.93856 3.33077 8.89543 3.25749 8.85106 3.18436C 8.76356 3.04046 8.6695 2.89717 8.56965 2.75499C 8.32403 2.40593 8.04434 2.0678 7.73091 1.74359C 7.49044 1.49484 7.22966 1.25375 6.94997 1.0225L 6.94997 3.40483L 6.94951 3.40483ZM 9.74356 3.40483L 11.6101 3.40483C 11.5189 3.26296 11.422 3.12545 11.3198 2.9928C 11.164 2.79061 10.9942 2.59702 10.8106 2.41405C 10.3296 1.93203 9.76637 1.53343 9.14418 1.24C 8.6884 1.02468 8.20059 0.865624 7.69028 0.772187C 7.90247 0.96203 8.1034 1.15703 8.292 1.35656C 8.59997 1.68249 8.87668 2.02046 9.1209 2.36765C 9.24793 2.5489 9.36762 2.73312 9.47824 2.91983C 9.57371 3.08108 9.66246 3.24265 9.74356 3.40483ZM 11.9845 4.07998L 10.0428 4.07998C 10.1767 4.42529 10.2832 4.77592 10.3625 5.13014C 10.4471 5.50904 10.5003 5.8917 10.5217 6.27498L 12.5406 6.27498C 12.5198 5.89982 12.4637 5.53326 12.3759 5.17873C 12.281 4.79608 12.1492 4.42795 11.985 4.08014L 11.9845 4.08014L 11.9845 4.07998ZM 9.31574 4.07998L 6.94966 4.07998L 6.94966 6.27498L 9.8484 6.27498C 9.82637 5.91498 9.77262 5.55467 9.68746 5.19607C 9.59777 4.81826 9.47387 4.44514 9.31574 4.07998ZM 6.27451 4.07998L 3.90842 4.07998C 3.7503 4.44514 3.6267 4.81826 3.53717 5.19576C 3.45202 5.55419 3.39795 5.91482 3.37624 6.27466L 6.27497 6.27466L 6.27497 4.07983L 6.27451 4.07983L 6.27451 4.07998ZM 3.18155 4.07998L 1.23984 4.07998C 1.07547 4.42795 0.943591 4.79592 0.848904 5.17857C 0.761092 5.5331 0.70453 5.89966 0.683905 6.27482L 2.70311 6.27482C 2.72452 5.89138 2.77718 5.50904 2.86233 5.12998C 2.94155 4.77576 3.04811 4.42514 3.18202 4.07983L 3.18155 4.07983L 3.18155 4.07998Z"/>
<path id="path4_fill" d="M 10.9678 23.3483L 0.478592 23.3483L -4.76835e-07 23.3483L -4.76835e-07 22.8698L -4.76835e-07 15.4754L 0.957027 15.4754L 0.957027 22.3913L 10.9678 22.3913L 10.9678 12.7334L 10.9678 4.29152e-08L 11.9248 4.29152e-08L 11.9248 12.7334L 11.9248 16.409L 21.9352 16.409L 21.9352 9.49309L 22.8923 9.49309L 22.8923 16.8874L 22.8923 17.366L 22.4137 17.366L 11.9248 17.366L 11.9248 31.4436L 10.9678 31.4436L 10.9678 23.3483Z"/>
<path id="path5_fill" d="M 18.1374 10.9842L 18.1371 10.9842C 17.5404 10.5429 16.8296 10.805 16.2657 11.289L 12.7645 14.2942L 12.5029 13.3957L 12.249 11.1671L 12.3723 6.31763L 12.4798 1.42796C 12.4967 0.662185 11.9014 -1.37329e-06 11.1507 -1.37329e-06C 10.4 -1.37329e-06 9.76918 0.590152 9.75074 1.35562L 9.55152 9.73918L 9.18887 9.75199L 9.3184 7.79794C 9.36903 7.03388 8.73965 6.38997 7.98966 6.36997C 7.23888 6.35029 6.64029 6.96185 6.58935 7.72559L 6.44888 9.8498L 6.03826 9.86465L 6.15232 8.49559C 6.2156 7.73325 5.57389 7.06794 4.82358 7.06794C 4.07248 7.06794 3.48733 7.6609 3.42358 8.42387L 3.29483 9.96246L 2.80249 9.98012L 2.83561 9.19403C 2.86811 8.42965 2.25718 7.76638 1.50656 7.76638C 0.755466 7.76638 0.138905 8.35731 0.106561 9.122L 0.0376563 10.7512L 6.48496e-07 11.0282L 0.337655 19.818C 0.383123 21.0107 0.854841 22.0204 1.37156 22.6051C 1.51968 22.7726 1.67093 22.9051 1.81765 22.9971L 1.48281 32.1144C 4.17092 32.6842 6.95794 32.986 9.81606 32.986C 10.2653 32.986 10.7121 32.976 11.1582 32.9611L 10.7403 22.6407C 11.6309 22.2144 12.8301 21.1624 13.0937 20.4059L 13.096 20.4107L 18.4352 12.8925C 18.8676 12.2837 18.7329 11.4248 18.1366 10.9842L 18.1374 10.9842Z"/>
<path id="path6_fill" d="M 11.3128 0.12906L 0.331717 -1.1444e-07L -3.62395e-07 4.47686C 2.95202 5.17139 6.02982 5.54045 9.19418 5.54045C 9.96793 5.54045 10.7362 5.51591 11.4989 5.47263L 11.3125 0.129375L 11.3128 0.12906Z"/>
<path id="path7_fill" d="M 10.3211 0.173592L 0.0100008 -1.52587e-07L -8.3923e-07 2.0353L 10.3111 2.2089L 10.3211 0.173592Z"/>
<path id="path8_fill" d="M 0.0429689 0.683891L 1.29699e-06 1.88482L 1.83343 1.9292L 1.87671 0.728266C 1.91109 -0.217043 -0.0148433 -0.252824 0.0429689 0.683891ZM 6.79263 10.8551L 5.77576 11.8759L 7.06981 13.2021L 8.08669 12.1813C 8.74762 11.5178 7.44778 10.1967 6.79263 10.8551Z"/>
<path id="path9_fill" d="M 2.55077 7.15253e-08C 3.95936 7.15253e-08 5.10107 1.14203 5.10107 2.5503C 5.10107 3.95889 3.95905 5.10107 2.55077 5.10107C 1.14218 5.10107 5.91276e-07 3.95905 5.91276e-07 2.5503C 5.91276e-07 1.14203 1.14218 7.15253e-08 2.55077 7.15253e-08Z"/>
<path id="path10_fill" d="M 2.5503 -3.33785e-07C 3.95858 -3.33785e-07 5.10061 1.14203 5.10061 2.55077C 5.10061 3.95905 3.95858 5.10107 2.5503 5.10107C 1.14172 5.10107 -1.37329e-06 3.95905 -1.37329e-06 2.55077C -1.37329e-06 1.14203 1.14203 -3.33785e-07 2.5503 -3.33785e-07Z"/>
<path id="path11_fill" d="M 3.60733 1.18255e-06C 5.5992 1.18255e-06 7.21435 1.61515 7.21435 3.60733C 7.21435 5.5992 5.5992 7.21403 3.60733 7.21403C 1.61546 7.21403 6.86643e-07 5.59888 6.86643e-07 3.60733C 6.86643e-07 1.61484 1.61499 1.18255e-06 3.60733 1.18255e-06Z"/>
<path id="path12_fill" d="M 1.80343 9.72744e-07C 2.79952 9.72744e-07 3.60655 0.807497 3.60655 1.80312C 3.60655 2.79921 2.79936 3.60655 1.80343 3.60655C 0.807497 3.60655 1.90734e-08 2.79905 1.90734e-08 1.80312C 1.90734e-08 0.807184 0.807341 9.72744e-07 1.80343 9.72744e-07Z"/>
<path id="path13_fill" d="M 3.60702 -5.72202e-08C 5.59935 -5.72202e-08 7.21435 1.61515 7.21435 3.60733C 7.21435 5.5992 5.5992 7.21435 3.60702 7.21435C 1.61515 7.21435 -1.28746e-07 5.5992 -1.28746e-07 3.60733C -1.28746e-07 1.61499 1.61484 -5.72202e-08 3.60702 -5.72202e-08Z"/>
<path id="path14_fill" d="M 1.80312 9.34597e-07C 2.79952 9.34597e-07 3.60655 0.807496 3.60655 1.80343C 3.60655 2.79905 2.79936 3.60655 1.80312 3.60655C 0.807028 3.60655 -1.84652e-06 2.79905 -1.84652e-06 1.80343C -0.000158096 0.807496 0.80734 9.34597e-07 1.80312 9.34597e-07Z"/>
<path id="path15_fill" d="M 3.6067 -1.90734e-08C 5.59857 -1.90734e-08 7.21403 1.61515 7.21403 3.60733C 7.21403 5.59967 5.59888 7.21435 3.6067 7.21435C 1.61484 7.21435 2.25066e-06 5.59967 2.25066e-06 3.60733C 2.25066e-06 1.61499 1.61468 -1.90734e-08 3.6067 -1.90734e-08Z"/>
</defs>
</svg>
