<?xml version="1.0" encoding="UTF-8" standalone="no"?>
<svg width="32px" height="43px" viewBox="0 0 32 43" version="1.1" xmlns="http://www.w3.org/2000/svg" xmlns:xlink="http://www.w3.org/1999/xlink" xmlns:sketch="http://www.bohemiancoding.com/sketch/ns">
    <!-- Generator: Sketch 3.2.2 (9983) - http://www.bohemiancoding.com/sketch -->
    <title>icon_file_psd</title>
    <desc>Created with Sketch.</desc>
    <defs></defs>
    <g id="brandbook" stroke="none" stroke-width="1" fill="none" fill-rule="evenodd" sketch:type="MSPage">
        <g id="icon_file_psd" sketch:type="MSLayerGroup" transform="translate(0.000000, 0.146617)">
            <path d="M1.82171429,0.00204511278 L21.3104361,0.00204511278 L31.9570526,10.6485414 L31.9570526,40.8101053 C31.9570526,41.8037895 31.1461053,42.6146165 30.1525414,42.6146165 L1.82171429,42.6146165 C0.828030075,42.6146165 0.0172030075,41.8040301 0.0172030075,40.8101053 L0.0172030075,1.80655639 C0.0172030075,0.812631579 0.827789474,0.00204511278 1.82171429,0.00204511278" id="Fill-1" fill="#329FD9" sketch:type="MSShapeGroup"></path>
            <path d="M0.017443609,40.8449925 C0.0362105263,41.8229173 0.839458647,42.6146165 1.82171429,42.6146165 C0.839699248,42.6146165 0.0362105263,41.8229173 0.017443609,40.8449925 M31.9570526,40.8101053 C31.9570526,41.8037895 31.1461053,42.6146165 30.1525414,42.6146165 C31.1463459,42.6146165 31.9570526,41.8040301 31.9570526,40.8101053" id="Fill-2" fill="#CCCCCC" sketch:type="MSShapeGroup"></path>
            <path d="M31.9570526,39.3664962 C31.9570526,40.3601805 31.1461053,41.1710075 30.1525414,41.1710075 L1.82171429,41.1710075 C0.827789474,41.1710075 0.0172030075,40.3604211 0.0172030075,39.3664962 L0.0172030075,40.8101053 C0.0172030075,40.8217744 0.0172030075,40.8334436 0.017443609,40.8449925 C0.0362105263,41.8229173 0.839699248,42.6146165 1.82171429,42.6146165 L30.1525414,42.6146165 C31.1461053,42.6146165 31.9570526,41.8037895 31.9570526,40.8101053 L31.9570526,39.3664962" id="Fill-3" fill="#287FAE" sketch:type="MSShapeGroup"></path>
            <path d="M21.3104361,0.00204511278 L21.3104361,10.6485414 L31.9570526,10.6485414 L21.3104361,0.00204511278" id="Fill-4" fill="#47A9DD" sketch:type="MSShapeGroup"></path>
            <path d="M31.9570526,10.6485414 L21.3104361,10.6485414 L31.9570526,21.2952782 L31.9570526,10.6485414" id="Fill-5" fill="#287FAE" sketch:type="MSShapeGroup"></path>
            <path d="M20.1597594,19.0458947 C19.778406,19.0458947 19.4107669,19.0861955 19.0587669,19.1670376 C18.7067669,19.2476391 18.3929023,19.3755188 18.1193383,19.5481504 C17.8458947,19.7209023 17.625985,19.9428571 17.4623759,20.214015 C17.2986466,20.4854135 17.2157594,20.8104662 17.2157594,21.1872481 C17.2157594,21.4629774 17.2537744,21.7006917 17.325594,21.9024361 C17.3972932,22.1043008 17.502797,22.2815038 17.6395789,22.4338045 C17.778406,22.5886316 17.9489925,22.7231278 18.1529023,22.8396992 C18.3569323,22.9538647 18.5923609,23.0639398 18.859188,23.1648722 C19.025203,23.2298346 19.1978346,23.2880602 19.3770827,23.3418346 C19.5565714,23.3935639 19.7225865,23.4539549 19.8726015,23.5190376 C20.0251429,23.5841203 20.1484511,23.6602707 20.244812,23.7477293 C20.3414135,23.8353083 20.3884511,23.9450226 20.3884511,24.0772331 C20.3884511,24.2835489 20.2830677,24.4360902 20.070015,24.5370226 C19.8592481,24.6379549 19.5676391,24.6872782 19.2,24.6872782 C18.8973233,24.6872782 18.5768421,24.6379549 18.2379549,24.5370226 C17.8996692,24.4360902 17.5587368,24.2835489 17.2157594,24.0772331 L17.2157594,25.7589173 C17.8479398,25.9854436 18.5319699,26.0998496 19.2718195,26.0998496 C19.6753083,26.0998496 20.0631579,26.0594286 20.4377744,25.9787068 C20.8122707,25.897985 21.1440602,25.7679398 21.4308571,25.5909774 C21.718015,25.4137744 21.9467068,25.1848421 22.1193383,24.9024962 C22.2941353,24.6200301 22.3794286,24.2790977 22.3794286,23.8800602 C22.3794286,23.5954286 22.3367218,23.3508571 22.2516692,23.1446617 C22.1663759,22.9384662 22.0430677,22.7589774 21.8839098,22.6064361 C21.7246316,22.4518496 21.5319098,22.3195188 21.3099549,22.2051128 C21.0858346,22.0908271 20.8366917,21.9854436 20.5610827,21.8890827 C20.4062556,21.8373534 20.2516692,21.785985 20.0968421,21.7342556 C19.9422556,21.6849323 19.8010226,21.6289925 19.6731429,21.5639098 C19.5453835,21.5011128 19.4445714,21.4248421 19.3637293,21.3373835 C19.2852932,21.2500451 19.2471579,21.1446617 19.2471579,21.0235188 C19.2471579,20.931609 19.2718195,20.8487218 19.3257143,20.7769023 C19.3770827,20.7029173 19.4490226,20.6445714 19.5409323,20.5998195 C19.6327218,20.5526617 19.740391,20.516812 19.8614135,20.4943158 C19.9802707,20.4696541 20.1080301,20.4584662 20.244812,20.4584662 C20.534015,20.4584662 20.8277895,20.4967218 21.1283008,20.5728722 C21.428812,20.6491429 21.7091128,20.7634286 21.9736541,20.9182556 L21.9736541,19.3150075 C21.6753083,19.2275489 21.3726316,19.1601805 21.0656241,19.1153083 C20.7584962,19.068391 20.457985,19.0458947 20.1597594,19.0458947 M11.7177744,21.0817444 L11.7177744,18.1444812 L12.5519398,18.1444812 C13.6820451,18.1444812 14.2469774,18.6289323 14.2469774,19.5974737 C14.2469774,20.5862256 13.6820451,21.0817444 12.5519398,21.0817444 L11.7177744,21.0817444 M12.9195789,16.5166917 L9.59470677,16.5166917 L9.59470677,25.9361203 L11.7177744,25.9361203 L11.7177744,22.6917293 L12.7291429,22.6917293 C13.8681504,22.6917293 14.7763008,22.3980752 15.4576842,21.8150977 C16.1395489,21.2297143 16.4802406,20.465203 16.4802406,19.5190376 C16.4802406,17.5166316 15.2941955,16.5166917 12.9195789,16.5166917" id="Fill-6" fill="#236F97" sketch:type="MSShapeGroup"></path>
        </g>
    </g>
</svg>