<?xml version="1.0" encoding="UTF-8" standalone="no"?>
<svg width="32px" height="43px" viewBox="0 0 32 43" version="1.1" xmlns="http://www.w3.org/2000/svg" xmlns:xlink="http://www.w3.org/1999/xlink" xmlns:sketch="http://www.bohemiancoding.com/sketch/ns">
    <!-- Generator: Sketch 3.2.2 (9983) - http://www.bohemiancoding.com/sketch -->
    <title>icon_file_html</title>
    <desc>Created with Sketch.</desc>
    <defs></defs>
    <g id="brandbook" stroke="none" stroke-width="1" fill="none" fill-rule="evenodd" sketch:type="MSPage">
        <g id="icon_file_html" sketch:type="MSLayerGroup" transform="translate(0.000000, 0.146617)">
            <path d="M1.83458647,0.00192481203 L21.3233083,0.00192481203 L31.9699248,10.6485414 L31.9699248,40.809985 C31.9699248,41.8035489 31.1593383,42.6143759 30.1654135,42.6143759 L1.83458647,42.6143759 C0.840902256,42.6143759 0.030075188,41.8037895 0.030075188,40.809985 L0.030075188,1.80643609 C0.030075188,0.812511278 0.840661654,0.00192481203 1.83458647,0.00192481203" id="Fill-1" fill="#E54E26" sketch:type="MSShapeGroup"></path>
            <path d="M0.0301954887,40.833203 C0.0427067669,41.8164211 0.848481203,42.6143759 1.83458647,42.6143759 C0.848721805,42.6143759 0.0427067669,41.8164211 0.0301954887,40.833203 M31.9699248,40.809985 C31.9699248,41.7977744 31.1688421,42.6048722 30.1828571,42.6143759 C31.1688421,42.6048722 31.9699248,41.798015 31.9699248,40.809985" id="Fill-2" fill="#CCCCCC" sketch:type="MSShapeGroup"></path>
            <path d="M31.9699248,39.3662556 C31.9699248,40.3601805 31.1593383,41.1708872 30.1654135,41.1708872 L1.83458647,41.1708872 C0.840902256,41.1708872 0.030075188,40.3601805 0.030075188,39.3662556 L0.030075188,40.809985 C0.030075188,40.8176842 0.030075188,40.8255038 0.0301954887,40.833203 C0.0427067669,41.8164211 0.848721805,42.6143759 1.83458647,42.6143759 L30.1654135,42.6143759 L30.1828571,42.6143759 C31.1688421,42.6048722 31.9699248,41.7977744 31.9699248,40.809985 L31.9699248,39.3662556" id="Fill-3" fill="#B73E1E" sketch:type="MSShapeGroup"></path>
            <path d="M21.3233083,0.00192481203 L21.3233083,10.6485414 L31.9699248,10.6485414 L21.3233083,0.00192481203" id="Fill-4" fill="#E8603C" sketch:type="MSShapeGroup"></path>
            <path d="M31.9699248,10.6485414 L21.3233083,10.6485414 L31.9699248,21.2951579 L31.9699248,10.6485414" id="Fill-5" fill="#B73E1E" sketch:type="MSShapeGroup"></path>
            <path d="M15.998797,16.1254737 L22.834406,16.1254737 L23.0200301,14.0547368 L23.0876391,13.2956391 L8.9123609,13.2956391 L9.67578947,21.8531128 L19.4835489,21.8531128 L19.1551278,25.5234887 L15.998797,26.375218 L15.998797,26.3754586 L15.9962707,26.3761805 L12.8445113,25.5251729 L12.6428872,23.2683308 L9.80222556,23.2683308 L10.1984962,27.7117594 L15.9955489,29.3210226 L16.0084211,29.3171729 L16.0084211,29.3166917 L21.8003008,27.7117594 L22.5077895,19.7830977 L22.5768421,19.0232782 L12.2639398,19.0232782 L12.0051729,16.1254737 L15.998797,16.1254737" id="Fill-6" fill="#FFFFFF" sketch:type="MSShapeGroup"></path>
        </g>
    </g>
</svg>