<svg xmlns="http://www.w3.org/2000/svg" width="42" height="42" viewBox="0 0 42 42">
  <path fill="#FFFFFF" fill-rule="evenodd" d="M22,20 L22,11.9918031 C22,11.4553056 21.5522847,11 21,11 C20.4438648,11 20,11.4440454 20,11.9918031 L20,20 L11.9918031,20 C11.4553056,20 11,20.4477153 11,21 C11,21.5561352 11.4440454,22 11.9918031,22 L20,22 L20,30.0081969 C20,30.5446944 20.4477153,31 21,31 C21.5561352,31 22,30.5559546 22,30.0081969 L22,22 L30.0081969,22 C30.5446944,22 31,21.5522847 31,21 C31,20.4438648 30.5559546,20 30.0081969,20 L22,20 Z M21,42 C32.5979797,42 42,32.5979797 42,21 C42,9.40202025 32.5979797,0 21,0 C9.40202025,0 0,9.40202025 0,21 C0,32.5979797 9.40202025,42 21,42 Z"/>
</svg>
