<svg xmlns="http://www.w3.org/2000/svg" xmlns:xlink="http://www.w3.org/1999/xlink" width="38" height="38"><use fill="#015486" transform="translate(16.55)" xlink:href="#path0_fill"/><use fill="#41CFC8" transform="translate(.76 22.1)" xlink:href="#path1_fill"/><use fill="#015486" transform="translate(0 36.8)" xlink:href="#path2_fill"/><use fill="#FFF" transform="translate(15.32 24.5)" xlink:href="#path3_fill"/><use fill="#FFF" transform="translate(25.74 30)" xlink:href="#path4_fill"/><use fill="#FFF" transform="translate(23.29 34.3)" xlink:href="#path4_fill"/><use fill="#FFF" transform="translate(8.58 34.3)" xlink:href="#path4_fill"/><use fill="#FFF" transform="translate(11.65 30)" xlink:href="#path4_fill"/><use fill="#FFF" transform="translate(29.42 32.5)" xlink:href="#path4_fill"/><defs><path id="path0_fill" d="M14.1 9.2V6.12c0-1.01-.83-1.84-1.84-1.84H4.29v-.23A2.43 2.43 0 0 0 2.45 0 2.43 2.43 0 1 0 .61 4.06v18.62h1.23V4.82a2.41 2.41 0 0 0 1.23 0v17.86h1.22v-6.13h6.13v3.06c0 1.02.82 1.84 1.84 1.84h9.2V9.2H14.1zM1.23 2.44a1.23 1.23 0 1 1 2.45 0 1.23 1.23 0 0 1-2.45 0zm11.03 14.1a.61.61 0 0 1 0 1.22c-.22 0-.42.05-.61.12v-1.34h.6zm7.97 3.68h-7.97a.61.61 0 0 1 0-1.23c1.01 0 1.84-.82 1.84-1.84v-4.29h-1.23v2.57c-.2-.07-.4-.12-.61-.12H4.29v-9.8h7.97a.6.6 0 0 1 .61.6v5.53h1.23v-1.23h6.13v9.8z"/><path id="path1_fill" d="M26.83 3.9a11.42 11.42 0 0 0-17.19 0L0 14.92h36.47L26.83 3.9z"/><path id="path2_fill" d="M38 0H0v1.23h38V0z"/><path id="path3_fill" d="M7.35 4.29v-.61c0-1.35-1.1-2.45-2.45-2.45h-.6V0H3.06v1.23h-.6a2.45 2.45 0 0 0 0 4.9H4.9a1.23 1.23 0 0 1 0 2.45H2.45c-.67 0-1.22-.55-1.22-1.23v-.6H0v.6c0 1.36 1.1 2.46 2.45 2.46h.61v1.22H4.3V9.81h.61a2.45 2.45 0 0 0 0-4.9H2.45a1.23 1.23 0 0 1 0-2.46H4.9c.68 0 1.23.55 1.23 1.23v.61h1.22z"/><path id="path4_fill" d="M1.23 0H0v1.23h1.23V0z"/></defs></svg>