<svg xmlns="http://www.w3.org/2000/svg" xmlns:xlink="http://www.w3.org/1999/xlink" width="48" height="38"><use fill="#9DA6AA" transform="translate(16.55)" xlink:href="#path0_fill"/><g transform="translate(2212 -15059)"><mask id="a"><use fill="#fff" transform="translate(-2211.24 15081.1)" xlink:href="#path1_fill"/></mask><g mask="url(#a)"><use fill="#9DA6AA" transform="translate(-2211.24 15081.1)" xlink:href="#path2_stroke_2x"/></g></g><use fill="#9DA6AA" transform="translate(0 36.8)" xlink:href="#path3_fill"/><use fill="#9DA6AA" transform="translate(15.32 24.5)" xlink:href="#path4_fill"/><use fill="#9DA6AA" transform="translate(25.74 30)" xlink:href="#path5_fill"/><use fill="#9DA6AA" transform="translate(23.29 34.3)" xlink:href="#path5_fill"/><use fill="#9DA6AA" transform="translate(8.58 34.3)" xlink:href="#path5_fill"/><use fill="#9DA6AA" transform="translate(11.65 30)" xlink:href="#path5_fill"/><use fill="#9DA6AA" transform="translate(29.42 32.5)" xlink:href="#path5_fill"/><use fill="#E8C113" transform="translate(28.4 2.4)" xlink:href="#path6_fill"/><use fill="#FFF" transform="translate(37.33 8)" xlink:href="#path7_fill"/><use fill="#FFF" transform="translate(37.33 14.7)" xlink:href="#path8_fill"/><defs><path id="path0_fill" d="M14.1 9.2V6.12c0-1.01-.83-1.84-1.84-1.84H4.29v-.23A2.43 2.43 0 0 0 2.45 0 2.43 2.43 0 1 0 .61 4.06v18.62h1.23V4.82a2.41 2.41 0 0 0 1.23 0v17.86h1.22v-6.13h6.13v3.06c0 1.02.82 1.84 1.84 1.84h9.2V9.2H14.1zM1.23 2.44a1.23 1.23 0 1 1 2.45 0 1.23 1.23 0 0 1-2.45 0zm11.03 14.1a.61.61 0 0 1 0 1.22c-.22 0-.42.05-.61.12v-1.34h.6zm7.97 3.68h-7.97a.61.61 0 0 1 0-1.23c1.01 0 1.84-.82 1.84-1.84v-4.29h-1.23v2.57c-.2-.07-.4-.12-.61-.12H4.29v-9.8h7.97a.6.6 0 0 1 .61.6v5.53h1.23v-1.23h6.13v9.8z"/><path id="path1_fill" d="M26.83 4.16A11.13 11.13 0 0 0 18.23 0c-3.29 0-6.42 1.52-8.59 4.16L0 15.92h36.47L26.83 4.16z"/><path id="path2_stroke_2x" d="M26.83 4.16l1.16-.95-1.16.95zm-17.19 0l-1.16-.95 1.16.95zM0 15.92l-1.16-.95-2.01 2.45H0v-1.5zm36.47 0v1.5h3.17l-2-2.45-1.17.95zM28 3.2c-2.44-2.98-6-4.71-9.75-4.71v3c2.82 0 5.53 1.3 7.43 3.61L28 3.2zm-9.76-4.7c-3.77 0-7.32 1.73-9.76 4.7l2.32 1.91a9.63 9.63 0 0 1 7.44-3.61v-3zM8.48 3.21l-9.64 11.76 2.32 1.9L10.8 5.11l-2.32-1.9zM0 17.41h36.47v-3H0v3zm37.63-2.44L28 3.2l-2.32 1.9 9.64 11.76 2.32-1.9z"/><path id="path3_fill" d="M38 0H0v1.23h38V0z"/><path id="path4_fill" d="M7.35 4.29v-.61c0-1.35-1.1-2.45-2.45-2.45h-.6V0H3.06v1.23h-.6a2.45 2.45 0 0 0 0 4.9H4.9a1.23 1.23 0 0 1 0 2.45H2.45c-.67 0-1.22-.55-1.22-1.23v-.6H0v.6c0 1.36 1.1 2.46 2.45 2.46h.61v1.22H4.3V9.81h.61a2.45 2.45 0 0 0 0-4.9H2.45a1.23 1.23 0 0 1 0-2.46H4.9c.68 0 1.23.55 1.23 1.23v.61h1.22z"/><path id="path5_fill" d="M1.23 0H0v1.23h1.23V0z"/><path id="path6_fill" d="M9.6 0L0 9.6l9.6 9.6 9.6-9.6L9.6 0z"/><path id="path7_fill" d="M0 0v5.33h1.33V0H0z"/><path id="path8_fill" d="M0 0v1.33h1.33V0H0z"/></defs></svg>