<svg width="70" height="65" viewBox="0 0 70 65" version="1.1" xmlns="http://www.w3.org/2000/svg" xmlns:xlink="http://www.w3.org/1999/xlink">
<title>icon_large_idea</title>
<desc>Created using Figma</desc>
<g id="Canvas" transform="translate(-2056 2489)">
<g id="icon_large_idea">
<g id="surface1">
<g id="Vector">
<use xlink:href="#path0_fill" transform="translate(2056 -2489)" fill="#9DA6AA"/>
</g>
</g>
</g>
</g>
<defs>
<path id="path0_fill" d="M 35 0C 23.1716 0 13.5484 9.62324 13.5484 21.4516C 13.5484 27.0659 16.6885 31.2601 19.7272 35.3175C 22.1528 38.5591 24.4374 41.6463 24.8387 45.1613L 24.8387 53.0645C 24.8387 57.0382 27.7892 60.3282 31.6129 60.8795L 31.6129 62.0968C 31.6129 63.3405 32.6273 64.3548 33.871 64.3548L 36.129 64.3548C 37.3727 64.3548 38.3871 63.3405 38.3871 62.0968L 38.3871 60.8795C 42.2108 60.3282 45.1613 57.0382 45.1613 53.0645L 45.1613 46.1757C 45.1789 42.2285 47.6707 38.8722 50.3125 35.3175C 53.3335 31.2601 56.4516 27.0659 56.4516 21.4516C 56.4516 9.62324 46.8284 0 35 0ZM 35 2.25806C 45.5847 2.25806 54.1936 10.8669 54.1936 21.4516C 54.1936 26.3206 51.3004 30.2104 48.5043 33.9724C 45.9728 37.3771 43.3619 40.8833 42.9562 45.0907L 36.129 45.0907L 36.129 41.7742C 36.129 41.1523 35.6218 40.6452 35 40.6452C 34.3782 40.6452 33.871 41.1523 33.871 41.7742L 33.871 45.0951L 27.1276 45.0951C 26.7175 40.8877 24.0846 37.3727 21.5354 33.9636C 18.7172 30.2016 15.8065 26.3162 15.8065 21.4516C 15.8065 10.8669 24.4153 2.25806 35 2.25806ZM 34.8456 5.64075C 31.829 5.66721 28.8829 6.55368 26.3206 8.23841C 25.8002 8.578 25.659 9.27923 26.003 9.79965C 26.2191 10.1304 26.5764 10.3068 26.9424 10.3068C 27.1585 10.3068 27.3702 10.2495 27.5643 10.1216C 30.4883 8.19871 34.0033 7.49307 37.4653 8.12815C 38.0828 8.23841 38.6694 7.83266 38.7796 7.21963C 38.8943 6.6066 38.4885 6.02003 37.8755 5.90978C 36.8656 5.72014 35.8556 5.63193 34.8456 5.64075ZM 42.7445 7.7621C 42.3122 7.70035 41.858 7.89882 41.6154 8.29574C 41.2935 8.8338 41.4655 9.52621 42.0035 9.84816C 42.9341 10.4127 43.8029 11.0919 44.5791 11.8725C 44.7996 12.093 45.0907 12.2032 45.3774 12.2032C 45.6685 12.2032 45.9595 12.093 46.1801 11.8725C 46.6211 11.4315 46.6211 10.717 46.1801 10.276C 45.2671 9.36744 44.2572 8.57359 43.1678 7.91646C 43.0355 7.83707 42.89 7.78415 42.7445 7.7621ZM 5.67162 8.48097C 5.2306 8.48979 4.81603 8.75441 4.63962 9.18662C 4.41028 9.76436 4.68813 10.4259 5.26588 10.6552L 9.45565 12.3488C 9.59236 12.4061 9.73349 12.4326 9.87462 12.4326C 10.3201 12.4326 10.7479 12.1636 10.9243 11.7269C 11.158 11.1448 10.8758 10.4877 10.298 10.2539L 6.11265 8.56036C 5.96711 8.50302 5.81716 8.47656 5.67162 8.48097ZM 64.3284 8.48097C 64.1828 8.47656 64.0329 8.50302 63.8873 8.56036L 59.702 10.2539C 59.1242 10.4877 58.842 11.1448 59.0757 11.7269C 59.2521 12.1636 59.6799 12.4326 60.1254 12.4326C 60.2665 12.4326 60.4076 12.4061 60.5444 12.3488L 64.7341 10.6552C 65.3119 10.4259 65.5897 9.76436 65.3604 9.18662C 65.184 8.75441 64.7694 8.48979 64.3284 8.48097ZM 1.12903 20.3226C 0.507183 20.3226 0 20.8298 0 21.4516C 0 22.0735 0.507183 22.5806 1.12903 22.5806L 7.90323 22.5806C 8.52507 22.5806 9.03226 22.0735 9.03226 21.4516C 9.03226 20.8298 8.52507 20.3226 7.90323 20.3226L 1.12903 20.3226ZM 62.0968 20.3226C 61.4749 20.3226 60.9677 20.8298 60.9677 21.4516C 60.9677 22.0735 61.4749 22.5806 62.0968 22.5806L 68.871 22.5806C 69.4928 22.5806 70 22.0735 70 21.4516C 70 20.8298 69.4928 20.3226 68.871 20.3226L 62.0968 20.3226ZM 30.4839 24.8387C 30.1972 24.8387 29.9061 24.949 29.6856 25.1695C 29.2446 25.6105 29.2446 26.325 29.6856 26.766L 31.9437 29.0241C 32.1642 29.2446 32.4509 29.3548 32.7419 29.3548C 33.033 29.3548 33.3197 29.2446 33.5402 29.0241C 33.9812 28.583 33.9812 27.8686 33.5402 27.4275L 31.2821 25.1695C 31.0616 24.949 30.7705 24.8387 30.4839 24.8387ZM 39.5161 24.8387C 39.2295 24.8387 38.9384 24.949 38.7179 25.1695L 34.2017 29.6856C 33.99 29.8973 33.871 30.184 33.871 30.4839L 33.871 37.2581C 33.871 37.8799 34.3782 38.3871 35 38.3871C 35.6218 38.3871 36.129 37.8799 36.129 37.2581L 36.129 30.9514L 40.3144 26.766C 40.7554 26.325 40.7554 25.6105 40.3144 25.1695C 40.0939 24.949 39.8028 24.8387 39.5161 24.8387ZM 9.89667 30.4706C 9.74672 30.4706 9.59677 30.4971 9.45565 30.5544L 5.26588 32.248C 4.68813 32.4773 4.41028 33.1389 4.63962 33.7166C 4.82044 34.1576 5.24383 34.4223 5.68926 34.4223C 5.83039 34.4223 5.97593 34.3958 6.11265 34.3429L 10.298 32.6493C 10.8758 32.4156 11.158 31.7584 10.9243 31.1763C 10.7479 30.7441 10.3333 30.4795 9.89667 30.4706ZM 60.1033 30.475C 59.6667 30.4839 59.2521 30.7485 59.0757 31.1807C 58.842 31.7584 59.1242 32.42 59.702 32.6537L 63.8873 34.3429C 64.0241 34.4002 64.1696 34.4223 64.3107 34.4223C 64.7562 34.4223 65.1796 34.1576 65.3604 33.7166C 65.5897 33.1389 65.3119 32.4817 64.7341 32.248L 60.5444 30.5544C 60.4032 30.4971 60.2533 30.4706 60.1033 30.475ZM 27.0968 47.4194L 42.9032 47.4194L 42.9032 48.6807L 27.0968 50.6565L 27.0968 47.4194ZM 42.9032 50.9564L 42.9032 53.0645C 42.9032 53.1086 42.89 53.1527 42.89 53.2012L 31.4233 54.6346C 30.8058 54.7095 30.3692 55.2741 30.4486 55.8915C 30.5192 56.4648 31.0043 56.8794 31.5644 56.8794C 31.6129 56.8794 31.657 56.8794 31.7055 56.8706L 42.3034 55.5475C 41.3817 57.4131 39.4764 58.7097 37.2581 58.7097L 32.7419 58.7097C 29.6283 58.7097 27.0968 56.1782 27.0968 53.0645L 27.0968 52.9322L 42.9032 50.9564ZM 33.871 60.9677L 36.129 60.9677L 36.129 62.0968L 33.871 62.0968L 33.871 60.9677Z"/>
</defs>
</svg>
