<svg width="80" height="80" viewBox="0 0 80 80" version="1.1" xmlns="http://www.w3.org/2000/svg" xmlns:xlink="http://www.w3.org/1999/xlink"><title>networking</title><desc>Created using Figma</desc><g id="Canvas" transform="translate(773 3798)"><g id="networking"><g id="Vector"><use xlink:href="#path0_fill" transform="translate(-773 -3798)" fill="#3D546B"/></g><g id="Group"><g id="Vector"><use xlink:href="#path1_fill" transform="translate(-760.625 -3774.15)" fill="#ECF0F1"/></g><g id="Vector"><use xlink:href="#path2_fill" transform="translate(-717.116 -3774.15)" fill="#ECF0F1"/></g><g id="Vector"><use xlink:href="#path3_fill" transform="translate(-760.625 -3750.27)" fill="#ECF0F1"/></g><g id="Vector"><use xlink:href="#path4_fill" transform="translate(-717.116 -3750.27)" fill="#ECF0F1"/></g><g id="Vector"><use xlink:href="#path5_fill" transform="translate(-733.597 -3789.32)" fill="#ECF0F1"/></g><g id="Vector"><use xlink:href="#path6_fill" transform="translate(-733.597 -3738.77)" fill="#ECF0F1"/></g><g id="Vector"><use xlink:href="#path7_fill" transform="translate(-760.681 -3789.86)" fill="#ECF0F1"/></g></g><g id="Vector"><use xlink:href="#path8_fill" transform="translate(-763.966 -3777.51)" fill="#FFE356"/></g><g id="Vector"><use xlink:href="#path9_fill" transform="translate(-736.845 -3793.17)" fill="#88BD1F"/></g><g id="Vector"><use xlink:href="#path10_fill" transform="translate(-709.724 -3777.51)" fill="#20D8DD"/></g><g id="Vector"><use xlink:href="#path11_fill" transform="translate(-709.724 -3746.18)" fill="#FFE356"/></g><g id="Vector"><use xlink:href="#path12_fill" transform="translate(-736.845 -3730.52)" fill="#88BD1F"/></g><g id="Vector"><use xlink:href="#path13_fill" transform="translate(-763.966 -3746.18)" fill="#20D8DD"/></g><g id="Vector"><use xlink:href="#path14_fill" transform="translate(-752.449 -3777.45)" fill="#ECF0F1"/></g><g id="Vector"><use xlink:href="#path15_fill" transform="translate(-738.096 -3757.83)" fill="#F0BA7D"/></g><g id="Vector"><use xlink:href="#path16_fill" transform="translate(-741.213 -3752.77)" fill="#ECF0F1"/></g><g id="Vector"><use xlink:href="#path17_fill" transform="translate(-734.344 -3751.17)" fill="#FF5B62"/></g><g id="Vector"><use xlink:href="#path18_fill" transform="translate(-746.159 -3752.79)" fill="#6B7F9E"/></g><g id="Vector"><use xlink:href="#path19_fill" transform="translate(-738.898 -3752.79)" fill="#8597B1"/></g><g id="Vector"><use xlink:href="#path20_fill" transform="translate(-739.668 -3770.92)" fill="#FED298"/></g><g id="Vector"><use xlink:href="#path21_fill" transform="translate(-739.192 -3772.37)" fill="#596366"/></g><g id="Group"><g id="Vector"><use xlink:href="#path22_fill" transform="translate(-737.125 -3754.25)" fill="#FFF"/></g><g id="Vector"><use xlink:href="#path23_fill" transform="translate(-733 -3754.25)" fill="#FFF"/></g></g></g></g><defs><path id="path0_fill" d="M 40 80C 62.0914 80 80 62.0914 80 40C 80 17.9086 62.0914 0 40 0C 17.9086 0 0 17.9086 0 40C 0 62.0914 17.9086 80 40 80Z"/><path id="path1_fill" d="M 0.634688 -1.14441e-07L 12.1139 7.4475L 11.4606 8.43688L -5.62668e-07 0.989375L 0.634688 -1.14441e-07Z"/><path id="path2_fill" d="M 11.4606 -1.14441e-07L -5.34058e-07 7.4475L 0.653281 8.43688L 12.1139 0.989375L 11.4606 -1.14441e-07Z"/><path id="path3_fill" d="M 0.634688 8.43672L 12.1139 0.989217L 11.4606 -9.91821e-07L -5.62668e-07 7.42875L 0.634688 8.43672Z"/><path id="path4_fill" d="M 11.4606 8.43672L -5.34058e-07 0.989217L 0.653281 -9.91821e-07L 12.1139 7.42875L 11.4606 8.43672Z"/><path id="path5_fill" d="M 1.19469 5.24521e-08L 1.19469 11.8713L 3.05176e-07 11.8713L 3.05176e-07 5.24521e-08L 1.19469 5.24521e-08Z"/><path id="path6_fill" d="M 1.19469 11.8527L 1.19469 -1.2207e-06L 3.05176e-07 -1.2207e-06L 3.05176e-07 11.8527L 1.19469 11.8527Z"/><path id="path7_fill" d="M 27.9608 0.069961L 41.5119 7.89074L 55.0816 15.7115C 55.2495 15.8048 55.3616 15.9915 55.3616 16.1968L 55.3616 31.8571L 55.3616 47.5175C 55.3616 47.7415 55.2309 47.9281 55.0442 48.0214L 41.5305 55.8236L 27.9608 63.6443C 27.7741 63.7376 27.5687 63.7376 27.4008 63.6443L 13.8497 55.8236L 0.28 48.0028C 0.112032 47.9095 3.62396e-07 47.7228 3.62396e-07 47.5175L 3.62396e-07 31.8571L 3.62396e-07 16.1968C 3.62396e-07 15.9728 0.130625 15.7862 0.317344 15.6929L 13.8311 7.89074L 27.4008 0.069961C 27.5875 -0.0233203 27.7928 -0.0233203 27.9608 0.069961ZM 40.9706 8.84262L 27.6808 1.17121L 14.3909 8.84277L 1.10109 16.5143L 1.10109 31.8571L 1.10109 47.2001L 14.3909 54.8717L 27.6808 62.5431L 40.9706 54.8715L 54.2605 47.2L 54.2605 31.8571L 54.2605 16.5142L 40.9706 8.84262Z"/><path id="path8_fill" d="M 3.845 7.69C 5.96854 7.69 7.69 5.96854 7.69 3.845C 7.69 1.72147 5.96854 0 3.845 0C 1.72147 0 0 1.72147 0 3.845C 0 5.96854 1.72147 7.69 3.845 7.69Z"/><path id="path9_fill" d="M 3.845 7.69C 5.96853 7.69 7.69 5.96853 7.69 3.845C 7.69 1.72147 5.96853 0 3.845 0C 1.72147 0 0 1.72147 0 3.845C 0 5.96853 1.72147 7.69 3.845 7.69Z"/><path id="path10_fill" d="M 3.845 7.69C 5.96854 7.69 7.69 5.96854 7.69 3.845C 7.69 1.72147 5.96854 0 3.845 0C 1.72147 0 0 1.72147 0 3.845C 0 5.96854 1.72147 7.69 3.845 7.69Z"/><path id="path11_fill" d="M 3.845 7.69C 5.96854 7.69 7.69 5.96854 7.69 3.845C 7.69 1.72147 5.96854 0 3.845 0C 1.72147 0 0 1.72147 0 3.845C 0 5.96854 1.72147 7.69 3.845 7.69Z"/><path id="path12_fill" d="M 3.845 7.69C 5.96853 7.69 7.69 5.96853 7.69 3.845C 7.69 1.72146 5.96853 0 3.845 0C 1.72147 0 0 1.72146 0 3.845C 0 5.96853 1.72147 7.69 3.845 7.69Z"/><path id="path13_fill" d="M 3.845 7.69C 5.96854 7.69 7.69 5.96854 7.69 3.845C 7.69 1.72147 5.96854 0 3.845 0C 1.72147 0 0 1.72147 0 3.845C 0 5.96854 1.72147 7.69 3.845 7.69Z"/><path id="path14_fill" d="M 19.4494 38.8988C 30.191 38.8988 38.8988 30.191 38.8988 19.4494C 38.8988 8.70778 30.191 0 19.4494 0C 8.70778 0 0 8.70778 0 19.4494C 0 30.191 8.70778 38.8988 19.4494 38.8988Z"/><path id="path15_fill" d="M 2.61312 1.90735e-06L 3.60234 1.90735e-06L 6.58891 1.90735e-06L 7.57812 1.90735e-06L 7.97016 4.1811L 8.67938 4.75969L 10.1912 5.71156L 5.09562 17.7322L 7.62939e-08 5.71156L 1.51187 4.75969L 2.22109 4.1811L 2.61312 1.90735e-06Z"/><path id="path16_fill" d="M 4.10641 -3.05176e-07L 5.53131e-07 1.30672L 8.21281 12.6739L 15.2123 0.93328L 12.3005 0.0187489L 9.74344 1.81063L 6.68219 1.81063L 4.10641 -3.05176e-07Z"/><path id="path17_fill" d="M 0.429375 0.0373435L 0.783906 0.914533L 3.24249e-07 10.77L 1.34391 11.8152L 2.68781 10.77L 1.90391 0.914533L 2.25844 0.0373435L 1.34391 -2.36511e-06L 0.429375 0.0373435Z"/><path id="path18_fill" d="M 9.12735 1.56403e-06L 1.86656 2.31453C 1.86656 2.31453 0.93328 2.79984 0.634687 4.29312C 0.354687 5.71172 0.224062 7.16766 -3.62396e-07 9.1275C 3.47172 12.3006 8.08219 14.2419 13.1591 14.2419C 18.2359 14.2419 22.8464 12.3006 26.3181 9.1275C 26.0941 7.16766 25.9634 5.71172 25.6834 4.29312C 25.4034 2.79984 24.4516 2.31453 24.4516 2.31453L 17.2467 0.0373427L 13.1591 12.0392L 9.12735 0.0187508L 9.12735 1.56403e-06Z"/><path id="path19_fill" d="M 1.86656 1.56403e-06L 0.298594 0.503904L 1.10626e-06 4.47969C 1.10626e-06 4.47969 0.0746877 4.79703 0.335938 4.77828L 1.75453 5.30094C 1.75453 5.30094 1.84781 5.39422 1.77312 5.50625L 0.559844 6.3275L 4.74094 14.2044C 5.13297 14.223 5.52484 14.2417 5.91687 14.2417C 6.3089 14.2417 6.70078 14.2231 7.09281 14.2044L 11.2739 6.3275L 10.0606 5.50625C 9.98594 5.39422 10.0792 5.30094 10.0792 5.30094L 11.4978 4.77828C 11.7405 4.81563 11.8337 4.47969 11.8337 4.47969L 11.5352 0.522658L 10.0233 0.0373427L 5.93563 12.0392L 1.90391 0.0187508L 1.86656 1.56403e-06Z"/><path id="path20_fill" d="M 0.900227 4.61047C 0.900227 5.0025 0.750852 5.37578 0.769602 5.74906C -0.55571 5.50641 0.078975 9.44484 0.825538 9.98609C 0.881475 10.0234 1.03085 9.93016 1.16148 9.85547C 1.42273 11.3114 3.64398 15.1752 5.06257 16.8177C 5.4546 17.2656 7.86241 17.2656 8.23569 16.8363C 9.69163 15.2497 11.9127 11.33 12.1741 9.85531C 12.3048 9.93 12.4541 10.0233 12.5101 9.98594C 13.2566 9.44469 13.9099 5.50625 12.566 5.74891C 12.5846 5.37563 12.4354 5.00234 12.4354 4.61031C 12.3607 1.54922 9.5796 0.0185937 6.66772 -5.72205e-08C 3.75601 0.0187499 0.974914 1.54938 0.900227 4.61047Z"/><path id="path21_fill" d="M 10.4106 2.12272C 10.8212 2.06678 12.3331 2.53335 12.5198 4.13866C 12.7065 5.74382 12.6131 7.2185 12.6131 7.2185C 12.6131 7.2185 11.7357 7.44257 11.6239 8.3571C 11.5118 9.27163 11.5865 9.27163 11.5865 9.27163L 11.2692 9.19694L 11.0451 7.64772C 9.71979 6.82647 11.0637 5.5946 9.73854 5.29585C 6.15479 7.85303 3.00026 7.40507 1.58183 6.21038C 1.58183 6.21038 1.91776 7.46101 1.65651 7.90897C 1.39526 8.35694 1.54448 9.06616 1.54448 9.06616L 1.20854 9.04757C 1.20854 9.04757 1.26448 7.19976 0.536512 7.19976C -2.26333 2.57069 6.62151 -3.19681 10.4292 2.14147L 10.4106 2.12272Z"/><path id="path22_fill" d="M 1.21328 -2.13623e-06C 1.32531 -2.13623e-06 -1.52588e-07 1.49328 -1.52588e-07 1.49328L 1.12 5.33828L 4.12516 3.09844C 2.46391 2.29578 1.49328 1.23188 1.21328 0.0185945L 1.21328 -2.13623e-06Z"/><path id="path23_fill" d="M 2.91187 -2.13623e-06C 2.79984 -2.13623e-06 4.12516 1.49328 4.12516 1.49328L 3.00516 5.33828L 0 3.09844C 1.66125 2.29578 2.63187 1.23188 2.91187 0.0185945L 2.91187 -2.13623e-06Z"/></defs></svg>