<svg height="53" viewBox="0 0 54 53" width="54" xmlns="http://www.w3.org/2000/svg"><g fill="none" fill-rule="evenodd"><path d="m26.7326733 53c14.7640477 0 26.7326732-11.8644541 26.7326732-26.5s-11.9686255-26.5-26.7326732-26.5c-14.7640478 0-26.7326733 11.8644541-26.7326733 26.5s11.9686255 26.5 26.7326733 26.5z" fill="#f7f7f7"/><path d="m27.0332026 11.000102c-3.379131-.019-6.174426 2.619053-6.498046 6.001953h-2.585938c-.162708-.6518-.752173-1.142578-1.451172-1.142578-.822505 0-1.5.6775-1.5 1.5 0 .4142.171671.7898.447266 1.0625l-3.419922 9.773437c-.00776.02-.0007269.042501-.0058594.0625h-.0253906v.5c.0000006 1.6069.8583899 3.094838 2.25 3.898438 1.391611.8033 3.108389.8034 4.5 0 1.39161-.8035 2.249999-2.291538 2.25-3.898438v-.5h-.021484c-.0051-.020999.00194-.043499-.00586-.0625l-3.419922-9.771484c.123476-.1215.222766-.264575.298828-.421875h7.269532c.08497.246.21485.469409.382812.662109v17.337891h-2c-.276131.0001-.499972.2239-.5.5v1.5h-1.5c-.276131.0001-.499972.2239-.5.5v2c.000028.2762.223869.5.5.5h11c.276131 0 .499972-.2238.5-.5v-2c-.000028-.2761-.223869-.4999-.5-.5h-1.5v-1.5c-.000028-.2761-.223869-.4999-.5-.5h-2v-17.337891c.167963-.192599.297848-.416109.382813-.662109h3.96875c.04812.015.09816.022485.148437.021485.05028.0004.10032-.010485.148438-.021485h3.003906c.07544.156.172787.299022.294922.419922l-3.419922 9.773437c-.0078.02.001194.042501-.003906.0625h-.027344v.5c.000001 1.6069.85839 3.094838 2.25 3.898438 1.391611.8033 3.108389.8034 4.5 0 1.39161-.8035 2.249999-2.291538 2.25-3.898438v-.263671c.0017-.052.009766-.102197.009766-.154297h-.003907c-.000667-.01-.004659-.017391-.005859-.025391v-.056641h-.013672c-.0052-.020999-.005802-.0425-.013672-.0625l-3.419922-9.771484c.277357-.2728.451172-.648753.451172-1.064453 0-.8225-.677495-1.5-1.5-1.5-.698999 0-1.288464.490778-1.451172 1.142578h-2.585937c-.320172-3.3513-3.073166-5.982953-6.427735-6.001953zm-.005859 1c2.805432.016 5.118589 2.182953 5.431641 5.001953h-3.498047c-.06587-.36-.230726-.683119-.462891-.949219v-2.550781c-.000028-.2761-.223869-.4999-.5-.5h-2c-.276131.0001-.499972.2239-.5.5v2.550781c-.232164.2661-.39698.589219-.46289.949219h-3.498047c.316182-2.8465 2.663691-5.018053 5.490234-5.001953zm-.529297 2.001953h1v1.427735c-.160753-.042001-.326658-.070313-.5-.070313-.173341 0-.339246.028312-.5.070313zm.5 2.357422c.55821 0 .999997.4418 1 1 .000034.5582-.441763 1-1 1-.558236 0-1.000034-.4418-1-1 .000003-.5582.441791-1 1-1zm-10.5.5c.282065 0 .5.2179.5.5s-.217935.5-.5.5c-.282064 0-.5-.2179-.5-.5s.217935-.5.5-.5zm21 0c.282065 0 .5.2179.5.5s-.217935.5-.5.5c-.282064 0-.5-.2179-.5-.5s.217936-.5.5-.5zm-21.140625 1.984375c.04701 0 .09252.015625.140625.015625.04671 0 .09104-.009672.136719-.013672l3.294922 9.412109h-3.435547-3.431641zm21 0c.04701 0 .09252.015625.140625.015625.04671 0 .09104-.009672.136719-.013672l3.294922 9.412109h-3.435547-3.431641zm-10.859375.443359c.16076.042.326651.070313.5.070313.17335 0 .33924-.028313.5-.070313v16.714844h-1zm-15.4999998 8.771485-.9980468.058594.03125.5.0195312.33789.0019532.03125.0058593.029297.1230469.648437.0917969.492188.9824219-.185547-.0917969-.490234-.1152344-.619141-.0195313-.308594zm21.0058598 0-.998047.058594.03125.5.019531.33789.001953.03125.005859.029297.123047.648437.091797.492188.982422-.185547-.091797-.490234-.115234-.619141-.019531-.308594zm-10.019532.183594-.037109.623046-.021484.113282-.091797.492187.984375.183594.091797-.490235.027343-.144531.00586-.03125v-.03125l.039062-.658203zm21.00586 0-.03711.623046-.021484.113282-.091797.492187.984375.183594.091797-.490235.027344-.144531.005859-.03125v-.03125l.039063-.658203zm-29.863282 1.015624h3.367188 3.367188c-.158637 1.041501-.688143 1.99485-1.617188 2.53125-1.083598.625601-2.416402.625601-3.5 0-.929045-.536399-1.458547-1.489749-1.617188-2.53125zm21 0h3.367188 3.367188c-.158637 1.041501-.688143 1.99485-1.617188 2.53125-1.083598.625601-2.416402.625601-3.5 0-.929045-.536399-1.45855-1.489749-1.617188-2.53125zm-12.533203 1.054688-.208984.455078-.130859.283203-.330078.53125-.265626.423828.84961.527344.263672-.423828.347656-.556641.015625-.02539.013672-.029297.144531-.3125.208984-.455078zm21.00586 0-.208985.455078-.130859.283203-.330078.53125-.265625.423828.849609.527344.263672-.423828.347656-.556641.015625-.02539.013672-.029297.144532-.3125.208984-.455078zm-31.0488284.429688-.8476562.53125.2636718.423828.3417969.548828.0175781.023437.0195313.023438.2226563.27539.3164062.386719.7753906-.632812-.3164062-.386719-.1992188-.244141-.328125-.527344zm21.0058594 0-.847656.53125.263672.423828.341796.548828.017579.023437.019531.023438.222656.27539.316406.386719.775391-.632812-.316406-.386719-.199219-.244141-.328125-.527344zm-12.457031 1.853515-.40625.291016-.453125.326172-.332032.173828-.441406.234375.466797.884765.441406-.234375.355469-.1875.03125-.019531.027344-.017578.486328-.349609.40625-.291016zm21.005859 0-.40625.291016-.453125.326172-.332031.173828-.441406.234375.466796.884765.441407-.234375.355469-.1875.03125-.019531.027343-.017578.486328-.349609.40625-.291016zm-27.791016.302735-.5820308.808593.4062498.292969.06836.048828.027343.017578.03125.021485.714844.375.029297.017578.033203.011719.101563.037109.470703.169922.339844-.939453-.470704-.169922-.066406-.025391-.662109-.347656-.035157-.023438zm21.00586 0-.582031.808593.40625.292969.068359.048828.027344.017578.03125.021485.714844.375.029296.017578.033204.011719.101562.037109.470703.169922.339844-.939453-.470703-.169922-.066406-.025391-.66211-.347656-.035156-.023438zm-16.603516 1.019531-.498047.03125-.722656.052734-.205078-.015625-.5-.035156-.068359 1 .498046.03125.242188.017578h.035156.035156l.753907-.052734.5-.035157zm21.00586 0-.498047.03125-.722657.052734-.205078-.015625-.5-.035156-.068359 1 .498047.03125.242187.017578h.035157.035156l.753906-.052734.5-.035157zm-14.72461 3.083984h6v1h-6zm-2 2h1.5 7 1.5v1h-10z" fill="#00417b"/></g></svg>