<svg width="54" height="54" viewBox="0 0 54 54" version="1.1" xmlns="http://www.w3.org/2000/svg" xmlns:xlink="http://www.w3.org/1999/xlink"><title>Group 27 Copy 2</title><desc>Created using Figma</desc><g id="Canvas" transform="translate(3469 -2637)"><g id="Group 27 Copy 2"><g id="Oval 38"><use xlink:href="#path0_fill" transform="translate(-3469 2637)" fill="#F7F7F7"/></g><g id="icons8-cloud"><g id="Shape"><use xlink:href="#path1_fill" transform="translate(-3459 2649)" fill="#00447B"/></g><g id="Shape"><use xlink:href="#path2_fill" transform="translate(-3447.52 2658.24)" fill="#00447B"/></g></g></g></g><defs><path id="path0_fill" fill-rule="evenodd" d="M 27 54C 41.9117 54 54 41.9117 54 27C 54 12.0883 41.9117 0 27 0C 12.0883 0 0 12.0883 0 27C 0 41.9117 12.0883 54 27 54Z"/><path id="path1_fill" fill-rule="evenodd" d="M 7.48218 6.92065C 9.21899 2.85376 13.1602 0.181396 17.6016 0.00805664C 18.2339 -0.0153809 18.8789 0.012207 19.5305 0.0925293C 24.5933 0.720947 28.7546 4.81323 29.4255 9.81934C 29.573 10.9153 29.5645 12.0071 29.4021 13.0779C 29.425 13.0811 29.448 13.0859 29.4709 13.0908L 29.4792 13.0925L 29.4868 13.094L 29.4973 13.0962L 29.5002 13.0967C 29.5232 13.1016 29.5459 13.1062 29.5686 13.1096C 29.9595 13.1772 30.3484 13.2661 30.72 13.4036C 30.7407 13.4104 30.7571 13.4226 30.7734 13.4351L 30.7771 13.4377C 30.7849 13.4436 30.793 13.4492 30.8013 13.4543C 33.3328 14.4319 35.0994 16.9246 34.9924 19.7449C 34.8665 23.1917 31.8394 25.9995 28.2485 25.9995L 9.5437 25.9995C 4.46802 25.9995 0.281006 22.1804 0.013916 17.3074C -0.231689 12.8704 2.81226 8.85669 7.13599 7.83472C 7.1438 7.81152 7.15259 7.78906 7.16138 7.76685L 7.16382 7.76074L 7.16772 7.75098L 7.17383 7.73535C 7.17993 7.71924 7.18604 7.70312 7.19165 7.68652L 7.21997 7.60425C 7.29565 7.38379 7.37183 7.16235 7.46509 6.94604C 7.46631 6.94019 7.46997 6.93628 7.47388 6.93213C 7.47681 6.92896 7.48022 6.92554 7.48218 6.92065ZM 19.3938 1.16748C 18.9451 1.11035 18.5007 1.08276 18.0608 1.08276C 13.7947 1.08276 9.9707 3.63452 8.39844 7.56592C 8.37451 7.62451 8.35352 7.68311 8.33276 7.7417L 8.32861 7.75342L 8.2959 7.84521C 8.22119 8.04395 8.14868 8.24292 8.08228 8.45654C 7.80249 9.40039 7.65503 10.3757 7.65503 11.3745C 7.65503 11.6748 7.41162 11.916 7.10815 11.916C 6.80493 11.916 6.56128 11.6748 6.56128 11.3745C 6.56128 10.5874 6.64478 9.81299 6.80054 9.05542C 3.30371 10.1663 0.900391 13.5369 1.10547 17.248C 1.2251 19.4424 2.25464 21.3911 3.8269 22.7769C 3.8269 22.7769 4.84839 23.5618 4.84814 23.5449C 6.19385 24.4104 7.80884 24.916 9.54346 24.916L 28.2483 24.916C 29.5088 24.916 30.6816 24.5034 31.6321 23.8159L 32.2644 23.2847C 33.228 22.3516 33.8496 21.0906 33.9031 19.7026C 34.0034 16.9795 32.0125 14.6223 29.3591 14.1694L 29.199 14.144C 29.0515 14.125 28.9043 14.1082 28.7546 14.0996C 28.3318 14.0742 27.9045 14.0913 27.4878 14.1631C 27.1846 14.2139 26.9067 14.0171 26.8555 13.7231C 26.8022 13.429 27.0007 13.1475 27.2998 13.0947C 27.6289 13.0396 27.9622 13.0142 28.2976 13.0078C 28.4578 12.0093 28.479 10.9873 28.3423 9.96094C 27.7336 5.43311 23.9695 1.73438 19.3938 1.16748ZM 18.3596 2.71631C 16.8088 2.66772 15.2366 3.021 13.8757 3.75513C 13.6086 3.89697 13.5105 4.22485 13.6558 4.4873C 13.7561 4.66919 13.9419 4.77075 14.1365 4.77075C 14.2239 4.77075 14.3137 4.74976 14.397 4.70532C 15.9863 3.85034 17.9067 3.58594 19.6606 3.96045C 19.9619 4.02393 20.248 3.83569 20.3123 3.54565C 20.3762 3.25366 20.1863 2.96387 19.8914 2.90259C 19.3894 2.79468 18.8745 2.73315 18.3596 2.71631ZM 21.4211 3.9458C 21.5281 3.74902 21.7395 3.64526 21.9509 3.66431C 22.0237 3.66846 22.094 3.6897 22.1624 3.72363C 22.6494 3.98389 23.1152 4.28857 23.5466 4.6355C 23.7817 4.82178 23.8181 5.16235 23.6257 5.39722C 23.519 5.52832 23.3608 5.59619 23.2007 5.59619C 23.0811 5.59619 22.9592 5.55811 22.8567 5.47559C 22.4807 5.17285 22.0728 4.90625 21.6455 4.67993C 21.3784 4.54028 21.2781 4.21021 21.4211 3.9458Z"/><path id="path2_fill" fill-rule="evenodd" d="M 0 5.94043C 0 2.66406 2.70044 0 6.01562 0C 7.77979 0 9.35962 0.759033 10.4587 1.95508L 12.0312 0.404541L 12.0312 3.63452L 8.75952 3.63452L 9.8042 2.60327C 8.87524 1.57202 7.52686 0.916748 6.01562 0.916748C 3.19946 0.916748 0.925537 3.16187 0.925537 5.94043L 0.925537 6.38452L 0 6.38452L 0 5.94043ZM 11.1057 5.92603L 11.1057 5.46777L 12.0312 5.46777L 12.0312 5.92603C 12.0312 9.21313 9.33423 11.8845 6.01562 11.8845C 4.2478 11.8845 2.66431 11.1182 1.56177 9.91138L 0 11.4583L 0 8.21777L 3.27173 8.21777L 2.21606 9.26343C 3.14893 10.3054 4.49731 10.9678 6.01562 10.9678C 8.83179 10.9678 11.1057 8.71558 11.1057 5.92603Z"/></defs></svg>