<svg width="48" height="49" viewBox="0 0 48 49" version="1.1" xmlns="http://www.w3.org/2000/svg" xmlns:xlink="http://www.w3.org/1999/xlink">
<title>new-year</title>
<desc>Created using Figma</desc>
<g id="Canvas" transform="translate(590 -4110)">
<g id="new-year">
<g id="Group">
<g id="Vector">
<use xlink:href="#path0_fill" transform="translate(-580.577 4142.4)" fill="url(#paint0_linear)"/>
</g>
<g id="Vector">
<use xlink:href="#path1_fill" transform="translate(-566.442 4126.6)" fill="url(#paint1_linear)"/>
</g>
</g>
<g id="Rectangle">
<use xlink:href="#path2_fill" transform="translate(-581.519 4114.71)" fill="#B2E2F7"/>
</g>
<g id="Rectangle 2">
<use xlink:href="#path3_fill" transform="translate(-574.923 4111.88)" fill="#FFFFFF"/>
</g>
<g id="Rectangle 2.1">
<use xlink:href="#path3_fill" transform="translate(-552.308 4111.88)" fill="#FFFFFF"/>
</g>
<g id="Vector">
<use xlink:href="#path4_fill" transform="translate(-590 4110)" fill="#015486"/>
</g>
</g>
</g>
<defs>
<linearGradient id="paint0_linear" x1="0" y1="0" x2="1" y2="0" gradientUnits="userSpaceOnUse" gradientTransform="matrix(0 15.3986 -3.97797 0 5.13689 -0.142562)">
<stop offset="0" stop-color="#41CFC8" stop-opacity="0.7"/>
<stop offset="1" stop-color="#24C4BC"/>
</linearGradient>
<linearGradient id="paint1_linear" x1="0" y1="0" x2="1" y2="0" gradientUnits="userSpaceOnUse" gradientTransform="matrix(0 16.1685 -4.97246 0 6.42111 -0.14969)">
<stop offset="0" stop-color="#41CFC8" stop-opacity="0.7"/>
<stop offset="1" stop-color="#24C4BC"/>
</linearGradient>
<path id="path0_fill" d="M 6.28205 0L 0 0L 0 15.8065L 6.28205 15.8065L 6.28205 0Z"/>
<path id="path1_fill" d="M 7.85256 16.5968L 3.14103 16.5968L 3.14103 4.74194L 0 4.74194L 0 0L 7.85256 0L 7.85256 16.5968Z"/>
<path id="path2_fill" d="M 0 0L 37.6923 0L 37.6923 6.59615L 0 6.59615L 0 0Z"/>
<path id="path3_fill" d="M 0 0L 2.82692 0L 2.82692 6.59615L 0 6.59615L 0 0Z"/>
<path id="path4_fill" d="M 47.1154 7.1129C 47.1154 5.36945 45.7066 3.95161 43.9744 3.95161L 40.8333 3.95161L 40.8333 2.37097C 40.8333 1.06377 39.7764 0 38.4776 0C 37.1787 0 36.1218 1.06377 36.1218 2.37097L 36.1218 3.95161L 18.8462 3.95161L 18.8462 2.37097C 18.8462 1.06377 17.7892 0 16.4904 0C 15.1916 0 14.1346 1.06377 14.1346 2.37097L 14.1346 3.95161L 10.9936 3.95161C 9.26131 3.95161 7.85256 5.36945 7.85256 7.1129L 7.85256 20.5484C 5.68761 20.5484 3.92628 22.3211 3.92628 24.5C 3.92628 25.3931 4.23332 26.2087 4.73195 26.871L 0 26.871L 0 33.1936L 1.57051 33.1936L 1.57051 49L 23.5577 49L 23.5577 43.4677L 47.1154 43.4677L 47.1154 7.1129ZM 37.6923 2.37097C 37.6923 1.93471 38.0449 1.58065 38.4776 1.58065C 38.9102 1.58065 39.2628 1.93471 39.2628 2.37097L 39.2628 7.1129C 39.2628 7.54916 38.9102 7.90323 38.4776 7.90323C 38.0449 7.90323 37.6923 7.54916 37.6923 7.1129L 37.6923 2.37097ZM 15.7051 2.37097C 15.7051 1.93471 16.0577 1.58065 16.4904 1.58065C 16.9231 1.58065 17.2756 1.93471 17.2756 2.37097L 17.2756 7.1129C 17.2756 7.54916 16.9231 7.90323 16.4904 7.90323C 16.0577 7.90323 15.7051 7.54916 15.7051 7.1129L 15.7051 2.37097ZM 10.9936 5.53226L 14.1346 5.53226L 14.1346 7.1129C 14.1346 8.4201 15.1916 9.48387 16.4904 9.48387C 17.7892 9.48387 18.8462 8.4201 18.8462 7.1129L 18.8462 5.53226L 36.1218 5.53226L 36.1218 7.1129C 36.1218 8.4201 37.1787 9.48387 38.4776 9.48387C 39.7764 9.48387 40.8333 8.4201 40.8333 7.1129L 40.8333 5.53226L 43.9744 5.53226C 44.8405 5.53226 45.5449 6.24118 45.5449 7.1129L 45.5449 11.0645L 9.42308 11.0645L 9.42308 7.1129C 9.42308 6.24118 10.1275 5.53226 10.9936 5.53226ZM 7.85256 22.129C 9.75053 22.129 11.3375 23.4923 11.7003 25.2966C 10.6928 24.304 9.32256 23.7097 7.85256 23.7097C 6.99192 23.7097 6.1674 23.9989 5.49758 24.5047C 5.49758 24.5032 5.49679 24.5016 5.49679 24.5C 5.49679 23.1928 6.55375 22.129 7.85256 22.129ZM 17.2756 26.871L 14.137 26.871C 14.8657 25.8957 16.0208 25.2903 17.2756 25.2903C 17.947 25.2903 18.5737 25.5914 19.0158 26.0838C 18.5847 26.5635 17.9674 26.871 17.2756 26.871ZM 19.6306 24.5047C 18.9608 23.9989 18.1363 23.7097 17.2756 23.7097C 15.8056 23.7097 14.4354 24.304 13.4279 25.2966C 13.7907 23.4923 15.3777 22.129 17.2756 22.129C 18.5745 22.129 19.6314 23.1928 19.6314 24.5C 19.6314 24.5016 19.6306 24.5032 19.6306 24.5047ZM 6.11244 26.0838C 6.55453 25.5914 7.18117 25.2903 7.85256 25.2903C 9.10819 25.2903 10.2625 25.8957 10.9912 26.871L 7.85256 26.871C 7.16075 26.871 6.54354 26.5635 6.11244 26.0838ZM 1.57051 28.4516L 7.85256 28.4516L 11.7788 28.4516L 13.3494 28.4516L 17.2756 28.4516L 23.5577 28.4516L 23.5577 31.6129L 1.57051 31.6129L 1.57051 28.4516ZM 3.14103 47.4194L 3.14103 33.1936L 21.9872 33.1936L 21.9872 47.4194L 3.14103 47.4194ZM 23.5577 33.1936L 25.1282 33.1936L 25.1282 26.871L 20.3962 26.871C 20.8949 26.2087 21.2019 25.3931 21.2019 24.5C 21.2019 22.3211 19.4406 20.5484 17.2756 20.5484C 15.2748 20.5484 13.526 21.6335 12.5641 23.2458C 11.8652 22.0729 10.7509 21.1806 9.42308 20.7815L 9.42308 12.6452L 45.5449 12.6452L 45.5449 32.4032L 36.1218 32.4032L 36.1218 41.8871L 23.5577 41.8871L 23.5577 33.1936ZM 44.4345 33.9839L 37.6923 40.7696L 37.6923 33.9839L 44.4345 33.9839ZM 38.8027 41.8871L 45.5449 35.1014L 45.5449 41.8871L 38.8027 41.8871Z"/>
</defs>
</svg>
