<svg xmlns="http://www.w3.org/2000/svg" width="100" height="102" viewBox="0 0 100 102"><g fill="none" fill-rule="evenodd"><path fill="#3D546B" d="M100,51.7727273 C100,79.5136364 77.6153846,102 50,102 C22.3846154,102 0,79.5136364 0,51.7727273 C0,24.0318182 22.3846154,1.54545455 50,1.54545455 C77.6153846,1.54545455 100,24.0318182 100,51.7727273"/><path fill="#D9D8D7" d="M19.6415385 42.5942727L27.4630769 42.5942727 27.4630769 41.0217727C27.4630769 39.0103636 26.6992308 37.0005 25.1723077 35.4650909 23.6438462 33.9312273 21.6430769 33.1646818 19.6415385 33.1646818L19.6415385 42.5942727M37.8115385 79.5839545L46.1215385 79.5839545 46.1215385 82.0875909C46.1215385 83.1570455 45.7153846 84.2265 44.9038462 85.0409545 44.0930769 85.8561818 43.03 86.2641818 41.9653846 86.2641818 40.9038462 86.2641818 39.84 85.8561818 39.0284615 85.0409545 38.2169231 84.2265 37.8115385 83.1570455 37.8115385 82.0875909L37.8115385 79.5839545M60.8830769 79.5839545L69.1923077 79.5839545 69.1923077 82.0875909C69.1923077 83.1570455 68.7869231 84.2265 67.9738462 85.0409545 67.1638462 85.8561818 66.1015385 86.2641818 65.0376923 86.2641818 63.9738462 86.2641818 62.9107692 85.8561818 62.1 85.0409545 61.2876923 84.2265 60.8830769 83.1570455 60.8830769 82.0875909L60.8830769 79.5839545"/><path fill="#FFF" d="M16.7746154,57.9553182 C16.7746154,63.9872273 19.0653846,70.0206818 23.6484615,74.6245909 C28.23,79.2261818 34.2353846,81.5289091 40.24,81.5289091 L59.8715385,81.5289091 C65.8784615,81.5289091 71.8823077,79.2261818 76.4653846,74.6245909 C81.0492308,70.0206818 83.3407692,63.9872273 83.3407692,57.9553182 C83.3407692,51.9218636 81.0492308,45.8868636 76.4653846,41.2852727 C71.8823077,36.6813636 65.8784615,34.3809545 59.8715385,34.3809545 L40.24,34.3809545 C34.2353846,34.3809545 28.23,36.6813636 23.6484615,41.2852727 C19.0653846,45.8868636 16.7746154,51.9218636 16.7746154,57.9553182"/><path fill="#D9D8D7" d="M59.8715385 79.7029545C59.3138462 79.7029545 58.8623077 79.2509091 58.8623077 78.6891364 58.8623077 78.1289091 59.3138462 77.6745455 59.8715385 77.6745455 65.1153846 77.6745455 70.0453846 75.6245 73.7530769 71.8991818 77.4638462 68.1754091 79.5046154 63.2222273 79.5046154 57.9553182 79.5046154 57.3943182 79.9576923 56.9407273 80.5153846 56.9407273 81.07 56.9407273 81.5223077 57.3943182 81.5223077 57.9553182 81.5223077 63.7639091 79.2707692 69.2255455 75.1815385 73.3318182 71.0915385 77.4411818 65.6546154 79.7029545 59.8715385 79.7029545M31.2838462 42.5942727L39.1069231 42.5942727 39.1069231 41.0217727C39.1069231 39.0103636 38.3430769 37.0005 36.8146154 35.4650909 35.2884615 33.9312273 33.2853846 33.1646818 31.2838462 33.1646818L31.2838462 42.5942727"/><polygon fill="#D9D8D7" points="10.61 64.244 17.62 64.244 17.62 51.666 10.61 51.666"/><path fill="#D9D8D7" d="M58.6192308 35.0099545C58.6192308 35.411 58.4684615 35.8143636 58.1623077 36.1195909 57.8576923 36.4286818 57.4576923 36.5816818 57.0561538 36.5816818L43.0584615 36.5816818C42.6576923 36.5816818 42.2553846 36.4286818 41.9523077 36.1195909 41.6461538 35.8143636 41.4915385 35.411 41.4915385 35.0099545L41.4915385 34.3809545 58.6192308 34.3809545 58.6192308 35.0099545M92.3469231 56.3820455C92.7461538 56.3820455 93.1453846 56.5365909 93.4523077 56.8433636 93.7576923 57.1501364 93.9123077 57.5519545 93.9123077 57.9553182 93.9123077 58.3571364 93.7576923 58.7581818 93.4523077 59.0657273 93.1453846 59.3709545 92.7461538 59.5262727 92.3469231 59.5262727L88.6053846 59.5262727 88.6053846 56.3820455 92.3469231 56.3820455"/><polygon fill="#FFF" points="83.299 59.526 88.605 59.526 88.605 56.382 83.299 56.382"/><path fill="#FFF" d="M88.6053846,56.3820455 C87.7407692,56.3820455 87.0392308,55.6773182 87.0392308,54.8103182 C87.0392308,53.9425455 87.7407692,53.2378182 88.6053846,53.2378182 C89.47,53.2378182 90.17,53.9425455 90.17,54.8103182 C90.17,55.6773182 89.47,56.3820455 88.6053846,56.3820455 Z M88.6053846,50.0935909 C86.0107692,50.0935909 83.9107692,52.2054545 83.9107692,54.8103182 C83.9107692,57.4144091 86.0107692,59.5262727 88.6053846,59.5262727 C91.1984615,59.5262727 93.3,57.4144091 93.3,54.8103182 C93.3,52.2054545 91.1984615,50.0935909 88.6053846,50.0935909 L88.6053846,50.0935909 Z"/><path fill="#D9D8D7" d="M30.8569231,52.3360455 C30.2992308,52.3360455 29.8476923,51.8832273 29.8476923,51.3222273 C29.8476923,49.9830909 28.76,48.8904545 27.4246154,48.8904545 C26.09,48.8904545 25.0030769,49.9830909 25.0030769,51.3222273 C25.0030769,51.8832273 24.5523077,52.3360455 23.9923077,52.3360455 C23.4361538,52.3360455 22.9838462,51.8832273 22.9838462,51.3222273 C22.9838462,48.8641818 24.9761538,46.8628182 27.4246154,46.8628182 C29.8746154,46.8628182 31.8661538,48.8641818 31.8661538,51.3222273 C31.8661538,51.8832273 31.4130769,52.3360455 30.8569231,52.3360455"/><path fill="#FFF" d="M30.9038462 79.5839545L39.2130769 79.5839545 39.2130769 82.0875909C39.2130769 83.1570455 38.8084615 84.2265 37.9969231 85.0409545 37.1853846 85.8561818 36.1215385 86.2641818 35.0576923 86.2641818 33.9938462 86.2641818 32.9315385 85.8561818 32.1207692 85.0409545 31.3092308 84.2265 30.9038462 83.1570455 30.9038462 82.0875909L30.9038462 79.5839545M53.9746154 79.5839545L62.2853846 79.5839545 62.2853846 82.0875909C62.2853846 83.1570455 61.8776923 84.2265 61.07 85.0409545 60.2569231 85.8561818 59.1930769 86.2641818 58.1292308 86.2641818 57.0653846 86.2641818 56.0038462 85.8561818 55.1915385 85.0409545 54.3792308 84.2265 53.9746154 83.1570455 53.9746154 82.0875909L53.9746154 79.5839545"/><path fill="#FDCA5C" d="M58.3853846,24.4715 C58.3853846,29.0900909 54.6569231,32.8355 50.0561538,32.8355 C45.4523077,32.8355 41.7253846,29.0900909 41.7253846,24.4715 C41.7253846,19.8505909 45.4523077,16.099 50.0561538,16.099 C54.6569231,16.099 58.3853846,19.8505909 58.3853846,24.4715"/><path fill="#FFDB79" d="M56.7169231,24.4715 C56.7169231,28.1697727 53.7369231,31.1625455 50.0561538,31.1625455 C46.3738462,31.1625455 43.3930769,28.1697727 43.3930769,24.4715 C43.3930769,20.7709091 46.3738462,17.7773636 50.0561538,17.7773636 C53.7369231,17.7773636 56.7169231,20.7709091 56.7169231,24.4715"/><path fill="#FDCA5C" d="M50.7561538,25.0224545 L49.3561538,25.0224545 C48.7723077,25.0224545 48.2230769,24.7929545 47.8138462,24.3749091 C47.4015385,23.97 47.1746154,23.4182727 47.1746154,22.8279091 C47.1746154,22.2406364 47.4015385,21.6912273 47.8138462,21.2762727 C48.2192308,20.8667273 48.7661538,20.6395455 49.3561538,20.6395455 L52.3876923,20.6395455 L52.3876923,21.7437727 L49.3561538,21.7437727 C49.0623077,21.7437727 48.7907692,21.8565909 48.5938462,22.0567273 C48.3861538,22.2630455 48.2746154,22.5365909 48.2746154,22.8279091 C48.2746154,23.1207727 48.3846154,23.392 48.5876923,23.5952273 C48.7976923,23.8054091 49.0676923,23.9182273 49.3561538,23.9182273 L50.7561538,23.9182273 L50.7561538,25.0224545"/><path fill="#FDCA5C" d="M50.7561538,28.3003636 L47.7238462,28.3003636 L47.7238462,27.1969091 L50.7561538,27.1969091 C51.0423077,27.1969091 51.3161538,27.0848636 51.5223077,26.8785455 C51.7230769,26.6784091 51.8384615,26.4040909 51.8384615,26.1104545 C51.8384615,25.8168182 51.7246154,25.5463636 51.5238462,25.3454545 C51.3161538,25.1360455 51.0423077,25.0224545 50.7561538,25.0224545 L49.3561538,25.0224545 L49.3561538,23.9182273 L50.7561538,23.9182273 C51.3376923,23.9182273 51.8869231,24.1461818 52.2984615,24.5619091 C52.7069231,24.9660455 52.9369231,25.5193182 52.9369231,26.1104545 C52.9369231,26.6985 52.7092308,27.251 52.2961538,27.6620909 C51.8815385,28.0747273 51.3323077,28.3003636 50.7561538,28.3003636"/><polygon fill="#FDCA5C" points="49.505 28.684 50.604 28.684 50.604 20.256 49.505 20.256"/><path fill="#FDCA5C" d="M37.9076923,18.5725 C37.9076923,20.6009091 36.27,22.2460455 34.2492308,22.2460455 C32.2276923,22.2460455 30.5915385,20.6009091 30.5915385,18.5725 C30.5915385,16.5440909 32.2276923,14.8958636 34.2492308,14.8958636 C36.27,14.8958636 37.9076923,16.5440909 37.9076923,18.5725"/><path fill="#FFDB79" d="M37.1753846,18.5725 C37.1753846,20.1967727 35.8661538,21.5111818 34.2492308,21.5111818 C32.6323077,21.5111818 31.3230769,20.1967727 31.3230769,18.5725 C31.3230769,16.9474545 32.6323077,15.6330455 34.2492308,15.6330455 C35.8661538,15.6330455 37.1753846,16.9474545 37.1753846,18.5725"/><path fill="#FDCA5C" d="M34.5569231,18.8151364 L33.9423077,18.8151364 C33.6861538,18.8151364 33.4446154,18.7146818 33.2653846,18.5307727 C33.0838462,18.3530455 32.9846154,18.1104091 32.9846154,17.8515455 C32.9846154,17.5934545 33.0838462,17.3515909 33.2653846,17.1692273 C33.4423077,16.9899545 33.6838462,16.8895 33.9423077,16.8895 L35.2723077,16.8895 L35.2723077,17.3747727 L33.9423077,17.3747727 C33.8130769,17.3747727 33.6938462,17.4242273 33.6076923,17.5123182 C33.5161538,17.6027273 33.4669231,17.7232727 33.4669231,17.8515455 C33.4669231,17.9798182 33.5153846,18.0988182 33.6046154,18.1876818 C33.6969231,18.2804091 33.8153846,18.3298636 33.9423077,18.3298636 L34.5569231,18.3298636 L34.5569231,18.8151364"/><path fill="#FDCA5C" d="M34.5569231,20.2539545 L33.2253846,20.2539545 L33.2253846,19.7694545 L34.5569231,19.7694545 C34.6830769,19.7694545 34.8030769,19.7207727 34.8938462,19.6295909 C34.9823077,19.5430455 35.0315385,19.4217273 35.0315385,19.2926818 C35.0315385,19.1636364 34.9830769,19.0446364 34.8946154,18.9573182 C34.8030769,18.8645909 34.6830769,18.8151364 34.5569231,18.8151364 L33.9423077,18.8151364 L33.9423077,18.3298636 L34.5569231,18.3298636 C34.8123077,18.3298636 35.0538462,18.4303182 35.2346154,18.6126818 C35.4138462,18.7896364 35.5138462,19.0330455 35.5138462,19.2926818 C35.5138462,19.5507727 35.4146154,19.7934091 35.2338462,19.9742273 C35.0515385,20.1550455 34.8107692,20.2539545 34.5569231,20.2539545"/><polygon fill="#FDCA5C" points="34.008 20.423 34.49 20.423 34.49 16.721 34.008 16.721"/><path fill="#FDCA5C" d="M65.6707692,5.29627273 C65.6707692,8.21640909 63.3130769,10.5840455 60.4046154,10.5840455 C57.4946154,10.5840455 55.1392308,8.21640909 55.1392308,5.29627273 C55.1392308,2.37613636 57.4946154,0.00463636364 60.4046154,0.00463636364 C63.3130769,0.00463636364 65.6707692,2.37613636 65.6707692,5.29627273"/><path fill="#FFDB79" d="M64.6153846,5.29627273 C64.6153846,7.63454545 62.7323077,9.52618182 60.4046154,9.52618182 C58.0769231,9.52618182 56.1930769,7.63454545 56.1930769,5.29627273 C56.1930769,2.958 58.0769231,1.06481818 60.4046154,1.06481818 C62.7323077,1.06481818 64.6153846,2.958 64.6153846,5.29627273"/><path fill="#FDCA5C" d="M60.8476923,5.64554545 L59.9615385,5.64554545 C59.5938462,5.64554545 59.2453846,5.50027273 58.9876923,5.23677273 C58.7276923,4.98022727 58.5823077,4.63172727 58.5823077,4.2585 C58.5823077,3.88681818 58.7276923,3.53909091 58.9876923,3.27713636 C59.2438462,3.01904545 59.59,2.87454545 59.9615385,2.87454545 L61.8769231,2.87454545 L61.8769231,3.57309091 L59.9615385,3.57309091 C59.7776923,3.57309091 59.6038462,3.64418182 59.4807692,3.77013636 C59.3476923,3.9015 59.2784615,4.07459091 59.2784615,4.2585 C59.2784615,4.44318182 59.3476923,4.61472727 59.4776923,4.74222727 C59.6084615,4.87668182 59.7784615,4.947 59.9615385,4.947 L60.8476923,4.947 L60.8476923,5.64554545"/><path fill="#FDCA5C" d="M60.8476923,7.71722727 L58.9307692,7.71722727 L58.9307692,7.02022727 L60.8476923,7.02022727 C61.0284615,7.02022727 61.2007692,6.94836364 61.3315385,6.81777273 C61.4584615,6.69259091 61.5307692,6.5195 61.5307692,6.33327273 C61.5307692,6.14781818 61.4592308,5.97627273 61.3330769,5.84954545 C61.2007692,5.71740909 61.0284615,5.64554545 60.8476923,5.64554545 L59.9615385,5.64554545 L59.9615385,4.947 L60.8476923,4.947 C61.2146154,4.947 61.5607692,5.0915 61.8215385,5.35422727 C62.0807692,5.60922727 62.2246154,5.96004545 62.2246154,6.33327273 C62.2246154,6.70495455 62.0823077,7.05345455 61.8215385,7.31386364 C61.5576923,7.57581818 61.2115385,7.71722727 60.8476923,7.71722727"/><polygon fill="#FDCA5C" points="60.057 7.961 60.752 7.961 60.752 2.632 60.057 2.632"/><polygon fill="#FFF" points="53.412 15.618 54.578 15.618 54.578 11.434 53.412 11.434"/><polygon fill="#FFF" points="49.473 14.425 50.639 14.425 50.639 10.241 49.473 10.241"/><polygon fill="#FFF" points="45.535 15.618 46.701 15.618 46.701 11.434 45.535 11.434"/></g></svg>