<svg width="54" height="54" viewBox="0 0 54 54" version="1.1" xmlns="http://www.w3.org/2000/svg" xmlns:xlink="http://www.w3.org/1999/xlink">
<title>Group 27 Copy 2</title>
<desc>Created using Figma</desc>
<g id="Canvas" transform="translate(-1255 175)">
<g id="Group 27 Copy 2">
<g id="Oval 38">
<use xlink:href="#path0_fill" transform="translate(1255 -175)" fill="#F7F7F7"/>
</g>
<g id="icons8-gift">
<g id="surface1">
<g id="Vector">
<use xlink:href="#path1_fill" transform="translate(1265 -166)" fill="#00417B"/>
</g>
</g>
</g>
</g>
</g>
<defs>
<path id="path0_fill" fill-rule="evenodd" d="M 27 54C 41.9117 54 54 41.9117 54 27C 54 12.0883 41.9117 0 27 0C 12.0883 0 0 12.0883 0 27C 0 41.9117 12.0883 54 27 54Z"/>
<path id="path1_fill" d="M 20.5333 0.00180806C 19.6379 -0.0279602 18.7289 0.308651 17.9961 1.10095C 17.4099 1.74669 17 3.15267 16.7641 4.5014C 16.5901 3.73888 16.297 3.03589 15.9444 2.626C 14.8315 1.39405 12.8966 1.45359 11.7241 2.626C 10.5517 3.79841 10.5517 5.67382 11.7241 6.84623C 11.7837 6.90577 11.8409 6.96301 11.9005 6.96301L 1.75862 6.96301C 0.762527 6.96301 0 7.72554 0 8.72164L 0 12.2389C 0 12.7083 0.17632 13.1754 0.526671 13.4685C 0.70299 13.6449 0.938847 13.8212 1.17241 13.8807L 1.17241 30.9975C 1.17241 31.9936 1.93494 32.7561 2.93103 32.7561L 31.069 32.7561C 32.0651 32.7561 32.8276 31.9936 32.8276 30.9975L 32.8276 13.8807C 33.0612 13.8212 33.297 13.6449 33.471 13.4685C 33.8237 13.1182 34 12.7083 34 12.2389L 34 8.72164C 34 7.72554 33.2375 6.96301 32.2414 6.96301L 21.5133 6.96301C 22.0995 6.72945 22.6262 6.43634 22.9789 6.0837C 24.3276 4.73497 24.3276 2.44968 22.9789 1.10095C 22.3056 0.427724 21.4263 0.0315762 20.5333 0.00180806ZM 20.5745 1.10095C 21.2202 1.10095 21.8064 1.33451 22.2759 1.80394C 23.2147 2.74278 23.2147 4.26555 22.2759 5.20439C 21.6301 5.85014 19.2853 6.49359 17.5862 6.78669C 17.7625 4.96854 18.1724 2.44968 18.8754 1.80394C 19.3448 1.33451 19.931 1.10095 20.5745 1.10095ZM 13.7759 2.85957C 14.2453 2.85957 14.7124 3.03589 15.0651 3.38624C 15.4749 3.79841 15.8276 5.4975 16.0039 6.96301L 14.9483 6.96301C 13.8926 6.72945 12.8393 6.37681 12.4867 5.96692C 11.7837 5.26393 11.7837 4.09152 12.4867 3.38624C 12.8393 3.03589 13.3064 2.85957 13.7759 2.85957ZM 1.75862 8.13543L 16.4138 8.13543L 16.4138 12.8251L 1.75862 12.8251C 1.5823 12.8251 1.46552 12.7655 1.34873 12.6488C 1.23195 12.532 1.17241 12.4152 1.17241 12.2389L 1.17241 8.72164C 1.17241 8.369 1.40598 8.13543 1.75862 8.13543ZM 17.5862 8.13543L 32.2414 8.13543C 32.594 8.13543 32.8276 8.369 32.8276 8.72164L 32.8276 12.2389C 32.8276 12.4152 32.7681 12.532 32.6513 12.6488C 32.5345 12.7655 32.4177 12.8251 32.2414 12.8251L 24.0345 12.8251C 23.6818 12.8251 23.4483 13.0587 23.4483 13.4113C 23.4483 13.7639 23.6818 13.9975 24.0345 13.9975L 31.6552 13.9975L 31.6552 30.9975C 31.6552 31.3501 31.4216 31.5837 31.069 31.5837L 2.93103 31.5837C 2.57839 31.5837 2.34483 31.3501 2.34483 30.9975L 2.34483 13.9975L 16.4138 13.9975L 16.4138 26.2506C 16.4138 26.6009 16.6474 26.8941 17 26.8941C 17.3526 26.8941 17.5862 26.6605 17.5862 26.2506L 17.5862 8.13543ZM 19.3448 12.8251C 18.9922 12.8251 18.7586 13.0587 18.7586 13.4113C 18.7586 13.7639 18.9922 13.9975 19.3448 13.9975L 21.6897 13.9975C 22.0423 13.9975 22.2759 13.7639 22.2759 13.4113C 22.2759 13.0587 22.0423 12.8251 21.6897 12.8251L 19.3448 12.8251ZM 5.27586 28.0665C 4.92322 28.0665 4.68966 28.3 4.68966 28.6527L 4.68966 29.8251C 4.68966 30.1777 4.92322 30.4113 5.27586 30.4113C 5.6285 30.4113 5.86207 30.1777 5.86207 29.8251L 5.86207 28.6527C 5.86207 28.3 5.6285 28.0665 5.27586 28.0665ZM 8.2069 28.0665C 7.85426 28.0665 7.62069 28.3 7.62069 28.6527L 7.62069 29.8251C 7.62069 30.1777 7.85426 30.4113 8.2069 30.4113C 8.55954 30.4113 8.7931 30.1777 8.7931 29.8251L 8.7931 28.6527C 8.7931 28.3 8.55954 28.0665 8.2069 28.0665ZM 11.1379 28.0665C 10.7853 28.0665 10.5517 28.3 10.5517 28.6527L 10.5517 29.8251C 10.5517 30.1777 10.7853 30.4113 11.1379 30.4113C 11.4906 30.4113 11.7241 30.1777 11.7241 29.8251L 11.7241 28.6527C 11.7241 28.3 11.4906 28.0665 11.1379 28.0665ZM 14.069 28.0665C 13.7163 28.0665 13.4828 28.3 13.4828 28.6527L 13.4828 29.8251C 13.4828 30.1777 13.7163 30.4113 14.069 30.4113C 14.4216 30.4113 14.6552 30.1777 14.6552 29.8251L 14.6552 28.6527C 14.6552 28.3 14.4216 28.0665 14.069 28.0665ZM 17 28.0665C 16.6474 28.0665 16.4138 28.3 16.4138 28.6527L 16.4138 29.8251C 16.4138 30.1777 16.6474 30.4113 17 30.4113C 17.3526 30.4113 17.5862 30.1777 17.5862 29.8251L 17.5862 28.6527C 17.5862 28.3 17.3526 28.0665 17 28.0665ZM 19.931 28.0665C 19.5784 28.0665 19.3448 28.3 19.3448 28.6527L 19.3448 29.8251C 19.3448 30.1777 19.5784 30.4113 19.931 30.4113C 20.2837 30.4113 20.5172 30.1777 20.5172 29.8251L 20.5172 28.6527C 20.5172 28.3 20.2837 28.0665 19.931 28.0665ZM 22.8621 28.0665C 22.5094 28.0665 22.2759 28.3 22.2759 28.6527L 22.2759 29.8251C 22.2759 30.1777 22.5094 30.4113 22.8621 30.4113C 23.2147 30.4113 23.4483 30.1777 23.4483 29.8251L 23.4483 28.6527C 23.4483 28.3 23.2147 28.0665 22.8621 28.0665ZM 25.7931 28.0665C 25.4405 28.0665 25.2069 28.3 25.2069 28.6527L 25.2069 29.8251C 25.2069 30.1777 25.4405 30.4113 25.7931 30.4113C 26.1457 30.4113 26.3793 30.1777 26.3793 29.8251L 26.3793 28.6527C 26.3793 28.3 26.1457 28.0665 25.7931 28.0665ZM 28.7241 28.0665C 28.3715 28.0665 28.1379 28.3 28.1379 28.6527L 28.1379 29.8251C 28.1379 30.1777 28.3715 30.4113 28.7241 30.4113C 29.0768 30.4113 29.3103 30.1777 29.3103 29.8251L 29.3103 28.6527C 29.3103 28.3 29.0768 28.0665 28.7241 28.0665Z"/>
</defs>
</svg>
