<svg width="54" height="54" viewBox="0 0 54 54" version="1.1" xmlns="http://www.w3.org/2000/svg" xmlns:xlink="http://www.w3.org/1999/xlink"><title>Group 27</title><desc>Created using Figma</desc><g id="Canvas" transform="translate(3469 -2398)"><g id="Group 27"><g id="Oval 38"><use xlink:href="#path0_fill" transform="translate(-3469 2398)" fill="#F7F7F7"/></g><g id="Shape"><use xlink:href="#path1_fill" transform="translate(-3456.88 2410.19)" fill="#00417B"/></g></g></g><defs><path id="path0_fill" fill-rule="evenodd" d="M 27 54C 41.9117 54 54 41.9117 54 27C 54 12.0883 41.9117 0 27 0C 12.0883 0 0 12.0883 0 27C 0 41.9117 12.0883 54 27 54Z"/><path id="path1_fill" fill-rule="evenodd" d="M 5.67839 0.00417422C 5.43764 0.0663414 5.27211 0.287466 5.27996 0.536432L 5.27996 2.3328L 5.27996 2.6322C 5.27684 2.66539 5.27684 2.6988 5.27996 2.732L 5.27996 4.32877L 3.75261 4.32877C 3.7305 4.32738 3.70832 4.32738 3.68621 4.32877C 3.41901 4.36251 3.21928 4.59122 3.22136 4.86103L 3.22136 6.39127L 0.53191 6.39127C 0.476913 6.38256 0.420891 6.38256 0.365894 6.39127C 0.138346 6.46596 -0.0112173 6.68392 0.000659525 6.92353L 0.000659525 9.48502L 0.000659525 10.0173L 0.000659525 11.5143L 0.000659525 25.0203C 0.00068886 25.3142 0.23852 25.5525 0.53191 25.5526L 7.00652 25.5526L 7.00652 27.6483L 8.06902 27.6483L 8.06902 25.5526L 29.2194 25.5526C 29.5128 25.5525 29.7506 25.3142 29.7507 25.0203L 29.7507 10.0173L 29.7507 9.48502L 29.7507 6.92353C 29.7506 6.62958 29.5128 6.3913 29.2194 6.39127L 19.0925 6.39127L 19.0925 3.69671L 19.0925 3.16446L 18.5612 3.16446L 11.1901 3.16446L 10.6589 3.16446L 10.6589 3.69671L 10.6589 6.39127L 9.52996 6.39127L 9.52996 2.732C 9.53308 2.6988 9.53308 2.66539 9.52996 2.6322L 9.52996 2.29954L 9.52996 0.536432C 9.52993 0.242486 9.2921 0.00420359 8.99871 0.00417422L 5.81121 0.00417422C 5.76711 -0.00139141 5.72249 -0.00139141 5.67839 0.00417422ZM 6.34253 1.0686L 8.46753 1.0686L 8.46753 2.19965L 6.34253 2.19965L 6.34253 1.0686ZM 6.34253 3.26416L 8.46753 3.26416L 8.46753 4.32868L 6.34253 4.32868L 6.34253 3.26416ZM 11.7214 4.229L 18.03 4.229L 18.03 6.3913L 11.7214 6.3913L 11.7214 4.229ZM 4.28394 5.39331L 5.28003 5.39331L 5.28003 6.39129L 4.28394 6.39129L 4.28394 5.39331ZM 6.34253 5.39331L 8.46753 5.39331L 8.46753 9.58484L 6.34253 9.58484L 6.34253 7.45581L 6.34253 5.39331ZM 1.06323 7.45581L 3.22144 7.45581L 3.22144 13.3772C 3.21873 13.5691 3.31939 13.7477 3.48487 13.8444C 3.65035 13.9412 3.85502 13.9412 4.0205 13.8444C 4.18599 13.7477 4.28664 13.5691 4.28394 13.3772L 4.28394 7.45581L 5.28003 7.45581L 5.28003 10.1171C 5.27447 10.1613 5.27447 10.206 5.28003 10.2502L 5.28003 14.5082L 4.25073 14.5082C 2.45889 14.5082 1.06323 13.1534 1.06323 11.5143L 1.06323 10.0173L 1.06323 9.48504L 1.06323 7.45581ZM 9.53003 7.45581L 28.6882 7.45581L 28.6882 9.48504L 28.6882 10.0173L 28.6882 11.5143C 28.6882 13.1534 27.2926 14.5082 25.5007 14.5082L 17.0007 14.5082L 17.0007 13.976C 17.0007 13.682 16.7629 13.4437 16.4695 13.4437L 13.282 13.4437C 13.2489 13.4406 13.2155 13.4406 13.1824 13.4437C 12.9284 13.4923 12.7462 13.717 12.7507 13.976L 12.7507 14.5082L 9.53003 14.5082L 9.53003 10.2169C 9.53038 10.2058 9.53038 10.1947 9.53003 10.1836L 9.53003 10.1171L 9.53003 7.45581ZM 6.34253 10.6494L 8.46753 10.6494L 8.46753 22.3591L 6.34253 22.3591L 6.34253 10.6494ZM 1.06323 14.1755C 1.84555 15.0368 2.97505 15.5727 4.25073 15.5727L 5.28003 15.5727L 5.28003 22.8913C 5.28006 23.1852 5.51789 23.4235 5.81128 23.4235L 6.0769 23.4235L 6.0769 24.488L 1.06323 24.488L 1.06323 14.1755ZM 28.6882 14.1755L 28.6882 24.488L 8.99878 24.488L 8.99878 23.4235C 9.29217 23.4235 9.53 23.1852 9.53003 22.8913L 9.53003 15.5727L 12.7507 15.5727L 12.7507 16.105C 12.7508 16.3989 12.9886 16.6372 13.282 16.6372L 16.4695 16.6372C 16.7629 16.6372 17.0007 16.3989 17.0007 16.105L 17.0007 15.5727L 25.5007 15.5727C 26.7764 15.5727 27.9059 15.0368 28.6882 14.1755ZM 13.8132 14.5083L 15.9382 14.5083L 15.9382 15.5728L 13.8132 15.5728L 13.8132 14.5083ZM 7.1394 23.4236L 7.93628 23.4236L 7.93628 24.4881L 7.1394 24.4881L 7.1394 23.4236Z"/></defs></svg>