<svg width="80" height="80" viewBox="0 0 80 80" version="1.1" xmlns="http://www.w3.org/2000/svg" xmlns:xlink="http://www.w3.org/1999/xlink"><title>Group</title><desc>Created using Figma</desc><g id="Canvas" transform="translate(774 2800)"><g id="Group"><g id="Fill 248"><use xlink:href="#path0_fill" transform="translate(-774 -2800)" fill="#F2F2F2"/></g><g id="Fill 249"><use xlink:href="#path1_fill" transform="translate(-751.585 -2778.95)" fill="#FFF"/></g><g id="Fill 250"><use xlink:href="#path2_fill" transform="translate(-753.727 -2787.16)" fill="#3D546B"/></g><g id="Fill 251"><use xlink:href="#path3_fill" transform="translate(-742.304 -2738.11)" fill="#3E4959"/></g><g id="Fill 252"><use xlink:href="#path4_fill" transform="translate(-739.897 -2784.01)" fill="#3E4959"/></g><g id="Fill 253"><use xlink:href="#path5_fill" transform="translate(-739.326 -2783.44)" fill="#242D3C"/></g><g id="Fill 254"><use xlink:href="#path6_fill" transform="translate(-749.73 -2759.55)" fill="#0382CE"/></g><g id="Fill 255"><use xlink:href="#path7_fill" transform="translate(-749.004 -2762.24)" fill="#0382CE"/></g><g id="Fill 256"><use xlink:href="#path8_fill" transform="translate(-749.004 -2758.5)" fill="#0382CE"/></g><g id="Fill 257"><use xlink:href="#path9_fill" transform="translate(-730.642 -2759.55)" fill="#0382CE"/></g><g id="Fill 258"><use xlink:href="#path10_fill" transform="translate(-730.886 -2762.24)" fill="#0382CE"/></g><g id="Fill 259"><use xlink:href="#path11_fill" transform="translate(-730.886 -2758.5)" fill="#0382CE"/></g><g id="Fill 260"><use xlink:href="#path12_fill" transform="translate(-745.742 -2762.24)" fill="#0382CE"/></g><g id="Fill 261"><use xlink:href="#path13_fill" transform="translate(-742.112 -2760.5)" fill="#FFF"/></g><g id="Fill 262"><use xlink:href="#path14_fill" transform="translate(-757.776 -2778.95)" fill="#EE7C2D"/></g><g id="Fill 263"><use xlink:href="#path15_fill" transform="translate(-750.234 -2778.95)" fill="#FFF"/></g><g id="Fill 264"><use xlink:href="#path16_fill" transform="translate(-742.692 -2778.95)" fill="#EE7C2D"/></g><g id="Fill 265"><use xlink:href="#path17_fill" transform="translate(-736.399 -2778.95)" fill="#FFF"/></g><g id="Fill 266"><use xlink:href="#path18_fill" transform="translate(-731.351 -2778.95)" fill="#EE7C2D"/></g><g id="Fill 267"><use xlink:href="#path19_fill" transform="translate(-757.776 -2771.83)" fill="#B84421"/></g><g id="Fill 268"><use xlink:href="#path20_fill" transform="translate(-750.244 -2771.83)" fill="#D9D8D7"/></g><g id="Fill 269"><use xlink:href="#path21_fill" transform="translate(-742.713 -2771.83)" fill="#B84421"/></g><g id="Fill 270"><use xlink:href="#path22_fill" transform="translate(-735.181 -2771.83)" fill="#D9D8D7"/></g><g id="Fill 271"><use xlink:href="#path23_fill" transform="translate(-727.649 -2771.83)" fill="#B84421"/></g><g id="Fill 272"><use xlink:href="#path24_fill" transform="translate(-740.254 -2752.85)" fill="#63DDE8"/></g><g id="Fill 273"><use xlink:href="#path25_fill" transform="translate(-736.513 -2737.27)" fill="#242D3C"/></g><g id="Fill 274"><use xlink:href="#path26_fill" transform="translate(-730.564 -2737.27)" fill="#242D3C"/></g><g id="Fill 275"><use xlink:href="#path27_fill" transform="translate(-724.611 -2737.27)" fill="#242D3C"/></g><g id="Fill 276"><use xlink:href="#path28_fill" transform="translate(-718.66 -2737.27)" fill="#242D3C"/></g><g id="Fill 277"><use xlink:href="#path29_fill" transform="translate(-736.513 -2742.85)" fill="#FFF"/></g><g id="Fill 278"><use xlink:href="#path30_fill" transform="translate(-725.415 -2741.81)" fill="#242D3C"/></g><g id="Fill 279"><use xlink:href="#path31_fill" transform="translate(-723.402 -2741.81)" fill="#242D3C"/></g><g id="Fill 280"><use xlink:href="#path32_fill" transform="translate(-718.812 -2741.81)" fill="#242D3C"/></g><g id="Fill 281"><use xlink:href="#path33_fill" transform="translate(-740.254 -2749.21)" fill="#3D546B"/></g></g></g><defs><path id="path0_fill" fill-rule="evenodd" d="M 80 40C 80 62.0908 62.0914 80 40 80C 17.9081 80 -4.18386e-09 62.0908 -4.18386e-09 40C -4.18386e-09 17.9086 17.9081 0 40 0C 62.0914 0 80 17.9086 80 40Z"/><path id="path1_fill" fill-rule="evenodd" d="M 8.7874e-07 37.9034L 25.2729 37.9034L 25.2729 -2.8186e-07L 8.7874e-07 -2.8186e-07L 8.7874e-07 37.9034Z"/><path id="path2_fill" fill-rule="evenodd" d="M 2.14221 46.1175L 27.4151 46.1175L 27.4151 8.21406L 2.14221 8.21406L 2.14221 46.1175ZM 25.7766 0L 3.78784 0C 1.70594 0 4.4766e-07 1.70431 4.4766e-07 3.79165L 4.4766e-07 50.5399C 4.4766e-07 52.6261 1.70594 54.3294 3.78784 54.3294L 25.7766 54.3294C 27.8606 54.3294 29.5606 52.6261 29.5606 50.5399L 29.5606 3.79165C 29.5606 1.70431 27.8606 0 25.7766 0Z"/><path id="path3_fill" fill-rule="evenodd" d="M 1.01379 2.34105C 0.454195 2.34105 9.7822e-07 1.88577 9.7822e-07 1.32455L 9.7822e-07 1.01759C 9.7822e-07 0.454196 0.454195 1.39272e-06 1.01379 1.39272e-06L 5.6997 1.39272e-06C 6.2582 1.39272e-06 6.71348 0.454196 6.71348 1.01759L 6.71348 1.32455C 6.71348 1.88577 6.2582 2.34105 5.6997 2.34105L 1.01379 2.34105Z"/><path id="path4_fill" fill-rule="evenodd" d="M 1.90479 0.95511C 1.90479 1.4821 1.48048 1.90696 0.952939 1.90696C 0.427031 1.90696 -9.28481e-07 1.4821 -9.28481e-07 0.95511C -9.28481e-07 0.429745 0.427031 -1.1606e-07 0.952939 -1.1606e-07C 1.48048 -1.1606e-07 1.90479 0.429745 1.90479 0.95511Z"/><path id="path5_fill" fill-rule="evenodd" d="M 0.762784 0.381935C 0.762784 0.59056 0.591649 0.760612 0.381938 0.760612C 0.17114 0.760612 4.3108e-07 0.59056 4.3108e-07 0.381935C 4.3108e-07 0.172767 0.17114 4.974e-08 0.381938 4.974e-08C 0.591649 4.974e-08 0.762784 0.172767 0.762784 0.381935Z"/><path id="path6_fill" fill-rule="evenodd" d="M -3.9792e-07 0.348793L 2.47905 0.348793L 2.47905 -1.09428e-06L -3.9792e-07 -1.09428e-06L -3.9792e-07 0.348793Z"/><path id="path7_fill" fill-rule="evenodd" d="M 1.75321 1.99715L 8.7874e-07 0.247198L 0.245569 -1.4922e-06L 1.99769 1.75375L 1.75321 1.99715Z"/><path id="path8_fill" fill-rule="evenodd" d="M 1.75321 8.6216e-07L 8.7874e-07 1.75375L 0.245569 1.99443L 1.99769 0.242852L 1.75321 8.6216e-07Z"/><path id="path9_fill" fill-rule="evenodd" d="M 1.06112e-06 0.348793L 2.47796 0.348793L 2.47796 -1.09428e-06L 1.06112e-06 -1.09428e-06L 1.06112e-06 0.348793Z"/><path id="path10_fill" fill-rule="evenodd" d="M 0.24394 1.99715L 1.99932 0.247198L 1.75212 -1.4922e-06L -1.72432e-06 1.75375L 0.24394 1.99715Z"/><path id="path11_fill" fill-rule="evenodd" d="M 0.24394 8.6216e-07L 1.99932 1.75375L 1.75212 1.99443L -1.72432e-06 0.242852L 0.24394 8.6216e-07Z"/><path id="path12_fill" fill-rule="evenodd" d="M -6.1346e-07 5.73283L 13.5889 5.73283L 13.5889 -1.4922e-06L -6.1346e-07 -1.4922e-06L -6.1346e-07 5.73283Z"/><path id="path13_fill" fill-rule="evenodd" d="M 6.33535 1.59168e-06L 5.51986 1.28435L 5.51986 2.22153L 5.06839 2.22153L 5.06839 1.28218L 4.2529 1.59168e-06L 4.78261 1.59168e-06L 5.30635 0.875791L 5.81813 1.59168e-06L 6.33535 1.59168e-06ZM 3.56346 1.59168e-06L 4.01059 1.59168e-06L 4.01059 1.16591C 4.01059 1.42941 3.99973 1.62282 3.97419 1.7293C 3.95137 1.83959 3.90682 1.93358 3.84543 2.00693C 3.77589 2.08462 3.69005 2.14601 3.57759 2.19056C 3.46839 2.23565 3.32876 2.2601 3.15328 2.2601C 2.93596 2.2601 2.77677 2.23185 2.66866 2.18241C 2.55783 2.13352 2.47633 2.07429 2.40896 1.99063C 2.34594 1.91891 2.30411 1.83145 2.28401 1.74995C 2.25521 1.62282 2.23891 1.42941 2.23891 1.18003L 2.23891 1.59168e-06L 2.68767 1.59168e-06L 2.68767 1.20285C 2.68767 1.39463 2.69202 1.51688 2.70289 1.57229C 2.7257 1.66411 2.76808 1.73528 2.83871 1.79233C 2.91531 1.84611 3.01311 1.87219 3.13915 1.87219C 3.2652 1.87219 3.36245 1.85155 3.42547 1.79667C 3.49229 1.74343 3.53032 1.68041 3.53902 1.60706C 3.5564 1.52937 3.56346 1.40278 3.56346 1.2273L 3.56346 1.59168e-06ZM 1.33596 1.74343C 1.29087 1.79233 1.23925 1.81895 1.17188 1.83144C 1.12896 1.83959 1.02574 1.84611 0.865465 1.84611L 0.449303 1.84611L 0.449303 1.25392L 0.809508 1.25392C 1.01596 1.25392 1.14852 1.26153 1.21046 1.28218C 1.27076 1.30445 1.31586 1.34357 1.3528 1.38214C 1.38377 1.42941 1.39735 1.48645 1.39735 1.55382C 1.39735 1.63314 1.37725 1.69888 1.33596 1.74343ZM 0.449303 0.363464L 0.707367 0.363464C 0.914362 0.363464 1.04801 0.365635 1.08876 0.375957C 1.16482 0.381934 1.21915 0.410185 1.25881 0.451475C 1.29847 0.496025 1.31586 0.551445 1.31586 0.618813C 1.31586 0.692158 1.29195 0.749746 1.25012 0.794296C 1.20557 0.837216 1.14309 0.867639 1.06974 0.871986C 1.02574 0.880135 0.914362 0.882311 0.744311 0.882311L 0.449303 0.882311L 0.449303 0.363464ZM 1.44027 1.03932C 1.53644 0.996399 1.61358 0.929031 1.669 0.84319C 1.72604 0.757893 1.75158 0.661732 1.75158 0.561222C 1.75158 0.4618 1.7293 0.375958 1.68638 0.292291C 1.63857 0.220576 1.58153 0.157557 1.51416 0.112464C 1.44353 0.0635674 1.36584 0.0347705 1.28435 0.0184717C 1.19362 0.00217291 1.06431 1.59168e-06 0.891003 1.59168e-06L -7.461e-07 1.59168e-06L -7.461e-07 2.22153L 0.755179 2.22153C 1.03987 2.21718 1.2235 2.2112 1.29847 2.20903C 1.41474 2.19273 1.5185 2.16231 1.59782 2.10092C 1.67932 2.04604 1.7456 1.96618 1.79015 1.87219C 1.83851 1.77874 1.86296 1.6766 1.86296 1.58044C 1.86296 1.44788 1.82764 1.33759 1.75158 1.23925C 1.67932 1.14581 1.5761 1.07844 1.44027 1.03932Z"/><path id="path14_fill" fill-rule="evenodd" d="M 11.2744 -2.8186e-07L 6.23375 -2.8186e-07L 6.3004e-07 7.12258L 7.53168 7.12258L 11.2744 -2.8186e-07Z"/><path id="path15_fill" fill-rule="evenodd" d="M 8.78017 -2.8186e-07L 3.74003 -2.8186e-07L 9.119e-07 7.12258L 7.53222 7.12258L 8.78017 -2.8186e-07Z"/><path id="path16_fill" fill-rule="evenodd" d="M 6.28591 -2.8186e-07L 1.24523 -2.8186e-07L 8.95321e-07 7.12258L 7.53114 7.12258L 6.28591 -2.8186e-07Z"/><path id="path17_fill" fill-rule="evenodd" d="M 9.948e-07 -2.8186e-07L 1.24903 7.12258L 8.77962 7.12258L 5.03959 -2.8186e-07L 9.948e-07 -2.8186e-07Z"/><path id="path18_fill" fill-rule="evenodd" d="M 5.03959 -2.8186e-07L 1.19376e-06 -2.8186e-07L 3.74275 7.12258L 11.2733 7.12258L 5.03959 -2.8186e-07Z"/><path id="path19_fill" fill-rule="evenodd" d="M 6.3004e-07 4.974e-08C 6.3004e-07 2.07973 1.68638 3.76557 3.76611 3.76557C 5.84584 3.76557 7.53168 2.07973 7.53168 4.974e-08L 6.3004e-07 4.974e-08Z"/><path id="path20_fill" fill-rule="evenodd" d="M 6.632e-08 4.974e-08C 6.632e-08 2.07973 1.68584 3.76557 3.76557 3.76557C 5.8453 3.76557 7.53114 2.07973 7.53114 4.974e-08L 6.632e-08 4.974e-08Z"/><path id="path21_fill" fill-rule="evenodd" d="M -1.9896e-07 4.974e-08C -1.9896e-07 2.07973 1.68638 3.76557 3.76665 3.76557C 5.84638 3.76557 7.53222 2.07973 7.53222 4.974e-08L -1.9896e-07 4.974e-08Z"/><path id="path22_fill" fill-rule="evenodd" d="M -1.06112e-06 4.974e-08C -1.06112e-06 2.07973 1.68638 3.76557 3.76557 3.76557C 5.8453 3.76557 7.53168 2.07973 7.53168 4.974e-08L -1.06112e-06 4.974e-08Z"/><path id="path23_fill" fill-rule="evenodd" d="M -1.62484e-06 4.974e-08C -1.62484e-06 2.07973 1.6853 3.76557 3.76557 3.76557C 5.84475 3.76557 7.53114 2.07973 7.53114 4.974e-08L -1.62484e-06 4.974e-08Z"/><path id="path24_fill" fill-rule="evenodd" d="M 28.5588 1.75256e-06C 28.9342 -0.000541541 29.3123 0.144517 29.5997 0.431376C 29.885 0.718235 30.0295 1.09365 30.0295 1.47287L 30.0284 18.548C 30.0295 18.9256 29.885 19.3016 29.5986 19.589C 29.3112 19.8764 28.9342 20.0187 28.5577 20.0187L 1.47124 20.0193C 1.09528 20.0187 0.719321 19.8759 0.430832 19.5895C 0.146146 19.3016 6.3004e-07 18.9262 6.3004e-07 18.548L 0.00108662 1.47287C 0.000543327 1.09474 0.145603 0.718779 0.431375 0.43029C 0.719321 0.144518 1.09637 0.00217493 1.47124 1.75256e-06L 28.5588 1.75256e-06Z"/><path id="path25_fill" fill-rule="evenodd" d="M 1.4922e-06 0.640544L 4.69406 0.640544L 4.69406 3.9792e-07L 1.4922e-06 3.9792e-07L 1.4922e-06 0.640544Z"/><path id="path26_fill" fill-rule="evenodd" d="M 4.69569 0.638915L -4.6424e-07 0.639458L -4.6424e-07 0.000543393L 4.69569 3.9792e-07L 4.69569 0.638915Z"/><path id="path27_fill" fill-rule="evenodd" d="M 4.69569 0.640544L -6.632e-08 0.639458L 0.000542929 3.9792e-07L 4.69569 0.000543393L 4.69569 0.640544Z"/><path id="path28_fill" fill-rule="evenodd" d="M 4.6946 0.640544L 0.00108752 0.640001L 1.52536e-06 0.000543393L 4.6946 3.9792e-07L 4.6946 0.640544Z"/><path id="path29_fill" fill-rule="evenodd" d="M 1.4922e-06 2.57413L 22.5478 2.57413L 22.5478 4.3108e-07L 1.4922e-06 4.3108e-07L 1.4922e-06 2.57413Z"/><path id="path30_fill" fill-rule="evenodd" d="M 1.29032 0.482444L -1.59168e-06 0.48353L -1.59168e-06 -8.6216e-07L 1.29032 0.000542133L 1.29032 0.482444Z"/><path id="path31_fill" fill-rule="evenodd" d="M 3.86771 0.482988L -8.95321e-07 0.482988L 0.0010851 -5.6372e-07L 3.86771 0.00108543L 3.86771 0.482988Z"/><path id="path32_fill" fill-rule="evenodd" d="M 3.86662 0.482987L 1.89012e-06 0.481901L 1.89012e-06 -1.1606e-06L 3.86771 -1.1606e-06L 3.86662 0.482987Z"/><path id="path33_fill" fill-rule="evenodd" d="M 30.0289 4.58051L 3.316e-07 4.58105L 3.316e-07 1.8238e-06L 30.0289 0.000544819L 30.0289 4.58051Z"/></defs></svg>