<svg width="80" height="80" viewBox="0 0 80 80" version="1.1" xmlns="http://www.w3.org/2000/svg" xmlns:xlink="http://www.w3.org/1999/xlink">
<title>Group 2 Copy 6</title>
<desc>Created using Figma</desc>
<g id="Canvas" transform="translate(773 2282)">
<g id="Group 2 Copy 6">
<g id="Fill 1130">
<use xlink:href="#path0_fill" transform="translate(-773 -2282)" fill="#F2F2F2"/>
</g>
<g id="Fill 1131">
<use xlink:href="#path1_fill" transform="translate(-733.508 -2276.6)" fill="#353F49"/>
</g>
<g id="Fill 1132">
<use xlink:href="#path2_fill" transform="translate(-740.694 -2275.95)" fill="#353F49"/>
</g>
<g id="Fill 1133">
<use xlink:href="#path3_fill" transform="translate(-747.538 -2273.81)" fill="#353F49"/>
</g>
<g id="Fill 1134">
<use xlink:href="#path4_fill" transform="translate(-753.745 -2270.29)" fill="#353F49"/>
</g>
<g id="Fill 1135">
<use xlink:href="#path5_fill" transform="translate(-759.052 -2265.53)" fill="#353F49"/>
</g>
<g id="Fill 1136">
<use xlink:href="#path6_fill" transform="translate(-763.218 -2259.74)" fill="#353F49"/>
</g>
<g id="Fill 1137">
<use xlink:href="#path7_fill" transform="translate(-766.062 -2253.17)" fill="#353F49"/>
</g>
<g id="Fill 1138">
<use xlink:href="#path8_fill" transform="translate(-767.462 -2246.13)" fill="#353F49"/>
</g>
<g id="Fill 1139">
<use xlink:href="#path9_fill" transform="translate(-767.462 -2239.28)" fill="#353F49"/>
</g>
<g id="Fill 1140">
<use xlink:href="#path10_fill" transform="translate(-766.062 -2232.96)" fill="#353F49"/>
</g>
<g id="Fill 1141">
<use xlink:href="#path11_fill" transform="translate(-763.218 -2227.04)" fill="#353F49"/>
</g>
<g id="Fill 1142">
<use xlink:href="#path12_fill" transform="translate(-759.052 -2221.76)" fill="#353F49"/>
</g>
<g id="Fill 1143">
<use xlink:href="#path13_fill" transform="translate(-753.745 -2217.37)" fill="#353F49"/>
</g>
<g id="Fill 1144">
<use xlink:href="#path14_fill" transform="translate(-747.538 -2214.06)" fill="#353F49"/>
</g>
<g id="Fill 1145">
<use xlink:href="#path15_fill" transform="translate(-720.932 -2214.06)" fill="#353F49"/>
</g>
<g id="Fill 1146">
<use xlink:href="#path16_fill" transform="translate(-715.305 -2217.37)" fill="#353F49"/>
</g>
<g id="Fill 1147">
<use xlink:href="#path17_fill" transform="translate(-710.449 -2221.76)" fill="#353F49"/>
</g>
<g id="Fill 1148">
<use xlink:href="#path18_fill" transform="translate(-706.576 -2227.03)" fill="#353F49"/>
</g>
<g id="Fill 1149">
<use xlink:href="#path19_fill" transform="translate(-703.859 -2232.96)" fill="#353F49"/>
</g>
<g id="Fill 1150">
<use xlink:href="#path20_fill" transform="translate(-702.415 -2239.28)" fill="#353F49"/>
</g>
<g id="Fill 1151">
<use xlink:href="#path21_fill" transform="translate(-702.415 -2246.13)" fill="#353F49"/>
</g>
<g id="Fill 1152">
<use xlink:href="#path22_fill" transform="translate(-703.859 -2253.17)" fill="#353F49"/>
</g>
<g id="Fill 1153">
<use xlink:href="#path23_fill" transform="translate(-706.575 -2259.74)" fill="#353F49"/>
</g>
<g id="Fill 1154">
<use xlink:href="#path24_fill" transform="translate(-710.445 -2265.53)" fill="#353F49"/>
</g>
<g id="Fill 1155">
<use xlink:href="#path25_fill" transform="translate(-715.302 -2270.29)" fill="#353F49"/>
</g>
<g id="Fill 1156">
<use xlink:href="#path26_fill" transform="translate(-720.932 -2273.81)" fill="#353F49"/>
</g>
<g id="Fill 1157">
<use xlink:href="#path27_fill" transform="translate(-727.09 -2275.95)" fill="#353F49"/>
</g>
<g id="Group 1164">
<g id="Fill 1158">
<use xlink:href="#path28_fill" transform="translate(-735.517 -2221.54)" fill="#3D546B"/>
</g>
<g id="Fill 1160">
<use xlink:href="#path29_fill" transform="translate(-753.922 -2262.92)" fill="#3D546B"/>
</g>
<g id="Fill 1161">
<use xlink:href="#path30_fill" transform="translate(-749.74 -2258.74)" fill="#FFFFFF"/>
</g>
<g id="Fill 1162">
<use xlink:href="#path31_fill" transform="translate(-736.962 -2211.94)" fill="#3D546B"/>
</g>
<g id="Fill 1163">
<use xlink:href="#path32_fill" transform="translate(-737.622 -2216.13)" fill="#293949"/>
</g>
</g>
<g id="Fill 1165">
<use xlink:href="#path33_fill" transform="translate(-745.308 -2254.31)" fill="#FAB83E"/>
</g>
<g id="Fill 1166">
<use xlink:href="#path34_fill" transform="translate(-742.842 -2251.84)" fill="#FFDB79"/>
</g>
<g id="Fill 1167">
<use xlink:href="#path35_fill" transform="translate(-737.257 -2247.63)" fill="#FAB83E"/>
</g>
<g id="Fill 1168">
<use xlink:href="#path36_fill" transform="translate(-736.443 -2242.81)" fill="#FAB83E"/>
</g>
<g id="Fill 1169">
<use xlink:href="#path37_fill" transform="translate(-733.812 -2248.19)" fill="#FAB83E"/>
</g>
</g>
</g>
<defs>
<path id="path0_fill" fill-rule="evenodd" d="M 80 40C 80 62.0923 62.0923 80 40 80C 17.9077 80 0 62.0923 0 40C 0 17.9077 17.9077 0 40 0C 62.0923 0 80 17.9077 80 40Z"/>
<path id="path1_fill" fill-rule="evenodd" d="M 0 3.79323L 1.01538 3.79323L 1.01538 0L 0 0L 0 3.79323Z"/>
<path id="path2_fill" fill-rule="evenodd" d="M 0 0.214154L 0.996923 0L 1.78338 3.71446L 0.790769 3.92308L 0 0.214154Z"/>
<path id="path3_fill" fill-rule="evenodd" d="M 0 0.413538L 0.929846 0L 2.47508 3.46585L 1.54277 3.87877L 0 0.413538Z"/>
<path id="path4_fill" fill-rule="evenodd" d="M 0 0.596923L 0.818462 0L 3.04923 3.07077L 2.22646 3.66708L 0 0.596923Z"/>
<path id="path5_fill" fill-rule="evenodd" d="M 0 0.756308L 0.679385 0L 3.49908 2.53846L 2.81723 3.29415L 0 0.756308Z"/>
<path id="path6_fill" fill-rule="evenodd" d="M 0 0.881231L 0.508308 0L 3.79385 1.89662L 3.28492 2.784L 0 0.881231Z"/>
<path id="path7_fill" fill-rule="evenodd" d="M 0 0.967385L 0.312615 0L 3.92 1.17169L 3.60677 2.14092L 0 0.967385Z"/>
<path id="path8_fill" fill-rule="evenodd" d="M 0 1.01723L 0.104615 0L 3.87508 0.401231L 3.76985 1.41169L 0 1.01723Z"/>
<path id="path9_fill" fill-rule="evenodd" d="M 0 0.393846L 3.76985 0L 3.87508 1.01046L 0.104615 1.41046L 0 0.393846Z"/>
<path id="path10_fill" fill-rule="evenodd" d="M 0 1.16862L 3.60677 0L 3.92 0.963077L 0.312615 2.136L 0 1.16862Z"/>
<path id="path11_fill" fill-rule="evenodd" d="M 0 1.89662L 3.28492 0L 3.79385 0.882461L 0.508308 2.77723L 0 1.89662Z"/>
<path id="path12_fill" fill-rule="evenodd" d="M 0 2.53969L 2.81846 0L 3.49908 0.756308L 0.679385 3.29354L 0 2.53969Z"/>
<path id="path13_fill" fill-rule="evenodd" d="M 0 3.06646L 2.22831 0L 3.04862 0.593231L 0.820308 3.66338L 0 3.06646Z"/>
<path id="path14_fill" fill-rule="evenodd" d="M 0 3.46338L 1.54277 0L 2.47508 0.412923L 0.929846 3.87754L 0 3.46338Z"/>
<path id="path15_fill" fill-rule="evenodd" d="M 0 0.412923L 0.925538 0L 2.46892 3.46338L 1.53846 3.87754L 0 0.412923Z"/>
<path id="path16_fill" fill-rule="evenodd" d="M 0 0.593231L 0.822154 0L 3.05662 3.06646L 2.22954 3.66338L 0 0.593231Z"/>
<path id="path17_fill" fill-rule="evenodd" d="M 0 0.755692L 0.680615 0L 3.49846 2.53723L 2.82031 3.29292L 0 0.755692Z"/>
<path id="path18_fill" fill-rule="evenodd" d="M 0 0.88L 0.507692 0L 3.79323 1.89415L 3.28431 2.77477L 0 0.88Z"/>
<path id="path19_fill" fill-rule="evenodd" d="M 0 0.961846L 0.312615 0L 3.92062 1.16738L 3.60677 2.13477L 0 0.961846Z"/>
<path id="path20_fill" fill-rule="evenodd" d="M 0 1.00985L 0.104615 0L 3.87569 0.390769L 3.77169 1.40738L 0 1.00985Z"/>
<path id="path21_fill" fill-rule="evenodd" d="M 0 0.401846L 3.77046 0L 3.87631 1.01723L 0.105231 1.41231L 0 0.401846Z"/>
<path id="path22_fill" fill-rule="evenodd" d="M 0 1.17292L 3.60677 0L 3.92062 0.967385L 0.315692 2.14092L 0 1.17292Z"/>
<path id="path23_fill" fill-rule="evenodd" d="M 0 1.89662L 3.28369 0L 3.79262 0.88L 0.508923 2.78215L 0 1.89662Z"/>
<path id="path24_fill" fill-rule="evenodd" d="M 0 2.53846L 2.81662 0L 3.49477 0.756308L 0.679385 3.29415L 0 2.53846Z"/>
<path id="path25_fill" fill-rule="evenodd" d="M 0 3.06954L 2.22646 0L 3.05354 0.597538L 0.822769 3.66585L 0 3.06954Z"/>
<path id="path26_fill" fill-rule="evenodd" d="M 0 3.46277L 1.53846 0L 2.46892 0.411077L 0.928615 3.87508L 0 3.46277Z"/>
<path id="path27_fill" fill-rule="evenodd" d="M 0 3.71323L 0.785846 0L 1.78338 0.212923L 0.992615 3.92185L 0 3.71323Z"/>
<path id="path28_fill" fill-rule="evenodd" d="M 0 5.40923L 5.03262 5.40923L 5.03262 0L 0 0L 0 5.40923Z"/>
<path id="path29_fill" fill-rule="evenodd" d="M 41.8462 20.9231C 41.8462 32.4806 32.4788 41.848 20.9212 41.848C 9.36738 41.848 0 32.4806 0 20.9231C 0 9.368 9.36738 0 20.9212 0C 32.4788 0 41.8462 9.368 41.8462 20.9231Z"/>
<path id="path30_fill" fill-rule="evenodd" d="M 33.48 16.7397C 33.48 25.9865 25.9865 33.4794 16.7409 33.4794C 7.49415 33.4794 0 25.9865 0 16.7397C 0 7.49292 7.49415 0 16.7409 0C 25.9865 0 33.48 7.49292 33.48 16.7397Z"/>
<path id="path31_fill" fill-rule="evenodd" d="M 0 9.94338L 7.92431 9.94338L 7.92431 0L 0 0L 0 9.94338Z"/>
<path id="path32_fill" fill-rule="evenodd" d="M 0 4.18523L 9.24246 4.18523L 9.24246 0L 0 0L 0 4.18523Z"/>
<path id="path33_fill" fill-rule="evenodd" d="M 24.6154 12.3126C 24.6154 19.1052 19.1083 24.6148 12.3083 24.6148C 5.50831 24.6148 0 19.1052 0 12.3126C 0 5.51754 5.50831 0 12.3083 0C 19.1083 0 24.6154 5.51754 24.6154 12.3126Z"/>
<path id="path34_fill" fill-rule="evenodd" d="M 19.6831 9.84431C 19.6831 15.2843 15.2812 19.6855 9.84185 19.6855C 4.40369 19.6855 0 15.2843 0 9.84431C 0 4.40492 4.40369 0 9.84185 0C 15.2812 0 19.6831 4.40492 19.6831 9.84431Z"/>
<path id="path35_fill" fill-rule="evenodd" d="M 5.29108 6.44554L 3.22215 6.44554C 2.36062 6.44554 1.54954 6.10708 0.942154 5.49477C 0.337231 4.89723 0 4.08615 0 3.21723C 0 2.35446 0.336 1.54462 0.945231 0.936C 1.54338 0.332308 2.35323 0 3.22215 0L 7.70031 0L 7.70031 1.624L 3.22215 1.624C 2.78954 1.624 2.38708 1.78892 2.09538 2.08369C 1.78892 2.38708 1.62708 2.78892 1.62708 3.21723C 1.62708 3.64862 1.78892 4.04862 2.08985 4.34523C 2.39815 4.65354 2.79631 4.82031 3.22215 4.82031L 5.29108 4.82031L 5.29108 6.44554Z"/>
<path id="path36_fill" fill-rule="evenodd" d="M 4.47692 6.44554L 0 6.44554L 0 4.82215L 4.47692 4.82215C 4.90154 4.82215 5.30708 4.65662 5.60985 4.35323C 5.90892 4.05785 6.07631 3.656 6.07631 3.22462C 6.07631 2.792 5.90892 2.39385 5.61169 2.10092C 5.30708 1.792 4.90154 1.62523 4.47692 1.62523L 2.408 1.62523L 2.408 0L 4.47692 0C 5.33846 0 6.14892 0.336615 6.75569 0.948308C 7.36185 1.54092 7.69908 2.35631 7.69908 3.22462C 7.69908 4.08923 7.36308 4.90277 6.75446 5.50646C 6.14092 6.11323 5.33169 6.44554 4.47692 6.44554Z"/>
<path id="path37_fill" fill-rule="evenodd" d="M 0 12.3963L 1.62338 12.3963L 1.62338 0L 0 0L 0 12.3963Z"/>
</defs>
</svg>
