<?xml version="1.0" encoding="UTF-8"?>
<svg width="73px" height="75px" viewBox="0 0 73 75" version="1.1" xmlns="http://www.w3.org/2000/svg" xmlns:xlink="http://www.w3.org/1999/xlink">
    <!-- Generator: Sketch 43.1 (39012) - http://www.bohemiancoding.com/sketch -->
    <title>Page 1</title>
    <desc>Created with Sketch.</desc>
    <defs></defs>
    <g id="Page-1" stroke="none" stroke-width="1" fill="none" fill-rule="evenodd">
        <g id="На-бумаге---успешно" transform="translate(-654.000000, -277.000000)">
            <g id="Group-12" transform="translate(514.000000, 277.000000)">
                <g id="Page-1" transform="translate(140.000000, 0.000000)">
                    <path d="M46.5,28.75 C46.5,28.062 45.938,27.5 45.25,27.5 L14,27.5 C13.312,27.5 12.75,28.062 12.75,28.75 C12.75,29.438 13.312,30 14,30 L45.25,30 C45.938,30 46.5,29.438 46.5,28.75 Z" id="Fill-1" fill-opacity="0.0947973279" fill="#000000"></path>
                    <path d="M14,20 L26.5,20 C27.188,20 27.75,19.438 27.75,18.75 C27.75,18.062 27.188,17.5 26.5,17.5 L14,17.5 C13.312,17.5 12.75,18.062 12.75,18.75 C12.75,19.438 13.312,20 14,20 Z" id="Fill-2" fill-opacity="0.0947973279" fill="#000000"></path>
                    <path d="M37.75,37.5 L14,37.5 C13.312,37.5 12.75,38.062 12.75,38.75 C12.75,39.438 13.312,40 14,40 L37.75,40 C38.438,40 39,39.438 39,38.75 C39,38.062 38.438,37.5 37.75,37.5 Z" id="Fill-3" fill-opacity="0.0947973279" fill="#000000"></path>
                    <path d="M39,48.75 C39,48.062 38.438,47.5 37.75,47.5 L14,47.5 C13.312,47.5 12.75,48.062 12.75,48.75 C12.75,49.438 13.312,50 14,50 L37.75,50 C38.438,50 39,49.438 39,48.75 Z" id="Fill-4" fill-opacity="0.0947973279" fill="#000000"></path>
                    <path d="M14,57.5 C13.312,57.5 12.75,58.062 12.75,58.75 C12.75,59.438 13.312,60 14,60 L34,60 C34.688,60 35.25,59.438 35.25,58.75 C35.25,58.062 34.688,57.5 34,57.5 L14,57.5 Z" id="Fill-5" fill-opacity="0.0947973279" fill="#000000"></path>
                    <path d="M2.75,2.5 L39,2.5 L39,20 L56.5,20 L56.5,41.25 L59,41.25 L59,18.238 L40.762,0 L0.25,0 L0.25,75 L42.75,75 L42.75,72.5 L2.75,72.5 L2.75,2.5 Z M41.5,4.262 L54.738,17.5 L41.5,17.5 L41.5,4.262 Z" id="Fill-6" fill-opacity="0.0947973279" fill="#000000"></path>
                    <path d="M57.75,45 C49.477,45 42.75,51.727 42.75,60 C42.75,68.273 49.477,75 57.75,75 C66.023,75 72.75,68.273 72.75,60 C72.75,51.727 66.023,45 57.75,45 Z M57.75,72.5 C50.863,72.5 45.25,66.887 45.25,60 C45.25,53.113 50.863,47.5 57.75,47.5 C64.637,47.5 70.25,53.113 70.25,60 C70.25,66.887 64.637,72.5 57.75,72.5 Z" id="Fill-7" fill="#6AA61F"></path>
                    <polygon id="Selected" fill="#66A70F" fill-rule="nonzero" points="54.7631686 64.259562 55.4603603 64.9567536 56.167327 64.2694762 66.2845295 54.4340419 64.8904263 53 54.7732238 62.8354343 56.1773822 62.8453484 52.4142136 59.0821798 51 60.4963934"></polygon>
                </g>
            </g>
        </g>
    </g>
</svg>