<?xml version="1.0" encoding="UTF-8" standalone="no"?>
<svg width="33px" height="43px" viewBox="0 0 33 43" version="1.1" xmlns="http://www.w3.org/2000/svg" xmlns:xlink="http://www.w3.org/1999/xlink" xmlns:sketch="http://www.bohemiancoding.com/sketch/ns">
    <!-- Generator: Sketch 3.2.2 (9983) - http://www.bohemiancoding.com/sketch -->
    <title>icon_file_css</title>
    <desc>Created with Sketch.</desc>
    <defs></defs>
    <g id="brandbook" stroke="none" stroke-width="1" fill="none" fill-rule="evenodd" sketch:type="MSPage">
        <g id="icon_file_css" sketch:type="MSLayerGroup" transform="translate(0.500000, 0.226592)">
            <path d="M1.89423221,0.0901273408 L21.3099625,0.0901273408 L31.9165843,10.6968689 L31.9165843,40.7453483 C31.9165843,41.7355506 31.108794,42.5431011 30.1188315,42.5431011 L1.89423221,42.5431011 C0.904269663,42.5431011 0.0964794007,41.7355506 0.0964794007,40.7453483 L0.0964794007,1.88788015 C0.0964794007,0.897677903 0.904029963,0.0901273408 1.89423221,0.0901273408" id="Fill-1" fill="#2173B9" sketch:type="MSShapeGroup"></path>
            <path d="M31.9163446,40.7801049 C31.8976479,41.754367 31.0972884,42.5431011 30.1188315,42.5431011 C31.0974082,42.5431011 31.8976479,41.754367 31.9163446,40.7801049 M0.0965992509,40.7684794 C0.10906367,41.7481348 0.911700375,42.5431011 1.89423221,42.5431011 C0.911940075,42.5431011 0.10906367,41.7481348 0.0965992509,40.7684794" id="Fill-2" fill="#CCCCCC" sketch:type="MSShapeGroup"></path>
            <path d="M31.9165843,39.3071461 C31.9165843,40.2972285 31.108794,41.1048989 30.1188315,41.1048989 L1.89423221,41.1048989 C0.904029963,41.1048989 0.0964794007,40.2972285 0.0964794007,39.3071461 L0.0964794007,40.7453483 C0.0964794007,40.7530187 0.0964794007,40.760809 0.0965992509,40.7684794 C0.10906367,41.7481348 0.911940075,42.5431011 1.89423221,42.5431011 L30.1188315,42.5431011 C31.0972884,42.5431011 31.8976479,41.754367 31.9163446,40.7801049 C31.9164644,40.7684794 31.9165843,40.7569738 31.9165843,40.7453483 L31.9165843,39.3071461" id="Fill-3" fill="#1A5C94" sketch:type="MSShapeGroup"></path>
            <path d="M21.3099625,0.0901273408 L21.3099625,10.6968689 L31.9165843,10.6968689 L21.3099625,0.0901273408" id="Fill-4" fill="#3881C0" sketch:type="MSShapeGroup"></path>
            <path d="M31.9165843,10.6968689 L21.3099625,10.6968689 L31.9165843,21.3036105 L31.9165843,10.6968689" id="Fill-5" fill="#1A5C94" sketch:type="MSShapeGroup"></path>
            <path d="M9.25567041,16.152809 L16.061603,16.1490936 L9.38151311,19.04803 L9.7595206,21.6948015 L19.5905918,21.6948015 L19.2125843,25.4758352 L15.8878202,26.1008539 L12.9106217,25.3497528 L12.6584569,23.207191 L9.88572285,23.207191 L10.2638502,27.618397 L16.1876854,29.2569888 L21.8593558,27.4925543 L22.6160899,18.8120449 L16.5456779,18.8120449 L23.1357603,16.1163745 L23.1357603,13.3761199 L8.87730337,13.3761199 L9.25567041,16.152809" id="Fill-6" fill="#FFFFFF" sketch:type="MSShapeGroup"></path>
        </g>
    </g>
</svg>