<svg width="80" height="80" viewBox="0 0 80 80" version="1.1" xmlns="http://www.w3.org/2000/svg" xmlns:xlink="http://www.w3.org/1999/xlink">
<title>MB_launcher_icon_google_play</title>
<desc>Created using Figma</desc>
<g id="Canvas" transform="translate(-591 -955)">
<g id="MB_launcher_icon_google_play">
<g id="Rectangle 4">
<use xlink:href="#path0_fill" transform="translate(591 955)" fill="#0088FA"/>
</g>
<g id="emblem">
<g id="Fill 1" opacity="0.89">
<use xlink:href="#path1_fill" transform="translate(643.48 982.52)" fill="#FFFFFF"/>
</g>
<g id="Fill 2" opacity="0.3">
<use xlink:href="#path2_fill" transform="translate(643.48 999.16)" fill="#FFFFFF"/>
</g>
<g id="Fill 3">
<use xlink:href="#path2_fill" transform="translate(643.48 1007.48)" fill="#FFFFFF"/>
</g>
<g id="Fill 4" opacity="0.5">
<use xlink:href="#path2_fill" transform="translate(635.16 974.2)" fill="#FFFFFF"/>
</g>
<g id="Fill 5" opacity="0.3">
<use xlink:href="#path2_fill" transform="translate(635.16 982.52)" fill="#FFFFFF"/>
</g>
<g id="Fill 6" opacity="0.7">
<use xlink:href="#path2_fill" transform="translate(635.16 990.84)" fill="#FFFFFF"/>
</g>
<g id="Fill 7">
<use xlink:href="#path2_fill" transform="translate(626.84 974.2)" fill="#FFFFFF"/>
</g>
<g id="Fill 8" opacity="0.3">
<use xlink:href="#path2_fill" transform="translate(626.84 990.84)" fill="#FFFFFF"/>
</g>
<g id="Fill 9" opacity="0.89">
<use xlink:href="#path3_fill" transform="translate(626.84 1007.48)" fill="#FFFFFF"/>
</g>
<g id="Fill 10" opacity="0.89">
<use xlink:href="#path2_fill" transform="translate(618.52 982.52)" fill="#FFFFFF"/>
</g>
<g id="Fill 11" opacity="0.5">
<use xlink:href="#path4_fill" transform="translate(618.52 990.84)" fill="#FFFFFF"/>
</g>
<g id="Fill 12" opacity="0.6">
<use xlink:href="#path2_fill" transform="translate(618.52 999.16)" fill="#FFFFFF"/>
</g>
<g id="Fill 13" opacity="0.5">
<use xlink:href="#path5_fill" transform="translate(610.2 974.201)" fill="#FFFFFF"/>
</g>
<g id="Fill 14" opacity="0.3">
<use xlink:href="#path6_fill" transform="translate(610.2 982.52)" fill="#FFFFFF"/>
</g>
<g id="Fill 15">
<use xlink:href="#path2_fill" transform="translate(610.2 999.16)" fill="#FFFFFF"/>
</g>
<g id="Fill 16" opacity="0.5">
<use xlink:href="#path2_fill" transform="translate(610.2 1007.48)" fill="#FFFFFF"/>
</g>
</g>
</g>
</g>
<defs>
<path id="path0_fill" fill-rule="evenodd" d="M 0 6.33725C 0 2.83729 2.83729 0 6.33725 0L 73.6627 0C 77.1627 0 80 2.83729 80 6.33725L 80 73.6627C 80 77.1627 77.1627 80 73.6627 80L 6.33725 80C 2.83729 80 0 77.1627 0 73.6627L 0 6.33725Z"/>
<path id="path1_fill" fill-rule="evenodd" d="M 0 8.32L 0 0L 8.32 0L 8.31914 8.32L 0 8.32Z"/>
<path id="path2_fill" fill-rule="evenodd" d="M 0 0L 8.32 0L 8.32 8.32L 0 8.32L 0 0Z"/>
<path id="path3_fill" fill-rule="evenodd" d="M 0 8.32L 0 0.000857511L 8.32 0L 8.32 8.32L 0 8.32Z"/>
<path id="path4_fill" fill-rule="evenodd" d="M 0 8.32L 0.00171467 0L 8.32 0L 8.32 8.32L 0 8.32Z"/>
<path id="path5_fill" fill-rule="evenodd" d="M 0.000857467 8.32L 0 0L 8.31828 0L 8.32 8.32L 0.000857467 8.32Z"/>
<path id="path6_fill" fill-rule="evenodd" d="M 0 8.32L 0.000857467 0L 8.32 0L 8.32 8.32L 0 8.32Z"/>
</defs>
</svg>
