<svg xmlns="http://www.w3.org/2000/svg" width="166" height="26" fill="none"><path fill="#003A69" d="M38.65 20.8h-1.98c-.22 0-.3-.12-.3-.34V5.51c0-.22.08-.34.3-.34h2.38c.18 0 .28.1.34.24l2.66 4.96a94 94 0 0 1 1.86 3.82h.1a50.7 50.7 0 0 1 1.86-3.82l2.62-4.96c.1-.15.22-.24.37-.24h2.35c.22 0 .34.12.34.34v14.95c0 .22-.12.34-.34.34H49.2c-.22 0-.31-.12-.31-.34v-4.4c0-1.71.06-4 .18-6.85l-.06-.03c-.43.95-1.1 2.3-1.95 4.03l-1.93 3.74a.37.37 0 0 1-.36.24h-1.65a.38.38 0 0 1-.37-.24l-1.93-3.74a99.54 99.54 0 0 1-1.95-4.03l-.06.03c.12 2.84.18 5.14.18 6.85v4.4c0 .22-.12.34-.34.34zm25-4.16c0 1.35-.46 2.42-1.35 3.21-.88.8-2.1 1.2-3.6 1.2s-2.72-.4-3.6-1.2a4.11 4.11 0 0 1-1.35-3.21v-2.9c0-1.38.46-2.45 1.34-3.28a5.1 5.1 0 0 1 3.6-1.22c1.5 0 2.73.4 3.61 1.22.89.83 1.35 1.9 1.35 3.27v2.91zm-7.4 0c0 1.44.8 2.14 2.42 2.14.8 0 1.37-.18 1.8-.55.43-.37.61-.89.61-1.59v-2.9c0-.71-.21-1.26-.64-1.66-.43-.4-1-.58-1.77-.58-.8 0-1.38.18-1.8.58-.43.37-.62.92-.62 1.65v2.91zm10.67 7.06h-1.77c-.22 0-.3-.09-.3-.3v-4.53c0-.21.08-.3.3-.3h.49c.48-.34.85-1.1 1.1-2.27.27-1.19.51-3.33.76-6.48.03-.22.15-.3.34-.3h7.24c.21 0 .33.08.33.3v8.75h1.1c.22 0 .34.12.34.33v4.53c0 .21-.12.3-.34.3h-1.77c-.21 0-.34-.09-.34-.3V20.8h-7.15v2.6c0 .21-.12.3-.33.3zm2.93-11.98c-.3 3.6-.8 5.87-1.5 6.85h4.53v-6.85h-3.03zm15.59 6.02V9.8c0-.22.12-.3.33-.3h1.87c.21 0 .33.08.33.3v10.28c0 3.4-1.62 5.07-4.86 5.07a6.47 6.47 0 0 1-4.27-1.37c-.16-.13-.19-.28-.07-.43l.95-1.32c.12-.18.25-.21.43-.12a5.2 5.2 0 0 0 2.96 1.01c.83 0 1.44-.21 1.84-.64.4-.43.58-1.16.55-2.2-.86.27-1.62.4-2.33.4-1.25 0-2.32-.4-3.26-1.17a4.06 4.06 0 0 1-1.41-3.27V9.79c0-.22.12-.3.34-.3h1.89c.21 0 .3.08.3.3v6.12c0 .8.25 1.34.7 1.7.47.38 1.08.56 1.78.56s1.35-.15 1.93-.43zm8.46-.67c-.28 1.37-.7 2.35-1.25 2.9-.58.55-1.47.86-2.7.92-.2 0-.3-.12-.3-.34v-1.59c0-.18.1-.3.3-.33.44-.03.77-.22.99-.52.24-.3.42-.89.6-1.71.25-1.44.43-3.64.56-6.58.03-.22.15-.3.33-.3h7.4c.21 0 .33.08.33.3v10.64c0 .22-.12.34-.33.34h-1.87c-.21 0-.33-.12-.33-.34v-8.74h-3.21a40.2 40.2 0 0 1-.52 5.35zm13.26 3.7h-4.5c-.2 0-.33-.12-.33-.34V9.8c0-.22.13-.3.34-.3h1.86c.22 0 .34.08.34.3v3.36h2.32c1.35 0 2.42.34 3.24 1.01a3.45 3.45 0 0 1 1.22 2.85c0 1.28-.4 2.23-1.19 2.84-.82.61-1.9.92-3.3.92zm-2.32-5.54v3.46h1.86c1.56 0 2.36-.58 2.36-1.71 0-.58-.19-1.04-.59-1.32-.4-.27-.97-.43-1.77-.43h-1.86zm10.02 5.54h-.85c-.13 0-.19-.06-.19-.18V5.32c0-.12.06-.18.19-.18h.85c.12 0 .19.06.19.18v8.02l7.88-8.08c.09-.1.15-.12.24-.12h1.1c.06 0 .13.03.16.06s0 .1-.03.15l-6.67 6.82 7.06 8.35c.1.13 0 .22-.12.22h-1.1c-.12 0-.15-.03-.21-.12L116.9 13l-1.86 1.87v5.69c-.04.15-.1.2-.19.2zm11.58-10.34a6.72 6.72 0 0 1 4-1.13 4.3 4.3 0 0 1 3.1 1.07c.73.7 1.06 1.74 1.06 3.06v6.64c0 .09-.06.18-.15.21-1.28.49-2.63.73-4.07.73a5.5 5.5 0 0 1-3.26-.91 3.05 3.05 0 0 1-1.29-2.63 3 3 0 0 1 1.22-2.57 5.48 5.48 0 0 1 3.37-.9c.76 0 1.8.13 3.05.35v-.95c0-2.05-1-3.1-3.05-3.1a6.3 6.3 0 0 0-3.34.9c-.09.06-.15.06-.24-.04l-.37-.58c-.09-.03-.09-.12-.03-.15zm.55 7.04c0 .76.3 1.37.95 1.83.61.46 1.44.67 2.48.67 1 0 2.04-.18 3.05-.52V15.4c-1-.22-2.02-.34-3.05-.34-2.3 0-3.43.83-3.43 2.42zm18.15 2.23a6.15 6.15 0 0 1-3.85 1.34 4.6 4.6 0 0 1-3.27-1.16 3.99 3.99 0 0 1-1.22-2.96v-3.5c0-1.18.4-2.16 1.22-2.96.8-.76 1.9-1.16 3.27-1.16a6 6 0 0 1 3.52 1.13c.09.1.12.18.06.28l-.37.58c-.09.09-.18.09-.27.03a5.23 5.23 0 0 0-2.94-.95c-1.04 0-1.83.27-2.44.86a3 3 0 0 0-.89 2.2v3.49c0 .91.3 1.65.89 2.2.58.58 1.4.85 2.44.85 1.13 0 2.2-.36 3.24-1.1.1-.09.19-.09.28.03l.36.55c.06.1.06.19-.03.25zm10.09 0a6.15 6.15 0 0 1-3.85 1.34 4.6 4.6 0 0 1-3.27-1.16 3.99 3.99 0 0 1-1.22-2.96v-3.5c0-1.18.4-2.16 1.22-2.96.8-.76 1.9-1.16 3.27-1.16a6 6 0 0 1 3.51 1.13c.1.1.12.18.06.28l-.36.58c-.1.09-.19.09-.28.03a5.23 5.23 0 0 0-2.93-.95c-1.04 0-1.84.27-2.45.86a3 3 0 0 0-.88 2.2v3.49c0 .91.3 1.65.88 2.2.58.58 1.4.85 2.45.85 1.13 0 2.2-.36 3.24-1.1.09-.09.18-.09.27.03l.37.55a.2.2 0 0 1-.03.25zm2.04-9.27a6.72 6.72 0 0 1 4-1.13 4.3 4.3 0 0 1 3.1 1.07c.73.7 1.06 1.74 1.06 3.06v6.64c0 .09-.06.18-.15.21-1.28.49-2.63.73-4.06.73a5.5 5.5 0 0 1-3.27-.91 3.05 3.05 0 0 1-1.29-2.63 3 3 0 0 1 1.23-2.57 5.48 5.48 0 0 1 3.36-.9c.76 0 1.8.13 3.05.35v-.95c0-2.05-1-3.1-3.05-3.1a6.3 6.3 0 0 0-3.33.9c-.1.06-.16.06-.25-.04l-.37-.58c-.09-.03-.09-.12-.03-.15zm.55 7.04c0 .76.31 1.37.95 1.83.61.46 1.44.67 2.48.67 1 0 2.04-.18 3.05-.52V15.4c-1-.22-2.01-.34-3.05-.34-2.3 0-3.43.83-3.43 2.42z"/><path fill="#DCDE4A" d="M5.2 5.2H0v5.2h5.2V5.2zm10.38 5.2h-5.2v5.2h5.2v-5.2zm5.2 5.2h-5.2v5.2h5.2v-5.2z"/><path fill="#C3CE00" d="M20.78 5.2h-5.2v5.2h5.2V5.2zm5.19 15.6h-5.2V26h5.2v-5.2zm-15.58-5.2h-5.2v5.2h5.2v-5.2z"/><path fill="#BDC800" d="M15.58 0h-5.2v5.2h5.2V0zM5.2 15.6H0v5.2h5.2v-5.2z"/><path fill="#D3D800" d="M10.39 5.2h-5.2v5.2h5.2V5.2zm5.19 15.6h-5.2V26h5.2v-5.2zM25.97 5.2h-5.2v5.2h5.2V5.2z"/><path fill="#E6E466" d="M5.2 0H0v5.2h5.2V0zm5.19 10.4h-5.2v5.2h5.2v-5.2zM5.2 20.8H0V26h5.2v-5.2zM20.78 0h-5.2v5.2h5.2V0zm5.19 10.4h-5.2v5.2h5.2v-5.2z"/></svg>
