<svg version="1.1" id="Layer_1" xmlns="http://www.w3.org/2000/svg" xmlns:xlink="http://www.w3.org/1999/xlink" x="0" y="0" viewBox="0 0 97 15" xml:space="preserve" enable-background="new 0 0 97 15"><style type="text/css">.st0{fill:#ff5f00}.st1{fill:#eb001b}.st2{fill:#f79e1b}.st3{fill:#00579f}.st4{fill:#fff}</style><path id="path0_fill" class="st0" d="M9.1,1.6h6.8v11.8H9.1V1.6z"/><path id="path1_fill" class="st1" d="M9.5,7.5c0-2.4,1.2-4.5,2.9-5.9c-1.3-1-3-1.6-4.8-1.6C3.5,0,0,3.4,0,7.5C0,11.6,3.5,15,7.7,15	c1.8,0,3.5-0.6,4.8-1.6C10.7,12,9.5,9.9,9.5,7.5z"/><path id="path2_fill" class="st2" d="M25,7.5c0,4.1-3.5,7.5-7.7,7.5c-1.8,0-3.5-0.6-4.8-1.6c1.8-1.4,2.9-3.5,2.9-5.9	S14.3,3,12.5,1.6c1.3-1,3-1.6,4.8-1.6C21.5,0,25,3.4,25,7.5z"/><path class="st3" d="M42.5,5.2l-1.6,9.7h2.5L45,5.2H42.5z M50.1,9.1c-0.9-0.4-1.4-0.7-1.4-1.2c0-0.4,0.5-0.8,1.4-0.8	c0.8,0,1.4,0.2,1.9,0.4l0.2,0.1l0.3-2.1C52,5.2,51.3,5,50.3,5c-2.5,0-4.2,1.3-4.2,3.2c0,1.4,1.3,2.2,2.2,2.6c1,0.5,1.3,0.8,1.3,1.2	c0,0.6-0.8,0.9-1.5,0.9c-1,0-1.5-0.2-2.4-0.5l-0.3-0.2L45,14.5c0.6,0.3,1.7,0.5,2.8,0.5c2.6,0,4.4-1.3,4.4-3.3	C52.2,10.6,51.5,9.7,50.1,9.1z M59,5.2H57c-0.6,0-1.1,0.2-1.3,0.8L52,14.9h2.6c0,0,0.4-1.2,0.5-1.5h3.2c0.1,0.3,0.3,1.5,0.3,1.5H61	L59,5.2z M55.9,11.4c0.2-0.6,1-2.7,1-2.7c0,0,0.2-0.6,0.3-0.9l0.2,0.8c0,0,0.5,2.3,0.6,2.8H55.9z M38.8,5.2l-2.5,6.6l-0.3-1.3	c0,0,0-0.1,0-0.1c0,0,0,0.1,0,0.1L35.2,6c-0.1-0.6-0.6-0.8-1.1-0.8h-4l0,0.2c1,0.3,1.9,0.6,2.6,1.1l2.2,8.4h2.7l3.9-9.7H38.8z"/><path class="st4" d="M78.5,5.2l-1.6,9.7h2.5L81,5.2H78.5z M86.1,9.1c-0.9-0.4-1.4-0.7-1.4-1.2c0-0.4,0.5-0.8,1.4-0.8	c0.8,0,1.4,0.2,1.9,0.4l0.2,0.1l0.3-2.1C88,5.2,87.3,5,86.3,5c-2.5,0-4.2,1.3-4.2,3.2c0,1.4,1.3,2.2,2.2,2.6c1,0.5,1.3,0.8,1.3,1.2	c0,0.6-0.8,0.9-1.5,0.9c-1,0-1.5-0.2-2.4-0.5l-0.3-0.2L81,14.5c0.6,0.3,1.7,0.5,2.8,0.5c2.6,0,4.4-1.3,4.4-3.3	C88.2,10.6,87.5,9.7,86.1,9.1z M95,5.2H93c-0.6,0-1.1,0.2-1.3,0.8L88,14.9h2.6c0,0,0.4-1.2,0.5-1.5h3.2c0.1,0.3,0.3,1.5,0.3,1.5H97	L95,5.2z M91.9,11.4c0.2-0.6,1-2.7,1-2.7c0,0,0.2-0.6,0.3-0.9l0.2,0.8c0,0,0.5,2.3,0.6,2.8H91.9z M74.8,5.2l-2.5,6.6l-0.3-1.3	c0,0,0-0.1,0-0.1c0,0,0,0.1,0,0.1L71.2,6c-0.1-0.6-0.6-0.8-1.1-0.8h-4l0,0.2c1,0.3,1.9,0.6,2.6,1.1l2.2,8.4h2.7l3.9-9.7H74.8z"/></svg>