<svg width="48" height="48" viewBox="0 0 48 48" version="1.1" xmlns="http://www.w3.org/2000/svg" xmlns:xlink="http://www.w3.org/1999/xlink">
<title>Group</title>
<desc>Created using Figma</desc>
<g id="Canvas" transform="translate(-5376 -1417)">
<g id="Group" opacity="0.56">
<g id="Vector">
<use xlink:href="#path0_fill" transform="translate(5399.17 1428.59)" fill="#FFFFFF"/>
</g>
<g id="Vector">
<use xlink:href="#path1_fill" transform="translate(5376 1417)" fill="#FFFFFF"/>
</g>
<g id="Vector">
<use xlink:href="#path2_fill" transform="translate(5386.76 1436.86)" fill="#FFFFFF"/>
</g>
<g id="Vector">
<use xlink:href="#path3_fill" transform="translate(5387.71 1428.71)" fill="#FFFFFF"/>
</g>
<g id="Vector">
<use xlink:href="#path4_fill" transform="translate(5384.88 1432.4)" fill="#FFFFFF"/>
</g>
<g id="Vector">
<use xlink:href="#path5_fill" transform="translate(5395.69 1424.1)" fill="#FFFFFF"/>
</g>
<g id="Vector">
<use xlink:href="#path6_fill" transform="translate(5391.4 1425.88)" fill="#FFFFFF"/>
</g>
<g id="Vector">
<use xlink:href="#path7_fill" transform="translate(5380.97 1421.97)" fill="#FFFFFF"/>
</g>
</g>
</g>
<defs>
<path id="path0_fill" d="M 0.827586 4.96552C 1.28441 4.96552 1.65517 4.59476 1.65517 4.13793L 1.65517 0.827586C 1.65517 0.370759 1.28441 0 0.827586 0C 0.370759 0 0 0.370759 0 0.827586L 0 4.13793C 0 4.59476 0.370759 4.96552 0.827586 4.96552Z"/>
<path id="path1_fill" d="M 40.9705 7.02952C 36.4378 2.49683 30.4105 0 24 0C 17.5895 0 11.5622 2.49683 7.02952 7.02952C 2.49683 11.5622 0 17.5895 0 24C 0 30.4105 2.49683 36.4378 7.02952 40.9705C 11.5622 45.5032 17.5895 48 24 48C 30.4105 48 36.4378 45.5032 40.9705 40.9705C 45.5032 36.4378 48 30.4105 48 24C 48 17.5895 45.5032 11.5622 40.9705 7.02952ZM 39.8003 39.8003C 35.5796 44.0201 29.9686 46.3448 24 46.3448C 18.0314 46.3448 12.4204 44.0201 8.19972 39.8003C 3.97903 35.5804 1.65517 29.9686 1.65517 24C 1.65517 18.0314 3.97986 12.4204 8.19972 8.19972C 12.4196 3.97903 18.0314 1.65517 24 1.65517C 29.9686 1.65517 35.5796 3.97986 39.8003 8.19972C 44.021 12.4196 46.3448 18.0314 46.3448 24C 46.3448 29.9686 44.0201 35.5796 39.8003 39.8003Z"/>
<path id="path2_fill" d="M 0.0280616 0.614558C -0.0894557 1.05649 0.172889 1.51001 0.613992 1.62752L 10.7784 4.33787C 10.8827 5.61235 11.9403 6.62118 13.2413 6.62118C 14.6101 6.62118 15.7241 5.50725 15.7241 4.13842C 15.7241 2.76959 14.6101 1.65566 13.2413 1.65566C 12.3922 1.65566 11.6432 2.08435 11.1955 2.73649L 1.04103 0.0286267C 0.59744 -0.0905457 0.144751 0.173454 0.0280616 0.614558ZM 14.0573 4.08214C 14.059 4.10201 14.0689 4.11856 14.0689 4.13842C 14.0689 4.17566 14.0523 4.20711 14.0474 4.24352C 14.0548 4.1889 14.0614 4.13511 14.0573 4.08214Z"/>
<path id="path3_fill" d="M 1.4129 2.5831C 1.57428 2.74448 1.78614 2.82559 1.998 2.82559C 2.20986 2.82559 2.42172 2.74448 2.5831 2.5831C 2.90669 2.25952 2.90669 1.73648 2.5831 1.4129L 1.4129 0.24269C 1.08931 -0.0808964 0.566276 -0.0808964 0.24269 0.24269C -0.0808964 0.566276 -0.0808964 1.08931 0.24269 1.4129L 1.4129 2.5831Z"/>
<path id="path4_fill" d="M 0.413991 1.54466L 1.84737 2.37225C 1.9773 2.44756 2.12047 2.48314 2.26034 2.48314C 2.54668 2.48314 2.82475 2.33501 2.97785 2.06935C 3.20627 1.67376 3.07054 1.16728 2.67496 0.938869L 1.24158 0.111282C 0.845164 -0.117959 0.339508 0.0185921 0.111095 0.414178C -0.117319 0.809764 0.0175774 1.31542 0.413991 1.54466Z"/>
<path id="path5_fill" d="M 0.457919 2.64138C 0.557229 3.01131 0.890747 3.25544 1.25654 3.25544C 1.32688 3.25544 1.39889 3.24634 1.47089 3.22648C 1.91199 3.10813 2.17433 2.65462 2.05599 2.21268L 1.6273 0.613788C 1.50895 0.172685 1.05626 -0.0904875 0.613505 0.0286849C 0.172401 0.14703 -0.0899426 0.600547 0.0284023 1.04248L 0.457919 2.64138Z"/>
<path id="path6_fill" d="M 0.93868 2.67569C 1.09261 2.94135 1.36985 3.08948 1.6562 3.08948C 1.79606 3.08948 1.93923 3.0539 2.06916 2.97859C 2.46558 2.75018 2.60047 2.24369 2.37206 1.84811L 1.54447 0.414727C 1.31523 0.018313 0.809578 -0.118239 0.413992 0.11183C 0.0175778 0.340244 -0.11732 0.846727 0.111094 1.24231L 0.93868 2.67569Z"/>
<path id="path7_fill" d="M 32.487 5.57545C 28.8919 1.98041 24.1126 0 19.0279 0C 18.5711 0 18.2003 0.370759 18.2003 0.827586L 18.2003 4.13793C 18.2003 4.59476 18.5711 4.96552 19.0279 4.96552C 19.4847 4.96552 19.8555 4.59476 19.8555 4.13793L 19.8555 1.69572C 24.1854 1.89848 28.2307 3.65959 31.3167 6.74565C 34.599 10.0279 36.4072 14.3926 36.4072 19.0345C 36.4072 23.6764 34.599 28.0411 31.3167 31.3233C 28.0345 34.6055 23.6698 36.4138 19.0279 36.4138C 14.386 36.4138 10.0213 34.6055 6.73909 31.3233C 2.60281 27.1879 0.832606 21.1895 2.01274 15.4874L 3.48999 15.9418C 3.92612 16.0742 4.38957 15.8301 4.52447 15.3939C 4.65854 14.957 4.41357 14.4943 3.97661 14.3594L 1.65192 13.6452C 1.43509 13.579 1.20254 13.603 1.00557 13.7139C 0.808606 13.824 0.664607 14.0094 0.608331 14.2287C -1.08491 20.7426 0.816055 27.7415 5.56971 32.4943C 9.16392 36.0886 13.9432 38.069 19.0279 38.069C 24.1126 38.069 28.8919 36.0886 32.487 32.4935C 36.082 28.8985 38.0624 24.1192 38.0624 19.0345C 38.0624 13.9498 36.082 9.17048 32.487 5.57545Z"/>
</defs>
</svg>
