<svg width="24" height="24" fill="none" xmlns="http://www.w3.org/2000/svg"><path d="M12 16.2a4.2 4.2 0 110-8.4 4.2 4.2 0 010 8.4zm0-6a1.8 1.8 0 100 3.6 1.8 1.8 0 000-3.6zm2.13 12.6H9.87a1.2 1.2 0 01-1.18-.96l-.33-1.61a8.89 8.89 0 01-1.77-1.05l-1.68.56a1.2 1.2 0 01-1.4-.53l-2.14-3.6a1.2 1.2 0 01.25-1.52l1.43-1.22a8.28 8.28 0 010-1.74L1.62 9.91a1.2 1.2 0 01-.25-1.52l2.13-3.6a1.2 1.2 0 011.4-.53l1.69.56a8.89 8.89 0 011.77-1.05l.33-1.61a1.2 1.2 0 011.18-.96h4.26a1.2 1.2 0 011.18.96l.33 1.61a8.9 8.9 0 011.77 1.04l1.68-.55a1.2 1.2 0 011.4.53l2.14 3.6a1.2 1.2 0 01-.25 1.52l-1.43 1.22c.06.58.06 1.16 0 1.74l1.43 1.22a1.2 1.2 0 01.25 1.52l-2.13 3.6a1.2 1.2 0 01-1.41.53l-1.68-.56c-.55.42-1.14.77-1.77 1.04l-.33 1.62a1.2 1.2 0 01-1.18.96zm-3.28-2.4h2.3l.27-1.29a1.2 1.2 0 01.77-.9c.8-.27 1.54-.7 2.17-1.27a1.2 1.2 0 011.18-.24l1.39.46 1.12-1.9-1.16-1a1.2 1.2 0 01-.4-1.11 6.2 6.2 0 000-2.3 1.2 1.2 0 01.4-1.12l1.16-.99-1.12-1.9-1.4.46a1.2 1.2 0 01-1.17-.24c-.63-.57-1.37-1-2.17-1.28a1.2 1.2 0 01-.77-.9l-.27-1.28h-2.3l-.27 1.29a1.2 1.2 0 01-.77.9c-.8.27-1.54.7-2.17 1.27a1.2 1.2 0 01-1.18.24l-1.39-.46-1.12 1.9 1.15 1a1.2 1.2 0 01.4 1.11 6.2 6.2 0 000 2.3 1.2 1.2 0 01-.4 1.11l-1.15 1 1.12 1.9 1.4-.46a1.2 1.2 0 011.17.24c.63.56 1.37 1 2.17 1.28a1.2 1.2 0 01.77.9l.27 1.28z" fill="#222733"/></svg>